0
SECTION
2
HEADER
9
$INSUNITS
70
4
9
$ACADVER
1
AC1014
9
$HANDSEED
5
FFFF
0
ENDSEC
0
SECTION
2
TABLES
0
TABLE
2
VPORT
5
8
100
AcDbSymbolTable
0
ENDTAB
0
TABLE
2
LTYPE
5
5
100
AcDbSymbolTable
0
LTYPE
5
14
100
AcDbSymbolTableRecord
100
AcDbLinetypeTableRecord
2
BYBLOCK
70
0
0
LTYPE
5
15
100
AcDbSymbolTableRecord
100
AcDbLinetypeTableRecord
2
BYLAYER
70
0
0
ENDTAB
0
TABLE
2
LAYER
5
2
100
AcDbSymbolTable
70
2
0
LAYER
5
50
100
AcDbSymbolTableRecord
100
AcDbLayerTableRecord
2
0
70
0
6
CONTINUOUS
0
ENDTAB
0
TABLE
2
STYLE
5
3
100
AcDbSymbolTable
70
1
0
STYLE
5
11
100
AcDbSymbolTableRecord
100
AcDbTextStyleTableRecord
2
STANDARD
70
0
0
ENDTAB
0
TABLE
2
VIEW
5
6
100
AcDbSymbolTable
70
0
0
ENDTAB
0
TABLE
2
UCS
5
7
100
AcDbSymbolTable
70
0
0
ENDTAB
0
TABLE
2
APPID
5
9
100
AcDbSymbolTable
70
2
0
APPID
5
12
100
AcDbSymbolTableRecord
100
AcDbRegAppTableRecord
2
ACAD
70
0
0
ENDTAB
0
TABLE
2
DIMSTYLE
5
A
100
AcDbSymbolTable
70
1
0
ENDTAB
0
TABLE
2
BLOCK_RECORD
5
1
100
AcDbSymbolTable
70
1
0
BLOCK_RECORD
5
1F
100
AcDbSymbolTableRecord
100
AcDbBlockTableRecord
2
*MODEL_SPACE
0
BLOCK_RECORD
5
1B
100
AcDbSymbolTableRecord
100
AcDbBlockTableRecord
2
*PAPER_SPACE
0
ENDTAB
0
ENDSEC
0
SECTION
2
BLOCKS
0
BLOCK
5
20
100
AcDbEntity
100
AcDbBlockBegin
2
*MODEL_SPACE
0
ENDBLK
5
21
100
AcDbEntity
100
AcDbBlockEnd
0
BLOCK
5
1C
100
AcDbEntity
100
AcDbBlockBegin
2
*PAPER_SPACE
0
ENDBLK
5
1D
100
AcDbEntity
100
AcDbBlockEnd
0
ENDSEC
0
SECTION
2
ENTITIES
0
LWPOLYLINE
5
100
100
AcDbEntity
8
0
100
AcDbPolyline
90
12
70
1
43
0.0
10
99.759999999999991
20
-112.00623381592649
10
99.760000000000005
20
-15.570000000000013
42
0.4142135623730952
10
84.760000000000005
20
-0.57000000000000506
10
-48.570000000000029
20
-0.5700000000000216
42
0.41421356237309503
10
-63.570000000000029
20
-15.570000000000022
10
-63.570000000000022
20
-102.47623381592632
42
0.19891236737965792
10
-59.176601717798235
20
-113.08283553372453
10
-42.60283553372463
20
-129.6566017177982
42
0.19891236737965814
10
-31.996233815926409
20
-134.04999999999998
10
77.716233815926444
20
-134.05000000000001
42
0.19891236737965801
10
88.322835533724657
20
-129.65660171779825
10
95.366601717798218
20
-122.61283553372468
42
0.19891236737965751
0
CIRCLE
5
101
100
AcDbEntity
8
0
100
AcDbCircle
10
88.900000000000006
20
-146.05000000000001
30
0
40
1.5000000000000036
0
CIRCLE
5
102
100
AcDbEntity
8
0
100
AcDbCircle
10
-115.56999999999994
20
135.88999999999999
30
0
40
1.5000000000000036
0
CIRCLE
5
103
100
AcDbEntity
8
0
100
AcDbCircle
10
-43.179999999999993
20
135.88999999999999
30
0
40
1.5000000000000036
0
CIRCLE
5
104
100
AcDbEntity
8
0
100
AcDbCircle
10
111.76000000000001
20
11.429999999999989
30
0
40
1.5000000000000036
0
CIRCLE
5
105
100
AcDbEntity
8
0
100
AcDbCircle
10
-43.179999999999993
20
-146.04999999999995
30
0
40
1.4999999999999947
0
CIRCLE
5
106
100
AcDbEntity
8
0
100
AcDbCircle
10
-115.56999999999999
20
11.429999999999971
30
0
40
1.5000000000000036
0
CIRCLE
5
107
100
AcDbEntity
8
0
100
AcDbCircle
10
111.76000000000001
20
135.88999999999999
30
0
40
1.5000000000000036
0
CIRCLE
5
108
100
AcDbEntity
8
0
100
AcDbCircle
10
-43.179999999999978
20
11.429999999999971
30
0
40
1.5000000000000036
0
CIRCLE
5
109
100
AcDbEntity
8
0
100
AcDbCircle
10
-115.56999999999996
20
-146.04999999999995
30
0
40
1.5000000000000036
0
LWPOLYLINE
5
110
100
AcDbEntity
8
0
100
AcDbPolyline
90
8
70
1
43
0.0
10
121.92
20
-150.40000000000003
42
-0.41421356237308982
10
119.92000000000002
20
-152.39999999999998
10
-119.92000000000004
20
-152.39999999999998
42
-0.41421356237308982
10
-121.92
20
-150.39999999999998
10
-121.92
20
150.40000000000003
42
-0.41421356237308982
10
-119.92000000000002
20
152.39999999999998
10
119.92000000000004
20
152.39999999999998
42
-0.41421356237308982
10
121.92
20
150.39999999999998
0
LINE
5
111
100
AcDbEntity
8
0
100
AcDbLine
10
-5.9997361310399722
20
13.445999999139723
30
0
11
-6.6309741440199677
21
13.445999999139723
31
0
0
LINE
5
112
100
AcDbEntity
8
0
100
AcDbLine
10
-6.8730258559699653
20
13.445999999139723
30
0
11
-7.7519999999999722
21
13.445999999139723
31
0
0
LINE
5
113
100
AcDbEntity
8
0
100
AcDbLine
10
6.9480002459000367
20
14.095999999139721
30
0
11
6.9480002459000367
21
13.545999999139722
31
0
0
LINE
5
114
100
AcDbEntity
8
0
100
AcDbLine
10
6.9480002459000367
20
14.095999999139721
30
0
11
9.5480002459000257
21
14.095999999139721
31
0
0
LINE
5
115
100
AcDbEntity
8
0
100
AcDbLine
10
9.5480002459000257
20
14.095999999139721
30
0
11
9.5480002459000257
21
13.545999999139722
31
0
0
LINE
5
116
100
AcDbEntity
8
0
100
AcDbLine
10
26.948000168600039
20
14.095999999139719
30
0
11
26.948000168600039
21
13.54599999913972
31
0
0
LINE
5
117
100
AcDbEntity
8
0
100
AcDbLine
10
26.948000168600039
20
14.095999999139719
30
0
11
29.548000168600034
21
14.095999999139719
31
0
0
LINE
5
118
100
AcDbEntity
8
0
100
AcDbLine
10
29.548000168600034
20
14.095999999139719
30
0
11
29.548000168600037
21
13.545999999139722
31
0
0
LINE
5
119
100
AcDbEntity
8
0
100
AcDbLine
10
37.000263919260036
20
13.445999999139717
30
0
11
31.000263919260036
21
13.445999999139719
31
0
0
LINE
5
120
100
AcDbEntity
8
0
100
AcDbLine
10
49.948000168600039
20
14.095999999139718
30
0
11
49.948000168600039
21
13.54599999913972
31
0
0
LINE
5
121
100
AcDbEntity
8
0
100
AcDbLine
10
49.948000168600039
20
14.095999999139718
30
0
11
52.548000168600034
21
14.095999999139718
31
0
0
LINE
5
122
100
AcDbEntity
8
0
100
AcDbLine
10
52.548000168600034
20
14.095999999139718
30
0
11
52.548000168600034
21
13.54599999913972
31
0
0
LINE
5
123
100
AcDbEntity
8
0
100
AcDbLine
10
69.948000296195033
20
14.095999999139718
30
0
11
69.948000296195033
21
13.545999999139717
31
0
0
LINE
5
124
100
AcDbEntity
8
0
100
AcDbLine
10
69.948000296195033
20
14.095999999139718
30
0
11
72.548000296195042
21
14.095999999139718
31
0
0
LINE
5
125
100
AcDbEntity
8
0
100
AcDbLine
10
72.548000296195042
20
14.095999999139718
30
0
11
72.548000296195042
21
13.545999999139717
31
0
0
LINE
5
126
100
AcDbEntity
8
0
100
AcDbLine
10
76.748000000003046
20
13.445999999139717
30
0
11
75.369025855979018
21
13.445999999139717
31
0
0
LINE
5
127
100
AcDbEntity
8
0
100
AcDbLine
10
75.126974144027031
20
13.445999999139717
30
0
11
74.000263969555036
21
13.445999999139717
31
0
0
LINE
5
128
100
AcDbEntity
8
0
100
AcDbLine
10
79.248000000000033
20
7.9209999991187168
30
0
11
79.248000000000033
21
12.270999999252716
31
0
0
LINE
5
129
100
AcDbEntity
8
0
100
AcDbLine
10
74.000263969555036
20
6.7459999991397162
30
0
11
76.748000000003046
21
6.7459999991397162
31
0
0
LINE
5
130
100
AcDbEntity
8
0
100
AcDbLine
10
72.548000296195042
20
6.0959999991397158
30
0
11
72.548000296195042
21
6.6459999991397156
31
0
0
LINE
5
131
100
AcDbEntity
8
0
100
AcDbLine
10
69.948000296195033
20
6.0959999991397158
30
0
11
72.548000296195042
21
6.0959999991397158
31
0
0
LINE
5
132
100
AcDbEntity
8
0
100
AcDbLine
10
69.948000296195033
20
6.0959999991397158
30
0
11
69.948000296195033
21
6.6459999991397156
31
0
0
LINE
5
133
100
AcDbEntity
8
0
100
AcDbLine
10
52.548000168600034
20
6.0959999991397176
30
0
11
52.548000168600034
21
6.6459999991397183
31
0
0
LINE
5
134
100
AcDbEntity
8
0
100
AcDbLine
10
49.948000168600039
20
6.0959999991397176
30
0
11
52.548000168600034
21
6.0959999991397176
31
0
0
LINE
5
135
100
AcDbEntity
8
0
100
AcDbLine
10
49.948000168600039
20
6.0959999991397176
30
0
11
49.948000168600039
21
6.6459999991397183
31
0
0
LINE
5
136
100
AcDbEntity
8
0
100
AcDbLine
10
37.000263919260036
20
6.7459999991397179
30
0
11
31.000263919260036
21
6.7459999991397179
31
0
0
LINE
5
137
100
AcDbEntity
8
0
100
AcDbLine
10
29.548000168600037
20
6.0959999991397185
30
0
11
29.548000168600037
21
6.6459999991397183
31
0
0
LINE
5
138
100
AcDbEntity
8
0
100
AcDbLine
10
26.948000168600039
20
6.0959999991397185
30
0
11
29.548000168600037
21
6.0959999991397185
31
0
0
LINE
5
139
100
AcDbEntity
8
0
100
AcDbLine
10
26.948000168600039
20
6.0959999991397185
30
0
11
26.948000168600039
21
6.6459999991397183
31
0
0
LINE
5
140
100
AcDbEntity
8
0
100
AcDbLine
10
9.5480002459000257
20
6.0959999991397193
30
0
11
9.5480002459000257
21
6.6459999991397192
31
0
0
LINE
5
141
100
AcDbEntity
8
0
100
AcDbLine
10
6.9480002459000367
20
6.0959999991397211
30
0
11
9.5480002459000257
21
6.0959999991397193
31
0
0
LINE
5
142
100
AcDbEntity
8
0
100
AcDbLine
10
6.9480002459000367
20
6.0959999991397211
30
0
11
6.9480002459000367
21
6.6459999991397192
31
0
0
LINE
5
143
100
AcDbEntity
8
0
100
AcDbLine
10
-5.9997361310399722
20
6.7459999991397215
30
0
11
-7.7519999999999722
21
6.7459999991397215
31
0
0
LINE
5
144
100
AcDbEntity
8
0
100
AcDbLine
10
76.748000000003046
20
15.200999999139718
30
0
11
76.748000000003046
21
13.445999999139717
31
0
0
LINE
5
145
100
AcDbEntity
8
0
100
AcDbLine
10
79.248000000000033
20
15.200999999139718
30
0
11
76.748000000003046
21
15.200999999139718
31
0
0
LINE
5
146
100
AcDbEntity
8
0
100
AcDbLine
10
79.248000000000033
20
12.770999999139717
30
0
11
79.248000000000033
21
15.200999999139718
31
0
0
LINE
5
147
100
AcDbEntity
8
0
100
AcDbLine
10
79.248000000000033
20
12.770999999139717
30
0
11
79.248000000000033
21
12.270999999252716
31
0
0
LINE
5
148
100
AcDbEntity
8
0
100
AcDbLine
10
79.248000000000033
20
7.420999999139716
30
0
11
79.248000000000033
21
6.095999999999866
31
0
0
LINE
5
149
100
AcDbEntity
8
0
100
AcDbLine
10
79.248000000000033
20
7.9209999991187168
30
0
11
79.248000000000033
21
7.420999999139716
31
0
0
LINE
5
150
100
AcDbEntity
8
0
100
AcDbLine
10
76.748000000003046
20
6.0959999991267155
30
0
11
79.248000000000033
21
6.095999999999866
31
0
0
LINE
5
151
100
AcDbEntity
8
0
100
AcDbLine
10
76.748000000003046
20
6.7459999991397162
30
0
11
76.748000000003046
21
6.1011545251251933
31
0
0
LINE
5
152
100
AcDbEntity
8
0
100
AcDbLine
10
76.748000000003046
20
6.1011306780913692
30
0
11
76.748000000003046
21
6.0959999991267155
31
0
0
LINE
5
153
100
AcDbEntity
8
0
100
AcDbLine
10
-17.585264900779965
20
6.1009999991397219
30
0
11
-11.251999999999969
21
6.100999999139721
31
0
0
LINE
5
154
100
AcDbEntity
8
0
100
AcDbLine
10
-11.251999999999969
20
6.100999999139721
30
0
11
-7.7519999999999722
21
6.100999999139721
31
0
0
LINE
5
155
100
AcDbEntity
8
0
100
AcDbLine
10
-25.977665650187724
20
3.2009999991397207
30
1.1102230246251565e-15
11
-26.191998368409962
21
3.2009999991397207
31
1.1102230246251565e-15
0
LINE
5
156
100
AcDbEntity
8
0
100
AcDbLine
10
-23.468951509071321
20
3.2009999991397207
30
1.1102230246251565e-15
11
-25.977665650187724
21
3.2009999991397207
31
1.1102230246251565e-15
0
LINE
5
157
100
AcDbEntity
8
0
100
AcDbLine
10
-23.298256179039978
20
3.2009999991397207
30
1.1102230246251565e-15
11
-23.468951509071321
21
3.2009999991397207
31
1.1102230246251565e-15
0
LINE
5
158
100
AcDbEntity
8
0
100
AcDbLine
10
-22.798261423049972
20
3.2009999991397207
30
1.1102230246251565e-15
11
-23.298256179039978
21
3.2009999991397207
31
1.1102230246251565e-15
0
LINE
5
159
100
AcDbEntity
8
0
100
AcDbLine
10
-17.88526490055996
20
3.2009999991397207
30
1.1102230246251565e-15
11
-22.798261423049972
21
3.2009999991397207
31
1.1102230246251565e-15
0
LINE
5
160
100
AcDbEntity
8
0
100
AcDbLine
10
-17.585264900779961
20
3.2009999991397207
30
1.1102230246251565e-15
11
-17.88526490055996
21
3.2009999991397207
31
1.1102230246251565e-15
0
LINE
5
161
100
AcDbEntity
8
0
100
AcDbLine
10
-25.041999999999966
20
11.401856206910022
30
0
11
-25.041999999999966
21
8.8459999991397211
31
0
0
LINE
5
162
100
AcDbEntity
8
0
100
AcDbLine
10
-11.251999999999969
20
15.200999988670723
30
0
11
-17.585264900779961
21
15.200999994939293
31
0
0
LINE
5
163
100
AcDbEntity
8
0
100
AcDbLine
10
-17.885264900779958
20
16.990999999139721
30
1.1102230246251565e-15
11
-17.585264900779961
21
16.990999999139721
31
1.1102230246251565e-15
0
LINE
5
164
100
AcDbEntity
8
0
100
AcDbLine
10
-22.798256179039981
20
16.990999999139721
30
1.1102230246251565e-15
11
-17.885264900779958
21
16.990999999139721
31
1.1102230246251565e-15
0
LINE
5
165
100
AcDbEntity
8
0
100
AcDbLine
10
-23.298256179039981
20
16.990999999139721
30
1.1102230246251565e-15
11
-22.798256179039981
21
16.990999999139721
31
1.1102230246251565e-15
0
LINE
5
166
100
AcDbEntity
8
0
100
AcDbLine
10
-23.468951509170523
20
16.990999999139721
30
1.1102230246251565e-15
11
-23.298256179039981
21
16.990999999139721
31
1.1102230246251565e-15
0
LINE
5
167
100
AcDbEntity
8
0
100
AcDbLine
10
-25.977665650229966
20
16.990999999139721
30
1.1102230246251565e-15
11
-23.468951509170523
21
16.990999999139721
31
1.1102230246251565e-15
0
LINE
5
168
100
AcDbEntity
8
0
100
AcDbLine
10
-26.191998368409962
20
16.990999999139721
30
1.1102230246251565e-15
11
-25.977665650229966
21
16.990999999139721
31
1.1102230246251565e-15
0
LINE
5
169
100
AcDbEntity
8
0
100
AcDbLine
10
-26.191998368409976
20
8.8459999991397211
30
1.1102230246251565e-15
11
-26.191998368409962
21
3.2009999991397207
31
1.1102230246251565e-15
0
LINE
5
170
100
AcDbEntity
8
0
100
AcDbLine
10
-26.191998368409976
20
8.8459999991397211
30
1.1102230246251565e-15
11
-25.97766565022075
21
8.8459999991397211
31
1.1102230246251565e-15
0
LINE
5
171
100
AcDbEntity
8
0
100
AcDbLine
10
-25.97766565022075
20
8.8459999991397211
30
1.1102230246251565e-15
11
-25.041999999999966
21
8.8459999991397211
31
0
0
LINE
5
172
100
AcDbEntity
8
0
100
AcDbLine
10
-25.97766565022993
20
11.401856206910022
30
1.1102230246251565e-15
11
-26.191998368409966
21
11.401856206910022
31
1.1102230246251565e-15
0
LINE
5
173
100
AcDbEntity
8
0
100
AcDbLine
10
-25.041999999999966
20
11.401856206910022
30
0
11
-25.97766565022993
21
11.401856206910022
31
1.1102230246251565e-15
0
LINE
5
174
100
AcDbEntity
8
0
100
AcDbLine
10
-26.191998368409962
20
16.990999999139721
30
1.1102230246251565e-15
11
-26.191998368409966
21
11.401856206910022
31
1.1102230246251565e-15
0
LINE
5
175
100
AcDbEntity
8
0
100
AcDbLine
10
-11.251999999999969
20
15.200999888092721
30
0
11
-7.7520000000000744
21
15.200999220876838
31
0
0
LINE
5
176
100
AcDbEntity
8
0
100
AcDbLine
10
-7.7519999999999722
20
13.445999999139723
30
0
11
-7.7519999999999722
21
15.200985929910065
31
0
0
LINE
5
177
100
AcDbEntity
8
0
100
AcDbLine
10
-7.7519999999999722
20
6.100999999139721
30
0
11
-7.7519999999999722
21
6.7459999991397215
31
0
0
LINE
5
178
100
AcDbEntity
8
0
100
AcDbLine
10
37.000263919260036
20
6.7459999991397179
30
0
11
37.00026391926005
21
6.695999999139719
31
0
0
LINE
5
179
100
AcDbEntity
8
0
100
AcDbLine
10
74.000263969555036
20
6.6959999991397154
30
0
11
74.000263969555036
21
6.7459999991397162
31
0
0
LINE
5
180
100
AcDbEntity
8
0
100
AcDbLine
10
73.950263969555039
20
6.6459999991397156
30
0
11
73.500263969555036
21
6.6459999991397156
31
0
0
ARC
5
181
100
AcDbEntity
8
0
100
AcDbCircle
10
73.950263969555039
20
6.6959999991397154
30
0
40
0.050000000000000044
100
AcDbArc
50
-90
51
0
0
LINE
5
182
100
AcDbEntity
8
0
100
AcDbLine
10
37.500263919260036
20
6.6459999991397183
30
0
11
37.050263919260132
21
6.6459999991397183
31
0
0
LINE
5
183
100
AcDbEntity
8
0
100
AcDbLine
10
37.500263919260036
20
6.6459999991397183
30
0
11
49.948000168600039
21
6.6459999991397183
31
0
0
LINE
5
184
100
AcDbEntity
8
0
100
AcDbLine
10
52.548000168600034
20
6.6459999991397183
30
0
11
69.948000296195033
21
6.6459999991397156
31
0
0
LINE
5
185
100
AcDbEntity
8
0
100
AcDbLine
10
72.548000296195042
20
6.6459999991397156
30
0
11
73.500263969555036
21
6.6459999991397156
31
0
0
ARC
5
186
100
AcDbEntity
8
0
100
AcDbCircle
10
37.050263919260033
20
6.6959999991397181
30
0
40
0.049999999999985612
100
AcDbArc
50
180
51
270.00000000011397
0
LINE
5
187
100
AcDbEntity
8
0
100
AcDbLine
10
31.000263919260036
20
6.695999999139719
30
0
11
31.000263919260036
21
6.7459999991397179
31
0
0
LINE
5
188
100
AcDbEntity
8
0
100
AcDbLine
10
-5.9997361310399722
20
6.7459999991397215
30
0
11
-5.9997361310399722
21
6.6959999991397208
31
0
0
ARC
5
189
100
AcDbEntity
8
0
100
AcDbCircle
10
30.950263919260035
20
6.695999999139719
30
0
40
0.050000000000000044
100
AcDbArc
50
-90
51
0
0
LINE
5
190
100
AcDbEntity
8
0
100
AcDbLine
10
-5.4997361310399739
20
6.6459999991397201
30
0
11
-5.9497361310399741
21
6.6459999991397201
31
0
0
LINE
5
191
100
AcDbEntity
8
0
100
AcDbLine
10
-5.4997361310399739
20
6.6459999991397201
30
0
11
6.9480002459000367
21
6.6459999991397192
31
0
0
LINE
5
192
100
AcDbEntity
8
0
100
AcDbLine
10
9.5480002459000257
20
6.6459999991397192
30
0
11
26.948000168600039
21
6.6459999991397183
31
0
0
LINE
5
193
100
AcDbEntity
8
0
100
AcDbLine
10
29.548000168600037
20
6.6459999991397183
30
0
11
30.500263919260032
21
6.6459999991397183
31
0
0
LINE
5
194
100
AcDbEntity
8
0
100
AcDbLine
10
30.950263919260035
20
6.6459999991397192
30
0
11
30.500263919260032
21
6.6459999991397183
31
0
0
ARC
5
195
100
AcDbEntity
8
0
100
AcDbCircle
10
-5.9497361310399643
20
6.6959999991397208
30
0
40
0.050000000000007816
100
AcDbArc
50
180
51
269.9999999999888
0
LINE
5
196
100
AcDbEntity
8
0
100
AcDbLine
10
31.000263919260036
20
13.445999999139719
30
0
11
31.000263919260036
21
13.49599999913972
31
0
0
LINE
5
197
100
AcDbEntity
8
0
100
AcDbLine
10
-5.9997361310399722
20
13.49599999913972
30
0
11
-5.9997361310399722
21
13.445999999139723
31
0
0
ARC
5
198
100
AcDbEntity
8
0
100
AcDbCircle
10
30.950263919260035
20
13.495999999139718
30
0
40
0.049999999999998934
100
AcDbArc
50
0
51
90
0
LINE
5
199
100
AcDbEntity
8
0
100
AcDbLine
10
30.500263919260032
20
13.54599999913972
30
0
11
30.950263919260035
21
13.545999999139717
31
0
0
LINE
5
200
100
AcDbEntity
8
0
100
AcDbLine
10
30.500263919260032
20
13.54599999913972
30
0
11
29.548000168600037
21
13.545999999139722
31
0
0
LINE
5
201
100
AcDbEntity
8
0
100
AcDbLine
10
26.948000168600039
20
13.54599999913972
30
0
11
9.5480002459000257
21
13.545999999139722
31
0
0
LINE
5
202
100
AcDbEntity
8
0
100
AcDbLine
10
6.9480002459000367
20
13.545999999139722
30
0
11
-5.4997361310399739
21
13.545999999139722
31
0
0
LINE
5
203
100
AcDbEntity
8
0
100
AcDbLine
10
-5.9497361310399741
20
13.545999999139722
30
0
11
-5.4997361310399739
21
13.545999999139722
31
0
0
ARC
5
204
100
AcDbEntity
8
0
100
AcDbCircle
10
-5.9497361310399643
20
13.49599999913972
30
0
40
0.050000000000001155
100
AcDbArc
50
90.000000000011198
51
180
0
LINE
5
205
100
AcDbEntity
8
0
100
AcDbLine
10
37.000263919260036
20
13.495999999139718
30
0
11
37.000263919260036
21
13.445999999139717
31
0
0
LINE
5
206
100
AcDbEntity
8
0
100
AcDbLine
10
74.000263969555036
20
13.445999999139717
30
0
11
74.000263969555022
21
13.495999999139716
31
0
0
LINE
5
207
100
AcDbEntity
8
0
100
AcDbLine
10
73.500263969555036
20
13.545999999139715
30
0
11
72.548000296195042
21
13.545999999139717
31
0
0
LINE
5
208
100
AcDbEntity
8
0
100
AcDbLine
10
69.948000296195033
20
13.545999999139717
30
0
11
52.548000168600034
21
13.54599999913972
31
0
0
LINE
5
209
100
AcDbEntity
8
0
100
AcDbLine
10
49.948000168600039
20
13.54599999913972
30
0
11
37.500263919260036
21
13.545999999139717
31
0
0
LINE
5
210
100
AcDbEntity
8
0
100
AcDbLine
10
73.500263969555036
20
13.545999999139715
30
0
11
73.950263969555039
21
13.545999999139715
31
0
0
LINE
5
211
100
AcDbEntity
8
0
100
AcDbLine
10
37.050263919260132
20
13.54599999913972
30
0
11
37.500263919260036
21
13.545999999139717
31
0
0
ARC
5
212
100
AcDbEntity
8
0
100
AcDbCircle
10
73.950263969555039
20
13.495999999139716
30
0
40
0.049999999999990052
100
AcDbArc
50
0
51
90
0
ARC
5
213
100
AcDbEntity
8
0
100
AcDbCircle
10
37.050263919260033
20
13.495999999139718
30
0
40
0.050000000000001155
100
AcDbArc
50
89.999999999886015
51
180
0
LINE
5
214
100
AcDbEntity
8
0
100
AcDbLine
10
75.126974144027031
20
13.445999999139717
30
0
11
75.126974144027031
21
13.446308658664716
31
0
0
LINE
5
215
100
AcDbEntity
8
0
100
AcDbLine
10
75.369025855979018
20
13.445999999139717
30
0
11
75.369025855979032
21
13.446308658664716
31
0
0
LINE
5
216
100
AcDbEntity
8
0
100
AcDbLine
10
75.369025855979032
20
13.446308658664716
30
0
11
75.126974144027031
21
13.446308658664716
31
0
0
LINE
5
217
100
AcDbEntity
8
0
100
AcDbLine
10
-6.8730258559699653
20
13.445999999139723
30
0
11
-6.8730258559699653
21
13.446308660239721
31
0
0
LINE
5
218
100
AcDbEntity
8
0
100
AcDbLine
10
-6.8730258559699653
20
13.446308660239721
30
0
11
-6.6309741440199677
21
13.446308660239721
31
0
0
LINE
5
219
100
AcDbEntity
8
0
100
AcDbLine
10
-6.6309741440199677
20
13.445999999139723
30
0
11
-6.6309741440199677
21
13.446308660239721
31
0
0
LINE
5
220
100
AcDbEntity
8
0
100
AcDbLine
10
-17.585264900779961
20
3.2009999991397207
30
1.1102230246251565e-15
11
-17.585264900779965
21
6.1009999991397219
31
0
0
LINE
5
221
100
AcDbEntity
8
0
100
AcDbLine
10
-17.585264900779961
20
15.200999994939293
30
0
11
-17.585264900779961
21
16.990999999139721
31
1.1102230246251565e-15
0
LINE
5
222
100
AcDbEntity
8
0
100
AcDbLine
10
-5.999736131039981
20
33.765999999139737
30
0
11
-6.6309741440199765
21
33.765999999139737
31
0
0
LINE
5
223
100
AcDbEntity
8
0
100
AcDbLine
10
-6.8730258559699742
20
33.765999999139737
30
0
11
-7.7519999999999811
21
33.765999999139737
31
0
0
LINE
5
224
100
AcDbEntity
8
0
100
AcDbLine
10
6.9480002459000278
20
34.415999999139743
30
0
11
6.9480002459000278
21
33.865999999139746
31
0
0
LINE
5
225
100
AcDbEntity
8
0
100
AcDbLine
10
6.9480002459000278
20
34.415999999139743
30
0
11
9.5480002459000168
21
34.415999999139743
31
0
0
LINE
5
226
100
AcDbEntity
8
0
100
AcDbLine
10
9.5480002459000168
20
34.415999999139743
30
0
11
9.5480002459000168
21
33.865999999139746
31
0
0
LINE
5
227
100
AcDbEntity
8
0
100
AcDbLine
10
26.948000168600032
20
34.415999999139743
30
0
11
26.948000168600032
21
33.865999999139738
31
0
0
LINE
5
228
100
AcDbEntity
8
0
100
AcDbLine
10
26.948000168600032
20
34.415999999139743
30
0
11
29.548000168600023
21
34.415999999139743
31
0
0
LINE
5
229
100
AcDbEntity
8
0
100
AcDbLine
10
29.548000168600023
20
34.415999999139743
30
0
11
29.548000168600026
21
33.865999999139746
31
0
0
LINE
5
230
100
AcDbEntity
8
0
100
AcDbLine
10
37.000263919260028
20
33.765999999139737
30
0
11
31.000263919260025
21
33.765999999139737
31
0
0
LINE
5
231
100
AcDbEntity
8
0
100
AcDbLine
10
49.948000168600032
20
34.415999999139736
30
0
11
49.948000168600032
21
33.865999999139738
31
0
0
LINE
5
232
100
AcDbEntity
8
0
100
AcDbLine
10
49.948000168600032
20
34.415999999139736
30
0
11
52.548000168600026
21
34.415999999139736
31
0
0
LINE
5
233
100
AcDbEntity
8
0
100
AcDbLine
10
52.548000168600026
20
34.415999999139736
30
0
11
52.548000168600026
21
33.865999999139738
31
0
0
LINE
5
234
100
AcDbEntity
8
0
100
AcDbLine
10
69.948000296195033
20
34.415999999139736
30
0
11
69.948000296195033
21
33.865999999139731
31
0
0
LINE
5
235
100
AcDbEntity
8
0
100
AcDbLine
10
69.948000296195033
20
34.415999999139736
30
0
11
72.548000296195028
21
34.415999999139736
31
0
0
LINE
5
236
100
AcDbEntity
8
0
100
AcDbLine
10
72.548000296195028
20
34.415999999139736
30
0
11
72.548000296195028
21
33.865999999139731
31
0
0
LINE
5
237
100
AcDbEntity
8
0
100
AcDbLine
10
76.748000000003032
20
33.765999999139737
30
0
11
75.369025855979018
21
33.765999999139737
31
0
0
LINE
5
238
100
AcDbEntity
8
0
100
AcDbLine
10
75.126974144027031
20
33.765999999139737
30
0
11
74.000263969555022
21
33.765999999139737
31
0
0
LINE
5
239
100
AcDbEntity
8
0
100
AcDbLine
10
79.248000000000033
20
28.240999999118731
30
0
11
79.248000000000033
21
32.59099999925273
31
0
0
LINE
5
240
100
AcDbEntity
8
0
100
AcDbLine
10
74.000263969555022
20
27.065999999139731
30
0
11
76.748000000003032
21
27.065999999139731
31
0
0
LINE
5
241
100
AcDbEntity
8
0
100
AcDbLine
10
72.548000296195028
20
26.415999999139732
30
0
11
72.548000296195028
21
26.965999999139733
31
0
0
LINE
5
242
100
AcDbEntity
8
0
100
AcDbLine
10
69.948000296195033
20
26.415999999139732
30
0
11
72.548000296195028
21
26.415999999139732
31
0
0
LINE
5
243
100
AcDbEntity
8
0
100
AcDbLine
10
69.948000296195033
20
26.415999999139732
30
0
11
69.948000296195033
21
26.965999999139733
31
0
0
LINE
5
244
100
AcDbEntity
8
0
100
AcDbLine
10
52.548000168600026
20
26.415999999139736
30
0
11
52.548000168600026
21
26.96599999913974
31
0
0
LINE
5
245
100
AcDbEntity
8
0
100
AcDbLine
10
49.948000168600032
20
26.415999999139736
30
0
11
52.548000168600026
21
26.415999999139736
31
0
0
LINE
5
246
100
AcDbEntity
8
0
100
AcDbLine
10
49.948000168600032
20
26.415999999139736
30
0
11
49.948000168600032
21
26.96599999913974
31
0
0
LINE
5
247
100
AcDbEntity
8
0
100
AcDbLine
10
37.000263919260028
20
27.065999999139734
30
0
11
31.000263919260025
21
27.065999999139734
31
0
0
LINE
5
248
100
AcDbEntity
8
0
100
AcDbLine
10
29.548000168600026
20
26.415999999139736
30
0
11
29.548000168600026
21
26.96599999913974
31
0
0
LINE
5
249
100
AcDbEntity
8
0
100
AcDbLine
10
26.948000168600032
20
26.415999999139736
30
0
11
29.548000168600026
21
26.415999999139736
31
0
0
LINE
5
250
100
AcDbEntity
8
0
100
AcDbLine
10
26.948000168600032
20
26.415999999139736
30
0
11
26.948000168600032
21
26.96599999913974
31
0
0
LINE
5
251
100
AcDbEntity
8
0
100
AcDbLine
10
9.5480002459000168
20
26.415999999139736
30
0
11
9.5480002459000168
21
26.96599999913974
31
0
0
LINE
5
252
100
AcDbEntity
8
0
100
AcDbLine
10
6.9480002459000278
20
26.415999999139736
30
0
11
9.5480002459000168
21
26.415999999139736
31
0
0
LINE
5
253
100
AcDbEntity
8
0
100
AcDbLine
10
6.9480002459000278
20
26.415999999139736
30
0
11
6.9480002459000278
21
26.96599999913974
31
0
0
LINE
5
254
100
AcDbEntity
8
0
100
AcDbLine
10
-5.999736131039981
20
27.065999999139734
30
0
11
-7.7519999999999811
21
27.065999999139734
31
0
0
LINE
5
255
100
AcDbEntity
8
0
100
AcDbLine
10
76.748000000003032
20
35.520999999139732
30
0
11
76.748000000003032
21
33.765999999139737
31
0
0
LINE
5
256
100
AcDbEntity
8
0
100
AcDbLine
10
79.248000000000033
20
35.520999999139732
30
0
11
76.748000000003032
21
35.520999999139732
31
0
0
LINE
5
257
100
AcDbEntity
8
0
100
AcDbLine
10
79.248000000000033
20
33.090999999139733
30
0
11
79.248000000000033
21
35.520999999139732
31
0
0
LINE
5
258
100
AcDbEntity
8
0
100
AcDbLine
10
79.248000000000033
20
33.090999999139733
30
0
11
79.248000000000033
21
32.59099999925273
31
0
0
LINE
5
259
100
AcDbEntity
8
0
100
AcDbLine
10
79.248000000000033
20
27.740999999139735
30
0
11
79.248000000000033
21
26.415999999999883
31
0
0
LINE
5
260
100
AcDbEntity
8
0
100
AcDbLine
10
79.248000000000033
20
28.240999999118731
30
0
11
79.248000000000033
21
27.740999999139735
31
0
0
LINE
5
261
100
AcDbEntity
8
0
100
AcDbLine
10
76.748000000003017
20
26.415999999126733
30
0
11
79.248000000000033
21
26.415999999999883
31
0
0
LINE
5
262
100
AcDbEntity
8
0
100
AcDbLine
10
76.748000000003032
20
27.065999999139731
30
0
11
76.748000000003032
21
26.42115452512521
31
0
0
LINE
5
263
100
AcDbEntity
8
0
100
AcDbLine
10
76.748000000003032
20
26.421130678091387
30
0
11
76.748000000003017
21
26.415999999126733
31
0
0
LINE
5
264
100
AcDbEntity
8
0
100
AcDbLine
10
-17.585264900779972
20
26.420999999139738
30
0
11
-11.251999999999978
21
26.420999999139738
31
0
0
LINE
5
265
100
AcDbEntity
8
0
100
AcDbLine
10
-11.251999999999978
20
26.420999999139738
30
0
11
-7.7519999999999811
21
26.420999999139738
31
0
0
LINE
5
266
100
AcDbEntity
8
0
100
AcDbLine
10
-25.977665650187731
20
23.52099999913974
30
1.1102230246251565e-15
11
-26.191998368409969
21
23.52099999913974
31
1.1102230246251565e-15
0
LINE
5
267
100
AcDbEntity
8
0
100
AcDbLine
10
-23.468951509071331
20
23.52099999913974
30
1.1102230246251565e-15
11
-25.977665650187731
21
23.52099999913974
31
1.1102230246251565e-15
0
LINE
5
268
100
AcDbEntity
8
0
100
AcDbLine
10
-23.298256179039988
20
23.52099999913974
30
1.1102230246251565e-15
11
-23.468951509071331
21
23.52099999913974
31
1.1102230246251565e-15
0
LINE
5
269
100
AcDbEntity
8
0
100
AcDbLine
10
-22.798261423049979
20
23.52099999913974
30
1.1102230246251565e-15
11
-23.298256179039988
21
23.52099999913974
31
1.1102230246251565e-15
0
LINE
5
270
100
AcDbEntity
8
0
100
AcDbLine
10
-17.885264900559967
20
23.52099999913974
30
1.1102230246251565e-15
11
-22.798261423049979
21
23.52099999913974
31
1.1102230246251565e-15
0
LINE
5
271
100
AcDbEntity
8
0
100
AcDbLine
10
-17.585264900779968
20
23.52099999913974
30
1.1102230246251565e-15
11
-17.885264900559967
21
23.52099999913974
31
1.1102230246251565e-15
0
LINE
5
272
100
AcDbEntity
8
0
100
AcDbLine
10
-25.041999999999973
20
31.72185620691004
30
0
11
-25.041999999999973
21
29.165999999139739
31
0
0
LINE
5
273
100
AcDbEntity
8
0
100
AcDbLine
10
-11.251999999999978
20
35.520999988670738
30
0
11
-17.585264900779968
21
35.520999994939309
31
0
0
LINE
5
274
100
AcDbEntity
8
0
100
AcDbLine
10
-17.885264900779969
20
37.310999999139739
30
1.1102230246251565e-15
11
-17.585264900779968
21
37.310999999139739
31
1.1102230246251565e-15
0
LINE
5
275
100
AcDbEntity
8
0
100
AcDbLine
10
-22.798256179039988
20
37.310999999139739
30
1.1102230246251565e-15
11
-17.885264900779969
21
37.310999999139739
31
1.1102230246251565e-15
0
LINE
5
276
100
AcDbEntity
8
0
100
AcDbLine
10
-23.298256179039992
20
37.310999999139739
30
1.1102230246251565e-15
11
-22.798256179039988
21
37.310999999139739
31
1.1102230246251565e-15
0
LINE
5
277
100
AcDbEntity
8
0
100
AcDbLine
10
-23.46895150917053
20
37.310999999139739
30
1.1102230246251565e-15
11
-23.298256179039992
21
37.310999999139739
31
1.1102230246251565e-15
0
LINE
5
278
100
AcDbEntity
8
0
100
AcDbLine
10
-25.977665650229973
20
37.310999999139739
30
1.1102230246251565e-15
11
-23.46895150917053
21
37.310999999139739
31
1.1102230246251565e-15
0
LINE
5
279
100
AcDbEntity
8
0
100
AcDbLine
10
-26.191998368409969
20
37.310999999139739
30
1.1102230246251565e-15
11
-25.977665650229973
21
37.310999999139739
31
1.1102230246251565e-15
0
LINE
5
280
100
AcDbEntity
8
0
100
AcDbLine
10
-26.191998368409983
20
29.165999999139739
30
1.1102230246251565e-15
11
-26.191998368409969
21
23.52099999913974
31
1.1102230246251565e-15
0
LINE
5
281
100
AcDbEntity
8
0
100
AcDbLine
10
-26.191998368409983
20
29.165999999139739
30
1.1102230246251565e-15
11
-25.977665650220757
21
29.165999999139739
31
1.1102230246251565e-15
0
LINE
5
282
100
AcDbEntity
8
0
100
AcDbLine
10
-25.977665650220757
20
29.165999999139739
30
1.1102230246251565e-15
11
-25.041999999999973
21
29.165999999139739
31
0
0
LINE
5
283
100
AcDbEntity
8
0
100
AcDbLine
10
-25.977665650229937
20
31.72185620691004
30
1.1102230246251565e-15
11
-26.191998368409976
21
31.72185620691004
31
1.1102230246251565e-15
0
LINE
5
284
100
AcDbEntity
8
0
100
AcDbLine
10
-25.041999999999973
20
31.72185620691004
30
0
11
-25.977665650229937
21
31.72185620691004
31
1.1102230246251565e-15
0
LINE
5
285
100
AcDbEntity
8
0
100
AcDbLine
10
-26.191998368409969
20
37.310999999139739
30
1.1102230246251565e-15
11
-26.191998368409976
21
31.72185620691004
31
1.1102230246251565e-15
0
LINE
5
286
100
AcDbEntity
8
0
100
AcDbLine
10
-11.251999999999978
20
35.520999888092739
30
0
11
-7.7520000000000833
21
35.52099922087686
31
0
0
LINE
5
287
100
AcDbEntity
8
0
100
AcDbLine
10
-7.7519999999999811
20
33.765999999139737
30
0
11
-7.7519999999999811
21
35.520985929910083
31
0
0
LINE
5
288
100
AcDbEntity
8
0
100
AcDbLine
10
-7.7519999999999811
20
26.420999999139738
30
0
11
-7.7519999999999811
21
27.065999999139734
31
0
0
LINE
5
289
100
AcDbEntity
8
0
100
AcDbLine
10
37.000263919260028
20
27.065999999139734
30
0
11
37.000263919260036
21
27.015999999139737
31
0
0
LINE
5
290
100
AcDbEntity
8
0
100
AcDbLine
10
74.000263969555022
20
27.015999999139733
30
0
11
74.000263969555022
21
27.065999999139731
31
0
0
LINE
5
291
100
AcDbEntity
8
0
100
AcDbLine
10
73.950263969555024
20
26.965999999139733
30
0
11
73.500263969555022
21
26.965999999139733
31
0
0
ARC
5
292
100
AcDbEntity
8
0
100
AcDbCircle
10
73.950263969555024
20
27.015999999139733
30
0
40
0.049999999999998934
100
AcDbArc
50
-90
51
0
0
LINE
5
293
100
AcDbEntity
8
0
100
AcDbLine
10
37.500263919260028
20
26.96599999913974
30
0
11
37.050263919260125
21
26.96599999913974
31
0
0
LINE
5
294
100
AcDbEntity
8
0
100
AcDbLine
10
37.500263919260028
20
26.96599999913974
30
0
11
49.948000168600032
21
26.96599999913974
31
0
0
LINE
5
295
100
AcDbEntity
8
0
100
AcDbLine
10
52.548000168600026
20
26.96599999913974
30
0
11
69.948000296195033
21
26.965999999139733
31
0
0
LINE
5
296
100
AcDbEntity
8
0
100
AcDbLine
10
72.548000296195028
20
26.965999999139733
30
0
11
73.500263969555022
21
26.965999999139733
31
0
0
ARC
5
297
100
AcDbEntity
8
0
100
AcDbCircle
10
37.050263919260026
20
27.015999999139737
30
0
40
0.049999999999985612
100
AcDbArc
50
180
51
270.00000000011397
0
LINE
5
298
100
AcDbEntity
8
0
100
AcDbLine
10
31.000263919260025
20
27.015999999139737
30
0
11
31.000263919260025
21
27.065999999139734
31
0
0
LINE
5
299
100
AcDbEntity
8
0
100
AcDbLine
10
-5.999736131039981
20
27.065999999139734
30
0
11
-5.999736131039981
21
27.015999999139737
31
0
0
ARC
5
300
100
AcDbEntity
8
0
100
AcDbCircle
10
30.950263919260024
20
27.015999999139737
30
0
40
0.049999999999998934
100
AcDbArc
50
-90
51
0
0
LINE
5
301
100
AcDbEntity
8
0
100
AcDbLine
10
-5.4997361310399828
20
26.96599999913974
30
0
11
-5.949736131039983
21
26.96599999913974
31
0
0
LINE
5
302
100
AcDbEntity
8
0
100
AcDbLine
10
-5.4997361310399828
20
26.96599999913974
30
0
11
6.9480002459000278
21
26.96599999913974
31
0
0
LINE
5
303
100
AcDbEntity
8
0
100
AcDbLine
10
9.5480002459000168
20
26.96599999913974
30
0
11
26.948000168600032
21
26.96599999913974
31
0
0
LINE
5
304
100
AcDbEntity
8
0
100
AcDbLine
10
29.548000168600026
20
26.96599999913974
30
0
11
30.500263919260021
21
26.96599999913974
31
0
0
LINE
5
305
100
AcDbEntity
8
0
100
AcDbLine
10
30.950263919260024
20
26.96599999913974
30
0
11
30.500263919260021
21
26.96599999913974
31
0
0
ARC
5
306
100
AcDbEntity
8
0
100
AcDbCircle
10
-5.9497361310399732
20
27.015999999139737
30
0
40
0.050000000000007816
100
AcDbArc
50
180
51
269.9999999999888
0
LINE
5
307
100
AcDbEntity
8
0
100
AcDbLine
10
31.000263919260025
20
33.765999999139737
30
0
11
31.000263919260025
21
33.815999999139734
31
0
0
LINE
5
308
100
AcDbEntity
8
0
100
AcDbLine
10
-5.999736131039981
20
33.815999999139741
30
0
11
-5.999736131039981
21
33.765999999139737
31
0
0
ARC
5
309
100
AcDbEntity
8
0
100
AcDbCircle
10
30.950263919260024
20
33.815999999139741
30
0
40
0.049999999999998934
100
AcDbArc
50
0
51
90
0
LINE
5
310
100
AcDbEntity
8
0
100
AcDbLine
10
30.500263919260021
20
33.865999999139738
30
0
11
30.950263919260024
21
33.865999999139738
31
0
0
LINE
5
311
100
AcDbEntity
8
0
100
AcDbLine
10
30.500263919260021
20
33.865999999139738
30
0
11
29.548000168600026
21
33.865999999139746
31
0
0
LINE
5
312
100
AcDbEntity
8
0
100
AcDbLine
10
26.948000168600032
20
33.865999999139738
30
0
11
9.5480002459000168
21
33.865999999139746
31
0
0
LINE
5
313
100
AcDbEntity
8
0
100
AcDbLine
10
6.9480002459000278
20
33.865999999139746
30
0
11
-5.4997361310399828
21
33.865999999139738
31
0
0
LINE
5
314
100
AcDbEntity
8
0
100
AcDbLine
10
-5.949736131039983
20
33.865999999139738
30
0
11
-5.4997361310399828
21
33.865999999139738
31
0
0
ARC
5
315
100
AcDbEntity
8
0
100
AcDbCircle
10
-5.9497361310399732
20
33.815999999139741
30
0
40
0.049999999999998934
100
AcDbArc
50
90.000000000011198
51
180
0
LINE
5
316
100
AcDbEntity
8
0
100
AcDbLine
10
37.000263919260028
20
33.815999999139734
30
0
11
37.000263919260028
21
33.765999999139737
31
0
0
LINE
5
317
100
AcDbEntity
8
0
100
AcDbLine
10
74.000263969555022
20
33.765999999139737
30
0
11
74.000263969555022
21
33.815999999139734
31
0
0
LINE
5
318
100
AcDbEntity
8
0
100
AcDbLine
10
73.500263969555022
20
33.865999999139731
30
0
11
72.548000296195028
21
33.865999999139731
31
0
0
LINE
5
319
100
AcDbEntity
8
0
100
AcDbLine
10
69.948000296195033
20
33.865999999139731
30
0
11
52.548000168600026
21
33.865999999139738
31
0
0
LINE
5
320
100
AcDbEntity
8
0
100
AcDbLine
10
49.948000168600032
20
33.865999999139738
30
0
11
37.500263919260028
21
33.865999999139731
31
0
0
LINE
5
321
100
AcDbEntity
8
0
100
AcDbLine
10
73.500263969555022
20
33.865999999139731
30
0
11
73.950263969555024
21
33.865999999139731
31
0
0
LINE
5
322
100
AcDbEntity
8
0
100
AcDbLine
10
37.050263919260125
20
33.865999999139738
30
0
11
37.500263919260028
21
33.865999999139731
31
0
0
ARC
5
323
100
AcDbEntity
8
0
100
AcDbCircle
10
73.950263969555024
20
33.815999999139734
30
0
40
0.049999999999990052
100
AcDbArc
50
0
51
90
0
ARC
5
324
100
AcDbEntity
8
0
100
AcDbCircle
10
37.050263919260026
20
33.815999999139734
30
0
40
0.050000000000003375
100
AcDbArc
50
89.999999999886015
51
180
0
LINE
5
325
100
AcDbEntity
8
0
100
AcDbLine
10
75.126974144027031
20
33.765999999139737
30
0
11
75.126974144027031
21
33.766308658664734
31
0
0
LINE
5
326
100
AcDbEntity
8
0
100
AcDbLine
10
75.369025855979018
20
33.765999999139737
30
0
11
75.369025855979032
21
33.766308658664734
31
0
0
LINE
5
327
100
AcDbEntity
8
0
100
AcDbLine
10
75.369025855979032
20
33.766308658664734
30
0
11
75.126974144027031
21
33.766308658664734
31
0
0
LINE
5
328
100
AcDbEntity
8
0
100
AcDbLine
10
-6.8730258559699742
20
33.765999999139737
30
0
11
-6.8730258559699742
21
33.766308660239737
31
0
0
LINE
5
329
100
AcDbEntity
8
0
100
AcDbLine
10
-6.8730258559699742
20
33.766308660239737
30
0
11
-6.6309741440199765
21
33.766308660239737
31
0
0
LINE
5
330
100
AcDbEntity
8
0
100
AcDbLine
10
-6.6309741440199765
20
33.765999999139737
30
0
11
-6.6309741440199765
21
33.766308660239737
31
0
0
LINE
5
331
100
AcDbEntity
8
0
100
AcDbLine
10
-17.585264900779968
20
23.52099999913974
30
1.1102230246251565e-15
11
-17.585264900779972
21
26.420999999139738
31
0
0
LINE
5
332
100
AcDbEntity
8
0
100
AcDbLine
10
-17.585264900779968
20
35.520999994939309
30
0
11
-17.585264900779968
21
37.310999999139739
31
1.1102230246251565e-15
0
LINE
5
333
100
AcDbEntity
8
0
100
AcDbLine
10
-5.9997361310399722
20
54.085999999139752
30
0
11
-6.6309741440199677
21
54.085999999139752
31
0
0
LINE
5
334
100
AcDbEntity
8
0
100
AcDbLine
10
-6.8730258559699653
20
54.085999999139752
30
0
11
-7.7519999999999722
21
54.085999999139752
31
0
0
LINE
5
335
100
AcDbEntity
8
0
100
AcDbLine
10
6.9480002459000367
20
54.73599999913975
30
0
11
6.9480002459000367
21
54.185999999139739
31
0
0
LINE
5
336
100
AcDbEntity
8
0
100
AcDbLine
10
6.9480002459000367
20
54.73599999913975
30
0
11
9.5480002459000257
21
54.73599999913975
31
0
0
LINE
5
337
100
AcDbEntity
8
0
100
AcDbLine
10
9.5480002459000257
20
54.73599999913975
30
0
11
9.5480002459000257
21
54.185999999139739
31
0
0
LINE
5
338
100
AcDbEntity
8
0
100
AcDbLine
10
26.948000168600039
20
54.73599999913975
30
0
11
26.948000168600039
21
54.185999999139739
31
0
0
LINE
5
339
100
AcDbEntity
8
0
100
AcDbLine
10
26.948000168600039
20
54.73599999913975
30
0
11
29.548000168600034
21
54.73599999913975
31
0
0
LINE
5
340
100
AcDbEntity
8
0
100
AcDbLine
10
29.548000168600034
20
54.73599999913975
30
0
11
29.548000168600037
21
54.185999999139739
31
0
0
LINE
5
341
100
AcDbEntity
8
0
100
AcDbLine
10
37.000263919260036
20
54.085999999139752
30
0
11
31.000263919260036
21
54.085999999139752
31
0
0
LINE
5
342
100
AcDbEntity
8
0
100
AcDbLine
10
49.948000168600039
20
54.73599999913975
30
0
11
49.948000168600039
21
54.18599999913976
31
0
0
LINE
5
343
100
AcDbEntity
8
0
100
AcDbLine
10
49.948000168600039
20
54.73599999913975
30
0
11
52.548000168600034
21
54.73599999913975
31
0
0
LINE
5
344
100
AcDbEntity
8
0
100
AcDbLine
10
52.548000168600034
20
54.73599999913975
30
0
11
52.548000168600034
21
54.185999999139753
31
0
0
LINE
5
345
100
AcDbEntity
8
0
100
AcDbLine
10
69.948000296195033
20
54.73599999913975
30
0
11
69.948000296195033
21
54.185999999139753
31
0
0
LINE
5
346
100
AcDbEntity
8
0
100
AcDbLine
10
69.948000296195033
20
54.73599999913975
30
0
11
72.548000296195042
21
54.73599999913975
31
0
0
LINE
5
347
100
AcDbEntity
8
0
100
AcDbLine
10
72.548000296195042
20
54.73599999913975
30
0
11
72.548000296195042
21
54.185999999139753
31
0
0
LINE
5
348
100
AcDbEntity
8
0
100
AcDbLine
10
76.748000000003046
20
54.085999999139744
30
0
11
75.369025855979032
21
54.085999999139744
31
0
0
LINE
5
349
100
AcDbEntity
8
0
100
AcDbLine
10
75.126974144027031
20
54.085999999139744
30
0
11
74.000263969555036
21
54.085999999139744
31
0
0
LINE
5
350
100
AcDbEntity
8
0
100
AcDbLine
10
79.248000000000033
20
48.560999999118749
30
0
11
79.248000000000033
21
52.910999999252738
31
0
0
LINE
5
351
100
AcDbEntity
8
0
100
AcDbLine
10
74.000263969555036
20
47.385999999139742
30
0
11
76.748000000003046
21
47.385999999139742
31
0
0
LINE
5
352
100
AcDbEntity
8
0
100
AcDbLine
10
72.548000296195042
20
46.73599999913975
30
0
11
72.548000296195042
21
47.285999999139747
31
0
0
LINE
5
353
100
AcDbEntity
8
0
100
AcDbLine
10
69.948000296195033
20
46.73599999913975
30
0
11
72.548000296195042
21
46.73599999913975
31
0
0
LINE
5
354
100
AcDbEntity
8
0
100
AcDbLine
10
69.948000296195033
20
46.73599999913975
30
0
11
69.948000296195033
21
47.285999999139747
31
0
0
LINE
5
355
100
AcDbEntity
8
0
100
AcDbLine
10
52.548000168600034
20
46.73599999913975
30
0
11
52.548000168600034
21
47.285999999139747
31
0
0
LINE
5
356
100
AcDbEntity
8
0
100
AcDbLine
10
49.948000168600039
20
46.73599999913975
30
0
11
52.548000168600034
21
46.73599999913975
31
0
0
LINE
5
357
100
AcDbEntity
8
0
100
AcDbLine
10
49.948000168600039
20
46.73599999913975
30
0
11
49.948000168600039
21
47.285999999139747
31
0
0
LINE
5
358
100
AcDbEntity
8
0
100
AcDbLine
10
37.000263919260036
20
47.385999999139742
30
0
11
31.000263919260036
21
47.385999999139742
31
0
0
LINE
5
359
100
AcDbEntity
8
0
100
AcDbLine
10
29.548000168600037
20
46.73599999913975
30
0
11
29.548000168600037
21
47.285999999139747
31
0
0
LINE
5
360
100
AcDbEntity
8
0
100
AcDbLine
10
26.948000168600039
20
46.73599999913975
30
0
11
29.548000168600037
21
46.73599999913975
31
0
0
LINE
5
361
100
AcDbEntity
8
0
100
AcDbLine
10
26.948000168600039
20
46.73599999913975
30
0
11
26.948000168600039
21
47.285999999139747
31
0
0
LINE
5
362
100
AcDbEntity
8
0
100
AcDbLine
10
9.5480002459000257
20
46.73599999913975
30
0
11
9.5480002459000257
21
47.285999999139754
31
0
0
LINE
5
363
100
AcDbEntity
8
0
100
AcDbLine
10
6.9480002459000367
20
46.73599999913975
30
0
11
9.5480002459000257
21
46.73599999913975
31
0
0
LINE
5
364
100
AcDbEntity
8
0
100
AcDbLine
10
6.9480002459000367
20
46.73599999913975
30
0
11
6.9480002459000367
21
47.285999999139754
31
0
0
LINE
5
365
100
AcDbEntity
8
0
100
AcDbLine
10
-5.9997361310399722
20
47.385999999139756
30
0
11
-7.7519999999999722
21
47.385999999139756
31
0
0
LINE
5
366
100
AcDbEntity
8
0
100
AcDbLine
10
76.748000000003046
20
55.840999999139747
30
0
11
76.748000000003046
21
54.085999999139744
31
0
0
LINE
5
367
100
AcDbEntity
8
0
100
AcDbLine
10
79.248000000000033
20
55.840999999139747
30
0
11
76.748000000003046
21
55.840999999139747
31
0
0
LINE
5
368
100
AcDbEntity
8
0
100
AcDbLine
10
79.248000000000033
20
53.410999999139747
30
0
11
79.248000000000033
21
55.840999999139747
31
0
0
LINE
5
369
100
AcDbEntity
8
0
100
AcDbLine
10
79.248000000000033
20
53.410999999139747
30
0
11
79.248000000000033
21
52.910999999252738
31
0
0
LINE
5
370
100
AcDbEntity
8
0
100
AcDbLine
10
79.248000000000033
20
48.060999999139746
30
0
11
79.248000000000033
21
46.735999999999898
31
0
0
LINE
5
371
100
AcDbEntity
8
0
100
AcDbLine
10
79.248000000000033
20
48.560999999118749
30
0
11
79.248000000000033
21
48.060999999139746
31
0
0
LINE
5
372
100
AcDbEntity
8
0
100
AcDbLine
10
76.748000000003046
20
46.735999999126747
30
0
11
79.248000000000033
21
46.735999999999898
31
0
0
LINE
5
373
100
AcDbEntity
8
0
100
AcDbLine
10
76.748000000003046
20
47.385999999139742
30
0
11
76.748000000003046
21
46.741154525125232
31
0
0
LINE
5
374
100
AcDbEntity
8
0
100
AcDbLine
10
76.748000000003046
20
46.741130678091395
30
0
11
76.748000000003046
21
46.735999999126747
31
0
0
LINE
5
375
100
AcDbEntity
8
0
100
AcDbLine
10
-17.585264900779965
20
46.74099999913976
30
0
11
-11.251999999999969
21
46.74099999913976
31
0
0
LINE
5
376
100
AcDbEntity
8
0
100
AcDbLine
10
-11.251999999999969
20
46.74099999913976
30
0
11
-7.7519999999999722
21
46.74099999913976
31
0
0
LINE
5
377
100
AcDbEntity
8
0
100
AcDbLine
10
-25.977665650187724
20
43.840999999139754
30
1.1102230246251565e-15
11
-26.191998368409962
21
43.840999999139754
31
1.1102230246251565e-15
0
LINE
5
378
100
AcDbEntity
8
0
100
AcDbLine
10
-23.468951509071321
20
43.840999999139754
30
1.1102230246251565e-15
11
-25.977665650187724
21
43.840999999139754
31
1.1102230246251565e-15
0
LINE
5
379
100
AcDbEntity
8
0
100
AcDbLine
10
-23.298256179039978
20
43.840999999139754
30
1.1102230246251565e-15
11
-23.468951509071321
21
43.840999999139754
31
1.1102230246251565e-15
0
LINE
5
380
100
AcDbEntity
8
0
100
AcDbLine
10
-22.798261423049972
20
43.840999999139754
30
1.1102230246251565e-15
11
-23.298256179039978
21
43.840999999139754
31
1.1102230246251565e-15
0
LINE
5
381
100
AcDbEntity
8
0
100
AcDbLine
10
-17.88526490055996
20
43.840999999139754
30
1.1102230246251565e-15
11
-22.798261423049972
21
43.840999999139754
31
1.1102230246251565e-15
0
LINE
5
382
100
AcDbEntity
8
0
100
AcDbLine
10
-17.585264900779961
20
43.840999999139754
30
1.1102230246251565e-15
11
-17.88526490055996
21
43.840999999139754
31
1.1102230246251565e-15
0
LINE
5
383
100
AcDbEntity
8
0
100
AcDbLine
10
-25.041999999999966
20
52.04185620691004
30
0
11
-25.041999999999966
21
49.48599999913975
31
0
0
LINE
5
384
100
AcDbEntity
8
0
100
AcDbLine
10
-11.251999999999969
20
55.840999988670752
30
0
11
-17.585264900779961
21
55.840999994939324
31
0
0
LINE
5
385
100
AcDbEntity
8
0
100
AcDbLine
10
-17.885264900779958
20
57.630999999139753
30
1.1102230246251565e-15
11
-17.585264900779961
21
57.630999999139753
31
1.1102230246251565e-15
0
LINE
5
386
100
AcDbEntity
8
0
100
AcDbLine
10
-22.798256179039981
20
57.630999999139753
30
1.1102230246251565e-15
11
-17.885264900779958
21
57.630999999139753
31
1.1102230246251565e-15
0
LINE
5
387
100
AcDbEntity
8
0
100
AcDbLine
10
-23.298256179039981
20
57.630999999139753
30
1.1102230246251565e-15
11
-22.798256179039981
21
57.630999999139753
31
1.1102230246251565e-15
0
LINE
5
388
100
AcDbEntity
8
0
100
AcDbLine
10
-23.468951509170523
20
57.630999999139753
30
1.1102230246251565e-15
11
-23.298256179039981
21
57.630999999139753
31
1.1102230246251565e-15
0
LINE
5
389
100
AcDbEntity
8
0
100
AcDbLine
10
-25.977665650229966
20
57.630999999139753
30
1.1102230246251565e-15
11
-23.468951509170523
21
57.630999999139753
31
1.1102230246251565e-15
0
LINE
5
390
100
AcDbEntity
8
0
100
AcDbLine
10
-26.191998368409962
20
57.630999999139753
30
1.1102230246251565e-15
11
-25.977665650229966
21
57.630999999139753
31
1.1102230246251565e-15
0
LINE
5
391
100
AcDbEntity
8
0
100
AcDbLine
10
-26.191998368409976
20
49.48599999913975
30
1.1102230246251565e-15
11
-26.191998368409962
21
43.840999999139754
31
1.1102230246251565e-15
0
LINE
5
392
100
AcDbEntity
8
0
100
AcDbLine
10
-26.191998368409976
20
49.48599999913975
30
1.1102230246251565e-15
11
-25.97766565022075
21
49.48599999913975
31
1.1102230246251565e-15
0
LINE
5
393
100
AcDbEntity
8
0
100
AcDbLine
10
-25.97766565022075
20
49.48599999913975
30
1.1102230246251565e-15
11
-25.041999999999966
21
49.48599999913975
31
0
0
LINE
5
394
100
AcDbEntity
8
0
100
AcDbLine
10
-25.97766565022993
20
52.041856206910055
30
1.1102230246251565e-15
11
-26.191998368409966
21
52.041856206910055
31
1.1102230246251565e-15
0
LINE
5
395
100
AcDbEntity
8
0
100
AcDbLine
10
-25.041999999999966
20
52.04185620691004
30
0
11
-25.97766565022993
21
52.041856206910055
31
1.1102230246251565e-15
0
LINE
5
396
100
AcDbEntity
8
0
100
AcDbLine
10
-26.191998368409962
20
57.630999999139753
30
1.1102230246251565e-15
11
-26.191998368409966
21
52.041856206910055
31
1.1102230246251565e-15
0
LINE
5
397
100
AcDbEntity
8
0
100
AcDbLine
10
-11.251999999999969
20
55.840999888092753
30
0
11
-7.7520000000000744
21
55.840999220876874
31
0
0
LINE
5
398
100
AcDbEntity
8
0
100
AcDbLine
10
-7.7519999999999722
20
54.085999999139752
30
0
11
-7.7519999999999722
21
55.84098592991009
31
0
0
LINE
5
399
100
AcDbEntity
8
0
100
AcDbLine
10
-7.7519999999999722
20
46.74099999913976
30
0
11
-7.7519999999999722
21
47.385999999139756
31
0
0
LINE
5
400
100
AcDbEntity
8
0
100
AcDbLine
10
37.000263919260036
20
47.385999999139742
30
0
11
37.00026391926005
21
47.335999999139744
31
0
0
LINE
5
401
100
AcDbEntity
8
0
100
AcDbLine
10
74.000263969555036
20
47.335999999139744
30
0
11
74.000263969555036
21
47.385999999139742
31
0
0
LINE
5
402
100
AcDbEntity
8
0
100
AcDbLine
10
73.950263969555039
20
47.285999999139747
30
0
11
73.500263969555036
21
47.285999999139747
31
0
0
ARC
5
403
100
AcDbEntity
8
0
100
AcDbCircle
10
73.950263969555039
20
47.335999999139744
30
0
40
0.049999999999998934
100
AcDbArc
50
-90
51
0
0
LINE
5
404
100
AcDbEntity
8
0
100
AcDbLine
10
37.500263919260036
20
47.285999999139747
30
0
11
37.050263919260132
21
47.285999999139747
31
0
0
LINE
5
405
100
AcDbEntity
8
0
100
AcDbLine
10
37.500263919260036
20
47.285999999139747
30
0
11
49.948000168600039
21
47.285999999139747
31
0
0
LINE
5
406
100
AcDbEntity
8
0
100
AcDbLine
10
52.548000168600034
20
47.285999999139747
30
0
11
69.948000296195033
21
47.285999999139747
31
0
0
LINE
5
407
100
AcDbEntity
8
0
100
AcDbLine
10
72.548000296195042
20
47.285999999139747
30
0
11
73.500263969555036
21
47.285999999139747
31
0
0
ARC
5
408
100
AcDbEntity
8
0
100
AcDbCircle
10
37.050263919260033
20
47.335999999139744
30
0
40
0.049999999999985612
100
AcDbArc
50
180
51
270.00000000011397
0
LINE
5
409
100
AcDbEntity
8
0
100
AcDbLine
10
31.000263919260036
20
47.335999999139744
30
0
11
31.000263919260036
21
47.385999999139742
31
0
0
LINE
5
410
100
AcDbEntity
8
0
100
AcDbLine
10
-5.9997361310399722
20
47.385999999139756
30
0
11
-5.9997361310399722
21
47.335999999139759
31
0
0
ARC
5
411
100
AcDbEntity
8
0
100
AcDbCircle
10
30.950263919260035
20
47.335999999139744
30
0
40
0.049999999999998934
100
AcDbArc
50
-90
51
0
0
LINE
5
412
100
AcDbEntity
8
0
100
AcDbLine
10
-5.4997361310399739
20
47.285999999139754
30
0
11
-5.9497361310399741
21
47.285999999139754
31
0
0
LINE
5
413
100
AcDbEntity
8
0
100
AcDbLine
10
-5.4997361310399739
20
47.285999999139754
30
0
11
6.9480002459000367
21
47.285999999139754
31
0
0
LINE
5
414
100
AcDbEntity
8
0
100
AcDbLine
10
9.5480002459000257
20
47.285999999139754
30
0
11
26.948000168600039
21
47.285999999139747
31
0
0
LINE
5
415
100
AcDbEntity
8
0
100
AcDbLine
10
29.548000168600037
20
47.285999999139747
30
0
11
30.500263919260032
21
47.285999999139754
31
0
0
LINE
5
416
100
AcDbEntity
8
0
100
AcDbLine
10
30.950263919260035
20
47.285999999139747
30
0
11
30.500263919260032
21
47.285999999139754
31
0
0
ARC
5
417
100
AcDbEntity
8
0
100
AcDbCircle
10
-5.9497361310399643
20
47.335999999139759
30
0
40
0.050000000000007816
100
AcDbArc
50
180
51
269.9999999999888
0
LINE
5
418
100
AcDbEntity
8
0
100
AcDbLine
10
31.000263919260036
20
54.085999999139752
30
0
11
31.000263919260036
21
54.135999999139756
31
0
0
LINE
5
419
100
AcDbEntity
8
0
100
AcDbLine
10
-5.9997361310399722
20
54.135999999139756
30
0
11
-5.9997361310399722
21
54.085999999139752
31
0
0
ARC
5
420
100
AcDbEntity
8
0
100
AcDbCircle
10
30.950263919260035
20
54.135999999139756
30
0
40
0.049999999999998934
100
AcDbArc
50
0
51
90
0
LINE
5
421
100
AcDbEntity
8
0
100
AcDbLine
10
30.500263919260032
20
54.185999999139753
30
0
11
30.950263919260035
21
54.185999999139753
31
0
0
LINE
5
422
100
AcDbEntity
8
0
100
AcDbLine
10
30.500263919260032
20
54.185999999139753
30
0
11
29.548000168600037
21
54.185999999139739
31
0
0
LINE
5
423
100
AcDbEntity
8
0
100
AcDbLine
10
26.948000168600039
20
54.185999999139739
30
0
11
9.5480002459000257
21
54.185999999139739
31
0
0
LINE
5
424
100
AcDbEntity
8
0
100
AcDbLine
10
6.9480002459000367
20
54.185999999139739
30
0
11
-5.4997361310399739
21
54.185999999139753
31
0
0
LINE
5
425
100
AcDbEntity
8
0
100
AcDbLine
10
-5.9497361310399741
20
54.185999999139753
30
0
11
-5.4997361310399739
21
54.185999999139753
31
0
0
ARC
5
426
100
AcDbEntity
8
0
100
AcDbCircle
10
-5.9497361310399643
20
54.135999999139756
30
0
40
0.049999999999998934
100
AcDbArc
50
90.000000000011198
51
180
0
LINE
5
427
100
AcDbEntity
8
0
100
AcDbLine
10
37.000263919260036
20
54.135999999139756
30
0
11
37.000263919260036
21
54.085999999139752
31
0
0
LINE
5
428
100
AcDbEntity
8
0
100
AcDbLine
10
74.000263969555036
20
54.085999999139744
30
0
11
74.000263969555022
21
54.135999999139742
31
0
0
LINE
5
429
100
AcDbEntity
8
0
100
AcDbLine
10
73.500263969555036
20
54.185999999139753
30
0
11
72.548000296195042
21
54.185999999139753
31
0
0
LINE
5
430
100
AcDbEntity
8
0
100
AcDbLine
10
69.948000296195033
20
54.185999999139753
30
0
11
52.548000168600034
21
54.185999999139753
31
0
0
LINE
5
431
100
AcDbEntity
8
0
100
AcDbLine
10
49.948000168600039
20
54.18599999913976
30
0
11
37.500263919260036
21
54.185999999139753
31
0
0
LINE
5
432
100
AcDbEntity
8
0
100
AcDbLine
10
73.500263969555036
20
54.185999999139753
30
0
11
73.950263969555039
21
54.185999999139753
31
0
0
LINE
5
433
100
AcDbEntity
8
0
100
AcDbLine
10
37.050263919260132
20
54.185999999139753
30
0
11
37.500263919260036
21
54.185999999139753
31
0
0
ARC
5
434
100
AcDbEntity
8
0
100
AcDbCircle
10
73.950263969555039
20
54.135999999139756
30
0
40
0.049999999999990052
100
AcDbArc
50
0
51
90
0
ARC
5
435
100
AcDbEntity
8
0
100
AcDbCircle
10
37.050263919260033
20
54.135999999139756
30
0
40
0.049999999999998934
100
AcDbArc
50
89.999999999886015
51
180
0
LINE
5
436
100
AcDbEntity
8
0
100
AcDbLine
10
75.126974144027031
20
54.085999999139744
30
0
11
75.126974144027031
21
54.086308658664748
31
0
0
LINE
5
437
100
AcDbEntity
8
0
100
AcDbLine
10
75.369025855979032
20
54.085999999139744
30
0
11
75.369025855979032
21
54.086308658664748
31
0
0
LINE
5
438
100
AcDbEntity
8
0
100
AcDbLine
10
75.369025855979032
20
54.086308658664748
30
0
11
75.126974144027031
21
54.086308658664748
31
0
0
LINE
5
439
100
AcDbEntity
8
0
100
AcDbLine
10
-6.8730258559699653
20
54.085999999139752
30
0
11
-6.8730258559699653
21
54.086308660239752
31
0
0
LINE
5
440
100
AcDbEntity
8
0
100
AcDbLine
10
-6.8730258559699653
20
54.086308660239752
30
0
11
-6.6309741440199677
21
54.086308660239752
31
0
0
LINE
5
441
100
AcDbEntity
8
0
100
AcDbLine
10
-6.6309741440199677
20
54.085999999139752
30
0
11
-6.6309741440199677
21
54.086308660239752
31
0
0
LINE
5
442
100
AcDbEntity
8
0
100
AcDbLine
10
-17.585264900779961
20
43.840999999139754
30
1.1102230246251565e-15
11
-17.585264900779965
21
46.74099999913976
31
0
0
LINE
5
443
100
AcDbEntity
8
0
100
AcDbLine
10
-17.585264900779961
20
55.840999994939324
30
0
11
-17.585264900779961
21
57.630999999139753
31
1.1102230246251565e-15
0
LINE
5
444
100
AcDbEntity
8
0
100
AcDbLine
10
-5.9997361310399722
20
74.405999999139766
30
0
11
-6.6309741440199677
21
74.405999999139766
31
0
0
LINE
5
445
100
AcDbEntity
8
0
100
AcDbLine
10
-6.8730258559699653
20
74.405999999139766
30
0
11
-7.7519999999999722
21
74.405999999139766
31
0
0
LINE
5
446
100
AcDbEntity
8
0
100
AcDbLine
10
6.9480002459000367
20
75.055999999139758
30
0
11
6.9480002459000367
21
74.50599999913976
31
0
0
LINE
5
447
100
AcDbEntity
8
0
100
AcDbLine
10
6.9480002459000367
20
75.055999999139758
30
0
11
9.5480002459000257
21
75.055999999139758
31
0
0
LINE
5
448
100
AcDbEntity
8
0
100
AcDbLine
10
9.5480002459000257
20
75.055999999139758
30
0
11
9.5480002459000257
21
74.50599999913976
31
0
0
LINE
5
449
100
AcDbEntity
8
0
100
AcDbLine
10
26.948000168600039
20
75.055999999139758
30
0
11
26.948000168600039
21
74.50599999913976
31
0
0
LINE
5
450
100
AcDbEntity
8
0
100
AcDbLine
10
26.948000168600039
20
75.055999999139758
30
0
11
29.548000168600034
21
75.055999999139758
31
0
0
LINE
5
451
100
AcDbEntity
8
0
100
AcDbLine
10
29.548000168600034
20
75.055999999139758
30
0
11
29.548000168600037
21
74.50599999913976
31
0
0
LINE
5
452
100
AcDbEntity
8
0
100
AcDbLine
10
37.000263919260036
20
74.405999999139766
30
0
11
31.000263919260036
21
74.405999999139766
31
0
0
LINE
5
453
100
AcDbEntity
8
0
100
AcDbLine
10
49.948000168600039
20
75.055999999139758
30
0
11
49.948000168600039
21
74.505999999139775
31
0
0
LINE
5
454
100
AcDbEntity
8
0
100
AcDbLine
10
49.948000168600039
20
75.055999999139758
30
0
11
52.548000168600034
21
75.055999999139758
31
0
0
LINE
5
455
100
AcDbEntity
8
0
100
AcDbLine
10
52.548000168600034
20
75.055999999139758
30
0
11
52.548000168600034
21
74.505999999139775
31
0
0
LINE
5
456
100
AcDbEntity
8
0
100
AcDbLine
10
69.948000296195033
20
75.055999999139758
30
0
11
69.948000296195033
21
74.50599999913976
31
0
0
LINE
5
457
100
AcDbEntity
8
0
100
AcDbLine
10
69.948000296195033
20
75.055999999139758
30
0
11
72.548000296195042
21
75.055999999139758
31
0
0
LINE
5
458
100
AcDbEntity
8
0
100
AcDbLine
10
72.548000296195042
20
75.055999999139758
30
0
11
72.548000296195042
21
74.505999999139775
31
0
0
LINE
5
459
100
AcDbEntity
8
0
100
AcDbLine
10
76.748000000003046
20
74.405999999139752
30
0
11
75.369025855979032
21
74.405999999139752
31
0
0
LINE
5
460
100
AcDbEntity
8
0
100
AcDbLine
10
75.126974144027031
20
74.405999999139752
30
0
11
74.000263969555036
21
74.405999999139752
31
0
0
LINE
5
461
100
AcDbEntity
8
0
100
AcDbLine
10
79.248000000000033
20
68.880999999118757
30
0
11
79.248000000000033
21
73.230999999252759
31
0
0
LINE
5
462
100
AcDbEntity
8
0
100
AcDbLine
10
74.000263969555036
20
67.705999999139749
30
0
11
76.748000000003046
21
67.705999999139749
31
0
0
LINE
5
463
100
AcDbEntity
8
0
100
AcDbLine
10
72.548000296195042
20
67.055999999139758
30
0
11
72.548000296195042
21
67.605999999139755
31
0
0
LINE
5
464
100
AcDbEntity
8
0
100
AcDbLine
10
69.948000296195033
20
67.055999999139758
30
0
11
72.548000296195042
21
67.055999999139758
31
0
0
LINE
5
465
100
AcDbEntity
8
0
100
AcDbLine
10
69.948000296195033
20
67.055999999139758
30
0
11
69.948000296195033
21
67.605999999139755
31
0
0
LINE
5
466
100
AcDbEntity
8
0
100
AcDbLine
10
52.548000168600034
20
67.055999999139758
30
0
11
52.548000168600034
21
67.605999999139755
31
0
0
LINE
5
467
100
AcDbEntity
8
0
100
AcDbLine
10
49.948000168600039
20
67.055999999139758
30
0
11
52.548000168600034
21
67.055999999139758
31
0
0
LINE
5
468
100
AcDbEntity
8
0
100
AcDbLine
10
49.948000168600039
20
67.055999999139758
30
0
11
49.948000168600039
21
67.605999999139755
31
0
0
LINE
5
469
100
AcDbEntity
8
0
100
AcDbLine
10
37.000263919260036
20
67.705999999139749
30
0
11
31.000263919260036
21
67.705999999139749
31
0
0
LINE
5
470
100
AcDbEntity
8
0
100
AcDbLine
10
29.548000168600037
20
67.055999999139758
30
0
11
29.548000168600037
21
67.605999999139755
31
0
0
LINE
5
471
100
AcDbEntity
8
0
100
AcDbLine
10
26.948000168600039
20
67.055999999139758
30
0
11
29.548000168600037
21
67.055999999139758
31
0
0
LINE
5
472
100
AcDbEntity
8
0
100
AcDbLine
10
26.948000168600039
20
67.055999999139758
30
0
11
26.948000168600039
21
67.605999999139755
31
0
0
LINE
5
473
100
AcDbEntity
8
0
100
AcDbLine
10
9.5480002459000257
20
67.055999999139758
30
0
11
9.5480002459000257
21
67.605999999139755
31
0
0
LINE
5
474
100
AcDbEntity
8
0
100
AcDbLine
10
6.9480002459000367
20
67.055999999139758
30
0
11
9.5480002459000257
21
67.055999999139758
31
0
0
LINE
5
475
100
AcDbEntity
8
0
100
AcDbLine
10
6.9480002459000367
20
67.055999999139758
30
0
11
6.9480002459000367
21
67.605999999139755
31
0
0
LINE
5
476
100
AcDbEntity
8
0
100
AcDbLine
10
-5.9997361310399722
20
67.705999999139763
30
0
11
-7.7519999999999722
21
67.705999999139763
31
0
0
LINE
5
477
100
AcDbEntity
8
0
100
AcDbLine
10
76.748000000003046
20
76.160999999139761
30
0
11
76.748000000003046
21
74.405999999139752
31
0
0
LINE
5
478
100
AcDbEntity
8
0
100
AcDbLine
10
79.248000000000033
20
76.160999999139761
30
0
11
76.748000000003046
21
76.160999999139761
31
0
0
LINE
5
479
100
AcDbEntity
8
0
100
AcDbLine
10
79.248000000000033
20
73.730999999139755
30
0
11
79.248000000000033
21
76.160999999139761
31
0
0
LINE
5
480
100
AcDbEntity
8
0
100
AcDbLine
10
79.248000000000033
20
73.730999999139755
30
0
11
79.248000000000033
21
73.230999999252759
31
0
0
LINE
5
481
100
AcDbEntity
8
0
100
AcDbLine
10
79.248000000000033
20
68.38099999913976
30
0
11
79.248000000000033
21
67.055999999999912
31
0
0
LINE
5
482
100
AcDbEntity
8
0
100
AcDbLine
10
79.248000000000033
20
68.880999999118757
30
0
11
79.248000000000033
21
68.38099999913976
31
0
0
LINE
5
483
100
AcDbEntity
8
0
100
AcDbLine
10
76.748000000003046
20
67.055999999126755
30
0
11
79.248000000000033
21
67.055999999999912
31
0
0
LINE
5
484
100
AcDbEntity
8
0
100
AcDbLine
10
76.748000000003046
20
67.705999999139749
30
0
11
76.748000000003046
21
67.061154525125232
31
0
0
LINE
5
485
100
AcDbEntity
8
0
100
AcDbLine
10
76.748000000003046
20
67.061130678091402
30
0
11
76.748000000003046
21
67.055999999126755
31
0
0
LINE
5
486
100
AcDbEntity
8
0
100
AcDbLine
10
-17.585264900779965
20
67.060999999139767
30
0
11
-11.251999999999969
21
67.060999999139767
31
0
0
LINE
5
487
100
AcDbEntity
8
0
100
AcDbLine
10
-11.251999999999969
20
67.060999999139767
30
0
11
-7.7519999999999722
21
67.060999999139767
31
0
0
LINE
5
488
100
AcDbEntity
8
0
100
AcDbLine
10
-25.977665650187724
20
64.160999999139761
30
-1.1102230246251565e-15
11
-26.191998368409962
21
64.160999999139761
31
-1.1102230246251565e-15
0
LINE
5
489
100
AcDbEntity
8
0
100
AcDbLine
10
-23.468951509071321
20
64.160999999139761
30
-1.1102230246251565e-15
11
-25.977665650187724
21
64.160999999139761
31
-1.1102230246251565e-15
0
LINE
5
490
100
AcDbEntity
8
0
100
AcDbLine
10
-23.298256179039978
20
64.160999999139761
30
-1.1102230246251565e-15
11
-23.468951509071321
21
64.160999999139761
31
-1.1102230246251565e-15
0
LINE
5
491
100
AcDbEntity
8
0
100
AcDbLine
10
-22.798261423049972
20
64.160999999139761
30
-1.1102230246251565e-15
11
-23.298256179039978
21
64.160999999139761
31
-1.1102230246251565e-15
0
LINE
5
492
100
AcDbEntity
8
0
100
AcDbLine
10
-17.88526490055996
20
64.160999999139761
30
-1.1102230246251565e-15
11
-22.798261423049972
21
64.160999999139761
31
-1.1102230246251565e-15
0
LINE
5
493
100
AcDbEntity
8
0
100
AcDbLine
10
-17.585264900779961
20
64.160999999139761
30
-1.1102230246251565e-15
11
-17.88526490055996
21
64.160999999139761
31
-1.1102230246251565e-15
0
LINE
5
494
100
AcDbEntity
8
0
100
AcDbLine
10
-25.041999999999966
20
72.361856206910048
30
0
11
-25.041999999999966
21
69.805999999139772
31
0
0
LINE
5
495
100
AcDbEntity
8
0
100
AcDbLine
10
-11.251999999999969
20
76.160999988670767
30
0
11
-17.585264900779961
21
76.160999994939331
31
0
0
LINE
5
496
100
AcDbEntity
8
0
100
AcDbLine
10
-17.885264900779958
20
77.950999999139754
30
-1.1102230246251565e-15
11
-17.585264900779961
21
77.950999999139754
31
-1.1102230246251565e-15
0
LINE
5
497
100
AcDbEntity
8
0
100
AcDbLine
10
-22.798256179039981
20
77.950999999139754
30
-1.1102230246251565e-15
11
-17.885264900779958
21
77.950999999139754
31
-1.1102230246251565e-15
0
LINE
5
498
100
AcDbEntity
8
0
100
AcDbLine
10
-23.298256179039981
20
77.950999999139754
30
-1.1102230246251565e-15
11
-22.798256179039981
21
77.950999999139754
31
-1.1102230246251565e-15
0
LINE
5
499
100
AcDbEntity
8
0
100
AcDbLine
10
-23.468951509170523
20
77.950999999139754
30
-1.1102230246251565e-15
11
-23.298256179039981
21
77.950999999139754
31
-1.1102230246251565e-15
0
LINE
5
500
100
AcDbEntity
8
0
100
AcDbLine
10
-25.977665650229966
20
77.950999999139754
30
-1.1102230246251565e-15
11
-23.468951509170523
21
77.950999999139754
31
-1.1102230246251565e-15
0
LINE
5
501
100
AcDbEntity
8
0
100
AcDbLine
10
-26.191998368409962
20
77.950999999139754
30
-1.1102230246251565e-15
11
-25.977665650229966
21
77.950999999139754
31
-1.1102230246251565e-15
0
LINE
5
502
100
AcDbEntity
8
0
100
AcDbLine
10
-26.191998368409976
20
69.805999999139758
30
-1.1102230246251565e-15
11
-26.191998368409962
21
64.160999999139761
31
-1.1102230246251565e-15
0
LINE
5
503
100
AcDbEntity
8
0
100
AcDbLine
10
-26.191998368409976
20
69.805999999139758
30
-1.1102230246251565e-15
11
-25.97766565022075
21
69.805999999139758
31
-1.1102230246251565e-15
0
LINE
5
504
100
AcDbEntity
8
0
100
AcDbLine
10
-25.97766565022075
20
69.805999999139758
30
-1.1102230246251565e-15
11
-25.041999999999966
21
69.805999999139772
31
0
0
LINE
5
505
100
AcDbEntity
8
0
100
AcDbLine
10
-25.97766565022993
20
72.361856206910062
30
-1.1102230246251565e-15
11
-26.191998368409966
21
72.361856206910062
31
-1.1102230246251565e-15
0
LINE
5
506
100
AcDbEntity
8
0
100
AcDbLine
10
-25.041999999999966
20
72.361856206910048
30
0
11
-25.97766565022993
21
72.361856206910062
31
-1.1102230246251565e-15
0
LINE
5
507
100
AcDbEntity
8
0
100
AcDbLine
10
-26.191998368409962
20
77.950999999139754
30
-1.1102230246251565e-15
11
-26.191998368409966
21
72.361856206910062
31
-1.1102230246251565e-15
0
LINE
5
508
100
AcDbEntity
8
0
100
AcDbLine
10
-11.251999999999969
20
76.160999888092761
30
0
11
-7.7520000000000744
21
76.160999220876874
31
0
0
LINE
5
509
100
AcDbEntity
8
0
100
AcDbLine
10
-7.7519999999999722
20
74.405999999139766
30
0
11
-7.7519999999999722
21
76.160985929910098
31
0
0
LINE
5
510
100
AcDbEntity
8
0
100
AcDbLine
10
-7.7519999999999722
20
67.060999999139767
30
0
11
-7.7519999999999722
21
67.705999999139763
31
0
0
LINE
5
511
100
AcDbEntity
8
0
100
AcDbLine
10
37.000263919260036
20
67.705999999139749
30
0
11
37.00026391926005
21
67.655999999139752
31
0
0
LINE
5
512
100
AcDbEntity
8
0
100
AcDbLine
10
74.000263969555036
20
67.655999999139752
30
0
11
74.000263969555036
21
67.705999999139749
31
0
0
LINE
5
513
100
AcDbEntity
8
0
100
AcDbLine
10
73.950263969555039
20
67.605999999139755
30
0
11
73.500263969555036
21
67.605999999139755
31
0
0
ARC
5
514
100
AcDbEntity
8
0
100
AcDbCircle
10
73.950263969555039
20
67.655999999139752
30
0
40
0.049999999999998934
100
AcDbArc
50
-90
51
0
0
LINE
5
515
100
AcDbEntity
8
0
100
AcDbLine
10
37.500263919260036
20
67.605999999139755
30
0
11
37.050263919260132
21
67.605999999139755
31
0
0
LINE
5
516
100
AcDbEntity
8
0
100
AcDbLine
10
37.500263919260036
20
67.605999999139755
30
0
11
49.948000168600039
21
67.605999999139755
31
0
0
LINE
5
517
100
AcDbEntity
8
0
100
AcDbLine
10
52.548000168600034
20
67.605999999139755
30
0
11
69.948000296195033
21
67.605999999139755
31
0
0
LINE
5
518
100
AcDbEntity
8
0
100
AcDbLine
10
72.548000296195042
20
67.605999999139755
30
0
11
73.500263969555036
21
67.605999999139755
31
0
0
ARC
5
519
100
AcDbEntity
8
0
100
AcDbCircle
10
37.050263919260033
20
67.655999999139752
30
0
40
0.049999999999985612
100
AcDbArc
50
180
51
270.00000000011397
0
LINE
5
520
100
AcDbEntity
8
0
100
AcDbLine
10
31.000263919260036
20
67.655999999139752
30
0
11
31.000263919260036
21
67.705999999139749
31
0
0
LINE
5
521
100
AcDbEntity
8
0
100
AcDbLine
10
-5.9997361310399722
20
67.705999999139763
30
0
11
-5.9997361310399722
21
67.655999999139766
31
0
0
ARC
5
522
100
AcDbEntity
8
0
100
AcDbCircle
10
30.950263919260035
20
67.655999999139752
30
0
40
0.049999999999998934
100
AcDbArc
50
-90
51
0
0
LINE
5
523
100
AcDbEntity
8
0
100
AcDbLine
10
-5.4997361310399739
20
67.605999999139769
30
0
11
-5.9497361310399741
21
67.605999999139769
31
0
0
LINE
5
524
100
AcDbEntity
8
0
100
AcDbLine
10
-5.4997361310399739
20
67.605999999139769
30
0
11
6.9480002459000367
21
67.605999999139755
31
0
0
LINE
5
525
100
AcDbEntity
8
0
100
AcDbLine
10
9.5480002459000257
20
67.605999999139755
30
0
11
26.948000168600039
21
67.605999999139755
31
0
0
LINE
5
526
100
AcDbEntity
8
0
100
AcDbLine
10
29.548000168600037
20
67.605999999139755
30
0
11
30.500263919260032
21
67.605999999139769
31
0
0
LINE
5
527
100
AcDbEntity
8
0
100
AcDbLine
10
30.950263919260035
20
67.605999999139755
30
0
11
30.500263919260032
21
67.605999999139769
31
0
0
ARC
5
528
100
AcDbEntity
8
0
100
AcDbCircle
10
-5.9497361310399643
20
67.655999999139766
30
0
40
0.050000000000007816
100
AcDbArc
50
180
51
269.9999999999888
0
LINE
5
529
100
AcDbEntity
8
0
100
AcDbLine
10
31.000263919260036
20
74.405999999139766
30
0
11
31.000263919260036
21
74.455999999139763
31
0
0
LINE
5
530
100
AcDbEntity
8
0
100
AcDbLine
10
-5.9997361310399722
20
74.455999999139763
30
0
11
-5.9997361310399722
21
74.405999999139766
31
0
0
ARC
5
531
100
AcDbEntity
8
0
100
AcDbCircle
10
30.950263919260035
20
74.455999999139763
30
0
40
0.049999999999998934
100
AcDbArc
50
0
51
90
0
LINE
5
532
100
AcDbEntity
8
0
100
AcDbLine
10
30.500263919260032
20
74.50599999913976
30
0
11
30.950263919260035
21
74.50599999913976
31
0
0
LINE
5
533
100
AcDbEntity
8
0
100
AcDbLine
10
30.500263919260032
20
74.50599999913976
30
0
11
29.548000168600037
21
74.50599999913976
31
0
0
LINE
5
534
100
AcDbEntity
8
0
100
AcDbLine
10
26.948000168600039
20
74.50599999913976
30
0
11
9.5480002459000257
21
74.50599999913976
31
0
0
LINE
5
535
100
AcDbEntity
8
0
100
AcDbLine
10
6.9480002459000367
20
74.50599999913976
30
0
11
-5.4997361310399739
21
74.50599999913976
31
0
0
LINE
5
536
100
AcDbEntity
8
0
100
AcDbLine
10
-5.9497361310399741
20
74.50599999913976
30
0
11
-5.4997361310399739
21
74.50599999913976
31
0
0
ARC
5
537
100
AcDbEntity
8
0
100
AcDbCircle
10
-5.9497361310399643
20
74.455999999139763
30
0
40
0.049999999999998934
100
AcDbArc
50
90.000000000011198
51
180
0
LINE
5
538
100
AcDbEntity
8
0
100
AcDbLine
10
37.000263919260036
20
74.455999999139763
30
0
11
37.000263919260036
21
74.405999999139766
31
0
0
LINE
5
539
100
AcDbEntity
8
0
100
AcDbLine
10
74.000263969555036
20
74.405999999139752
30
0
11
74.000263969555022
21
74.455999999139749
31
0
0
LINE
5
540
100
AcDbEntity
8
0
100
AcDbLine
10
73.500263969555036
20
74.50599999913976
30
0
11
72.548000296195042
21
74.505999999139775
31
0
0
LINE
5
541
100
AcDbEntity
8
0
100
AcDbLine
10
69.948000296195033
20
74.50599999913976
30
0
11
52.548000168600034
21
74.505999999139775
31
0
0
LINE
5
542
100
AcDbEntity
8
0
100
AcDbLine
10
49.948000168600039
20
74.505999999139775
30
0
11
37.500263919260036
21
74.50599999913976
31
0
0
LINE
5
543
100
AcDbEntity
8
0
100
AcDbLine
10
73.500263969555036
20
74.50599999913976
30
0
11
73.950263969555039
21
74.50599999913976
31
0
0
LINE
5
544
100
AcDbEntity
8
0
100
AcDbLine
10
37.050263919260132
20
74.50599999913976
30
0
11
37.500263919260036
21
74.50599999913976
31
0
0
ARC
5
545
100
AcDbEntity
8
0
100
AcDbCircle
10
73.950263969555039
20
74.455999999139749
30
0
40
0.049999999999990052
100
AcDbArc
50
0
51
90
0
ARC
5
546
100
AcDbEntity
8
0
100
AcDbCircle
10
37.050263919260033
20
74.455999999139763
30
0
40
0.049999999999998934
100
AcDbArc
50
89.999999999886015
51
180
0
LINE
5
547
100
AcDbEntity
8
0
100
AcDbLine
10
75.126974144027031
20
74.405999999139752
30
0
11
75.126974144027031
21
74.406308658664756
31
0
0
LINE
5
548
100
AcDbEntity
8
0
100
AcDbLine
10
75.369025855979032
20
74.405999999139752
30
0
11
75.369025855979032
21
74.406308658664756
31
0
0
LINE
5
549
100
AcDbEntity
8
0
100
AcDbLine
10
75.369025855979032
20
74.406308658664756
30
0
11
75.126974144027031
21
74.406308658664756
31
0
0
LINE
5
550
100
AcDbEntity
8
0
100
AcDbLine
10
-6.8730258559699653
20
74.405999999139766
30
0
11
-6.8730258559699653
21
74.406308660239759
31
0
0
LINE
5
551
100
AcDbEntity
8
0
100
AcDbLine
10
-6.8730258559699653
20
74.406308660239759
30
0
11
-6.6309741440199677
21
74.406308660239773
31
0
0
LINE
5
552
100
AcDbEntity
8
0
100
AcDbLine
10
-6.6309741440199677
20
74.405999999139766
30
0
11
-6.6309741440199677
21
74.406308660239773
31
0
0
LINE
5
553
100
AcDbEntity
8
0
100
AcDbLine
10
-17.585264900779961
20
64.160999999139761
30
-1.1102230246251565e-15
11
-17.585264900779965
21
67.060999999139767
31
0
0
LINE
5
554
100
AcDbEntity
8
0
100
AcDbLine
10
-17.585264900779961
20
76.160999994939331
30
0
11
-17.585264900779961
21
77.950999999139754
31
-1.1102230246251565e-15
0
LINE
5
555
100
AcDbEntity
8
0
100
AcDbLine
10
-5.9997361310399722
20
94.725999999139745
30
0
11
-6.6309741440199677
21
94.725999999139745
31
0
0
LINE
5
556
100
AcDbEntity
8
0
100
AcDbLine
10
-6.8730258559699653
20
94.725999999139745
30
0
11
-7.7519999999999722
21
94.725999999139745
31
0
0
LINE
5
557
100
AcDbEntity
8
0
100
AcDbLine
10
6.9480002459000367
20
95.375999999139736
30
0
11
6.9480002459000367
21
94.825999999139739
31
0
0
LINE
5
558
100
AcDbEntity
8
0
100
AcDbLine
10
6.9480002459000367
20
95.375999999139736
30
0
11
9.5480002459000257
21
95.375999999139736
31
0
0
LINE
5
559
100
AcDbEntity
8
0
100
AcDbLine
10
9.5480002459000257
20
95.375999999139736
30
0
11
9.5480002459000257
21
94.825999999139739
31
0
0
LINE
5
560
100
AcDbEntity
8
0
100
AcDbLine
10
26.948000168600039
20
95.375999999139736
30
0
11
26.948000168600039
21
94.825999999139754
31
0
0
LINE
5
561
100
AcDbEntity
8
0
100
AcDbLine
10
26.948000168600039
20
95.375999999139736
30
0
11
29.548000168600034
21
95.375999999139736
31
0
0
LINE
5
562
100
AcDbEntity
8
0
100
AcDbLine
10
29.548000168600034
20
95.375999999139736
30
0
11
29.548000168600037
21
94.825999999139739
31
0
0
LINE
5
563
100
AcDbEntity
8
0
100
AcDbLine
10
37.000263919260036
20
94.725999999139745
30
0
11
31.000263919260036
21
94.725999999139745
31
0
0
LINE
5
564
100
AcDbEntity
8
0
100
AcDbLine
10
49.948000168600039
20
95.375999999139736
30
0
11
49.948000168600039
21
94.825999999139739
31
0
0
LINE
5
565
100
AcDbEntity
8
0
100
AcDbLine
10
49.948000168600039
20
95.375999999139736
30
0
11
52.548000168600034
21
95.375999999139736
31
0
0
LINE
5
566
100
AcDbEntity
8
0
100
AcDbLine
10
52.548000168600034
20
95.375999999139736
30
0
11
52.548000168600034
21
94.825999999139739
31
0
0
LINE
5
567
100
AcDbEntity
8
0
100
AcDbLine
10
69.948000296195033
20
95.375999999139736
30
0
11
69.948000296195033
21
94.825999999139754
31
0
0
LINE
5
568
100
AcDbEntity
8
0
100
AcDbLine
10
69.948000296195033
20
95.375999999139736
30
0
11
72.548000296195042
21
95.375999999139736
31
0
0
LINE
5
569
100
AcDbEntity
8
0
100
AcDbLine
10
72.548000296195042
20
95.375999999139736
30
0
11
72.548000296195042
21
94.825999999139725
31
0
0
LINE
5
570
100
AcDbEntity
8
0
100
AcDbLine
10
76.748000000003046
20
94.725999999139745
30
0
11
75.369025855979032
21
94.725999999139745
31
0
0
LINE
5
571
100
AcDbEntity
8
0
100
AcDbLine
10
75.126974144027045
20
94.725999999139745
30
0
11
74.000263969555036
21
94.725999999139745
31
0
0
LINE
5
572
100
AcDbEntity
8
0
100
AcDbLine
10
79.248000000000033
20
89.20099999911875
30
0
11
79.248000000000033
21
93.550999999252738
31
0
0
LINE
5
573
100
AcDbEntity
8
0
100
AcDbLine
10
74.000263969555036
20
88.025999999139742
30
0
11
76.748000000003046
21
88.025999999139742
31
0
0
LINE
5
574
100
AcDbEntity
8
0
100
AcDbLine
10
72.548000296195042
20
87.375999999139736
30
0
11
72.548000296195042
21
87.925999999139748
31
0
0
LINE
5
575
100
AcDbEntity
8
0
100
AcDbLine
10
69.948000296195033
20
87.375999999139736
30
0
11
72.548000296195042
21
87.375999999139736
31
0
0
LINE
5
576
100
AcDbEntity
8
0
100
AcDbLine
10
69.948000296195033
20
87.375999999139736
30
0
11
69.948000296195033
21
87.925999999139748
31
0
0
LINE
5
577
100
AcDbEntity
8
0
100
AcDbLine
10
52.548000168600034
20
87.375999999139736
30
0
11
52.548000168600034
21
87.925999999139748
31
0
0
LINE
5
578
100
AcDbEntity
8
0
100
AcDbLine
10
49.948000168600039
20
87.375999999139736
30
0
11
52.548000168600034
21
87.375999999139736
31
0
0
LINE
5
579
100
AcDbEntity
8
0
100
AcDbLine
10
49.948000168600039
20
87.375999999139736
30
0
11
49.948000168600039
21
87.925999999139748
31
0
0
LINE
5
580
100
AcDbEntity
8
0
100
AcDbLine
10
37.000263919260036
20
88.025999999139742
30
0
11
31.000263919260036
21
88.025999999139742
31
0
0
LINE
5
581
100
AcDbEntity
8
0
100
AcDbLine
10
29.548000168600037
20
87.375999999139751
30
0
11
29.548000168600037
21
87.925999999139748
31
0
0
LINE
5
582
100
AcDbEntity
8
0
100
AcDbLine
10
26.948000168600039
20
87.375999999139751
30
0
11
29.548000168600037
21
87.375999999139751
31
0
0
LINE
5
583
100
AcDbEntity
8
0
100
AcDbLine
10
26.948000168600039
20
87.375999999139751
30
0
11
26.948000168600039
21
87.925999999139748
31
0
0
LINE
5
584
100
AcDbEntity
8
0
100
AcDbLine
10
9.5480002459000257
20
87.375999999139751
30
0
11
9.5480002459000257
21
87.925999999139748
31
0
0
LINE
5
585
100
AcDbEntity
8
0
100
AcDbLine
10
6.9480002459000367
20
87.375999999139751
30
0
11
9.5480002459000257
21
87.375999999139751
31
0
0
LINE
5
586
100
AcDbEntity
8
0
100
AcDbLine
10
6.9480002459000367
20
87.375999999139751
30
0
11
6.9480002459000367
21
87.925999999139748
31
0
0
LINE
5
587
100
AcDbEntity
8
0
100
AcDbLine
10
-5.9997361310399722
20
88.025999999139742
30
0
11
-7.7519999999999722
21
88.025999999139742
31
0
0
LINE
5
588
100
AcDbEntity
8
0
100
AcDbLine
10
76.748000000003046
20
96.48099999913974
30
0
11
76.748000000003046
21
94.725999999139745
31
0
0
LINE
5
589
100
AcDbEntity
8
0
100
AcDbLine
10
79.248000000000033
20
96.48099999913974
30
0
11
76.748000000003046
21
96.48099999913974
31
0
0
LINE
5
590
100
AcDbEntity
8
0
100
AcDbLine
10
79.248000000000033
20
94.050999999139734
30
0
11
79.248000000000033
21
96.48099999913974
31
0
0
LINE
5
591
100
AcDbEntity
8
0
100
AcDbLine
10
79.248000000000033
20
94.050999999139734
30
0
11
79.248000000000033
21
93.550999999252738
31
0
0
LINE
5
592
100
AcDbEntity
8
0
100
AcDbLine
10
79.248000000000033
20
88.700999999139739
30
0
11
79.248000000000033
21
87.375999999999877
31
0
0
LINE
5
593
100
AcDbEntity
8
0
100
AcDbLine
10
79.248000000000033
20
89.20099999911875
30
0
11
79.248000000000033
21
88.700999999139739
31
0
0
LINE
5
594
100
AcDbEntity
8
0
100
AcDbLine
10
76.748000000003046
20
87.375999999126748
30
0
11
79.248000000000033
21
87.375999999999877
31
0
0
LINE
5
595
100
AcDbEntity
8
0
100
AcDbLine
10
76.748000000003046
20
88.025999999139742
30
0
11
76.748000000003046
21
87.381154525125197
31
0
0
LINE
5
596
100
AcDbEntity
8
0
100
AcDbLine
10
76.748000000003046
20
87.381130678091395
30
0
11
76.748000000003046
21
87.375999999126748
31
0
0
LINE
5
597
100
AcDbEntity
8
0
100
AcDbLine
10
-17.585264900779965
20
87.380999999139732
30
0
11
-11.251999999999969
21
87.380999999139732
31
0
0
LINE
5
598
100
AcDbEntity
8
0
100
AcDbLine
10
-11.251999999999969
20
87.380999999139732
30
0
11
-7.7519999999999722
21
87.380999999139732
31
0
0
LINE
5
599
100
AcDbEntity
8
0
100
AcDbLine
10
-25.977665650187724
20
84.480999999139755
30
1.1102230246251565e-15
11
-26.191998368409962
21
84.480999999139755
31
1.1102230246251565e-15
0
LINE
5
600
100
AcDbEntity
8
0
100
AcDbLine
10
-23.468951509071321
20
84.480999999139755
30
1.1102230246251565e-15
11
-25.977665650187724
21
84.480999999139755
31
1.1102230246251565e-15
0
LINE
5
601
100
AcDbEntity
8
0
100
AcDbLine
10
-23.298256179039978
20
84.480999999139755
30
1.1102230246251565e-15
11
-23.468951509071321
21
84.480999999139755
31
1.1102230246251565e-15
0
LINE
5
602
100
AcDbEntity
8
0
100
AcDbLine
10
-22.798261423049972
20
84.480999999139755
30
1.1102230246251565e-15
11
-23.298256179039978
21
84.480999999139755
31
1.1102230246251565e-15
0
LINE
5
603
100
AcDbEntity
8
0
100
AcDbLine
10
-17.88526490055996
20
84.480999999139755
30
1.1102230246251565e-15
11
-22.798261423049972
21
84.480999999139755
31
1.1102230246251565e-15
0
LINE
5
604
100
AcDbEntity
8
0
100
AcDbLine
10
-17.585264900779961
20
84.480999999139755
30
1.1102230246251565e-15
11
-17.88526490055996
21
84.480999999139755
31
1.1102230246251565e-15
0
LINE
5
605
100
AcDbEntity
8
0
100
AcDbLine
10
-25.041999999999966
20
92.681856206910055
30
0
11
-25.041999999999966
21
90.125999999139751
31
0
0
LINE
5
606
100
AcDbEntity
8
0
100
AcDbLine
10
-11.251999999999969
20
96.480999988670746
30
0
11
-17.585264900779961
21
96.48099999493931
31
0
0
LINE
5
607
100
AcDbEntity
8
0
100
AcDbLine
10
-17.885264900779958
20
98.270999999139747
30
1.1102230246251565e-15
11
-17.585264900779961
21
98.270999999139747
31
1.1102230246251565e-15
0
LINE
5
608
100
AcDbEntity
8
0
100
AcDbLine
10
-22.798256179039981
20
98.270999999139747
30
1.1102230246251565e-15
11
-17.885264900779958
21
98.270999999139747
31
1.1102230246251565e-15
0
LINE
5
609
100
AcDbEntity
8
0
100
AcDbLine
10
-23.298256179039981
20
98.270999999139747
30
1.1102230246251565e-15
11
-22.798256179039981
21
98.270999999139747
31
1.1102230246251565e-15
0
LINE
5
610
100
AcDbEntity
8
0
100
AcDbLine
10
-23.468951509170523
20
98.270999999139747
30
1.1102230246251565e-15
11
-23.298256179039981
21
98.270999999139747
31
1.1102230246251565e-15
0
LINE
5
611
100
AcDbEntity
8
0
100
AcDbLine
10
-25.977665650229966
20
98.270999999139747
30
1.1102230246251565e-15
11
-23.468951509170523
21
98.270999999139747
31
1.1102230246251565e-15
0
LINE
5
612
100
AcDbEntity
8
0
100
AcDbLine
10
-26.191998368409962
20
98.270999999139747
30
1.1102230246251565e-15
11
-25.977665650229966
21
98.270999999139747
31
1.1102230246251565e-15
0
LINE
5
613
100
AcDbEntity
8
0
100
AcDbLine
10
-26.191998368409976
20
90.125999999139751
30
1.1102230246251565e-15
11
-26.191998368409962
21
84.480999999139755
31
1.1102230246251565e-15
0
LINE
5
614
100
AcDbEntity
8
0
100
AcDbLine
10
-26.191998368409976
20
90.125999999139751
30
1.1102230246251565e-15
11
-25.97766565022075
21
90.125999999139751
31
1.1102230246251565e-15
0
LINE
5
615
100
AcDbEntity
8
0
100
AcDbLine
10
-25.97766565022075
20
90.125999999139751
30
1.1102230246251565e-15
11
-25.041999999999966
21
90.125999999139751
31
0
0
LINE
5
616
100
AcDbEntity
8
0
100
AcDbLine
10
-25.97766565022993
20
92.681856206910055
30
1.1102230246251565e-15
11
-26.191998368409966
21
92.681856206910055
31
1.1102230246251565e-15
0
LINE
5
617
100
AcDbEntity
8
0
100
AcDbLine
10
-25.041999999999966
20
92.681856206910055
30
0
11
-25.97766565022993
21
92.681856206910055
31
1.1102230246251565e-15
0
LINE
5
618
100
AcDbEntity
8
0
100
AcDbLine
10
-26.191998368409962
20
98.270999999139747
30
1.1102230246251565e-15
11
-26.191998368409966
21
92.681856206910055
31
1.1102230246251565e-15
0
LINE
5
619
100
AcDbEntity
8
0
100
AcDbLine
10
-11.251999999999969
20
96.480999888092754
30
0
11
-7.7520000000000744
21
96.480999220876868
31
0
0
LINE
5
620
100
AcDbEntity
8
0
100
AcDbLine
10
-7.7519999999999722
20
94.725999999139745
30
0
11
-7.7519999999999722
21
96.480985929910076
31
0
0
LINE
5
621
100
AcDbEntity
8
0
100
AcDbLine
10
-7.7519999999999722
20
87.380999999139732
30
0
11
-7.7519999999999722
21
88.025999999139742
31
0
0
LINE
5
622
100
AcDbEntity
8
0
100
AcDbLine
10
37.000263919260036
20
88.025999999139742
30
0
11
37.00026391926005
21
87.975999999139731
31
0
0
LINE
5
623
100
AcDbEntity
8
0
100
AcDbLine
10
74.000263969555036
20
87.975999999139731
30
0
11
74.000263969555036
21
88.025999999139742
31
0
0
LINE
5
624
100
AcDbEntity
8
0
100
AcDbLine
10
73.950263969555039
20
87.925999999139748
30
0
11
73.500263969555036
21
87.925999999139748
31
0
0
ARC
5
625
100
AcDbEntity
8
0
100
AcDbCircle
10
73.950263969555039
20
87.975999999139731
30
0
40
0.049999999999990052
100
AcDbArc
50
-90
51
0
0
LINE
5
626
100
AcDbEntity
8
0
100
AcDbLine
10
37.500263919260036
20
87.925999999139748
30
0
11
37.050263919260132
21
87.925999999139748
31
0
0
LINE
5
627
100
AcDbEntity
8
0
100
AcDbLine
10
37.500263919260036
20
87.925999999139748
30
0
11
49.948000168600039
21
87.925999999139748
31
0
0
LINE
5
628
100
AcDbEntity
8
0
100
AcDbLine
10
52.548000168600034
20
87.925999999139748
30
0
11
69.948000296195033
21
87.925999999139748
31
0
0
LINE
5
629
100
AcDbEntity
8
0
100
AcDbLine
10
72.548000296195042
20
87.925999999139748
30
0
11
73.500263969555036
21
87.925999999139748
31
0
0
ARC
5
630
100
AcDbEntity
8
0
100
AcDbCircle
10
37.050263919260033
20
87.975999999139731
30
0
40
0.049999999999985612
100
AcDbArc
50
180
51
270.00000000011397
0
LINE
5
631
100
AcDbEntity
8
0
100
AcDbLine
10
31.000263919260036
20
87.975999999139731
30
0
11
31.000263919260036
21
88.025999999139742
31
0
0
LINE
5
632
100
AcDbEntity
8
0
100
AcDbLine
10
-5.9997361310399722
20
88.025999999139742
30
0
11
-5.9997361310399722
21
87.975999999139731
31
0
0
ARC
5
633
100
AcDbEntity
8
0
100
AcDbCircle
10
30.950263919260035
20
87.975999999139731
30
0
40
0.050000000000007816
100
AcDbArc
50
-90
51
0
0
LINE
5
634
100
AcDbEntity
8
0
100
AcDbLine
10
-5.4997361310399739
20
87.925999999139748
30
0
11
-5.9497361310399741
21
87.925999999139748
31
0
0
LINE
5
635
100
AcDbEntity
8
0
100
AcDbLine
10
-5.4997361310399739
20
87.925999999139748
30
0
11
6.9480002459000367
21
87.925999999139748
31
0
0
LINE
5
636
100
AcDbEntity
8
0
100
AcDbLine
10
9.5480002459000257
20
87.925999999139748
30
0
11
26.948000168600039
21
87.925999999139748
31
0
0
LINE
5
637
100
AcDbEntity
8
0
100
AcDbLine
10
29.548000168600037
20
87.925999999139748
30
0
11
30.500263919260032
21
87.925999999139748
31
0
0
LINE
5
638
100
AcDbEntity
8
0
100
AcDbLine
10
30.950263919260035
20
87.925999999139734
30
0
11
30.500263919260032
21
87.925999999139748
31
0
0
ARC
5
639
100
AcDbEntity
8
0
100
AcDbCircle
10
-5.9497361310399643
20
87.975999999139731
30
0
40
0.050000000000007816
100
AcDbArc
50
180
51
269.9999999999888
0
LINE
5
640
100
AcDbEntity
8
0
100
AcDbLine
10
31.000263919260036
20
94.725999999139745
30
0
11
31.000263919260036
21
94.775999999139756
31
0
0
LINE
5
641
100
AcDbEntity
8
0
100
AcDbLine
10
-5.9997361310399722
20
94.775999999139756
30
0
11
-5.9997361310399722
21
94.725999999139745
31
0
0
ARC
5
642
100
AcDbEntity
8
0
100
AcDbCircle
10
30.950263919260035
20
94.775999999139742
30
0
40
0.049999999999998934
100
AcDbArc
50
0
51
90
0
LINE
5
643
100
AcDbEntity
8
0
100
AcDbLine
10
30.500263919260032
20
94.825999999139739
30
0
11
30.950263919260035
21
94.825999999139739
31
0
0
LINE
5
644
100
AcDbEntity
8
0
100
AcDbLine
10
30.500263919260032
20
94.825999999139739
30
0
11
29.548000168600037
21
94.825999999139739
31
0
0
LINE
5
645
100
AcDbEntity
8
0
100
AcDbLine
10
26.948000168600039
20
94.825999999139754
30
0
11
9.5480002459000257
21
94.825999999139739
31
0
0
LINE
5
646
100
AcDbEntity
8
0
100
AcDbLine
10
6.9480002459000367
20
94.825999999139739
30
0
11
-5.4997361310399739
21
94.825999999139739
31
0
0
LINE
5
647
100
AcDbEntity
8
0
100
AcDbLine
10
-5.9497361310399741
20
94.825999999139739
30
0
11
-5.4997361310399739
21
94.825999999139739
31
0
0
ARC
5
648
100
AcDbEntity
8
0
100
AcDbCircle
10
-5.9497361310399643
20
94.775999999139756
30
0
40
0.049999999999990052
100
AcDbArc
50
90.000000000011198
51
180
0
LINE
5
649
100
AcDbEntity
8
0
100
AcDbLine
10
37.000263919260036
20
94.775999999139742
30
0
11
37.000263919260036
21
94.725999999139745
31
0
0
LINE
5
650
100
AcDbEntity
8
0
100
AcDbLine
10
74.000263969555036
20
94.725999999139745
30
0
11
74.000263969555022
21
94.775999999139756
31
0
0
LINE
5
651
100
AcDbEntity
8
0
100
AcDbLine
10
73.500263969555036
20
94.825999999139739
30
0
11
72.548000296195042
21
94.825999999139725
31
0
0
LINE
5
652
100
AcDbEntity
8
0
100
AcDbLine
10
69.948000296195033
20
94.825999999139754
30
0
11
52.548000168600034
21
94.825999999139739
31
0
0
LINE
5
653
100
AcDbEntity
8
0
100
AcDbLine
10
49.948000168600039
20
94.825999999139739
30
0
11
37.500263919260036
21
94.825999999139739
31
0
0
LINE
5
654
100
AcDbEntity
8
0
100
AcDbLine
10
73.500263969555036
20
94.825999999139739
30
0
11
73.950263969555039
21
94.825999999139739
31
0
0
LINE
5
655
100
AcDbEntity
8
0
100
AcDbLine
10
37.050263919260132
20
94.825999999139739
30
0
11
37.500263919260036
21
94.825999999139739
31
0
0
ARC
5
656
100
AcDbEntity
8
0
100
AcDbCircle
10
73.950263969555039
20
94.775999999139742
30
0
40
0.049999999999990052
100
AcDbArc
50
0
51
90
0
ARC
5
657
100
AcDbEntity
8
0
100
AcDbCircle
10
37.050263919260033
20
94.775999999139742
30
0
40
0.050000000000007816
100
AcDbArc
50
89.999999999886015
51
180
0
LINE
5
658
100
AcDbEntity
8
0
100
AcDbLine
10
75.126974144027045
20
94.725999999139745
30
0
11
75.126974144027031
21
94.726308658664749
31
0
0
LINE
5
659
100
AcDbEntity
8
0
100
AcDbLine
10
75.369025855979032
20
94.725999999139745
30
0
11
75.369025855979032
21
94.726308658664749
31
0
0
LINE
5
660
100
AcDbEntity
8
0
100
AcDbLine
10
75.369025855979032
20
94.726308658664749
30
0
11
75.126974144027031
21
94.726308658664749
31
0
0
LINE
5
661
100
AcDbEntity
8
0
100
AcDbLine
10
-6.8730258559699653
20
94.725999999139745
30
0
11
-6.8730258559699653
21
94.726308660239752
31
0
0
LINE
5
662
100
AcDbEntity
8
0
100
AcDbLine
10
-6.8730258559699653
20
94.726308660239752
30
0
11
-6.6309741440199677
21
94.726308660239752
31
0
0
LINE
5
663
100
AcDbEntity
8
0
100
AcDbLine
10
-6.6309741440199677
20
94.725999999139745
30
0
11
-6.6309741440199677
21
94.726308660239752
31
0
0
LINE
5
664
100
AcDbEntity
8
0
100
AcDbLine
10
-17.585264900779961
20
84.480999999139755
30
1.1102230246251565e-15
11
-17.585264900779965
21
87.380999999139732
31
0
0
LINE
5
665
100
AcDbEntity
8
0
100
AcDbLine
10
-17.585264900779961
20
96.48099999493931
30
0
11
-17.585264900779961
21
98.270999999139747
31
1.1102230246251565e-15
0
LINE
5
666
100
AcDbEntity
8
0
100
AcDbLine
10
-5.9997361310399722
20
115.04599999913977
30
0
11
-6.6309741440199677
21
115.04599999913977
31
0
0
LINE
5
667
100
AcDbEntity
8
0
100
AcDbLine
10
-6.8730258559699653
20
115.04599999913977
30
0
11
-7.7519999999999722
21
115.04599999913977
31
0
0
LINE
5
668
100
AcDbEntity
8
0
100
AcDbLine
10
6.9480002459000367
20
115.69599999913976
30
0
11
6.9480002459000367
21
115.14599999913976
31
0
0
LINE
5
669
100
AcDbEntity
8
0
100
AcDbLine
10
6.9480002459000367
20
115.69599999913976
30
0
11
9.5480002459000257
21
115.69599999913976
31
0
0
LINE
5
670
100
AcDbEntity
8
0
100
AcDbLine
10
9.5480002459000257
20
115.69599999913976
30
0
11
9.5480002459000257
21
115.14599999913976
31
0
0
LINE
5
671
100
AcDbEntity
8
0
100
AcDbLine
10
26.948000168600039
20
115.69599999913976
30
0
11
26.948000168600039
21
115.14599999913976
31
0
0
LINE
5
672
100
AcDbEntity
8
0
100
AcDbLine
10
26.948000168600039
20
115.69599999913976
30
0
11
29.548000168600034
21
115.69599999913976
31
0
0
LINE
5
673
100
AcDbEntity
8
0
100
AcDbLine
10
29.548000168600034
20
115.69599999913976
30
0
11
29.548000168600037
21
115.14599999913978
31
0
0
LINE
5
674
100
AcDbEntity
8
0
100
AcDbLine
10
37.000263919260036
20
115.04599999913977
30
0
11
31.000263919260036
21
115.04599999913977
31
0
0
LINE
5
675
100
AcDbEntity
8
0
100
AcDbLine
10
49.948000168600039
20
115.69599999913976
30
0
11
49.948000168600039
21
115.14599999913976
31
0
0
LINE
5
676
100
AcDbEntity
8
0
100
AcDbLine
10
49.948000168600039
20
115.69599999913976
30
0
11
52.548000168600034
21
115.69599999913976
31
0
0
LINE
5
677
100
AcDbEntity
8
0
100
AcDbLine
10
52.548000168600034
20
115.69599999913976
30
0
11
52.548000168600034
21
115.14599999913976
31
0
0
LINE
5
678
100
AcDbEntity
8
0
100
AcDbLine
10
69.948000296195033
20
115.69599999913976
30
0
11
69.948000296195033
21
115.14599999913976
31
0
0
LINE
5
679
100
AcDbEntity
8
0
100
AcDbLine
10
69.948000296195033
20
115.69599999913976
30
0
11
72.548000296195042
21
115.69599999913976
31
0
0
LINE
5
680
100
AcDbEntity
8
0
100
AcDbLine
10
72.548000296195042
20
115.69599999913976
30
0
11
72.548000296195042
21
115.14599999913976
31
0
0
LINE
5
681
100
AcDbEntity
8
0
100
AcDbLine
10
76.748000000003046
20
115.04599999913977
30
0
11
75.369025855979032
21
115.04599999913977
31
0
0
LINE
5
682
100
AcDbEntity
8
0
100
AcDbLine
10
75.126974144027045
20
115.04599999913977
30
0
11
74.000263969555036
21
115.04599999913977
31
0
0
LINE
5
683
100
AcDbEntity
8
0
100
AcDbLine
10
79.248000000000033
20
109.52099999911877
30
0
11
79.248000000000033
21
113.87099999925276
31
0
0
LINE
5
684
100
AcDbEntity
8
0
100
AcDbLine
10
74.000263969555036
20
108.34599999913976
30
0
11
76.748000000003046
21
108.34599999913976
31
0
0
LINE
5
685
100
AcDbEntity
8
0
100
AcDbLine
10
72.548000296195042
20
107.69599999913976
30
0
11
72.548000296195042
21
108.24599999913974
31
0
0
LINE
5
686
100
AcDbEntity
8
0
100
AcDbLine
10
69.948000296195033
20
107.69599999913976
30
0
11
72.548000296195042
21
107.69599999913976
31
0
0
LINE
5
687
100
AcDbEntity
8
0
100
AcDbLine
10
69.948000296195033
20
107.69599999913976
30
0
11
69.948000296195033
21
108.24599999913973
31
0
0
LINE
5
688
100
AcDbEntity
8
0
100
AcDbLine
10
52.548000168600034
20
107.69599999913976
30
0
11
52.548000168600034
21
108.24599999913974
31
0
0
LINE
5
689
100
AcDbEntity
8
0
100
AcDbLine
10
49.948000168600039
20
107.69599999913976
30
0
11
52.548000168600034
21
107.69599999913976
31
0
0
LINE
5
690
100
AcDbEntity
8
0
100
AcDbLine
10
49.948000168600039
20
107.69599999913976
30
0
11
49.948000168600039
21
108.24599999913974
31
0
0
LINE
5
691
100
AcDbEntity
8
0
100
AcDbLine
10
37.000263919260036
20
108.34599999913976
30
0
11
31.000263919260036
21
108.34599999913976
31
0
0
LINE
5
692
100
AcDbEntity
8
0
100
AcDbLine
10
29.548000168600037
20
107.69599999913976
30
0
11
29.548000168600037
21
108.24599999913977
31
0
0
LINE
5
693
100
AcDbEntity
8
0
100
AcDbLine
10
26.948000168600039
20
107.69599999913976
30
0
11
29.548000168600037
21
107.69599999913976
31
0
0
LINE
5
694
100
AcDbEntity
8
0
100
AcDbLine
10
26.948000168600039
20
107.69599999913976
30
0
11
26.948000168600039
21
108.24599999913977
31
0
0
LINE
5
695
100
AcDbEntity
8
0
100
AcDbLine
10
9.5480002459000257
20
107.69599999913977
30
0
11
9.5480002459000257
21
108.24599999913977
31
0
0
LINE
5
696
100
AcDbEntity
8
0
100
AcDbLine
10
6.9480002459000367
20
107.69599999913977
30
0
11
9.5480002459000257
21
107.69599999913977
31
0
0
LINE
5
697
100
AcDbEntity
8
0
100
AcDbLine
10
6.9480002459000367
20
107.69599999913977
30
0
11
6.9480002459000367
21
108.24599999913977
31
0
0
LINE
5
698
100
AcDbEntity
8
0
100
AcDbLine
10
-5.9997361310399722
20
108.34599999913976
30
0
11
-7.7519999999999722
21
108.34599999913976
31
0
0
LINE
5
699
100
AcDbEntity
8
0
100
AcDbLine
10
76.748000000003046
20
116.80099999913976
30
0
11
76.748000000003046
21
115.04599999913977
31
0
0
LINE
5
700
100
AcDbEntity
8
0
100
AcDbLine
10
79.248000000000033
20
116.80099999913976
30
0
11
76.748000000003046
21
116.80099999913976
31
0
0
LINE
5
701
100
AcDbEntity
8
0
100
AcDbLine
10
79.248000000000033
20
114.37099999913976
30
0
11
79.248000000000033
21
116.80099999913976
31
0
0
LINE
5
702
100
AcDbEntity
8
0
100
AcDbLine
10
79.248000000000033
20
114.37099999913976
30
0
11
79.248000000000033
21
113.87099999925276
31
0
0
LINE
5
703
100
AcDbEntity
8
0
100
AcDbLine
10
79.248000000000033
20
109.02099999913975
30
0
11
79.248000000000033
21
107.6959999999999
31
0
0
LINE
5
704
100
AcDbEntity
8
0
100
AcDbLine
10
79.248000000000033
20
109.52099999911877
30
0
11
79.248000000000033
21
109.02099999913975
31
0
0
LINE
5
705
100
AcDbEntity
8
0
100
AcDbLine
10
76.748000000003046
20
107.69599999912674
30
0
11
79.248000000000033
21
107.6959999999999
31
0
0
LINE
5
706
100
AcDbEntity
8
0
100
AcDbLine
10
76.748000000003046
20
108.34599999913976
30
0
11
76.748000000003046
21
107.70115452512522
31
0
0
LINE
5
707
100
AcDbEntity
8
0
100
AcDbLine
10
76.748000000003046
20
107.70113067809142
30
0
11
76.748000000003046
21
107.69599999912674
31
0
0
LINE
5
708
100
AcDbEntity
8
0
100
AcDbLine
10
-17.585264900779965
20
107.70099999913975
30
0
11
-11.251999999999969
21
107.70099999913975
31
0
0
LINE
5
709
100
AcDbEntity
8
0
100
AcDbLine
10
-11.251999999999969
20
107.70099999913975
30
0
11
-7.7519999999999722
21
107.70099999913975
31
0
0
LINE
5
710
100
AcDbEntity
8
0
100
AcDbLine
10
-25.977665650187724
20
104.80099999913976
30
-1.1102230246251565e-15
11
-26.191998368409962
21
104.80099999913976
31
-1.1102230246251565e-15
0
LINE
5
711
100
AcDbEntity
8
0
100
AcDbLine
10
-23.468951509071321
20
104.80099999913976
30
-1.1102230246251565e-15
11
-25.977665650187724
21
104.80099999913976
31
-1.1102230246251565e-15
0
LINE
5
712
100
AcDbEntity
8
0
100
AcDbLine
10
-23.298256179039978
20
104.80099999913976
30
-1.1102230246251565e-15
11
-23.468951509071321
21
104.80099999913976
31
-1.1102230246251565e-15
0
LINE
5
713
100
AcDbEntity
8
0
100
AcDbLine
10
-22.798261423049972
20
104.80099999913976
30
-1.1102230246251565e-15
11
-23.298256179039978
21
104.80099999913976
31
-1.1102230246251565e-15
0
LINE
5
714
100
AcDbEntity
8
0
100
AcDbLine
10
-17.88526490055996
20
104.80099999913976
30
-1.1102230246251565e-15
11
-22.798261423049972
21
104.80099999913976
31
-1.1102230246251565e-15
0
LINE
5
715
100
AcDbEntity
8
0
100
AcDbLine
10
-17.585264900779961
20
104.80099999913976
30
-1.1102230246251565e-15
11
-17.88526490055996
21
104.80099999913976
31
-1.1102230246251565e-15
0
LINE
5
716
100
AcDbEntity
8
0
100
AcDbLine
10
-25.041999999999966
20
113.00185620691008
30
0
11
-25.041999999999966
21
110.44599999913977
31
0
0
LINE
5
717
100
AcDbEntity
8
0
100
AcDbLine
10
-11.251999999999969
20
116.80099998867077
30
0
11
-17.585264900779961
21
116.80099999493933
31
0
0
LINE
5
718
100
AcDbEntity
8
0
100
AcDbLine
10
-17.885264900779958
20
118.59099999913977
30
-1.1102230246251565e-15
11
-17.585264900779961
21
118.59099999913977
31
-1.1102230246251565e-15
0
LINE
5
719
100
AcDbEntity
8
0
100
AcDbLine
10
-22.798256179039981
20
118.59099999913977
30
-1.1102230246251565e-15
11
-17.885264900779958
21
118.59099999913977
31
-1.1102230246251565e-15
0
LINE
5
720
100
AcDbEntity
8
0
100
AcDbLine
10
-23.298256179039981
20
118.59099999913977
30
-1.1102230246251565e-15
11
-22.798256179039981
21
118.59099999913977
31
-1.1102230246251565e-15
0
LINE
5
721
100
AcDbEntity
8
0
100
AcDbLine
10
-23.468951509170523
20
118.59099999913977
30
-1.1102230246251565e-15
11
-23.298256179039981
21
118.59099999913977
31
-1.1102230246251565e-15
0
LINE
5
722
100
AcDbEntity
8
0
100
AcDbLine
10
-25.977665650229966
20
118.59099999913977
30
-1.1102230246251565e-15
11
-23.468951509170523
21
118.59099999913977
31
-1.1102230246251565e-15
0
LINE
5
723
100
AcDbEntity
8
0
100
AcDbLine
10
-26.191998368409962
20
118.59099999913977
30
-1.1102230246251565e-15
11
-25.977665650229966
21
118.59099999913977
31
-1.1102230246251565e-15
0
LINE
5
724
100
AcDbEntity
8
0
100
AcDbLine
10
-26.191998368409976
20
110.44599999913977
30
-1.1102230246251565e-15
11
-26.191998368409962
21
104.80099999913976
31
-1.1102230246251565e-15
0
LINE
5
725
100
AcDbEntity
8
0
100
AcDbLine
10
-26.191998368409976
20
110.44599999913977
30
-1.1102230246251565e-15
11
-25.97766565022075
21
110.44599999913977
31
-1.1102230246251565e-15
0
LINE
5
726
100
AcDbEntity
8
0
100
AcDbLine
10
-25.97766565022075
20
110.44599999913977
30
-1.1102230246251565e-15
11
-25.041999999999966
21
110.44599999913977
31
0
0
LINE
5
727
100
AcDbEntity
8
0
100
AcDbLine
10
-25.97766565022993
20
113.00185620691008
30
-1.1102230246251565e-15
11
-26.191998368409966
21
113.00185620691008
31
-1.1102230246251565e-15
0
LINE
5
728
100
AcDbEntity
8
0
100
AcDbLine
10
-25.041999999999966
20
113.00185620691008
30
0
11
-25.97766565022993
21
113.00185620691008
31
-1.1102230246251565e-15
0
LINE
5
729
100
AcDbEntity
8
0
100
AcDbLine
10
-26.191998368409962
20
118.59099999913977
30
-1.1102230246251565e-15
11
-26.191998368409966
21
113.00185620691008
31
-1.1102230246251565e-15
0
LINE
5
730
100
AcDbEntity
8
0
100
AcDbLine
10
-11.251999999999969
20
116.80099988809276
30
0
11
-7.7520000000000744
21
116.80099922087689
31
0
0
LINE
5
731
100
AcDbEntity
8
0
100
AcDbLine
10
-7.7519999999999722
20
115.04599999913977
30
0
11
-7.7519999999999722
21
116.8009859299101
31
0
0
LINE
5
732
100
AcDbEntity
8
0
100
AcDbLine
10
-7.7519999999999722
20
107.70099999913975
30
0
11
-7.7519999999999722
21
108.34599999913976
31
0
0
LINE
5
733
100
AcDbEntity
8
0
100
AcDbLine
10
37.000263919260036
20
108.34599999913976
30
0
11
37.00026391926005
21
108.29599999913975
31
0
0
LINE
5
734
100
AcDbEntity
8
0
100
AcDbLine
10
74.000263969555036
20
108.29599999913975
30
0
11
74.000263969555036
21
108.34599999913976
31
0
0
LINE
5
735
100
AcDbEntity
8
0
100
AcDbLine
10
73.950263969555039
20
108.24599999913974
30
0
11
73.500263969555036
21
108.24599999913974
31
0
0
ARC
5
736
100
AcDbEntity
8
0
100
AcDbCircle
10
73.950263969555039
20
108.29599999913975
30
0
40
0.050000000000007816
100
AcDbArc
50
-90
51
0
0
LINE
5
737
100
AcDbEntity
8
0
100
AcDbLine
10
37.500263919260036
20
108.24599999913977
30
0
11
37.050263919260132
21
108.24599999913977
31
0
0
LINE
5
738
100
AcDbEntity
8
0
100
AcDbLine
10
37.500263919260036
20
108.24599999913977
30
0
11
49.948000168600039
21
108.24599999913974
31
0
0
LINE
5
739
100
AcDbEntity
8
0
100
AcDbLine
10
52.548000168600034
20
108.24599999913974
30
0
11
69.948000296195033
21
108.24599999913973
31
0
0
LINE
5
740
100
AcDbEntity
8
0
100
AcDbLine
10
72.548000296195042
20
108.24599999913974
30
0
11
73.500263969555036
21
108.24599999913974
31
0
0
ARC
5
741
100
AcDbEntity
8
0
100
AcDbCircle
10
37.050263919260033
20
108.29599999913975
30
0
40
0.049999999999985612
100
AcDbArc
50
180
51
270.00000000011397
0
LINE
5
742
100
AcDbEntity
8
0
100
AcDbLine
10
31.000263919260036
20
108.29599999913975
30
0
11
31.000263919260036
21
108.34599999913976
31
0
0
LINE
5
743
100
AcDbEntity
8
0
100
AcDbLine
10
-5.9997361310399722
20
108.34599999913976
30
0
11
-5.9997361310399722
21
108.29599999913975
31
0
0
ARC
5
744
100
AcDbEntity
8
0
100
AcDbCircle
10
30.950263919260035
20
108.29599999913975
30
0
40
0.050000000000007816
100
AcDbArc
50
-90
51
0
0
LINE
5
745
100
AcDbEntity
8
0
100
AcDbLine
10
-5.4997361310399739
20
108.24599999913977
30
0
11
-5.9497361310399741
21
108.24599999913977
31
0
0
LINE
5
746
100
AcDbEntity
8
0
100
AcDbLine
10
-5.4997361310399739
20
108.24599999913977
30
0
11
6.9480002459000367
21
108.24599999913977
31
0
0
LINE
5
747
100
AcDbEntity
8
0
100
AcDbLine
10
9.5480002459000257
20
108.24599999913977
30
0
11
26.948000168600039
21
108.24599999913977
31
0
0
LINE
5
748
100
AcDbEntity
8
0
100
AcDbLine
10
29.548000168600037
20
108.24599999913977
30
0
11
30.500263919260032
21
108.24599999913977
31
0
0
LINE
5
749
100
AcDbEntity
8
0
100
AcDbLine
10
30.950263919260035
20
108.24599999913974
30
0
11
30.500263919260032
21
108.24599999913977
31
0
0
ARC
5
750
100
AcDbEntity
8
0
100
AcDbCircle
10
-5.9497361310399643
20
108.29599999913975
30
0
40
0.050000000000007816
100
AcDbArc
50
180
51
269.9999999999888
0
LINE
5
751
100
AcDbEntity
8
0
100
AcDbLine
10
31.000263919260036
20
115.04599999913977
30
0
11
31.000263919260036
21
115.09599999913976
31
0
0
LINE
5
752
100
AcDbEntity
8
0
100
AcDbLine
10
-5.9997361310399722
20
115.09599999913976
30
0
11
-5.9997361310399722
21
115.04599999913977
31
0
0
ARC
5
753
100
AcDbEntity
8
0
100
AcDbCircle
10
30.950263919260035
20
115.09599999913975
30
0
40
0.049999999999998934
100
AcDbArc
50
0
51
90
0
LINE
5
754
100
AcDbEntity
8
0
100
AcDbLine
10
30.500263919260032
20
115.14599999913976
30
0
11
30.950263919260035
21
115.14599999913976
31
0
0
LINE
5
755
100
AcDbEntity
8
0
100
AcDbLine
10
30.500263919260032
20
115.14599999913976
30
0
11
29.548000168600037
21
115.14599999913978
31
0
0
LINE
5
756
100
AcDbEntity
8
0
100
AcDbLine
10
26.948000168600039
20
115.14599999913976
30
0
11
9.5480002459000257
21
115.14599999913976
31
0
0
LINE
5
757
100
AcDbEntity
8
0
100
AcDbLine
10
6.9480002459000367
20
115.14599999913976
30
0
11
-5.4997361310399739
21
115.14599999913976
31
0
0
LINE
5
758
100
AcDbEntity
8
0
100
AcDbLine
10
-5.9497361310399741
20
115.14599999913976
30
0
11
-5.4997361310399739
21
115.14599999913976
31
0
0
ARC
5
759
100
AcDbEntity
8
0
100
AcDbCircle
10
-5.9497361310399643
20
115.09599999913976
30
0
40
0.049999999999990052
100
AcDbArc
50
90.000000000011198
51
180
0
LINE
5
760
100
AcDbEntity
8
0
100
AcDbLine
10
37.000263919260036
20
115.09599999913975
30
0
11
37.000263919260036
21
115.04599999913977
31
0
0
LINE
5
761
100
AcDbEntity
8
0
100
AcDbLine
10
74.000263969555036
20
115.04599999913977
30
0
11
74.000263969555022
21
115.09599999913976
31
0
0
LINE
5
762
100
AcDbEntity
8
0
100
AcDbLine
10
73.500263969555036
20
115.14599999913976
30
0
11
72.548000296195042
21
115.14599999913976
31
0
0
LINE
5
763
100
AcDbEntity
8
0
100
AcDbLine
10
69.948000296195033
20
115.14599999913976
30
0
11
52.548000168600034
21
115.14599999913976
31
0
0
LINE
5
764
100
AcDbEntity
8
0
100
AcDbLine
10
49.948000168600039
20
115.14599999913976
30
0
11
37.500263919260036
21
115.14599999913976
31
0
0
LINE
5
765
100
AcDbEntity
8
0
100
AcDbLine
10
73.500263969555036
20
115.14599999913976
30
0
11
73.950263969555039
21
115.14599999913976
31
0
0
LINE
5
766
100
AcDbEntity
8
0
100
AcDbLine
10
37.050263919260132
20
115.14599999913976
30
0
11
37.500263919260036
21
115.14599999913976
31
0
0
ARC
5
767
100
AcDbEntity
8
0
100
AcDbCircle
10
73.950263969555039
20
115.09599999913975
30
0
40
0.049999999999990052
100
AcDbArc
50
0
51
90
0
ARC
5
768
100
AcDbEntity
8
0
100
AcDbCircle
10
37.050263919260033
20
115.09599999913975
30
0
40
0.050000000000007816
100
AcDbArc
50
89.999999999886015
51
180
0
LINE
5
769
100
AcDbEntity
8
0
100
AcDbLine
10
75.126974144027045
20
115.04599999913977
30
0
11
75.126974144027031
21
115.04630865866476
31
0
0
LINE
5
770
100
AcDbEntity
8
0
100
AcDbLine
10
75.369025855979032
20
115.04599999913977
30
0
11
75.369025855979032
21
115.04630865866476
31
0
0
LINE
5
771
100
AcDbEntity
8
0
100
AcDbLine
10
75.369025855979032
20
115.04630865866476
30
0
11
75.126974144027031
21
115.04630865866476
31
0
0
LINE
5
772
100
AcDbEntity
8
0
100
AcDbLine
10
-6.8730258559699653
20
115.04599999913977
30
0
11
-6.8730258559699653
21
115.04630866023976
31
0
0
LINE
5
773
100
AcDbEntity
8
0
100
AcDbLine
10
-6.8730258559699653
20
115.04630866023976
30
0
11
-6.6309741440199677
21
115.04630866023976
31
0
0
LINE
5
774
100
AcDbEntity
8
0
100
AcDbLine
10
-6.6309741440199677
20
115.04599999913977
30
0
11
-6.6309741440199677
21
115.04630866023976
31
0
0
LINE
5
775
100
AcDbEntity
8
0
100
AcDbLine
10
-17.585264900779961
20
104.80099999913976
30
-1.1102230246251565e-15
11
-17.585264900779965
21
107.70099999913975
31
0
0
LINE
5
776
100
AcDbEntity
8
0
100
AcDbLine
10
-17.585264900779961
20
116.80099999493933
30
0
11
-17.585264900779961
21
118.59099999913977
31
-1.1102230246251565e-15
0
LINE
5
777
100
AcDbEntity
8
0
100
AcDbLine
10
-5.9997361310399722
20
135.3659999991398
30
0
11
-6.6309741440199677
21
135.3659999991398
31
0
0
LINE
5
778
100
AcDbEntity
8
0
100
AcDbLine
10
-6.8730258559699653
20
135.3659999991398
30
0
11
-7.7519999999999722
21
135.3659999991398
31
0
0
LINE
5
779
100
AcDbEntity
8
0
100
AcDbLine
10
6.9480002459000367
20
136.01599999913981
30
0
11
6.9480002459000367
21
135.46599999913977
31
0
0
LINE
5
780
100
AcDbEntity
8
0
100
AcDbLine
10
6.9480002459000367
20
136.01599999913981
30
0
11
9.5480002459000257
21
136.01599999913981
31
0
0
LINE
5
781
100
AcDbEntity
8
0
100
AcDbLine
10
9.5480002459000257
20
136.01599999913981
30
0
11
9.5480002459000257
21
135.4659999991398
31
0
0
LINE
5
782
100
AcDbEntity
8
0
100
AcDbLine
10
26.948000168600039
20
136.01599999913981
30
0
11
26.948000168600039
21
135.46599999913977
31
0
0
LINE
5
783
100
AcDbEntity
8
0
100
AcDbLine
10
26.948000168600039
20
136.01599999913981
30
0
11
29.548000168600034
21
136.01599999913981
31
0
0
LINE
5
784
100
AcDbEntity
8
0
100
AcDbLine
10
29.548000168600034
20
136.01599999913981
30
0
11
29.548000168600037
21
135.4659999991398
31
0
0
LINE
5
785
100
AcDbEntity
8
0
100
AcDbLine
10
37.000263919260036
20
135.3659999991398
30
0
11
31.000263919260036
21
135.3659999991398
31
0
0
LINE
5
786
100
AcDbEntity
8
0
100
AcDbLine
10
49.948000168600039
20
136.01599999913981
30
0
11
49.948000168600039
21
135.4659999991398
31
0
0
LINE
5
787
100
AcDbEntity
8
0
100
AcDbLine
10
49.948000168600039
20
136.01599999913981
30
0
11
52.548000168600034
21
136.01599999913981
31
0
0
LINE
5
788
100
AcDbEntity
8
0
100
AcDbLine
10
52.548000168600034
20
136.01599999913981
30
0
11
52.548000168600034
21
135.4659999991398
31
0
0
LINE
5
789
100
AcDbEntity
8
0
100
AcDbLine
10
69.948000296195033
20
136.01599999913981
30
0
11
69.948000296195033
21
135.46599999913983
31
0
0
LINE
5
790
100
AcDbEntity
8
0
100
AcDbLine
10
69.948000296195033
20
136.01599999913981
30
0
11
72.548000296195042
21
136.01599999913981
31
0
0
LINE
5
791
100
AcDbEntity
8
0
100
AcDbLine
10
72.548000296195042
20
136.01599999913981
30
0
11
72.548000296195042
21
135.46599999913983
31
0
0
LINE
5
792
100
AcDbEntity
8
0
100
AcDbLine
10
76.748000000003046
20
135.3659999991398
30
0
11
75.369025855979032
21
135.3659999991398
31
0
0
LINE
5
793
100
AcDbEntity
8
0
100
AcDbLine
10
75.126974144027045
20
135.3659999991398
30
0
11
74.000263969555036
21
135.3659999991398
31
0
0
LINE
5
794
100
AcDbEntity
8
0
100
AcDbLine
10
79.248000000000033
20
129.84099999911879
30
0
11
79.248000000000033
21
134.1909999992528
31
0
0
LINE
5
795
100
AcDbEntity
8
0
100
AcDbLine
10
74.000263969555036
20
128.66599999913979
30
0
11
76.748000000003046
21
128.66599999913979
31
0
0
LINE
5
796
100
AcDbEntity
8
0
100
AcDbLine
10
72.548000296195042
20
128.01599999913978
30
0
11
72.548000296195042
21
128.56599999913979
31
0
0
LINE
5
797
100
AcDbEntity
8
0
100
AcDbLine
10
69.948000296195033
20
128.01599999913978
30
0
11
72.548000296195042
21
128.01599999913978
31
0
0
LINE
5
798
100
AcDbEntity
8
0
100
AcDbLine
10
69.948000296195033
20
128.01599999913978
30
0
11
69.948000296195033
21
128.56599999913979
31
0
0
LINE
5
799
100
AcDbEntity
8
0
100
AcDbLine
10
52.548000168600034
20
128.01599999913978
30
0
11
52.548000168600034
21
128.56599999913979
31
0
0
LINE
5
800
100
AcDbEntity
8
0
100
AcDbLine
10
49.948000168600039
20
128.01599999913978
30
0
11
52.548000168600034
21
128.01599999913978
31
0
0
LINE
5
801
100
AcDbEntity
8
0
100
AcDbLine
10
49.948000168600039
20
128.01599999913978
30
0
11
49.948000168600039
21
128.56599999913979
31
0
0
LINE
5
802
100
AcDbEntity
8
0
100
AcDbLine
10
37.000263919260036
20
128.66599999913979
30
0
11
31.000263919260036
21
128.66599999913979
31
0
0
LINE
5
803
100
AcDbEntity
8
0
100
AcDbLine
10
29.548000168600037
20
128.01599999913978
30
0
11
29.548000168600037
21
128.56599999913982
31
0
0
LINE
5
804
100
AcDbEntity
8
0
100
AcDbLine
10
26.948000168600039
20
128.01599999913978
30
0
11
29.548000168600037
21
128.01599999913978
31
0
0
LINE
5
805
100
AcDbEntity
8
0
100
AcDbLine
10
26.948000168600039
20
128.01599999913978
30
0
11
26.948000168600039
21
128.56599999913979
31
0
0
LINE
5
806
100
AcDbEntity
8
0
100
AcDbLine
10
9.5480002459000257
20
128.01599999913981
30
0
11
9.5480002459000257
21
128.56599999913982
31
0
0
LINE
5
807
100
AcDbEntity
8
0
100
AcDbLine
10
6.9480002459000367
20
128.01599999913981
30
0
11
9.5480002459000257
21
128.01599999913981
31
0
0
LINE
5
808
100
AcDbEntity
8
0
100
AcDbLine
10
6.9480002459000367
20
128.01599999913981
30
0
11
6.9480002459000367
21
128.56599999913979
31
0
0
LINE
5
809
100
AcDbEntity
8
0
100
AcDbLine
10
-5.9997361310399722
20
128.66599999913979
30
0
11
-7.7519999999999722
21
128.66599999913979
31
0
0
LINE
5
810
100
AcDbEntity
8
0
100
AcDbLine
10
76.748000000003046
20
137.1209999991398
30
0
11
76.748000000003046
21
135.3659999991398
31
0
0
LINE
5
811
100
AcDbEntity
8
0
100
AcDbLine
10
79.248000000000033
20
137.1209999991398
30
0
11
76.748000000003046
21
137.1209999991398
31
0
0
LINE
5
812
100
AcDbEntity
8
0
100
AcDbLine
10
79.248000000000033
20
134.69099999913979
30
0
11
79.248000000000033
21
137.1209999991398
31
0
0
LINE
5
813
100
AcDbEntity
8
0
100
AcDbLine
10
79.248000000000033
20
134.69099999913979
30
0
11
79.248000000000033
21
134.1909999992528
31
0
0
LINE
5
814
100
AcDbEntity
8
0
100
AcDbLine
10
79.248000000000033
20
129.3409999991398
30
0
11
79.248000000000033
21
128.01599999999993
31
0
0
LINE
5
815
100
AcDbEntity
8
0
100
AcDbLine
10
79.248000000000033
20
129.84099999911879
30
0
11
79.248000000000033
21
129.3409999991398
31
0
0
LINE
5
816
100
AcDbEntity
8
0
100
AcDbLine
10
76.748000000003046
20
128.01599999912679
30
0
11
79.248000000000033
21
128.01599999999993
31
0
0
LINE
5
817
100
AcDbEntity
8
0
100
AcDbLine
10
76.748000000003046
20
128.66599999913979
30
0
11
76.748000000003046
21
128.02115452512527
31
0
0
LINE
5
818
100
AcDbEntity
8
0
100
AcDbLine
10
76.748000000003046
20
128.02113067809145
30
0
11
76.748000000003046
21
128.01599999912679
31
0
0
LINE
5
819
100
AcDbEntity
8
0
100
AcDbLine
10
-17.585264900779965
20
128.0209999991398
30
0
11
-11.251999999999969
21
128.0209999991398
31
0
0
LINE
5
820
100
AcDbEntity
8
0
100
AcDbLine
10
-11.251999999999969
20
128.0209999991398
30
0
11
-7.7519999999999722
21
128.0209999991398
31
0
0
LINE
5
821
100
AcDbEntity
8
0
100
AcDbLine
10
-25.977665650187724
20
125.1209999991398
30
1.1102230246251565e-15
11
-26.191998368409962
21
125.1209999991398
31
1.1102230246251565e-15
0
LINE
5
822
100
AcDbEntity
8
0
100
AcDbLine
10
-23.468951509071321
20
125.1209999991398
30
1.1102230246251565e-15
11
-25.977665650187724
21
125.1209999991398
31
1.1102230246251565e-15
0
LINE
5
823
100
AcDbEntity
8
0
100
AcDbLine
10
-23.298256179039978
20
125.1209999991398
30
1.1102230246251565e-15
11
-23.468951509071321
21
125.1209999991398
31
1.1102230246251565e-15
0
LINE
5
824
100
AcDbEntity
8
0
100
AcDbLine
10
-22.798261423049972
20
125.1209999991398
30
1.1102230246251565e-15
11
-23.298256179039978
21
125.1209999991398
31
1.1102230246251565e-15
0
LINE
5
825
100
AcDbEntity
8
0
100
AcDbLine
10
-17.88526490055996
20
125.1209999991398
30
1.1102230246251565e-15
11
-22.798261423049972
21
125.1209999991398
31
1.1102230246251565e-15
0
LINE
5
826
100
AcDbEntity
8
0
100
AcDbLine
10
-17.585264900779961
20
125.1209999991398
30
1.1102230246251565e-15
11
-17.88526490055996
21
125.1209999991398
31
1.1102230246251565e-15
0
LINE
5
827
100
AcDbEntity
8
0
100
AcDbLine
10
-25.041999999999966
20
133.3218562069101
30
0
11
-25.041999999999966
21
130.76599999913981
31
0
0
LINE
5
828
100
AcDbEntity
8
0
100
AcDbLine
10
-11.251999999999969
20
137.1209999886708
30
0
11
-17.585264900779961
21
137.12099999493938
31
0
0
LINE
5
829
100
AcDbEntity
8
0
100
AcDbLine
10
-17.885264900779958
20
138.91099999913979
30
1.1102230246251565e-15
11
-17.585264900779961
21
138.91099999913979
31
1.1102230246251565e-15
0
LINE
5
830
100
AcDbEntity
8
0
100
AcDbLine
10
-22.798256179039981
20
138.91099999913979
30
1.1102230246251565e-15
11
-17.885264900779958
21
138.91099999913979
31
1.1102230246251565e-15
0
LINE
5
831
100
AcDbEntity
8
0
100
AcDbLine
10
-23.298256179039981
20
138.91099999913979
30
1.1102230246251565e-15
11
-22.798256179039981
21
138.91099999913979
31
1.1102230246251565e-15
0
LINE
5
832
100
AcDbEntity
8
0
100
AcDbLine
10
-23.468951509170523
20
138.91099999913979
30
1.1102230246251565e-15
11
-23.298256179039981
21
138.91099999913979
31
1.1102230246251565e-15
0
LINE
5
833
100
AcDbEntity
8
0
100
AcDbLine
10
-25.977665650229966
20
138.91099999913979
30
1.1102230246251565e-15
11
-23.468951509170523
21
138.91099999913979
31
1.1102230246251565e-15
0
LINE
5
834
100
AcDbEntity
8
0
100
AcDbLine
10
-26.191998368409962
20
138.91099999913979
30
1.1102230246251565e-15
11
-25.977665650229966
21
138.91099999913979
31
1.1102230246251565e-15
0
LINE
5
835
100
AcDbEntity
8
0
100
AcDbLine
10
-26.191998368409976
20
130.76599999913981
30
1.1102230246251565e-15
11
-26.191998368409962
21
125.1209999991398
31
1.1102230246251565e-15
0
LINE
5
836
100
AcDbEntity
8
0
100
AcDbLine
10
-26.191998368409976
20
130.76599999913981
30
1.1102230246251565e-15
11
-25.97766565022075
21
130.76599999913981
31
1.1102230246251565e-15
0
LINE
5
837
100
AcDbEntity
8
0
100
AcDbLine
10
-25.97766565022075
20
130.76599999913981
30
1.1102230246251565e-15
11
-25.041999999999966
21
130.76599999913981
31
0
0
LINE
5
838
100
AcDbEntity
8
0
100
AcDbLine
10
-25.97766565022993
20
133.3218562069101
30
1.1102230246251565e-15
11
-26.191998368409966
21
133.3218562069101
31
1.1102230246251565e-15
0
LINE
5
839
100
AcDbEntity
8
0
100
AcDbLine
10
-25.041999999999966
20
133.3218562069101
30
0
11
-25.97766565022993
21
133.3218562069101
31
1.1102230246251565e-15
0
LINE
5
840
100
AcDbEntity
8
0
100
AcDbLine
10
-26.191998368409962
20
138.91099999913979
30
1.1102230246251565e-15
11
-26.191998368409966
21
133.3218562069101
31
1.1102230246251565e-15
0
LINE
5
841
100
AcDbEntity
8
0
100
AcDbLine
10
-11.251999999999969
20
137.1209998880928
30
0
11
-7.7520000000000744
21
137.12099922087691
31
0
0
LINE
5
842
100
AcDbEntity
8
0
100
AcDbLine
10
-7.7519999999999722
20
135.3659999991398
30
0
11
-7.7519999999999722
21
137.12098592991015
31
0
0
LINE
5
843
100
AcDbEntity
8
0
100
AcDbLine
10
-7.7519999999999722
20
128.0209999991398
30
0
11
-7.7519999999999722
21
128.66599999913979
31
0
0
LINE
5
844
100
AcDbEntity
8
0
100
AcDbLine
10
37.000263919260036
20
128.66599999913979
30
0
11
37.00026391926005
21
128.6159999991398
31
0
0
LINE
5
845
100
AcDbEntity
8
0
100
AcDbLine
10
74.000263969555036
20
128.6159999991398
30
0
11
74.000263969555036
21
128.66599999913979
31
0
0
LINE
5
846
100
AcDbEntity
8
0
100
AcDbLine
10
73.950263969555039
20
128.56599999913979
30
0
11
73.500263969555036
21
128.56599999913979
31
0
0
ARC
5
847
100
AcDbEntity
8
0
100
AcDbCircle
10
73.950263969555039
20
128.6159999991398
30
0
40
0.050000000000007816
100
AcDbArc
50
-90
51
0
0
LINE
5
848
100
AcDbEntity
8
0
100
AcDbLine
10
37.500263919260036
20
128.56599999913979
30
0
11
37.050263919260132
21
128.56599999913979
31
0
0
LINE
5
849
100
AcDbEntity
8
0
100
AcDbLine
10
37.500263919260036
20
128.56599999913979
30
0
11
49.948000168600039
21
128.56599999913979
31
0
0
LINE
5
850
100
AcDbEntity
8
0
100
AcDbLine
10
52.548000168600034
20
128.56599999913979
30
0
11
69.948000296195033
21
128.56599999913979
31
0
0
LINE
5
851
100
AcDbEntity
8
0
100
AcDbLine
10
72.548000296195042
20
128.56599999913979
30
0
11
73.500263969555036
21
128.56599999913979
31
0
0
ARC
5
852
100
AcDbEntity
8
0
100
AcDbCircle
10
37.050263919260033
20
128.6159999991398
30
0
40
0.049999999999985612
100
AcDbArc
50
180
51
270.00000000011397
0
LINE
5
853
100
AcDbEntity
8
0
100
AcDbLine
10
31.000263919260036
20
128.6159999991398
30
0
11
31.000263919260036
21
128.66599999913979
31
0
0
LINE
5
854
100
AcDbEntity
8
0
100
AcDbLine
10
-5.9997361310399722
20
128.66599999913979
30
0
11
-5.9997361310399722
21
128.6159999991398
31
0
0
ARC
5
855
100
AcDbEntity
8
0
100
AcDbCircle
10
30.950263919260035
20
128.6159999991398
30
0
40
0.050000000000007816
100
AcDbArc
50
-90
51
0
0
LINE
5
856
100
AcDbEntity
8
0
100
AcDbLine
10
-5.4997361310399739
20
128.56599999913979
30
0
11
-5.9497361310399741
21
128.56599999913979
31
0
0
LINE
5
857
100
AcDbEntity
8
0
100
AcDbLine
10
-5.4997361310399739
20
128.56599999913979
30
0
11
6.9480002459000367
21
128.56599999913979
31
0
0
LINE
5
858
100
AcDbEntity
8
0
100
AcDbLine
10
9.5480002459000257
20
128.56599999913982
30
0
11
26.948000168600039
21
128.56599999913979
31
0
0
LINE
5
859
100
AcDbEntity
8
0
100
AcDbLine
10
29.548000168600037
20
128.56599999913982
30
0
11
30.500263919260032
21
128.56599999913979
31
0
0
LINE
5
860
100
AcDbEntity
8
0
100
AcDbLine
10
30.950263919260035
20
128.56599999913979
30
0
11
30.500263919260032
21
128.56599999913979
31
0
0
ARC
5
861
100
AcDbEntity
8
0
100
AcDbCircle
10
-5.9497361310399643
20
128.6159999991398
30
0
40
0.050000000000007816
100
AcDbArc
50
180
51
269.9999999999888
0
LINE
5
862
100
AcDbEntity
8
0
100
AcDbLine
10
31.000263919260036
20
135.3659999991398
30
0
11
31.000263919260036
21
135.41599999913981
31
0
0
LINE
5
863
100
AcDbEntity
8
0
100
AcDbLine
10
-5.9997361310399722
20
135.41599999913981
30
0
11
-5.9997361310399722
21
135.3659999991398
31
0
0
ARC
5
864
100
AcDbEntity
8
0
100
AcDbCircle
10
30.950263919260035
20
135.41599999913979
30
0
40
0.049999999999998934
100
AcDbArc
50
0
51
90
0
LINE
5
865
100
AcDbEntity
8
0
100
AcDbLine
10
30.500263919260032
20
135.4659999991398
30
0
11
30.950263919260035
21
135.4659999991398
31
0
0
LINE
5
866
100
AcDbEntity
8
0
100
AcDbLine
10
30.500263919260032
20
135.4659999991398
30
0
11
29.548000168600037
21
135.4659999991398
31
0
0
LINE
5
867
100
AcDbEntity
8
0
100
AcDbLine
10
26.948000168600039
20
135.46599999913977
30
0
11
9.5480002459000257
21
135.4659999991398
31
0
0
LINE
5
868
100
AcDbEntity
8
0
100
AcDbLine
10
6.9480002459000367
20
135.46599999913977
30
0
11
-5.4997361310399739
21
135.4659999991398
31
0
0
LINE
5
869
100
AcDbEntity
8
0
100
AcDbLine
10
-5.9497361310399741
20
135.4659999991398
30
0
11
-5.4997361310399739
21
135.4659999991398
31
0
0
ARC
5
870
100
AcDbEntity
8
0
100
AcDbCircle
10
-5.9497361310399643
20
135.41599999913981
30
0
40
0.049999999999990052
100
AcDbArc
50
90.000000000011198
51
180
0
LINE
5
871
100
AcDbEntity
8
0
100
AcDbLine
10
37.000263919260036
20
135.41599999913979
30
0
11
37.000263919260036
21
135.3659999991398
31
0
0
LINE
5
872
100
AcDbEntity
8
0
100
AcDbLine
10
74.000263969555036
20
135.3659999991398
30
0
11
74.000263969555022
21
135.41599999913981
31
0
0
LINE
5
873
100
AcDbEntity
8
0
100
AcDbLine
10
73.500263969555036
20
135.4659999991398
30
0
11
72.548000296195042
21
135.46599999913983
31
0
0
LINE
5
874
100
AcDbEntity
8
0
100
AcDbLine
10
69.948000296195033
20
135.46599999913983
30
0
11
52.548000168600034
21
135.4659999991398
31
0
0
LINE
5
875
100
AcDbEntity
8
0
100
AcDbLine
10
49.948000168600039
20
135.4659999991398
30
0
11
37.500263919260036
21
135.4659999991398
31
0
0
LINE
5
876
100
AcDbEntity
8
0
100
AcDbLine
10
73.500263969555036
20
135.4659999991398
30
0
11
73.950263969555039
21
135.4659999991398
31
0
0
LINE
5
877
100
AcDbEntity
8
0
100
AcDbLine
10
37.050263919260132
20
135.4659999991398
30
0
11
37.500263919260036
21
135.4659999991398
31
0
0
ARC
5
878
100
AcDbEntity
8
0
100
AcDbCircle
10
73.950263969555039
20
135.41599999913979
30
0
40
0.049999999999990052
100
AcDbArc
50
0
51
90
0
ARC
5
879
100
AcDbEntity
8
0
100
AcDbCircle
10
37.050263919260033
20
135.41599999913979
30
0
40
0.050000000000007816
100
AcDbArc
50
89.999999999886015
51
180
0
LINE
5
880
100
AcDbEntity
8
0
100
AcDbLine
10
75.126974144027045
20
135.3659999991398
30
0
11
75.126974144027031
21
135.36630865866479
31
0
0
LINE
5
881
100
AcDbEntity
8
0
100
AcDbLine
10
75.369025855979032
20
135.3659999991398
30
0
11
75.369025855979032
21
135.36630865866479
31
0
0
LINE
5
882
100
AcDbEntity
8
0
100
AcDbLine
10
75.369025855979032
20
135.36630865866479
30
0
11
75.126974144027031
21
135.36630865866479
31
0
0
LINE
5
883
100
AcDbEntity
8
0
100
AcDbLine
10
-6.8730258559699653
20
135.3659999991398
30
0
11
-6.8730258559699653
21
135.36630866023981
31
0
0
LINE
5
884
100
AcDbEntity
8
0
100
AcDbLine
10
-6.8730258559699653
20
135.36630866023981
30
0
11
-6.6309741440199677
21
135.36630866023981
31
0
0
LINE
5
885
100
AcDbEntity
8
0
100
AcDbLine
10
-6.6309741440199677
20
135.3659999991398
30
0
11
-6.6309741440199677
21
135.36630866023981
31
0
0
LINE
5
886
100
AcDbEntity
8
0
100
AcDbLine
10
-17.585264900779961
20
125.1209999991398
30
1.1102230246251565e-15
11
-17.585264900779965
21
128.0209999991398
31
0
0
LINE
5
887
100
AcDbEntity
8
0
100
AcDbLine
10
-17.585264900779961
20
137.12099999493938
30
0
11
-17.585264900779961
21
138.91099999913979
31
1.1102230246251565e-15
0
LWPOLYLINE
5
888
100
AcDbEntity
8
0
100
AcDbPolyline
90
4
70
1
43
0.0
10
65.648000000003037
20
11.020999999139715
10
77.29800000000003
20
11.020999999139715
10
77.29800000000003
20
9.1709999991397133
10
65.648000000003037
20
9.1709999991397169
0
LWPOLYLINE
5
889
100
AcDbEntity
8
0
100
AcDbPolyline
90
4
70
1
43
0.0
10
65.648000000003023
20
31.340999999139733
10
77.29800000000003
20
31.340999999139733
10
77.29800000000003
20
29.490999999139731
10
65.648000000003023
20
29.490999999139731
0
LWPOLYLINE
5
890
100
AcDbEntity
8
0
100
AcDbPolyline
90
4
70
1
43
0.0
10
65.648000000003037
20
51.660999999139747
10
77.29800000000003
20
51.660999999139747
10
77.29800000000003
20
49.810999999139753
10
65.648000000003037
20
49.810999999139739
0
LWPOLYLINE
5
891
100
AcDbEntity
8
0
100
AcDbPolyline
90
4
70
1
43
0.0
10
65.648000000003037
20
71.980999999139755
10
77.29800000000003
20
71.980999999139755
10
77.29800000000003
20
70.13099999913976
10
65.648000000003037
20
70.130999999139746
0
LWPOLYLINE
5
892
100
AcDbEntity
8
0
100
AcDbPolyline
90
4
70
1
43
0.0
10
65.648000000003037
20
92.300999999139748
10
77.29800000000003
20
92.300999999139748
10
77.29800000000003
20
90.450999999139739
10
65.648000000003037
20
90.450999999139739
0
LWPOLYLINE
5
893
100
AcDbEntity
8
0
100
AcDbPolyline
90
4
70
1
43
0.0
10
65.648000000003037
20
112.62099999913977
10
77.29800000000003
20
112.62099999913977
10
77.29800000000003
20
110.77099999913976
10
65.648000000003037
20
110.77099999913976
0
LWPOLYLINE
5
894
100
AcDbEntity
8
0
100
AcDbPolyline
90
4
70
1
43
0.0
10
65.648000000003037
20
132.94099999913979
10
77.29800000000003
20
132.94099999913979
10
77.29800000000003
20
131.0909999991398
10
65.648000000003037
20
131.0909999991398
0
LWPOLYLINE
5
895
100
AcDbEntity
8
0
100
AcDbPolyline
90
4
70
1
43
0.0
10
63.848000000004035
20
132.94099999913979
10
63.848000000004035
20
131.0909999991398
10
-7.8019999999999712
20
131.0909999991398
10
-7.8019999999999712
20
132.94099999913979
0
LWPOLYLINE
5
896
100
AcDbEntity
8
0
100
AcDbPolyline
90
4
70
1
43
0.0
10
63.848000000004035
20
112.62099999913977
10
63.848000000004035
20
110.77099999913976
10
-7.8019999999999712
20
110.77099999913976
10
-7.8019999999999712
20
112.62099999913977
0
LWPOLYLINE
5
897
100
AcDbEntity
8
0
100
AcDbPolyline
90
4
70
1
43
0.0
10
63.848000000004035
20
92.300999999139748
10
63.848000000004035
20
90.450999999139739
10
-7.8019999999999712
20
90.450999999139739
10
-7.8019999999999712
20
92.300999999139748
0
LWPOLYLINE
5
898
100
AcDbEntity
8
0
100
AcDbPolyline
90
4
70
1
43
0.0
10
63.848000000004035
20
71.980999999139769
10
63.848000000004035
20
70.13099999913976
10
-7.8019999999999712
20
70.13099999913976
10
-7.8019999999999712
20
71.980999999139755
0
LWPOLYLINE
5
899
100
AcDbEntity
8
0
100
AcDbPolyline
90
4
70
1
43
0.0
10
63.848000000004035
20
51.660999999139754
10
63.848000000004035
20
49.810999999139753
10
-7.8019999999999712
20
49.810999999139753
10
-7.8019999999999712
20
51.660999999139747
0
LWPOLYLINE
5
900
100
AcDbEntity
8
0
100
AcDbPolyline
90
4
70
1
43
0.0
10
63.848000000004028
20
31.340999999139733
10
63.848000000004028
20
29.490999999139731
10
-7.8019999999999801
20
29.490999999139738
10
-7.8019999999999801
20
31.34099999913974
0
LWPOLYLINE
5
901
100
AcDbEntity
8
0
100
AcDbPolyline
90
4
70
1
43
0.0
10
63.848000000004035
20
11.020999999139715
10
63.848000000004035
20
9.1709999991397151
10
-7.8019999999999712
20
9.1709999991397222
10
-7.8019999999999712
20
11.020999999139722
0
LWPOLYLINE
5
902
100
AcDbEntity
8
0
100
AcDbPolyline
90
17
70
1
43
0.0
10
-18.06238485569996
20
3.2009999991397176
10
-18.062384855719962
20
16.990999999139728
10
-17.62545727574998
20
16.990999999139728
10
-17.625457275719974
20
14.070999999139724
10
-13.751427772989961
20
14.070999999139723
10
-13.751427772999962
20
12.940999999139722
10
-16.168437976739966
20
12.940999999139724
10
-16.168437976739966
20
11.595999999139721
10
-13.751427772979978
20
11.595999999139721
10
-13.751427772979978
20
8.8459999991397211
10
-13.751427772999962
20
8.5959999991397211
10
-16.168437976739966
20
8.5959999991397211
10
-16.168437976739966
20
7.2509999991397187
10
-13.751427773009963
20
7.2509999991397187
10
-13.751427773029965
20
6.1209999991397179
10
-17.62545727574998
20
6.1209999991397179
10
-17.625457275719974
20
3.2009999991397153
0
LWPOLYLINE
5
903
100
AcDbEntity
8
0
100
AcDbPolyline
90
17
70
1
43
0.0
10
-18.062384855699971
20
23.520999999139732
10
-18.062384855719973
20
37.310999999139739
10
-17.625457275749987
20
37.310999999139746
10
-17.625457275719985
20
34.390999999139744
10
-13.75142777298997
20
34.390999999139737
10
-13.751427772999971
20
33.260999999139742
10
-16.168437976739973
20
33.260999999139742
10
-16.168437976739973
20
31.915999999139739
10
-13.751427772979987
20
31.915999999139743
10
-13.751427772979987
20
29.165999999139736
10
-13.751427772999971
20
28.915999999139736
10
-16.168437976739973
20
28.915999999139736
10
-16.168437976739973
20
27.570999999139737
10
-13.751427773009972
20
27.570999999139737
10
-13.751427773029974
20
26.440999999139734
10
-17.625457275749987
20
26.440999999139734
10
-17.625457275719985
20
23.520999999139732
0
LWPOLYLINE
5
904
100
AcDbEntity
8
0
100
AcDbPolyline
90
17
70
1
43
0.0
10
-18.06238485569996
20
43.840999999139747
10
-18.062384855719962
20
57.63099999913976
10
-17.62545727574998
20
57.630999999139753
10
-17.625457275719974
20
54.710999999139752
10
-13.751427772989961
20
54.710999999139759
10
-13.751427772999962
20
53.580999999139756
10
-16.168437976739966
20
53.580999999139756
10
-16.168437976739966
20
52.235999999139757
10
-13.751427772979978
20
52.235999999139757
10
-13.751427772979978
20
49.48599999913975
10
-13.751427772999962
20
49.23599999913975
10
-16.168437976739966
20
49.23599999913975
10
-16.168437976739966
20
47.890999999139751
10
-13.751427773009963
20
47.890999999139751
10
-13.751427773029965
20
46.760999999139742
10
-17.62545727574998
20
46.760999999139742
10
-17.625457275719974
20
43.840999999139747
0
LWPOLYLINE
5
905
100
AcDbEntity
8
0
100
AcDbPolyline
90
17
70
1
43
0.0
10
-18.06238485569996
20
64.160999999139761
10
-18.062384855719962
20
77.950999999139768
10
-17.62545727574998
20
77.950999999139754
10
-17.625457275719974
20
75.030999999139766
10
-13.751427772989961
20
75.030999999139766
10
-13.751427772999962
20
73.900999999139771
10
-16.168437976739966
20
73.900999999139771
10
-16.168437976739966
20
72.555999999139772
10
-13.751427772979978
20
72.555999999139772
10
-13.751427772979978
20
69.805999999139758
10
-13.751427772999962
20
69.555999999139758
10
-16.168437976739966
20
69.555999999139758
10
-16.168437976739966
20
68.210999999139759
10
-13.751427773009963
20
68.210999999139759
10
-13.751427773029965
20
67.080999999139749
10
-17.62545727574998
20
67.080999999139763
10
-17.625457275719974
20
64.160999999139761
0
LWPOLYLINE
5
906
100
AcDbEntity
8
0
100
AcDbPolyline
90
17
70
1
43
0.0
10
-18.06238485569996
20
84.480999999139726
10
-18.062384855719962
20
98.270999999139747
10
-17.62545727574998
20
98.270999999139747
10
-17.625457275719974
20
95.350999999139745
10
-13.751427772989961
20
95.350999999139745
10
-13.751427772999962
20
94.22099999913975
10
-16.168437976739966
20
94.22099999913975
10
-16.168437976739966
20
92.875999999139736
10
-13.751427772979978
20
92.875999999139736
10
-13.751427772979978
20
90.125999999139751
10
-13.751427772999962
20
89.875999999139751
10
-16.168437976739966
20
89.875999999139751
10
-16.168437976739966
20
88.530999999139738
10
-13.751427773009963
20
88.530999999139738
10
-13.751427773029965
20
87.400999999139742
10
-17.62545727574998
20
87.400999999139742
10
-17.625457275719974
20
84.480999999139755
0
LWPOLYLINE
5
907
100
AcDbEntity
8
0
100
AcDbPolyline
90
17
70
1
43
0.0
10
-18.06238485569996
20
104.80099999913975
10
-18.062384855719962
20
118.59099999913977
10
-17.62545727574998
20
118.59099999913977
10
-17.625457275719974
20
115.67099999913977
10
-13.751427772989961
20
115.67099999913977
10
-13.751427772999962
20
114.54099999913977
10
-16.168437976739966
20
114.54099999913976
10
-16.168437976739966
20
113.19599999913976
10
-13.751427772979978
20
113.19599999913976
10
-13.751427772979978
20
110.44599999913977
10
-13.751427772999962
20
110.19599999913977
10
-16.168437976739966
20
110.19599999913977
10
-16.168437976739966
20
108.85099999913976
10
-13.751427773009963
20
108.85099999913976
10
-13.751427773029965
20
107.72099999913976
10
-17.62545727574998
20
107.72099999913975
10
-17.625457275719974
20
104.80099999913975
0
LWPOLYLINE
5
908
100
AcDbEntity
8
0
100
AcDbPolyline
90
17
70
1
43
0.0
10
-18.06238485569996
20
125.12099999913978
10
-18.062384855719962
20
138.91099999913979
10
-17.62545727574998
20
138.91099999913979
10
-17.625457275719974
20
135.9909999991398
10
-13.751427772989961
20
135.9909999991398
10
-13.751427772999962
20
134.86099999913981
10
-16.168437976739966
20
134.86099999913978
10
-16.168437976739966
20
133.51599999913981
10
-13.751427772979978
20
133.51599999913981
10
-13.751427772979978
20
130.76599999913981
10
-13.751427772999962
20
130.51599999913981
10
-16.168437976739966
20
130.51599999913981
10
-16.168437976739966
20
129.17099999913978
10
-13.751427773009963
20
129.17099999913978
10
-13.751427773029965
20
128.04099999913979
10
-17.62545727574998
20
128.04099999913979
10
-17.625457275719974
20
125.12099999913978
0
LWPOLYLINE
5
909
100
AcDbEntity
8
0
100
AcDbPolyline
90
4
70
1
43
0.0
10
-9.7519999999699714
20
130.51599999913981
10
-14.751999999999965
20
130.51599999913981
10
-14.751999999999965
20
133.51599999913981
10
-9.751999999999974
20
133.51599999913981
0
LWPOLYLINE
5
910
100
AcDbEntity
8
0
100
AcDbPolyline
90
4
70
1
43
0.0
10
-9.7519999999699714
20
110.19599999913977
10
-14.751999999999965
20
110.19599999913977
10
-14.751999999999965
20
113.19599999913976
10
-9.751999999999974
20
113.19599999913977
0
LWPOLYLINE
5
911
100
AcDbEntity
8
0
100
AcDbPolyline
90
4
70
1
43
0.0
10
-9.7519999999699714
20
89.875999999139751
10
-14.751999999999965
20
89.875999999139751
10
-14.751999999999965
20
92.875999999139736
10
-9.751999999999974
20
92.875999999139765
0
LWPOLYLINE
5
912
100
AcDbEntity
8
0
100
AcDbPolyline
90
4
70
1
43
0.0
10
-9.7519999999699714
20
69.555999999139758
10
-14.751999999999965
20
69.555999999139758
10
-14.751999999999965
20
72.555999999139772
10
-9.751999999999974
20
72.555999999139758
0
LWPOLYLINE
5
913
100
AcDbEntity
8
0
100
AcDbPolyline
90
4
70
1
43
0.0
10
-9.7519999999699714
20
49.23599999913975
10
-14.751999999999965
20
49.23599999913975
10
-14.751999999999965
20
52.235999999139757
10
-9.751999999999974
20
52.235999999139757
0
LWPOLYLINE
5
914
100
AcDbEntity
8
0
100
AcDbPolyline
90
4
70
1
43
0.0
10
-9.7519999999699802
20
28.915999999139736
10
-14.751999999999974
20
28.915999999139736
10
-14.751999999999974
20
31.915999999139739
10
-9.7519999999999829
20
31.915999999139739
0
LWPOLYLINE
5
915
100
AcDbEntity
8
0
100
AcDbPolyline
90
4
70
1
43
0.0
10
-9.7519999999699714
20
8.5959999991397211
10
-14.751999999999965
20
8.5959999991397211
10
-14.751999999999965
20
11.595999999139721
10
-9.751999999999974
20
11.595999999139721
0
LINE
5
916
100
AcDbEntity
8
0
100
AcDbLine
10
77.748000000000033
20
8.6710000109117153
30
1.1102230246251565e-15
11
-8.2519993652199641
21
8.6710000109117207
31
1.1102230246251565e-15
0
ARC
5
917
100
AcDbEntity
8
0
100
AcDbCircle
10
-8.2519993652099721
20
8.8210000109107192
30
1.1102230246251565e-15
40
0.15000000000000013
100
AcDbArc
50
180
51
269.99999999618336
0
LINE
5
918
100
AcDbEntity
8
0
100
AcDbLine
10
-8.4019993652099725
20
8.821000010911721
30
1.1102230246251565e-15
11
-8.4019993652099689
21
9.9959999991395208
31
1.1102230246251565e-15
0
LINE
5
919
100
AcDbEntity
8
0
100
AcDbLine
10
-8.4019993652099689
20
9.9959999991395208
30
1.1102230246251565e-15
11
-9.8520032514299682
21
9.9959999991395208
31
1.1102230246251565e-15
0
LINE
5
920
100
AcDbEntity
8
0
100
AcDbLine
10
-9.8520032514299682
20
9.9959999991395208
30
1.1102230246251565e-15
11
-9.8520032514299682
21
9.0959999719827209
31
1.1102230246251565e-15
0
ARC
5
921
100
AcDbEntity
8
0
100
AcDbCircle
10
-9.8520032514299682
20
8.8959999719827199
30
1.1102230246251565e-15
40
0.20000000000000018
100
AcDbArc
50
-89.99999999713495
51
90
0
LINE
5
922
100
AcDbEntity
8
0
100
AcDbLine
10
-9.8520032514199674
20
8.6959999719827188
30
1.1102230246251565e-15
11
-9.8520032512237243
21
6.4960097719499599
31
1.1102230246251565e-15
0
ARC
5
923
100
AcDbEntity
8
0
100
AcDbCircle
10
-9.6520032514299636
20
6.4959999991397179
30
1.1102230246251565e-15
40
0.20000000003253027
100
AcDbArc
50
179.9972002961693
51
270
0
LINE
5
924
100
AcDbEntity
8
0
100
AcDbLine
10
-9.6520032514299636
20
6.2959999991397186
30
1.1102230246251565e-15
11
-8.3019997431299775
21
6.2959999991397186
31
1.1102230246251565e-15
0
ARC
5
925
100
AcDbEntity
8
0
100
AcDbCircle
10
-8.3019997431299792
20
6.4959999991397188
30
1.1102230246251565e-15
40
0.20000000000000018
100
AcDbArc
50
-89.999999999999503
51
0.00028445913444363817
0
LINE
5
926
100
AcDbEntity
8
0
100
AcDbLine
10
-8.101999743132442
20
6.4960009920927178
30
1.1102230246251565e-15
11
-8.1019997431299728
21
6.9459999991447186
31
1.1102230246251565e-15
0
ARC
5
927
100
AcDbEntity
8
0
100
AcDbCircle
10
-7.9019997431299682
20
6.9459999991447186
30
1.1102230246251565e-15
40
0.20000000000000018
100
AcDbArc
50
90.000000037243026
51
180
0
LINE
5
928
100
AcDbEntity
8
0
100
AcDbLine
10
-7.9019997432599709
20
7.1459999991447187
30
1.1102230246251565e-15
11
-7.7519999999999722
21
7.1459999991397183
31
1.1102230246251565e-15
0
LINE
5
929
100
AcDbEntity
8
0
100
AcDbLine
10
-7.7519999999999722
20
7.1459999991397183
30
1.1102230246251565e-15
11
76.898000256875051
21
7.145999999139713
31
1.1102230246251565e-15
0
ARC
5
930
100
AcDbEntity
8
0
100
AcDbCircle
10
76.898000256875036
20
6.9459999991397128
30
1.1102230246251565e-15
40
0.20000000000010235
100
AcDbArc
50
-1.2074182490616497e-06
51
89.999999999995936
0
LINE
5
931
100
AcDbEntity
8
0
100
AcDbLine
10
77.098000256875139
20
6.9459999951732669
30
1.1102230246251565e-15
11
77.098000257117036
21
6.2960191487997132
31
1.1102230246251565e-15
0
ARC
5
932
100
AcDbEntity
8
0
100
AcDbCircle
10
77.29800025687004
20
6.2959999991397186
30
1.1102230246251565e-15
40
0.20000000066977591
100
AcDbArc
50
179.99451402656052
51
269.39914045305483
0
LINE
5
933
100
AcDbEntity
8
0
100
AcDbLine
10
77.295902952366063
20
6.095999999126712
30
1.1102230246251565e-15
11
79.248000000000033
21
6.0959999995191216
31
1.1102230246251565e-15
0
LINE
5
934
100
AcDbEntity
8
0
100
AcDbLine
10
79.248000000000033
20
6.0959999995191216
30
1.1102230246251565e-15
11
79.248000000000033
21
9.9959999991395154
31
1.1102230246251565e-15
0
LINE
5
935
100
AcDbEntity
8
0
100
AcDbLine
10
79.248000000000033
20
9.9959999991395154
30
1.1102230246251565e-15
11
77.898000000000039
21
9.9959999991395154
31
1.1102230246251565e-15
0
LINE
5
936
100
AcDbEntity
8
0
100
AcDbLine
10
77.898000000000039
20
9.9959999991395154
30
1.1102230246251565e-15
11
77.898000000000039
21
8.8210000109117139
31
1.1102230246251565e-15
0
ARC
5
937
100
AcDbEntity
8
0
100
AcDbCircle
10
77.748000000000033
20
8.8210000109117139
30
1.1102230246251565e-15
40
0.15000000000000013
100
AcDbArc
50
-90
51
0
0
LWPOLYLINE
5
938
100
AcDbEntity
8
0
100
AcDbPolyline
90
22
70
1
43
0.0
10
-7.7519999999999722
20
13.045999999134724
10
76.898000256799037
20
13.045999999137718
42
0.41421356244046192
10
77.098000256875025
20
13.245999999109717
10
77.098000256870037
20
13.495999999235719
42
-0.41421356223248856
10
77.29800025687004
20
13.695999999139715
10
79.248000000000033
20
13.695999999139715
10
79.248000000000033
20
10.195999999139516
10
77.898000000000039
20
10.195999999139516
10
77.897999999999939
20
11.370999933051415
42
0.41421356237581353
10
77.748000000000047
20
11.520999933052718
10
-8.2519993652099721
20
11.520999933052822
42
0.41421356237602597
10
-8.4019993652099689
20
11.37099993305122
10
-8.4019993652099689
20
10.19599999913952
10
-9.8520032514299682
20
10.195999999139522
10
-9.8520032514299682
20
11.095999971982222
42
0.99999999999999989
10
-9.8520032514299682
20
11.49599997198222
10
-9.8520032514299629
20
13.495999999137723
42
-0.41421356237601836
10
-9.6520032514299636
20
13.695999999139723
10
-8.3019997431299775
20
13.695999999139728
42
-0.41421356244631186
10
-8.1019997431299728
20
13.495999999089722
10
-8.1019997431198671
20
13.245999999342722
42
0.41421356263524278
10
-7.9019997431499611
20
13.045999999133723
0
LINE
5
939
100
AcDbEntity
8
0
100
AcDbLine
10
77.748000000000019
20
28.991000010911733
30
1.1102230246251565e-15
11
-8.251999365219973
21
28.991000010911737
31
1.1102230246251565e-15
0
ARC
5
940
100
AcDbEntity
8
0
100
AcDbCircle
10
-8.251999365209981
20
29.141000010910737
30
1.1102230246251565e-15
40
0.15000000000000013
100
AcDbArc
50
180
51
269.99999999618336
0
LINE
5
941
100
AcDbEntity
8
0
100
AcDbLine
10
-8.4019993652099814
20
29.141000010911739
30
1.1102230246251565e-15
11
-8.4019993652099778
21
30.315999999139539
31
1.1102230246251565e-15
0
LINE
5
942
100
AcDbEntity
8
0
100
AcDbLine
10
-8.4019993652099778
20
30.315999999139539
30
1.1102230246251565e-15
11
-9.8520032514299771
21
30.315999999139539
31
1.1102230246251565e-15
0
LINE
5
943
100
AcDbEntity
8
0
100
AcDbLine
10
-9.8520032514299771
20
30.315999999139539
30
1.1102230246251565e-15
11
-9.8520032514299771
21
29.415999971982739
31
1.1102230246251565e-15
0
ARC
5
944
100
AcDbEntity
8
0
100
AcDbCircle
10
-9.8520032514299771
20
29.21599997198274
30
1.1102230246251565e-15
40
0.20000000000000018
100
AcDbArc
50
-89.99999999713495
51
90
0
LINE
5
945
100
AcDbEntity
8
0
100
AcDbLine
10
-9.8520032514199762
20
29.015999971982737
30
1.1102230246251565e-15
11
-9.8520032512237332
21
26.816009771949972
31
1.1102230246251565e-15
0
ARC
5
946
100
AcDbEntity
8
0
100
AcDbCircle
10
-9.6520032514299672
20
26.815999999139741
30
1.1102230246251565e-15
40
0.20000000003253471
100
AcDbArc
50
179.9972002961693
51
269.99999999999847
0
LINE
5
947
100
AcDbEntity
8
0
100
AcDbLine
10
-9.6520032514299725
20
26.615999999139738
30
1.1102230246251565e-15
11
-8.3019997431299863
21
26.615999999139738
31
1.1102230246251565e-15
0
ARC
5
948
100
AcDbEntity
8
0
100
AcDbCircle
10
-8.3019997431299846
20
26.815999999139734
30
1.1102230246251565e-15
40
0.19999999999999574
100
AcDbArc
50
-90.000000000000512
51
0.00028445913444363817
0
LINE
5
949
100
AcDbEntity
8
0
100
AcDbLine
10
-8.1019997431324526
20
26.816000992092736
30
1.1102230246251565e-15
11
-8.1019997431299817
21
27.265999999144736
31
1.1102230246251565e-15
0
ARC
5
950
100
AcDbEntity
8
0
100
AcDbCircle
10
-7.9019997431299771
20
27.265999999144736
30
1.1102230246251565e-15
40
0.20000000000000018
100
AcDbArc
50
90.000000037243026
51
180
0
LINE
5
951
100
AcDbEntity
8
0
100
AcDbLine
10
-7.9019997432599798
20
27.465999999144735
30
1.1102230246251565e-15
11
-7.7519999999999811
21
27.465999999139733
31
1.1102230246251565e-15
0
LINE
5
952
100
AcDbEntity
8
0
100
AcDbLine
10
-7.7519999999999811
20
27.465999999139733
30
1.1102230246251565e-15
11
76.898000256875036
21
27.465999999139733
31
1.1102230246251565e-15
0
ARC
5
953
100
AcDbEntity
8
0
100
AcDbCircle
10
76.898000256875022
20
27.26599999913973
30
1.1102230246251565e-15
40
0.20000000000010235
100
AcDbArc
50
-1.2074182490616497e-06
51
89.999999999995936
0
LINE
5
954
100
AcDbEntity
8
0
100
AcDbLine
10
77.098000256875125
20
27.265999995173289
30
1.1102230246251565e-15
11
77.098000257117022
21
26.616019148799733
31
1.1102230246251565e-15
0
ARC
5
955
100
AcDbEntity
8
0
100
AcDbCircle
10
77.298000256870012
20
26.615999999139731
30
1.1102230246251565e-15
40
0.20000000066976703
100
AcDbArc
50
179.99451402656052
51
269.3991404530629
0
LINE
5
956
100
AcDbEntity
8
0
100
AcDbLine
10
77.295902952366049
20
26.415999999126729
30
1.1102230246251565e-15
11
79.248000000000033
21
26.415999999519141
31
1.1102230246251565e-15
0
LINE
5
957
100
AcDbEntity
8
0
100
AcDbLine
10
79.248000000000033
20
26.415999999519141
30
1.1102230246251565e-15
11
79.248000000000033
21
30.315999999139535
31
1.1102230246251565e-15
0
LINE
5
958
100
AcDbEntity
8
0
100
AcDbLine
10
79.248000000000033
20
30.315999999139535
30
1.1102230246251565e-15
11
77.898000000000025
21
30.315999999139535
31
1.1102230246251565e-15
0
LINE
5
959
100
AcDbEntity
8
0
100
AcDbLine
10
77.898000000000025
20
30.315999999139535
30
1.1102230246251565e-15
11
77.898000000000025
21
29.141000010911732
31
1.1102230246251565e-15
0
ARC
5
960
100
AcDbEntity
8
0
100
AcDbCircle
10
77.748000000000019
20
29.141000010911732
30
1.1102230246251565e-15
40
0.15000000000000124
100
AcDbArc
50
-90
51
0
0
LWPOLYLINE
5
961
100
AcDbEntity
8
0
100
AcDbPolyline
90
22
70
1
43
0.0
10
-7.7519999999999811
20
33.365999999134743
10
76.898000256799023
20
33.365999999137735
42
0.41421356244046514
10
77.098000256875025
20
33.565999999109735
10
77.098000256870023
20
33.815999999235736
42
-0.41421356223252759
10
77.298000256870026
20
34.015999999139737
10
79.248000000000033
20
34.015999999139737
10
79.248000000000033
20
30.515999999139535
10
77.898000000000025
20
30.515999999139535
10
77.897999999999925
20
31.690999933051437
42
0.4142135623758092
10
77.748000000000033
20
31.840999933052736
10
-8.251999365209981
20
31.840999933052842
42
0.41421356237602597
10
-8.4019993652099778
20
31.690999933051241
10
-8.4019993652099778
20
30.515999999139538
10
-9.8520032514299771
20
30.515999999139538
10
-9.8520032514299771
20
31.415999971982238
42
0.99999999999999989
10
-9.8520032514299771
20
31.815999971982237
10
-9.85200325142997
20
33.815999999137745
42
-0.41421356237602325
10
-9.6520032514299725
20
34.015999999139737
10
-8.3019997431299863
20
34.015999999139751
42
-0.41421356244630858
10
-8.1019997431299817
20
33.81599999908974
10
-8.101999743119876
20
33.565999999342743
42
0.41421356263524606
10
-7.90199974314997
20
33.365999999133741
0
LINE
5
962
100
AcDbEntity
8
0
100
AcDbLine
10
77.748000000000033
20
49.311000010911748
30
1.1102230246251565e-15
11
-8.2519993652199641
21
49.311000010911755
31
1.1102230246251565e-15
0
ARC
5
963
100
AcDbEntity
8
0
100
AcDbCircle
10
-8.2519993652099721
20
49.461000010910752
30
1.1102230246251565e-15
40
0.15000000000000013
100
AcDbArc
50
180
51
269.99999999618336
0
LINE
5
964
100
AcDbEntity
8
0
100
AcDbLine
10
-8.4019993652099725
20
49.461000010911754
30
1.1102230246251565e-15
11
-8.4019993652099689
21
50.635999999139557
31
1.1102230246251565e-15
0
LINE
5
965
100
AcDbEntity
8
0
100
AcDbLine
10
-8.4019993652099689
20
50.635999999139557
30
1.1102230246251565e-15
11
-9.8520032514299682
21
50.63599999913955
31
1.1102230246251565e-15
0
LINE
5
966
100
AcDbEntity
8
0
100
AcDbLine
10
-9.8520032514299682
20
50.63599999913955
30
1.1102230246251565e-15
11
-9.8520032514299682
21
49.73599997198275
31
1.1102230246251565e-15
0
ARC
5
967
100
AcDbEntity
8
0
100
AcDbCircle
10
-9.8520032514299682
20
49.535999971982747
30
1.1102230246251565e-15
40
0.19999999999999574
100
AcDbArc
50
-89.99999999713495
51
90
0
LINE
5
968
100
AcDbEntity
8
0
100
AcDbLine
10
-9.8520032514199674
20
49.335999971982751
30
1.1102230246251565e-15
11
-9.8520032512237243
21
47.136009771949993
31
1.1102230246251565e-15
0
ARC
5
969
100
AcDbEntity
8
0
100
AcDbCircle
10
-9.6520032514299583
20
47.135999999139749
30
1.1102230246251565e-15
40
0.20000000003253579
100
AcDbArc
50
179.9972002961693
51
269.99999999999847
0
LINE
5
970
100
AcDbEntity
8
0
100
AcDbLine
10
-9.6520032514299636
20
46.935999999139746
30
1.1102230246251565e-15
11
-8.3019997431299775
21
46.935999999139746
31
1.1102230246251565e-15
0
ARC
5
971
100
AcDbEntity
8
0
100
AcDbCircle
10
-8.3019997431299615
20
47.135999999139734
30
1.1102230246251565e-15
40
0.19999999999998685
100
AcDbArc
50
-90.000000000004576
51
0.00028445913444363817
0
LINE
5
972
100
AcDbEntity
8
0
100
AcDbLine
10
-8.1019997431324491
20
47.136000992092747
30
1.1102230246251565e-15
11
-8.1019997431299728
21
47.585999999144747
31
1.1102230246251565e-15
0
ARC
5
973
100
AcDbEntity
8
0
100
AcDbCircle
10
-7.9019997431299682
20
47.585999999144747
30
1.1102230246251565e-15
40
0.19999999999999574
100
AcDbArc
50
90.000000037243026
51
180
0
LINE
5
974
100
AcDbEntity
8
0
100
AcDbLine
10
-7.9019997432599709
20
47.785999999144749
30
1.1102230246251565e-15
11
-7.7519999999999722
21
47.785999999139754
31
1.1102230246251565e-15
0
LINE
5
975
100
AcDbEntity
8
0
100
AcDbLine
10
-7.7519999999999722
20
47.785999999139754
30
1.1102230246251565e-15
11
76.898000256875051
21
47.785999999139747
31
1.1102230246251565e-15
0
ARC
5
976
100
AcDbEntity
8
0
100
AcDbCircle
10
76.898000256875036
20
47.585999999139744
30
1.1102230246251565e-15
40
0.20000000000010235
100
AcDbArc
50
-1.2074182490616497e-06
51
89.999999999995936
0
LINE
5
977
100
AcDbEntity
8
0
100
AcDbLine
10
77.098000256875139
20
47.585999995173296
30
1.1102230246251565e-15
11
77.098000257117036
21
46.936019148799737
31
1.1102230246251565e-15
0
ARC
5
978
100
AcDbEntity
8
0
100
AcDbCircle
10
77.29800025687004
20
46.935999999139739
30
1.1102230246251565e-15
40
0.20000000066977591
100
AcDbArc
50
179.99451402656052
51
269.39914045305483
0
LINE
5
979
100
AcDbEntity
8
0
100
AcDbLine
10
77.295902952366063
20
46.735999999126747
30
1.1102230246251565e-15
11
79.248000000000033
21
46.735999999519152
31
1.1102230246251565e-15
0
LINE
5
980
100
AcDbEntity
8
0
100
AcDbLine
10
79.248000000000033
20
46.735999999519152
30
1.1102230246251565e-15
11
79.248000000000033
21
50.635999999139543
31
1.1102230246251565e-15
0
LINE
5
981
100
AcDbEntity
8
0
100
AcDbLine
10
79.248000000000033
20
50.635999999139543
30
1.1102230246251565e-15
11
77.898000000000039
21
50.635999999139543
31
1.1102230246251565e-15
0
LINE
5
982
100
AcDbEntity
8
0
100
AcDbLine
10
77.898000000000039
20
50.635999999139543
30
1.1102230246251565e-15
11
77.898000000000039
21
49.461000010911739
31
1.1102230246251565e-15
0
ARC
5
983
100
AcDbEntity
8
0
100
AcDbCircle
10
77.748000000000033
20
49.461000010911746
30
1.1102230246251565e-15
40
0.1499999999999968
100
AcDbArc
50
270
51
360
0
LWPOLYLINE
5
984
100
AcDbEntity
8
0
100
AcDbPolyline
90
22
70
1
43
0.0
10
-7.7519999999999722
20
53.685999999134751
10
76.898000256799037
20
53.685999999137749
42
0.41421356244045865
10
77.098000256875025
20
53.885999999109742
10
77.098000256870037
20
54.135999999235757
42
-0.4142135622325146
10
77.29800025687004
20
54.335999999139744
10
79.248000000000033
20
54.335999999139744
10
79.248000000000033
20
50.835999999139545
10
77.898000000000039
20
50.835999999139545
10
77.897999999999939
20
52.010999933051437
42
0.41421356237581786
10
77.748000000000047
20
52.160999933052743
10
-8.2519993652099721
20
52.160999933052857
42
0.41421356237602597
10
-8.4019993652099689
20
52.010999933051252
10
-8.4019993652099689
20
50.83599999913956
10
-9.8520032514299682
20
50.83599999913956
10
-9.8520032514299682
20
51.735999971982253
42
0.99999999999999989
10
-9.8520032514299682
20
52.135999971982258
10
-9.85200325142997
20
54.135999999137752
42
-0.41421356237602325
10
-9.6520032514299636
20
54.335999999139759
10
-8.3019997431299775
20
54.335999999139759
42
-0.41421356244632807
10
-8.1019997431299728
20
54.135999999089748
10
-8.1019997431198671
20
53.885999999342751
42
0.41421356263523956
10
-7.9019997431499611
20
53.685999999133749
0
LINE
5
985
100
AcDbEntity
8
0
100
AcDbLine
10
77.748000000000033
20
69.631000010911762
30
-1.1102230246251565e-15
11
-8.2519993652199641
21
69.631000010911762
31
-1.1102230246251565e-15
0
ARC
5
986
100
AcDbEntity
8
0
100
AcDbCircle
10
-8.2519993652099721
20
69.781000010910759
30
-1.1102230246251565e-15
40
0.15000000000000013
100
AcDbArc
50
180
51
269.99999999618336
0
LINE
5
987
100
AcDbEntity
8
0
100
AcDbLine
10
-8.4019993652099725
20
69.781000010911768
30
-1.1102230246251565e-15
11
-8.4019993652099689
21
70.955999999139564
31
-1.1102230246251565e-15
0
LINE
5
988
100
AcDbEntity
8
0
100
AcDbLine
10
-8.4019993652099689
20
70.955999999139564
30
-1.1102230246251565e-15
11
-9.8520032514299682
21
70.955999999139564
31
-1.1102230246251565e-15
0
LINE
5
989
100
AcDbEntity
8
0
100
AcDbLine
10
-9.8520032514299682
20
70.955999999139564
30
-1.1102230246251565e-15
11
-9.8520032514299682
21
70.055999971982757
31
-1.1102230246251565e-15
0
ARC
5
990
100
AcDbEntity
8
0
100
AcDbCircle
10
-9.8520032514299682
20
69.855999971982769
30
-1.1102230246251565e-15
40
0.19999999999999574
100
AcDbArc
50
-89.99999999713495
51
90
0
LINE
5
991
100
AcDbEntity
8
0
100
AcDbLine
10
-9.8520032514199674
20
69.655999971982766
30
-1.1102230246251565e-15
11
-9.8520032512237243
21
67.456009771949994
31
-1.1102230246251565e-15
0
ARC
5
992
100
AcDbEntity
8
0
100
AcDbCircle
10
-9.6520032514299654
20
67.455999999139763
30
-1.1102230246251565e-15
40
0.20000000003252805
100
AcDbArc
50
179.9972002961693
51
270.00000000000051
0
LINE
5
993
100
AcDbEntity
8
0
100
AcDbLine
10
-9.6520032514299636
20
67.25599999913976
30
-1.1102230246251565e-15
11
-8.3019997431299775
21
67.25599999913976
31
-1.1102230246251565e-15
0
ARC
5
994
100
AcDbEntity
8
0
100
AcDbCircle
10
-8.3019997431299668
20
67.455999999139763
30
-1.1102230246251565e-15
40
0.20000000000000462
100
AcDbArc
50
-90.000000000003055
51
0.00028445913444363817
0
LINE
5
995
100
AcDbEntity
8
0
100
AcDbLine
10
-8.1019997431324349
20
67.456000992092754
30
-1.1102230246251565e-15
11
-8.1019997431299728
21
67.905999999144754
31
-1.1102230246251565e-15
0
ARC
5
996
100
AcDbEntity
8
0
100
AcDbCircle
10
-7.9019997431299682
20
67.905999999144754
30
-1.1102230246251565e-15
40
0.20000000000000462
100
AcDbArc
50
90.000000037243026
51
180
0
LINE
5
997
100
AcDbEntity
8
0
100
AcDbLine
10
-7.9019997432599709
20
68.105999999144757
30
-1.1102230246251565e-15
11
-7.7519999999999722
21
68.105999999139769
31
-1.1102230246251565e-15
0
LINE
5
998
100
AcDbEntity
8
0
100
AcDbLine
10
-7.7519999999999722
20
68.105999999139769
30
-1.1102230246251565e-15
11
76.898000256875051
21
68.10599999913974
31
-1.1102230246251565e-15
0
ARC
5
999
100
AcDbEntity
8
0
100
AcDbCircle
10
76.898000256875036
20
67.905999999139752
30
-1.1102230246251565e-15
40
0.20000000000010235
100
AcDbArc
50
-1.2074182490616497e-06
51
89.999999999995936
0
LINE
5
1000
100
AcDbEntity
8
0
100
AcDbLine
10
77.098000256875139
20
67.905999995173303
30
-1.1102230246251565e-15
11
77.098000257117036
21
67.256019148799751
31
-1.1102230246251565e-15
0
ARC
5
1001
100
AcDbEntity
8
0
100
AcDbCircle
10
77.29800025687004
20
67.255999999139746
30
-1.1102230246251565e-15
40
0.20000000066977591
100
AcDbArc
50
179.99451402656052
51
269.39914045305483
0
LINE
5
1002
100
AcDbEntity
8
0
100
AcDbLine
10
77.295902952366063
20
67.055999999126755
30
-1.1102230246251565e-15
11
79.248000000000033
21
67.055999999519159
31
-1.1102230246251565e-15
0
LINE
5
1003
100
AcDbEntity
8
0
100
AcDbLine
10
79.248000000000033
20
67.055999999519159
30
-1.1102230246251565e-15
11
79.248000000000033
21
70.955999999139564
31
-1.1102230246251565e-15
0
LINE
5
1004
100
AcDbEntity
8
0
100
AcDbLine
10
79.248000000000033
20
70.955999999139564
30
-1.1102230246251565e-15
11
77.898000000000039
21
70.95599999913955
31
-1.1102230246251565e-15
0
LINE
5
1005
100
AcDbEntity
8
0
100
AcDbLine
10
77.898000000000039
20
70.95599999913955
30
-1.1102230246251565e-15
11
77.898000000000039
21
69.781000010911754
31
-1.1102230246251565e-15
0
ARC
5
1006
100
AcDbEntity
8
0
100
AcDbCircle
10
77.748000000000033
20
69.781000010911754
30
-1.1102230246251565e-15
40
0.1499999999999968
100
AcDbArc
50
-90
51
0
0
LWPOLYLINE
5
1007
100
AcDbEntity
8
0
100
AcDbPolyline
90
22
70
1
43
0.0
10
-7.7519999999999722
20
74.005999999134758
10
76.898000256799037
20
74.005999999137757
42
0.41421356244045865
10
77.098000256875025
20
74.20599999910975
10
77.098000256870037
20
74.455999999235758
42
-0.41421356223252759
10
77.29800025687004
20
74.655999999139752
10
79.248000000000033
20
74.655999999139752
10
79.248000000000033
20
71.155999999139553
10
77.898000000000039
20
71.155999999139553
10
77.897999999999939
20
72.330999933051444
42
0.41421356237581786
10
77.748000000000047
20
72.480999933052757
10
-8.2519993652099721
20
72.480999933052871
42
0.41421356237602597
10
-8.4019993652099689
20
72.33099993305126
10
-8.4019993652099689
20
71.155999999139567
10
-9.8520032514299682
20
71.155999999139567
10
-9.8520032514299682
20
72.05599997198226
42
0.99999999999999989
10
-9.8520032514299682
20
72.455999971982266
10
-9.85200325142997
20
74.455999999137759
42
-0.41421356237602325
10
-9.6520032514299636
20
74.655999999139766
10
-8.3019997431299775
20
74.65599999913978
42
-0.41421356244629071
10
-8.1019997431299728
20
74.455999999089755
10
-8.1019997431198671
20
74.205999999342765
42
0.41421356263523956
10
-7.9019997431499611
20
74.005999999133763
0
LINE
5
1008
100
AcDbEntity
8
0
100
AcDbLine
10
77.748000000000033
20
89.951000010911741
30
1.1102230246251565e-15
11
-8.2519993652199641
21
89.951000010911741
31
1.1102230246251565e-15
0
ARC
5
1009
100
AcDbEntity
8
0
100
AcDbCircle
10
-8.2519993652099721
20
90.101000010910738
30
1.1102230246251565e-15
40
0.15000000000000013
100
AcDbArc
50
180
51
269.99999999618336
0
LINE
5
1010
100
AcDbEntity
8
0
100
AcDbLine
10
-8.4019993652099725
20
90.101000010911733
30
1.1102230246251565e-15
11
-8.4019993652099689
21
91.275999999139543
31
1.1102230246251565e-15
0
LINE
5
1011
100
AcDbEntity
8
0
100
AcDbLine
10
-8.4019993652099689
20
91.275999999139543
30
1.1102230246251565e-15
11
-9.8520032514299682
21
91.275999999139543
31
1.1102230246251565e-15
0
LINE
5
1012
100
AcDbEntity
8
0
100
AcDbLine
10
-9.8520032514299682
20
91.275999999139543
30
1.1102230246251565e-15
11
-9.8520032514299682
21
90.375999971982736
31
1.1102230246251565e-15
0
ARC
5
1013
100
AcDbEntity
8
0
100
AcDbCircle
10
-9.8520032514299682
20
90.175999971982748
30
1.1102230246251565e-15
40
0.19999999999999574
100
AcDbArc
50
-89.99999999713495
51
90
0
LINE
5
1014
100
AcDbEntity
8
0
100
AcDbLine
10
-9.8520032514199674
20
89.975999971982759
30
1.1102230246251565e-15
11
-9.8520032512237243
21
87.776009771949987
31
1.1102230246251565e-15
0
ARC
5
1015
100
AcDbEntity
8
0
100
AcDbCircle
10
-9.6520032514299707
20
87.775999999139742
30
1.1102230246251565e-15
40
0.20000000003252361
100
AcDbArc
50
179.9972002961693
51
270.00000000000205
0
LINE
5
1016
100
AcDbEntity
8
0
100
AcDbLine
10
-9.6520032514299636
20
87.575999999139754
30
1.1102230246251565e-15
11
-8.3019997431299775
21
87.575999999139754
31
1.1102230246251565e-15
0
ARC
5
1017
100
AcDbEntity
8
0
100
AcDbCircle
10
-8.3019997431300023
20
87.775999999139742
30
1.1102230246251565e-15
40
0.19999999999999574
100
AcDbArc
50
-89.99999999999288
51
0.00028445913444363817
0
LINE
5
1018
100
AcDbEntity
8
0
100
AcDbLine
10
-8.1019997431324544
20
87.776000992092747
30
1.1102230246251565e-15
11
-8.1019997431299728
21
88.225999999144733
31
1.1102230246251565e-15
0
ARC
5
1019
100
AcDbEntity
8
0
100
AcDbCircle
10
-7.9019997431299682
20
88.225999999144733
30
1.1102230246251565e-15
40
0.19999999999999574
100
AcDbArc
50
90.000000037243026
51
180
0
LINE
5
1020
100
AcDbEntity
8
0
100
AcDbLine
10
-7.9019997432599709
20
88.425999999144722
30
1.1102230246251565e-15
11
-7.7519999999999722
21
88.425999999139734
31
1.1102230246251565e-15
0
LINE
5
1021
100
AcDbEntity
8
0
100
AcDbLine
10
-7.7519999999999722
20
88.425999999139734
30
1.1102230246251565e-15
11
76.898000256875051
21
88.425999999139734
31
1.1102230246251565e-15
0
ARC
5
1022
100
AcDbEntity
8
0
100
AcDbCircle
10
76.898000256875036
20
88.225999999139745
30
1.1102230246251565e-15
40
0.20000000000010235
100
AcDbArc
50
-1.2074182490616497e-06
51
89.999999999995936
0
LINE
5
1023
100
AcDbEntity
8
0
100
AcDbLine
10
77.098000256875139
20
88.225999995173296
30
1.1102230246251565e-15
11
77.098000257117036
21
87.57601914879973
31
1.1102230246251565e-15
0
ARC
5
1024
100
AcDbEntity
8
0
100
AcDbCircle
10
77.29800025687004
20
87.575999999139725
30
1.1102230246251565e-15
40
0.20000000066977591
100
AcDbArc
50
179.99451402656052
51
269.39914045305483
0
LINE
5
1025
100
AcDbEntity
8
0
100
AcDbLine
10
77.295902952366063
20
87.375999999126734
30
1.1102230246251565e-15
11
79.248000000000033
21
87.375999999519138
31
1.1102230246251565e-15
0
LINE
5
1026
100
AcDbEntity
8
0
100
AcDbLine
10
79.248000000000033
20
87.375999999519138
30
1.1102230246251565e-15
11
79.248000000000033
21
91.275999999139543
31
1.1102230246251565e-15
0
LINE
5
1027
100
AcDbEntity
8
0
100
AcDbLine
10
79.248000000000033
20
91.275999999139543
30
1.1102230246251565e-15
11
77.898000000000039
21
91.275999999139543
31
1.1102230246251565e-15
0
LINE
5
1028
100
AcDbEntity
8
0
100
AcDbLine
10
77.898000000000039
20
91.275999999139543
30
1.1102230246251565e-15
11
77.898000000000039
21
90.101000010911747
31
1.1102230246251565e-15
0
ARC
5
1029
100
AcDbEntity
8
0
100
AcDbCircle
10
77.748000000000033
20
90.101000010911733
30
1.1102230246251565e-15
40
0.14999999999998792
100
AcDbArc
50
-90
51
0
0
LWPOLYLINE
5
1030
100
AcDbEntity
8
0
100
AcDbPolyline
90
22
70
1
43
0.0
10
-7.7519999999999722
20
94.325999999134751
10
76.898000256799037
20
94.32599999913775
42
0.41421356244045865
10
77.098000256875025
20
94.525999999109743
10
77.098000256870037
20
94.775999999235722
42
-0.41421356223255362
10
77.29800025687004
20
94.975999999139745
10
79.248000000000033
20
94.975999999139745
10
79.248000000000033
20
91.475999999139532
10
77.898000000000039
20
91.475999999139532
10
77.897999999999939
20
92.650999933051438
42
0.41421356237581786
10
77.748000000000047
20
92.800999933052736
10
-8.2519993652099721
20
92.800999933052836
42
0.41421356237600859
10
-8.4019993652099689
20
92.650999933051253
10
-8.4019993652099689
20
91.475999999139532
10
-9.8520032514299682
20
91.475999999139532
10
-9.8520032514299682
20
92.375999971982253
42
0.99999999999999989
10
-9.8520032514299682
20
92.775999971982245
10
-9.8520032514299452
20
94.775999999137753
42
-0.41421356237601514
10
-9.6520032514299636
20
94.975999999139745
10
-8.3019997431299775
20
94.975999999139731
42
-0.41421356244630048
10
-8.1019997431299728
20
94.775999999089748
10
-8.1019997431198671
20
94.525999999342758
42
0.41421356263525255
10
-7.9019997431499611
20
94.325999999133757
0
LINE
5
1031
100
AcDbEntity
8
0
100
AcDbLine
10
77.748000000000033
20
110.27100001091176
30
-1.1102230246251565e-15
11
-8.2519993652199641
21
110.27100001091176
31
-1.1102230246251565e-15
0
ARC
5
1032
100
AcDbEntity
8
0
100
AcDbCircle
10
-8.2519993652099721
20
110.42100001091075
30
-1.1102230246251565e-15
40
0.15000000000000013
100
AcDbArc
50
180
51
269.99999999618336
0
LINE
5
1033
100
AcDbEntity
8
0
100
AcDbLine
10
-8.4019993652099725
20
110.42100001091174
30
-1.1102230246251565e-15
11
-8.4019993652099689
21
111.59599999913956
31
-1.1102230246251565e-15
0
LINE
5
1034
100
AcDbEntity
8
0
100
AcDbLine
10
-8.4019993652099689
20
111.59599999913956
30
-1.1102230246251565e-15
11
-9.8520032514299682
21
111.59599999913956
31
-1.1102230246251565e-15
0
LINE
5
1035
100
AcDbEntity
8
0
100
AcDbLine
10
-9.8520032514299682
20
111.59599999913956
30
-1.1102230246251565e-15
11
-9.8520032514299682
21
110.69599997198276
31
-1.1102230246251565e-15
0
ARC
5
1036
100
AcDbEntity
8
0
100
AcDbCircle
10
-9.8520032514299682
20
110.49599997198277
30
-1.1102230246251565e-15
40
0.19999999999999574
100
AcDbArc
50
-89.99999999713495
51
90
0
LINE
5
1037
100
AcDbEntity
8
0
100
AcDbLine
10
-9.8520032514199674
20
110.29599997198277
30
-1.1102230246251565e-15
11
-9.8520032512237243
21
108.09600977195001
31
-1.1102230246251565e-15
0
ARC
5
1038
100
AcDbEntity
8
0
100
AcDbCircle
10
-9.6520032514299618
20
108.09599999913976
30
-1.1102230246251565e-15
40
0.20000000003253249
100
AcDbArc
50
179.9972002961693
51
269.99999999999949
0
LINE
5
1039
100
AcDbEntity
8
0
100
AcDbLine
10
-9.6520032514299636
20
107.89599999913976
30
-1.1102230246251565e-15
11
-8.3019997431299775
21
107.89599999913976
31
-1.1102230246251565e-15
0
ARC
5
1040
100
AcDbEntity
8
0
100
AcDbCircle
10
-8.3019997431300023
20
108.09599999913978
30
-1.1102230246251565e-15
40
0.2000000000000135
100
AcDbArc
50
-89.99999999999288
51
0.00028445913444363817
0
LINE
5
1041
100
AcDbEntity
8
0
100
AcDbLine
10
-8.1019997431324366
20
108.09600099209277
30
-1.1102230246251565e-15
11
-8.1019997431299728
21
108.54599999914475
31
-1.1102230246251565e-15
0
ARC
5
1042
100
AcDbEntity
8
0
100
AcDbCircle
10
-7.9019997431299682
20
108.54599999914475
30
-1.1102230246251565e-15
40
0.19999999999999574
100
AcDbArc
50
90.000000037243026
51
180
0
LINE
5
1043
100
AcDbEntity
8
0
100
AcDbLine
10
-7.9019997432599709
20
108.74599999914474
30
-1.1102230246251565e-15
11
-7.7519999999999722
21
108.74599999913976
31
-1.1102230246251565e-15
0
LINE
5
1044
100
AcDbEntity
8
0
100
AcDbLine
10
-7.7519999999999722
20
108.74599999913976
30
-1.1102230246251565e-15
11
76.898000256875051
21
108.74599999913976
31
-1.1102230246251565e-15
0
ARC
5
1045
100
AcDbEntity
8
0
100
AcDbCircle
10
76.898000256875036
20
108.54599999913975
30
-1.1102230246251565e-15
40
0.20000000000010235
100
AcDbArc
50
-1.2074182490616497e-06
51
89.999999999995936
0
LINE
5
1046
100
AcDbEntity
8
0
100
AcDbLine
10
77.098000256875139
20
108.54599999517332
30
-1.1102230246251565e-15
11
77.098000257117036
21
107.89601914879975
31
-1.1102230246251565e-15
0
ARC
5
1047
100
AcDbEntity
8
0
100
AcDbCircle
10
77.29800025687004
20
107.89599999913975
30
-1.1102230246251565e-15
40
0.20000000066977591
100
AcDbArc
50
179.99451402656052
51
269.39914045305488
0
LINE
5
1048
100
AcDbEntity
8
0
100
AcDbLine
10
77.295902952366063
20
107.69599999912674
30
-1.1102230246251565e-15
11
79.248000000000033
21
107.69599999951916
31
-1.1102230246251565e-15
0
LINE
5
1049
100
AcDbEntity
8
0
100
AcDbLine
10
79.248000000000033
20
107.69599999951916
30
-1.1102230246251565e-15
11
79.248000000000033
21
111.59599999913956
31
-1.1102230246251565e-15
0
LINE
5
1050
100
AcDbEntity
8
0
100
AcDbLine
10
79.248000000000033
20
111.59599999913956
30
-1.1102230246251565e-15
11
77.898000000000039
21
111.59599999913956
31
-1.1102230246251565e-15
0
LINE
5
1051
100
AcDbEntity
8
0
100
AcDbLine
10
77.898000000000039
20
111.59599999913956
30
-1.1102230246251565e-15
11
77.898000000000039
21
110.42100001091177
31
-1.1102230246251565e-15
0
ARC
5
1052
100
AcDbEntity
8
0
100
AcDbCircle
10
77.748000000000033
20
110.42100001091174
30
-1.1102230246251565e-15
40
0.14999999999998792
100
AcDbArc
50
-90
51
0
0
LWPOLYLINE
5
1053
100
AcDbEntity
8
0
100
AcDbPolyline
90
22
70
1
43
0.0
10
-7.7519999999999722
20
114.64599999913476
10
76.898000256799037
20
114.64599999913776
42
0.41421356244045865
10
77.098000256875025
20
114.84599999910976
10
77.098000256870037
20
115.09599999923574
42
-0.41421356223254063
10
77.29800025687004
20
115.29599999913977
10
79.248000000000033
20
115.29599999913977
10
79.248000000000033
20
111.79599999913955
10
77.898000000000039
20
111.79599999913955
10
77.897999999999939
20
112.97099993305146
42
0.41421356237581786
10
77.748000000000047
20
113.12099993305276
10
-8.2519993652099721
20
113.12099993305284
42
0.41421356237600859
10
-8.4019993652099689
20
112.97099993305126
10
-8.4019993652099689
20
111.79599999913955
10
-9.8520032514299682
20
111.79599999913955
10
-9.8520032514299682
20
112.69599997198227
42
0.99999999999999989
10
-9.8520032514299682
20
113.09599997198227
10
-9.8520032514299452
20
115.09599999913776
42
-0.41421356237601514
10
-9.6520032514299636
20
115.29599999913977
10
-8.3019997431299775
20
115.29599999913978
42
-0.41421356244636548
10
-8.1019997431299728
20
115.09599999908977
10
-8.1019997431198671
20
114.84599999934277
42
0.41421356263525255
10
-7.9019997431499611
20
114.64599999913376
0
LINE
5
1054
100
AcDbEntity
8
0
100
AcDbLine
10
77.748000000000033
20
130.59100001091178
30
1.1102230246251565e-15
11
-8.2519993652199641
21
130.59100001091178
31
1.1102230246251565e-15
0
ARC
5
1055
100
AcDbEntity
8
0
100
AcDbCircle
10
-8.2519993652099721
20
130.7410000109108
30
1.1102230246251565e-15
40
0.15000000000000013
100
AcDbArc
50
180
51
269.99999999618336
0
LINE
5
1056
100
AcDbEntity
8
0
100
AcDbLine
10
-8.4019993652099725
20
130.74100001091179
30
1.1102230246251565e-15
11
-8.4019993652099689
21
131.91599999913959
31
1.1102230246251565e-15
0
LINE
5
1057
100
AcDbEntity
8
0
100
AcDbLine
10
-8.4019993652099689
20
131.91599999913959
30
1.1102230246251565e-15
11
-9.8520032514299682
21
131.91599999913959
31
1.1102230246251565e-15
0
LINE
5
1058
100
AcDbEntity
8
0
100
AcDbLine
10
-9.8520032514299682
20
131.91599999913959
30
1.1102230246251565e-15
11
-9.8520032514299682
21
131.01599997198281
31
1.1102230246251565e-15
0
ARC
5
1059
100
AcDbEntity
8
0
100
AcDbCircle
10
-9.8520032514299682
20
130.81599997198279
30
1.1102230246251565e-15
40
0.19999999999999574
100
AcDbArc
50
-89.99999999713495
51
90
0
LINE
5
1060
100
AcDbEntity
8
0
100
AcDbLine
10
-9.8520032514199674
20
130.6159999719828
30
1.1102230246251565e-15
11
-9.8520032512237243
21
128.41600977195003
31
1.1102230246251565e-15
0
ARC
5
1061
100
AcDbEntity
8
0
100
AcDbCircle
10
-9.6520032514299618
20
128.41599999913979
30
1.1102230246251565e-15
40
0.20000000003253249
100
AcDbArc
50
179.9972002961693
51
269.99999999999949
0
LINE
5
1062
100
AcDbEntity
8
0
100
AcDbLine
10
-9.6520032514299636
20
128.2159999991398
30
1.1102230246251565e-15
11
-8.3019997431299775
21
128.2159999991398
31
1.1102230246251565e-15
0
ARC
5
1063
100
AcDbEntity
8
0
100
AcDbCircle
10
-8.3019997431300023
20
128.41599999913981
30
1.1102230246251565e-15
40
0.2000000000000135
100
AcDbArc
50
-89.99999999999288
51
0.00028445913444363817
0
LINE
5
1064
100
AcDbEntity
8
0
100
AcDbLine
10
-8.1019997431324366
20
128.41600099209279
30
1.1102230246251565e-15
11
-8.1019997431299728
21
128.86599999914478
31
1.1102230246251565e-15
0
ARC
5
1065
100
AcDbEntity
8
0
100
AcDbCircle
10
-7.9019997431299682
20
128.86599999914478
30
1.1102230246251565e-15
40
0.19999999999999574
100
AcDbArc
50
90.000000037243026
51
180
0
LINE
5
1066
100
AcDbEntity
8
0
100
AcDbLine
10
-7.9019997432599709
20
129.06599999914479
30
1.1102230246251565e-15
11
-7.7519999999999722
21
129.06599999913979
31
1.1102230246251565e-15
0
LINE
5
1067
100
AcDbEntity
8
0
100
AcDbLine
10
-7.7519999999999722
20
129.06599999913979
30
1.1102230246251565e-15
11
76.898000256875051
21
129.06599999913979
31
1.1102230246251565e-15
0
ARC
5
1068
100
AcDbEntity
8
0
100
AcDbCircle
10
76.898000256875036
20
128.8659999991398
30
1.1102230246251565e-15
40
0.20000000000010235
100
AcDbArc
50
-1.2074182490616497e-06
51
89.999999999995936
0
LINE
5
1069
100
AcDbEntity
8
0
100
AcDbLine
10
77.098000256875139
20
128.86599999517335
30
1.1102230246251565e-15
11
77.098000257117036
21
128.2160191487998
31
1.1102230246251565e-15
0
ARC
5
1070
100
AcDbEntity
8
0
100
AcDbCircle
10
77.29800025687004
20
128.2159999991398
30
1.1102230246251565e-15
40
0.20000000066977591
100
AcDbArc
50
179.99451402656052
51
269.39914045305488
0
LINE
5
1071
100
AcDbEntity
8
0
100
AcDbLine
10
77.295902952366063
20
128.01599999912679
30
1.1102230246251565e-15
11
79.248000000000033
21
128.01599999951921
31
1.1102230246251565e-15
0
LINE
5
1072
100
AcDbEntity
8
0
100
AcDbLine
10
79.248000000000033
20
128.01599999951921
30
1.1102230246251565e-15
11
79.248000000000033
21
131.91599999913959
31
1.1102230246251565e-15
0
LINE
5
1073
100
AcDbEntity
8
0
100
AcDbLine
10
79.248000000000033
20
131.91599999913959
30
1.1102230246251565e-15
11
77.898000000000039
21
131.91599999913959
31
1.1102230246251565e-15
0
LINE
5
1074
100
AcDbEntity
8
0
100
AcDbLine
10
77.898000000000039
20
131.91599999913959
30
1.1102230246251565e-15
11
77.898000000000039
21
130.74100001091179
31
1.1102230246251565e-15
0
ARC
5
1075
100
AcDbEntity
8
0
100
AcDbCircle
10
77.748000000000033
20
130.74100001091179
30
1.1102230246251565e-15
40
0.14999999999998792
100
AcDbArc
50
-90
51
0
0
LWPOLYLINE
5
1076
100
AcDbEntity
8
0
100
AcDbPolyline
90
22
70
1
43
0.0
10
-7.7519999999999722
20
134.96599999913479
10
76.898000256799037
20
134.96599999913781
42
0.41421356244045865
10
77.098000256875025
20
135.1659999991098
10
77.098000256870037
20
135.41599999923579
42
-0.41421356223254063
10
77.29800025687004
20
135.6159999991398
10
79.248000000000033
20
135.6159999991398
10
79.248000000000033
20
132.1159999991396
10
77.898000000000039
20
132.1159999991396
10
77.897999999999939
20
133.29099993305149
42
0.41421356237581786
10
77.748000000000047
20
133.44099993305281
10
-8.2519993652099721
20
133.44099993305289
42
0.41421356237600859
10
-8.4019993652099689
20
133.2909999330513
10
-8.4019993652099689
20
132.1159999991396
10
-9.8520032514299682
20
132.1159999991396
10
-9.8520032514299682
20
133.0159999719823
42
0.99999999999999989
10
-9.8520032514299682
20
133.4159999719823
10
-9.8520032514299452
20
135.4159999991378
42
-0.41421356237601514
10
-9.6520032514299636
20
135.6159999991398
10
-8.3019997431299775
20
135.61599999913983
42
-0.41421356244636548
10
-8.1019997431299728
20
135.41599999908979
10
-8.1019997431198671
20
135.1659999993428
42
0.41421356263525255
10
-7.9019997431499611
20
134.9659999991338
0
ENDSEC
0
SECTION
2
OBJECTS
0
DICTIONARY
5
C
100
AcDbDictionary
3
ACAD_GROUP
350
D
3
ACAD_MLINESTYLE
350
17
0
DICTIONARY
5
D
100
AcDbDictionary
0
DICTIONARY
5
1A
330
C
100
AcDbDictionary
0
DICTIONARY
5
17
100
AcDbDictionary
0
ENDSEC
0
EOF
