0
SECTION
2
HEADER
9
$INSUNITS
70
4
9
$ACADVER
1
AC1014
9
$HANDSEED
5
FFFF
0
ENDSEC
0
SECTION
2
TABLES
0
TABLE
2
VPORT
5
8
100
AcDbSymbolTable
0
ENDTAB
0
TABLE
2
LTYPE
5
5
100
AcDbSymbolTable
0
LTYPE
5
14
100
AcDbSymbolTableRecord
100
AcDbLinetypeTableRecord
2
BYBLOCK
70
0
0
LTYPE
5
15
100
AcDbSymbolTableRecord
100
AcDbLinetypeTableRecord
2
BYLAYER
70
0
0
ENDTAB
0
TABLE
2
LAYER
5
2
100
AcDbSymbolTable
70
2
0
LAYER
5
50
100
AcDbSymbolTableRecord
100
AcDbLayerTableRecord
2
0
70
0
6
CONTINUOUS
0
ENDTAB
0
TABLE
2
STYLE
5
3
100
AcDbSymbolTable
70
1
0
STYLE
5
11
100
AcDbSymbolTableRecord
100
AcDbTextStyleTableRecord
2
STANDARD
70
0
0
ENDTAB
0
TABLE
2
VIEW
5
6
100
AcDbSymbolTable
70
0
0
ENDTAB
0
TABLE
2
UCS
5
7
100
AcDbSymbolTable
70
0
0
ENDTAB
0
TABLE
2
APPID
5
9
100
AcDbSymbolTable
70
2
0
APPID
5
12
100
AcDbSymbolTableRecord
100
AcDbRegAppTableRecord
2
ACAD
70
0
0
ENDTAB
0
TABLE
2
DIMSTYLE
5
A
100
AcDbSymbolTable
70
1
0
ENDTAB
0
TABLE
2
BLOCK_RECORD
5
1
100
AcDbSymbolTable
70
1
0
BLOCK_RECORD
5
1F
100
AcDbSymbolTableRecord
100
AcDbBlockTableRecord
2
*MODEL_SPACE
0
BLOCK_RECORD
5
1B
100
AcDbSymbolTableRecord
100
AcDbBlockTableRecord
2
*PAPER_SPACE
0
ENDTAB
0
ENDSEC
0
SECTION
2
BLOCKS
0
BLOCK
5
20
100
AcDbEntity
100
AcDbBlockBegin
2
*MODEL_SPACE
0
ENDBLK
5
21
100
AcDbEntity
100
AcDbBlockEnd
0
BLOCK
5
1C
100
AcDbEntity
100
AcDbBlockBegin
2
*PAPER_SPACE
0
ENDBLK
5
1D
100
AcDbEntity
100
AcDbBlockEnd
0
ENDSEC
0
SECTION
2
ENTITIES
0
CIRCLE
5
100
100
AcDbEntity
8
0
100
AcDbCircle
10
-43.179999999999993
20
107.95000000000002
30
0
40
1.4999999999999947
0
CIRCLE
5
101
100
AcDbEntity
8
0
100
AcDbCircle
10
-115.56999999999996
20
-115.56999999999999
30
0
40
1.5000000000000036
0
CIRCLE
5
102
100
AcDbEntity
8
0
100
AcDbCircle
10
-43.179999999999993
20
-115.56999999999996
30
0
40
1.5000000000000036
0
CIRCLE
5
103
100
AcDbEntity
8
0
100
AcDbCircle
10
-43.179999999999993
20
87.630000000000024
30
0
40
1.5000000000000036
0
CIRCLE
5
104
100
AcDbEntity
8
0
100
AcDbCircle
10
111.76000000000001
20
87.630000000000024
30
0
40
1.5000000000000036
0
CIRCLE
5
105
100
AcDbEntity
8
0
100
AcDbCircle
10
-115.56999999999996
20
41.910000000000018
30
0
40
1.5000000000000036
0
CIRCLE
5
106
100
AcDbEntity
8
0
100
AcDbCircle
10
88.900000000000006
20
-115.56999999999999
30
0
40
1.5000000000000036
0
CIRCLE
5
107
100
AcDbEntity
8
0
100
AcDbCircle
10
-43.179999999999993
20
41.910000000000025
30
0
40
1.5000000000000036
0
CIRCLE
5
108
100
AcDbEntity
8
0
100
AcDbCircle
10
111.76000000000001
20
41.910000000000018
30
0
40
1.5000000000000036
0
LWPOLYLINE
5
109
100
AcDbEntity
8
0
100
AcDbPolyline
90
8
70
1
43
0.0
10
121.92
20
-119.91999999999999
42
-0.41421356237309503
10
119.92000000000002
20
-121.91999999999999
10
-119.92000000000004
20
-121.91999999999999
42
-0.41421356237308982
10
-121.92
20
-119.91999999999999
10
-121.92
20
119.92000000000006
42
-0.41421356237308982
10
-119.92000000000002
20
121.92000000000002
10
119.92000000000004
20
121.92000000000002
42
-0.41421356237308982
10
121.92
20
119.92000000000003
0
LINE
5
110
100
AcDbEntity
8
0
100
AcDbLine
10
-5.9997361310400166
20
43.925999999139876
30
0
11
-6.6309741440200121
21
43.925999999139876
31
0
0
LINE
5
111
100
AcDbEntity
8
0
100
AcDbLine
10
-6.8730258559700097
20
43.925999999139876
30
0
11
-7.7520000000000167
21
43.925999999139876
31
0
0
LINE
5
112
100
AcDbEntity
8
0
100
AcDbLine
10
6.9480002458999923
20
44.575999999139874
30
0
11
6.9480002458999923
21
44.025999999139877
31
0
0
LINE
5
113
100
AcDbEntity
8
0
100
AcDbLine
10
6.9480002458999923
20
44.575999999139874
30
0
11
9.5480002458999813
21
44.575999999139874
31
0
0
LINE
5
114
100
AcDbEntity
8
0
100
AcDbLine
10
9.5480002458999813
20
44.575999999139874
30
0
11
9.5480002458999813
21
44.025999999139877
31
0
0
LINE
5
115
100
AcDbEntity
8
0
100
AcDbLine
10
26.948000168599997
20
44.575999999139874
30
0
11
26.948000168599997
21
44.025999999139877
31
0
0
LINE
5
116
100
AcDbEntity
8
0
100
AcDbLine
10
26.948000168599997
20
44.575999999139874
30
0
11
29.548000168599987
21
44.575999999139874
31
0
0
LINE
5
117
100
AcDbEntity
8
0
100
AcDbLine
10
29.548000168599987
20
44.575999999139874
30
0
11
29.548000168599991
21
44.025999999139877
31
0
0
LINE
5
118
100
AcDbEntity
8
0
100
AcDbLine
10
37.000263919259993
20
43.925999999139876
30
0
11
31.000263919259989
21
43.925999999139876
31
0
0
LINE
5
119
100
AcDbEntity
8
0
100
AcDbLine
10
49.948000168599989
20
44.575999999139874
30
0
11
49.948000168599989
21
44.025999999139877
31
0
0
LINE
5
120
100
AcDbEntity
8
0
100
AcDbLine
10
49.948000168599989
20
44.575999999139874
30
0
11
52.548000168599991
21
44.575999999139874
31
0
0
LINE
5
121
100
AcDbEntity
8
0
100
AcDbLine
10
52.548000168599991
20
44.575999999139874
30
0
11
52.548000168599991
21
44.025999999139877
31
0
0
LINE
5
122
100
AcDbEntity
8
0
100
AcDbLine
10
69.948000296194991
20
44.575999999139874
30
0
11
69.948000296194991
21
44.025999999139877
31
0
0
LINE
5
123
100
AcDbEntity
8
0
100
AcDbLine
10
69.948000296194991
20
44.575999999139874
30
0
11
72.548000296194999
21
44.575999999139874
31
0
0
LINE
5
124
100
AcDbEntity
8
0
100
AcDbLine
10
72.548000296194999
20
44.575999999139874
30
0
11
72.548000296194999
21
44.025999999139877
31
0
0
LINE
5
125
100
AcDbEntity
8
0
100
AcDbLine
10
76.748000000003003
20
43.925999999139869
30
0
11
75.36902585597899
21
43.925999999139869
31
0
0
LINE
5
126
100
AcDbEntity
8
0
100
AcDbLine
10
75.126974144026988
20
43.925999999139869
30
0
11
74.000263969554993
21
43.925999999139869
31
0
0
LINE
5
127
100
AcDbEntity
8
0
100
AcDbLine
10
79.24799999999999
20
38.400999999118866
30
0
11
79.24799999999999
21
42.750999999252869
31
0
0
LINE
5
128
100
AcDbEntity
8
0
100
AcDbLine
10
74.000263969554993
20
37.225999999139873
30
0
11
76.748000000003003
21
37.225999999139873
31
0
0
LINE
5
129
100
AcDbEntity
8
0
100
AcDbLine
10
72.548000296194999
20
36.575999999139867
30
0
11
72.548000296194999
21
37.125999999139871
31
0
0
LINE
5
130
100
AcDbEntity
8
0
100
AcDbLine
10
69.948000296194991
20
36.575999999139874
30
0
11
72.548000296194999
21
36.575999999139867
31
0
0
LINE
5
131
100
AcDbEntity
8
0
100
AcDbLine
10
69.948000296194991
20
36.575999999139874
30
0
11
69.948000296194991
21
37.125999999139864
31
0
0
LINE
5
132
100
AcDbEntity
8
0
100
AcDbLine
10
52.548000168599991
20
36.575999999139874
30
0
11
52.548000168599991
21
37.125999999139864
31
0
0
LINE
5
133
100
AcDbEntity
8
0
100
AcDbLine
10
49.948000168599989
20
36.575999999139874
30
0
11
52.548000168599991
21
36.575999999139874
31
0
0
LINE
5
134
100
AcDbEntity
8
0
100
AcDbLine
10
49.948000168599989
20
36.575999999139874
30
0
11
49.948000168599989
21
37.125999999139864
31
0
0
LINE
5
135
100
AcDbEntity
8
0
100
AcDbLine
10
37.000263919259993
20
37.225999999139873
30
0
11
31.000263919259989
21
37.225999999139873
31
0
0
LINE
5
136
100
AcDbEntity
8
0
100
AcDbLine
10
29.548000168599991
20
36.575999999139874
30
0
11
29.548000168599991
21
37.125999999139879
31
0
0
LINE
5
137
100
AcDbEntity
8
0
100
AcDbLine
10
26.948000168599997
20
36.575999999139874
30
0
11
29.548000168599991
21
36.575999999139874
31
0
0
LINE
5
138
100
AcDbEntity
8
0
100
AcDbLine
10
26.948000168599997
20
36.575999999139874
30
0
11
26.948000168599997
21
37.125999999139879
31
0
0
LINE
5
139
100
AcDbEntity
8
0
100
AcDbLine
10
9.5480002458999813
20
36.575999999139874
30
0
11
9.5480002458999813
21
37.125999999139879
31
0
0
LINE
5
140
100
AcDbEntity
8
0
100
AcDbLine
10
6.9480002458999923
20
36.575999999139874
30
0
11
9.5480002458999813
21
36.575999999139874
31
0
0
LINE
5
141
100
AcDbEntity
8
0
100
AcDbLine
10
6.9480002458999923
20
36.575999999139874
30
0
11
6.9480002458999923
21
37.125999999139879
31
0
0
LINE
5
142
100
AcDbEntity
8
0
100
AcDbLine
10
-5.9997361310400166
20
37.225999999139873
30
0
11
-7.7520000000000167
21
37.225999999139873
31
0
0
LINE
5
143
100
AcDbEntity
8
0
100
AcDbLine
10
76.748000000003003
20
45.680999999139871
30
0
11
76.748000000003003
21
43.925999999139869
31
0
0
LINE
5
144
100
AcDbEntity
8
0
100
AcDbLine
10
79.24799999999999
20
45.680999999139871
30
0
11
76.748000000003003
21
45.680999999139871
31
0
0
LINE
5
145
100
AcDbEntity
8
0
100
AcDbLine
10
79.24799999999999
20
43.250999999139871
30
0
11
79.24799999999999
21
45.680999999139871
31
0
0
LINE
5
146
100
AcDbEntity
8
0
100
AcDbLine
10
79.24799999999999
20
43.250999999139871
30
0
11
79.24799999999999
21
42.750999999252869
31
0
0
LINE
5
147
100
AcDbEntity
8
0
100
AcDbLine
10
79.24799999999999
20
37.90099999913987
30
0
11
79.24799999999999
21
36.576000000000022
31
0
0
LINE
5
148
100
AcDbEntity
8
0
100
AcDbLine
10
79.24799999999999
20
38.400999999118866
30
0
11
79.24799999999999
21
37.90099999913987
31
0
0
LINE
5
149
100
AcDbEntity
8
0
100
AcDbLine
10
76.748000000002989
20
36.575999999126871
30
0
11
79.24799999999999
21
36.576000000000022
31
0
0
LINE
5
150
100
AcDbEntity
8
0
100
AcDbLine
10
76.748000000003003
20
37.225999999139873
30
0
11
76.748000000003003
21
36.581154525125349
31
0
0
LINE
5
151
100
AcDbEntity
8
0
100
AcDbLine
10
76.748000000003003
20
36.581130678091526
30
0
11
76.748000000002989
21
36.575999999126871
31
0
0
LINE
5
152
100
AcDbEntity
8
0
100
AcDbLine
10
-17.585264900780007
20
36.580999999139877
30
0
11
-11.252000000000013
21
36.580999999139877
31
0
0
LINE
5
153
100
AcDbEntity
8
0
100
AcDbLine
10
-11.252000000000013
20
36.580999999139877
30
0
11
-7.7520000000000167
21
36.580999999139877
31
0
0
LINE
5
154
100
AcDbEntity
8
0
100
AcDbLine
10
-25.977665650187767
20
33.680999999139878
30
1.1102230246251565e-15
11
-26.191998368410005
21
33.680999999139878
31
1.1102230246251565e-15
0
LINE
5
155
100
AcDbEntity
8
0
100
AcDbLine
10
-23.468951509071367
20
33.680999999139878
30
1.1102230246251565e-15
11
-25.977665650187767
21
33.680999999139878
31
1.1102230246251565e-15
0
LINE
5
156
100
AcDbEntity
8
0
100
AcDbLine
10
-23.298256179040024
20
33.680999999139878
30
1.1102230246251565e-15
11
-23.468951509071367
21
33.680999999139878
31
1.1102230246251565e-15
0
LINE
5
157
100
AcDbEntity
8
0
100
AcDbLine
10
-22.798261423050015
20
33.680999999139878
30
1.1102230246251565e-15
11
-23.298256179040024
21
33.680999999139878
31
1.1102230246251565e-15
0
LINE
5
158
100
AcDbEntity
8
0
100
AcDbLine
10
-17.885264900560003
20
33.680999999139878
30
1.1102230246251565e-15
11
-22.798261423050015
21
33.680999999139878
31
1.1102230246251565e-15
0
LINE
5
159
100
AcDbEntity
8
0
100
AcDbLine
10
-17.585264900780004
20
33.680999999139878
30
1.1102230246251565e-15
11
-17.885264900560003
21
33.680999999139878
31
1.1102230246251565e-15
0
LINE
5
160
100
AcDbEntity
8
0
100
AcDbLine
10
-25.042000000000009
20
41.881856206910172
30
0
11
-25.042000000000009
21
39.325999999139881
31
0
0
LINE
5
161
100
AcDbEntity
8
0
100
AcDbLine
10
-11.252000000000013
20
45.680999988670877
30
0
11
-17.585264900780004
21
45.680999994939448
31
0
0
LINE
5
162
100
AcDbEntity
8
0
100
AcDbLine
10
-17.885264900780005
20
47.470999999139877
30
1.1102230246251565e-15
11
-17.585264900780004
21
47.470999999139877
31
1.1102230246251565e-15
0
LINE
5
163
100
AcDbEntity
8
0
100
AcDbLine
10
-22.798256179040024
20
47.470999999139877
30
1.1102230246251565e-15
11
-17.885264900780005
21
47.470999999139877
31
1.1102230246251565e-15
0
LINE
5
164
100
AcDbEntity
8
0
100
AcDbLine
10
-23.298256179040028
20
47.470999999139877
30
1.1102230246251565e-15
11
-22.798256179040024
21
47.470999999139877
31
1.1102230246251565e-15
0
LINE
5
165
100
AcDbEntity
8
0
100
AcDbLine
10
-23.468951509170566
20
47.470999999139877
30
1.1102230246251565e-15
11
-23.298256179040028
21
47.470999999139877
31
1.1102230246251565e-15
0
LINE
5
166
100
AcDbEntity
8
0
100
AcDbLine
10
-25.977665650230009
20
47.470999999139877
30
1.1102230246251565e-15
11
-23.468951509170566
21
47.470999999139877
31
1.1102230246251565e-15
0
LINE
5
167
100
AcDbEntity
8
0
100
AcDbLine
10
-26.191998368410005
20
47.470999999139877
30
1.1102230246251565e-15
11
-25.977665650230009
21
47.470999999139877
31
1.1102230246251565e-15
0
LINE
5
168
100
AcDbEntity
8
0
100
AcDbLine
10
-26.191998368410019
20
39.325999999139881
30
1.1102230246251565e-15
11
-26.191998368410005
21
33.680999999139878
31
1.1102230246251565e-15
0
LINE
5
169
100
AcDbEntity
8
0
100
AcDbLine
10
-26.191998368410019
20
39.325999999139881
30
1.1102230246251565e-15
11
-25.977665650220793
21
39.325999999139881
31
1.1102230246251565e-15
0
LINE
5
170
100
AcDbEntity
8
0
100
AcDbLine
10
-25.977665650220793
20
39.325999999139881
30
1.1102230246251565e-15
11
-25.042000000000009
21
39.325999999139881
31
0
0
LINE
5
171
100
AcDbEntity
8
0
100
AcDbLine
10
-25.977665650229973
20
41.881856206910172
30
1.1102230246251565e-15
11
-26.191998368410012
21
41.881856206910172
31
1.1102230246251565e-15
0
LINE
5
172
100
AcDbEntity
8
0
100
AcDbLine
10
-25.042000000000009
20
41.881856206910172
30
0
11
-25.977665650229973
21
41.881856206910172
31
1.1102230246251565e-15
0
LINE
5
173
100
AcDbEntity
8
0
100
AcDbLine
10
-26.191998368410005
20
47.470999999139877
30
1.1102230246251565e-15
11
-26.191998368410012
21
41.881856206910172
31
1.1102230246251565e-15
0
LINE
5
174
100
AcDbEntity
8
0
100
AcDbLine
10
-11.252000000000013
20
45.680999888092877
30
0
11
-7.7520000000001188
21
45.680999220876998
31
0
0
LINE
5
175
100
AcDbEntity
8
0
100
AcDbLine
10
-7.7520000000000167
20
43.925999999139876
30
0
11
-7.7520000000000167
21
45.680985929910214
31
0
0
LINE
5
176
100
AcDbEntity
8
0
100
AcDbLine
10
-7.7520000000000167
20
36.580999999139877
30
0
11
-7.7520000000000167
21
37.225999999139873
31
0
0
LINE
5
177
100
AcDbEntity
8
0
100
AcDbLine
10
37.000263919259993
20
37.225999999139873
30
0
11
37.000263919260007
21
37.175999999139876
31
0
0
LINE
5
178
100
AcDbEntity
8
0
100
AcDbLine
10
74.000263969554993
20
37.175999999139869
30
0
11
74.000263969554993
21
37.225999999139873
31
0
0
LINE
5
179
100
AcDbEntity
8
0
100
AcDbLine
10
73.950263969554996
20
37.125999999139871
30
0
11
73.500263969554993
21
37.125999999139871
31
0
0
ARC
5
180
100
AcDbEntity
8
0
100
AcDbCircle
10
73.950263969554996
20
37.175999999139869
30
0
40
0.049999999999998934
100
AcDbArc
50
-90
51
0
0
LINE
5
181
100
AcDbEntity
8
0
100
AcDbLine
10
37.500263919259993
20
37.125999999139871
30
0
11
37.05026391926009
21
37.125999999139871
31
0
0
LINE
5
182
100
AcDbEntity
8
0
100
AcDbLine
10
37.500263919259993
20
37.125999999139871
30
0
11
49.948000168599989
21
37.125999999139864
31
0
0
LINE
5
183
100
AcDbEntity
8
0
100
AcDbLine
10
52.548000168599991
20
37.125999999139864
30
0
11
69.948000296194991
21
37.125999999139864
31
0
0
LINE
5
184
100
AcDbEntity
8
0
100
AcDbLine
10
72.548000296194999
20
37.125999999139871
30
0
11
73.500263969554993
21
37.125999999139871
31
0
0
ARC
5
185
100
AcDbEntity
8
0
100
AcDbCircle
10
37.05026391925999
20
37.175999999139876
30
0
40
0.049999999999985612
100
AcDbArc
50
180
51
270.00000000011397
0
LINE
5
186
100
AcDbEntity
8
0
100
AcDbLine
10
31.000263919259989
20
37.175999999139876
30
0
11
31.000263919259989
21
37.225999999139873
31
0
0
LINE
5
187
100
AcDbEntity
8
0
100
AcDbLine
10
-5.9997361310400166
20
37.225999999139873
30
0
11
-5.9997361310400166
21
37.175999999139876
31
0
0
ARC
5
188
100
AcDbEntity
8
0
100
AcDbCircle
10
30.950263919259989
20
37.175999999139876
30
0
40
0.049999999999998934
100
AcDbArc
50
-90
51
0
0
LINE
5
189
100
AcDbEntity
8
0
100
AcDbLine
10
-5.4997361310400183
20
37.125999999139879
30
0
11
-5.9497361310400185
21
37.125999999139879
31
0
0
LINE
5
190
100
AcDbEntity
8
0
100
AcDbLine
10
-5.4997361310400183
20
37.125999999139879
30
0
11
6.9480002458999923
21
37.125999999139879
31
0
0
LINE
5
191
100
AcDbEntity
8
0
100
AcDbLine
10
9.5480002458999813
20
37.125999999139879
30
0
11
26.948000168599997
21
37.125999999139879
31
0
0
LINE
5
192
100
AcDbEntity
8
0
100
AcDbLine
10
29.548000168599991
20
37.125999999139879
30
0
11
30.500263919259986
21
37.125999999139879
31
0
0
LINE
5
193
100
AcDbEntity
8
0
100
AcDbLine
10
30.950263919259989
20
37.125999999139879
30
0
11
30.500263919259986
21
37.125999999139879
31
0
0
ARC
5
194
100
AcDbEntity
8
0
100
AcDbCircle
10
-5.9497361310400088
20
37.175999999139876
30
0
40
0.050000000000007816
100
AcDbArc
50
180
51
269.9999999999888
0
LINE
5
195
100
AcDbEntity
8
0
100
AcDbLine
10
31.000263919259989
20
43.925999999139876
30
0
11
31.000263919259989
21
43.975999999139873
31
0
0
LINE
5
196
100
AcDbEntity
8
0
100
AcDbLine
10
-5.9997361310400166
20
43.975999999139873
30
0
11
-5.9997361310400166
21
43.925999999139876
31
0
0
ARC
5
197
100
AcDbEntity
8
0
100
AcDbCircle
10
30.950263919259989
20
43.975999999139873
30
0
40
0.049999999999998934
100
AcDbArc
50
0
51
90
0
LINE
5
198
100
AcDbEntity
8
0
100
AcDbLine
10
30.500263919259986
20
44.025999999139877
30
0
11
30.950263919259989
21
44.025999999139877
31
0
0
LINE
5
199
100
AcDbEntity
8
0
100
AcDbLine
10
30.500263919259986
20
44.025999999139877
30
0
11
29.548000168599991
21
44.025999999139877
31
0
0
LINE
5
200
100
AcDbEntity
8
0
100
AcDbLine
10
26.948000168599997
20
44.025999999139877
30
0
11
9.5480002458999813
21
44.025999999139877
31
0
0
LINE
5
201
100
AcDbEntity
8
0
100
AcDbLine
10
6.9480002458999923
20
44.025999999139877
30
0
11
-5.4997361310400183
21
44.025999999139877
31
0
0
LINE
5
202
100
AcDbEntity
8
0
100
AcDbLine
10
-5.9497361310400185
20
44.025999999139877
30
0
11
-5.4997361310400183
21
44.025999999139877
31
0
0
ARC
5
203
100
AcDbEntity
8
0
100
AcDbCircle
10
-5.9497361310400088
20
43.975999999139873
30
0
40
0.049999999999998934
100
AcDbArc
50
90.000000000011198
51
180
0
LINE
5
204
100
AcDbEntity
8
0
100
AcDbLine
10
37.000263919259993
20
43.975999999139873
30
0
11
37.000263919259993
21
43.925999999139876
31
0
0
LINE
5
205
100
AcDbEntity
8
0
100
AcDbLine
10
74.000263969554993
20
43.925999999139869
30
0
11
74.000263969554979
21
43.975999999139866
31
0
0
LINE
5
206
100
AcDbEntity
8
0
100
AcDbLine
10
73.500263969554993
20
44.025999999139877
30
0
11
72.548000296194999
21
44.025999999139877
31
0
0
LINE
5
207
100
AcDbEntity
8
0
100
AcDbLine
10
69.948000296194991
20
44.025999999139877
30
0
11
52.548000168599991
21
44.025999999139877
31
0
0
LINE
5
208
100
AcDbEntity
8
0
100
AcDbLine
10
49.948000168599989
20
44.025999999139877
30
0
11
37.500263919259993
21
44.025999999139877
31
0
0
LINE
5
209
100
AcDbEntity
8
0
100
AcDbLine
10
73.500263969554993
20
44.025999999139877
30
0
11
73.950263969554996
21
44.025999999139877
31
0
0
LINE
5
210
100
AcDbEntity
8
0
100
AcDbLine
10
37.05026391926009
20
44.025999999139877
30
0
11
37.500263919259993
21
44.025999999139877
31
0
0
ARC
5
211
100
AcDbEntity
8
0
100
AcDbCircle
10
73.950263969554996
20
43.975999999139873
30
0
40
0.049999999999990052
100
AcDbArc
50
0
51
90
0
ARC
5
212
100
AcDbEntity
8
0
100
AcDbCircle
10
37.05026391925999
20
43.975999999139873
30
0
40
0.049999999999998934
100
AcDbArc
50
89.999999999886015
51
180
0
LINE
5
213
100
AcDbEntity
8
0
100
AcDbLine
10
75.126974144026988
20
43.925999999139869
30
0
11
75.126974144026988
21
43.926308658664873
31
0
0
LINE
5
214
100
AcDbEntity
8
0
100
AcDbLine
10
75.36902585597899
20
43.925999999139869
30
0
11
75.36902585597899
21
43.926308658664873
31
0
0
LINE
5
215
100
AcDbEntity
8
0
100
AcDbLine
10
75.36902585597899
20
43.926308658664873
30
0
11
75.126974144026988
21
43.926308658664873
31
0
0
LINE
5
216
100
AcDbEntity
8
0
100
AcDbLine
10
-6.8730258559700097
20
43.925999999139876
30
0
11
-6.8730258559700097
21
43.926308660239869
31
0
0
LINE
5
217
100
AcDbEntity
8
0
100
AcDbLine
10
-6.8730258559700097
20
43.926308660239869
30
0
11
-6.6309741440200121
21
43.926308660239869
31
0
0
LINE
5
218
100
AcDbEntity
8
0
100
AcDbLine
10
-6.6309741440200121
20
43.925999999139876
30
0
11
-6.6309741440200121
21
43.926308660239869
31
0
0
LINE
5
219
100
AcDbEntity
8
0
100
AcDbLine
10
-17.585264900780004
20
33.680999999139878
30
1.1102230246251565e-15
11
-17.585264900780007
21
36.580999999139877
31
0
0
LINE
5
220
100
AcDbEntity
8
0
100
AcDbLine
10
-17.585264900780004
20
45.680999994939448
30
0
11
-17.585264900780004
21
47.470999999139877
31
1.1102230246251565e-15
0
LINE
5
221
100
AcDbEntity
8
0
100
AcDbLine
10
-5.9997361310400166
20
64.245999999139897
30
0
11
-6.6309741440200121
21
64.245999999139897
31
0
0
LINE
5
222
100
AcDbEntity
8
0
100
AcDbLine
10
-6.8730258559700097
20
64.245999999139897
30
0
11
-7.7520000000000167
21
64.245999999139897
31
0
0
LINE
5
223
100
AcDbEntity
8
0
100
AcDbLine
10
6.9480002458999923
20
64.895999999139889
30
0
11
6.9480002458999923
21
64.345999999139877
31
0
0
LINE
5
224
100
AcDbEntity
8
0
100
AcDbLine
10
6.9480002458999923
20
64.895999999139889
30
0
11
9.5480002458999813
21
64.895999999139889
31
0
0
LINE
5
225
100
AcDbEntity
8
0
100
AcDbLine
10
9.5480002458999813
20
64.895999999139889
30
0
11
9.5480002458999813
21
64.345999999139892
31
0
0
LINE
5
226
100
AcDbEntity
8
0
100
AcDbLine
10
26.948000168599997
20
64.895999999139889
30
0
11
26.948000168599997
21
64.345999999139892
31
0
0
LINE
5
227
100
AcDbEntity
8
0
100
AcDbLine
10
26.948000168599997
20
64.895999999139889
30
0
11
29.548000168599987
21
64.895999999139889
31
0
0
LINE
5
228
100
AcDbEntity
8
0
100
AcDbLine
10
29.548000168599987
20
64.895999999139889
30
0
11
29.548000168599991
21
64.345999999139892
31
0
0
LINE
5
229
100
AcDbEntity
8
0
100
AcDbLine
10
37.000263919259993
20
64.245999999139897
30
0
11
31.000263919259989
21
64.245999999139897
31
0
0
LINE
5
230
100
AcDbEntity
8
0
100
AcDbLine
10
49.948000168599989
20
64.895999999139889
30
0
11
49.948000168599989
21
64.345999999139892
31
0
0
LINE
5
231
100
AcDbEntity
8
0
100
AcDbLine
10
49.948000168599989
20
64.895999999139889
30
0
11
52.548000168599991
21
64.895999999139889
31
0
0
LINE
5
232
100
AcDbEntity
8
0
100
AcDbLine
10
52.548000168599991
20
64.895999999139889
30
0
11
52.548000168599991
21
64.345999999139892
31
0
0
LINE
5
233
100
AcDbEntity
8
0
100
AcDbLine
10
69.948000296194991
20
64.895999999139889
30
0
11
69.948000296194991
21
64.345999999139892
31
0
0
LINE
5
234
100
AcDbEntity
8
0
100
AcDbLine
10
69.948000296194991
20
64.895999999139889
30
0
11
72.548000296194999
21
64.895999999139889
31
0
0
LINE
5
235
100
AcDbEntity
8
0
100
AcDbLine
10
72.548000296194999
20
64.895999999139889
30
0
11
72.548000296194999
21
64.345999999139906
31
0
0
LINE
5
236
100
AcDbEntity
8
0
100
AcDbLine
10
76.748000000003003
20
64.245999999139883
30
0
11
75.36902585597899
21
64.245999999139883
31
0
0
LINE
5
237
100
AcDbEntity
8
0
100
AcDbLine
10
75.126974144026988
20
64.245999999139883
30
0
11
74.000263969554993
21
64.245999999139883
31
0
0
LINE
5
238
100
AcDbEntity
8
0
100
AcDbLine
10
79.24799999999999
20
58.720999999118888
30
0
11
79.24799999999999
21
63.070999999252884
31
0
0
LINE
5
239
100
AcDbEntity
8
0
100
AcDbLine
10
74.000263969554993
20
57.545999999139887
30
0
11
76.748000000003003
21
57.545999999139887
31
0
0
LINE
5
240
100
AcDbEntity
8
0
100
AcDbLine
10
72.548000296194999
20
56.895999999139889
30
0
11
72.548000296194999
21
57.445999999139886
31
0
0
LINE
5
241
100
AcDbEntity
8
0
100
AcDbLine
10
69.948000296194991
20
56.895999999139889
30
0
11
72.548000296194999
21
56.895999999139889
31
0
0
LINE
5
242
100
AcDbEntity
8
0
100
AcDbLine
10
69.948000296194991
20
56.895999999139889
30
0
11
69.948000296194991
21
57.445999999139886
31
0
0
LINE
5
243
100
AcDbEntity
8
0
100
AcDbLine
10
52.548000168599991
20
56.895999999139889
30
0
11
52.548000168599991
21
57.445999999139879
31
0
0
LINE
5
244
100
AcDbEntity
8
0
100
AcDbLine
10
49.948000168599989
20
56.895999999139889
30
0
11
52.548000168599991
21
56.895999999139889
31
0
0
LINE
5
245
100
AcDbEntity
8
0
100
AcDbLine
10
49.948000168599989
20
56.895999999139889
30
0
11
49.948000168599989
21
57.445999999139879
31
0
0
LINE
5
246
100
AcDbEntity
8
0
100
AcDbLine
10
37.000263919259993
20
57.545999999139887
30
0
11
31.000263919259989
21
57.545999999139887
31
0
0
LINE
5
247
100
AcDbEntity
8
0
100
AcDbLine
10
29.548000168599991
20
56.895999999139889
30
0
11
29.548000168599991
21
57.445999999139886
31
0
0
LINE
5
248
100
AcDbEntity
8
0
100
AcDbLine
10
26.948000168599997
20
56.895999999139889
30
0
11
29.548000168599991
21
56.895999999139889
31
0
0
LINE
5
249
100
AcDbEntity
8
0
100
AcDbLine
10
26.948000168599997
20
56.895999999139889
30
0
11
26.948000168599997
21
57.445999999139886
31
0
0
LINE
5
250
100
AcDbEntity
8
0
100
AcDbLine
10
9.5480002458999813
20
56.895999999139889
30
0
11
9.5480002458999813
21
57.445999999139886
31
0
0
LINE
5
251
100
AcDbEntity
8
0
100
AcDbLine
10
6.9480002458999923
20
56.895999999139889
30
0
11
9.5480002458999813
21
56.895999999139889
31
0
0
LINE
5
252
100
AcDbEntity
8
0
100
AcDbLine
10
6.9480002458999923
20
56.895999999139889
30
0
11
6.9480002458999923
21
57.445999999139886
31
0
0
LINE
5
253
100
AcDbEntity
8
0
100
AcDbLine
10
-5.9997361310400166
20
57.545999999139894
30
0
11
-7.7520000000000167
21
57.545999999139894
31
0
0
LINE
5
254
100
AcDbEntity
8
0
100
AcDbLine
10
76.748000000003003
20
66.000999999139893
30
0
11
76.748000000003003
21
64.245999999139883
31
0
0
LINE
5
255
100
AcDbEntity
8
0
100
AcDbLine
10
79.24799999999999
20
66.000999999139893
30
0
11
76.748000000003003
21
66.000999999139893
31
0
0
LINE
5
256
100
AcDbEntity
8
0
100
AcDbLine
10
79.24799999999999
20
63.570999999139886
30
0
11
79.24799999999999
21
66.000999999139893
31
0
0
LINE
5
257
100
AcDbEntity
8
0
100
AcDbLine
10
79.24799999999999
20
63.570999999139886
30
0
11
79.24799999999999
21
63.070999999252884
31
0
0
LINE
5
258
100
AcDbEntity
8
0
100
AcDbLine
10
79.24799999999999
20
58.220999999139885
30
0
11
79.24799999999999
21
56.896000000000043
31
0
0
LINE
5
259
100
AcDbEntity
8
0
100
AcDbLine
10
79.24799999999999
20
58.720999999118888
30
0
11
79.24799999999999
21
58.220999999139885
31
0
0
LINE
5
260
100
AcDbEntity
8
0
100
AcDbLine
10
76.748000000002989
20
56.895999999126886
30
0
11
79.24799999999999
21
56.896000000000043
31
0
0
LINE
5
261
100
AcDbEntity
8
0
100
AcDbLine
10
76.748000000003003
20
57.545999999139887
30
0
11
76.748000000003003
21
56.901154525125371
31
0
0
LINE
5
262
100
AcDbEntity
8
0
100
AcDbLine
10
76.748000000003003
20
56.90113067809154
30
0
11
76.748000000002989
21
56.895999999126886
31
0
0
LINE
5
263
100
AcDbEntity
8
0
100
AcDbLine
10
-17.585264900780007
20
56.900999999139898
30
0
11
-11.252000000000013
21
56.900999999139898
31
0
0
LINE
5
264
100
AcDbEntity
8
0
100
AcDbLine
10
-11.252000000000013
20
56.900999999139898
30
0
11
-7.7520000000000167
21
56.900999999139898
31
0
0
LINE
5
265
100
AcDbEntity
8
0
100
AcDbLine
10
-25.977665650187767
20
54.0009999991399
30
-1.1102230246251565e-15
11
-26.191998368410005
21
54.0009999991399
31
-1.1102230246251565e-15
0
LINE
5
266
100
AcDbEntity
8
0
100
AcDbLine
10
-23.468951509071367
20
54.0009999991399
30
-1.1102230246251565e-15
11
-25.977665650187767
21
54.0009999991399
31
-1.1102230246251565e-15
0
LINE
5
267
100
AcDbEntity
8
0
100
AcDbLine
10
-23.298256179040024
20
54.0009999991399
30
-1.1102230246251565e-15
11
-23.468951509071367
21
54.0009999991399
31
-1.1102230246251565e-15
0
LINE
5
268
100
AcDbEntity
8
0
100
AcDbLine
10
-22.798261423050015
20
54.0009999991399
30
-1.1102230246251565e-15
11
-23.298256179040024
21
54.0009999991399
31
-1.1102230246251565e-15
0
LINE
5
269
100
AcDbEntity
8
0
100
AcDbLine
10
-17.885264900560003
20
54.0009999991399
30
-1.1102230246251565e-15
11
-22.798261423050015
21
54.0009999991399
31
-1.1102230246251565e-15
0
LINE
5
270
100
AcDbEntity
8
0
100
AcDbLine
10
-17.585264900780004
20
54.0009999991399
30
-1.1102230246251565e-15
11
-17.885264900560003
21
54.0009999991399
31
-1.1102230246251565e-15
0
LINE
5
271
100
AcDbEntity
8
0
100
AcDbLine
10
-25.042000000000009
20
62.201856206910193
30
0
11
-25.042000000000009
21
59.645999999139903
31
0
0
LINE
5
272
100
AcDbEntity
8
0
100
AcDbLine
10
-11.252000000000013
20
66.000999988670898
30
0
11
-17.585264900780004
21
66.000999994939463
31
0
0
LINE
5
273
100
AcDbEntity
8
0
100
AcDbLine
10
-17.885264900780005
20
67.790999999139899
30
-1.1102230246251565e-15
11
-17.585264900780004
21
67.790999999139899
31
-1.1102230246251565e-15
0
LINE
5
274
100
AcDbEntity
8
0
100
AcDbLine
10
-22.798256179040024
20
67.790999999139899
30
-1.1102230246251565e-15
11
-17.885264900780005
21
67.790999999139899
31
-1.1102230246251565e-15
0
LINE
5
275
100
AcDbEntity
8
0
100
AcDbLine
10
-23.298256179040028
20
67.790999999139899
30
-1.1102230246251565e-15
11
-22.798256179040024
21
67.790999999139899
31
-1.1102230246251565e-15
0
LINE
5
276
100
AcDbEntity
8
0
100
AcDbLine
10
-23.468951509170566
20
67.790999999139899
30
-1.1102230246251565e-15
11
-23.298256179040028
21
67.790999999139899
31
-1.1102230246251565e-15
0
LINE
5
277
100
AcDbEntity
8
0
100
AcDbLine
10
-25.977665650230009
20
67.790999999139899
30
-1.1102230246251565e-15
11
-23.468951509170566
21
67.790999999139899
31
-1.1102230246251565e-15
0
LINE
5
278
100
AcDbEntity
8
0
100
AcDbLine
10
-26.191998368410005
20
67.790999999139899
30
-1.1102230246251565e-15
11
-25.977665650230009
21
67.790999999139899
31
-1.1102230246251565e-15
0
LINE
5
279
100
AcDbEntity
8
0
100
AcDbLine
10
-26.191998368410019
20
59.645999999139896
30
-1.1102230246251565e-15
11
-26.191998368410005
21
54.0009999991399
31
-1.1102230246251565e-15
0
LINE
5
280
100
AcDbEntity
8
0
100
AcDbLine
10
-26.191998368410019
20
59.645999999139896
30
-1.1102230246251565e-15
11
-25.977665650220793
21
59.645999999139896
31
-1.1102230246251565e-15
0
LINE
5
281
100
AcDbEntity
8
0
100
AcDbLine
10
-25.977665650220793
20
59.645999999139896
30
-1.1102230246251565e-15
11
-25.042000000000009
21
59.645999999139903
31
0
0
LINE
5
282
100
AcDbEntity
8
0
100
AcDbLine
10
-25.977665650229973
20
62.201856206910193
30
-1.1102230246251565e-15
11
-26.191998368410012
21
62.201856206910193
31
-1.1102230246251565e-15
0
LINE
5
283
100
AcDbEntity
8
0
100
AcDbLine
10
-25.042000000000009
20
62.201856206910193
30
0
11
-25.977665650229973
21
62.201856206910193
31
-1.1102230246251565e-15
0
LINE
5
284
100
AcDbEntity
8
0
100
AcDbLine
10
-26.191998368410005
20
67.790999999139899
30
-1.1102230246251565e-15
11
-26.191998368410012
21
62.201856206910193
31
-1.1102230246251565e-15
0
LINE
5
285
100
AcDbEntity
8
0
100
AcDbLine
10
-11.252000000000013
20
66.000999888092892
30
0
11
-7.7520000000001188
21
66.00099922087702
31
0
0
LINE
5
286
100
AcDbEntity
8
0
100
AcDbLine
10
-7.7520000000000167
20
64.245999999139897
30
0
11
-7.7520000000000167
21
66.000985929910229
31
0
0
LINE
5
287
100
AcDbEntity
8
0
100
AcDbLine
10
-7.7520000000000167
20
56.900999999139898
30
0
11
-7.7520000000000167
21
57.545999999139894
31
0
0
LINE
5
288
100
AcDbEntity
8
0
100
AcDbLine
10
37.000263919259993
20
57.545999999139887
30
0
11
37.000263919260007
21
57.49599999913989
31
0
0
LINE
5
289
100
AcDbEntity
8
0
100
AcDbLine
10
74.000263969554993
20
57.49599999913989
30
0
11
74.000263969554993
21
57.545999999139887
31
0
0
LINE
5
290
100
AcDbEntity
8
0
100
AcDbLine
10
73.950263969554996
20
57.445999999139886
30
0
11
73.500263969554993
21
57.445999999139886
31
0
0
ARC
5
291
100
AcDbEntity
8
0
100
AcDbCircle
10
73.950263969554996
20
57.49599999913989
30
0
40
0.049999999999998934
100
AcDbArc
50
-90
51
0
0
LINE
5
292
100
AcDbEntity
8
0
100
AcDbLine
10
37.500263919259993
20
57.445999999139886
30
0
11
37.05026391926009
21
57.445999999139886
31
0
0
LINE
5
293
100
AcDbEntity
8
0
100
AcDbLine
10
37.500263919259993
20
57.445999999139886
30
0
11
49.948000168599989
21
57.445999999139879
31
0
0
LINE
5
294
100
AcDbEntity
8
0
100
AcDbLine
10
52.548000168599991
20
57.445999999139879
30
0
11
69.948000296194991
21
57.445999999139886
31
0
0
LINE
5
295
100
AcDbEntity
8
0
100
AcDbLine
10
72.548000296194999
20
57.445999999139886
30
0
11
73.500263969554993
21
57.445999999139886
31
0
0
ARC
5
296
100
AcDbEntity
8
0
100
AcDbCircle
10
37.05026391925999
20
57.49599999913989
30
0
40
0.049999999999985612
100
AcDbArc
50
180
51
270.00000000011397
0
LINE
5
297
100
AcDbEntity
8
0
100
AcDbLine
10
31.000263919259989
20
57.49599999913989
30
0
11
31.000263919259989
21
57.545999999139887
31
0
0
LINE
5
298
100
AcDbEntity
8
0
100
AcDbLine
10
-5.9997361310400166
20
57.545999999139894
30
0
11
-5.9997361310400166
21
57.495999999139897
31
0
0
ARC
5
299
100
AcDbEntity
8
0
100
AcDbCircle
10
30.950263919259989
20
57.49599999913989
30
0
40
0.049999999999998934
100
AcDbArc
50
-90
51
0
0
LINE
5
300
100
AcDbEntity
8
0
100
AcDbLine
10
-5.4997361310400183
20
57.4459999991399
30
0
11
-5.9497361310400185
21
57.4459999991399
31
0
0
LINE
5
301
100
AcDbEntity
8
0
100
AcDbLine
10
-5.4997361310400183
20
57.4459999991399
30
0
11
6.9480002458999923
21
57.445999999139886
31
0
0
LINE
5
302
100
AcDbEntity
8
0
100
AcDbLine
10
9.5480002458999813
20
57.445999999139886
30
0
11
26.948000168599997
21
57.445999999139886
31
0
0
LINE
5
303
100
AcDbEntity
8
0
100
AcDbLine
10
29.548000168599991
20
57.445999999139886
30
0
11
30.500263919259986
21
57.4459999991399
31
0
0
LINE
5
304
100
AcDbEntity
8
0
100
AcDbLine
10
30.950263919259989
20
57.445999999139886
30
0
11
30.500263919259986
21
57.4459999991399
31
0
0
ARC
5
305
100
AcDbEntity
8
0
100
AcDbCircle
10
-5.9497361310400088
20
57.495999999139897
30
0
40
0.050000000000007816
100
AcDbArc
50
180
51
269.9999999999888
0
LINE
5
306
100
AcDbEntity
8
0
100
AcDbLine
10
31.000263919259989
20
64.245999999139897
30
0
11
31.000263919259989
21
64.295999999139894
31
0
0
LINE
5
307
100
AcDbEntity
8
0
100
AcDbLine
10
-5.9997361310400166
20
64.295999999139894
30
0
11
-5.9997361310400166
21
64.245999999139897
31
0
0
ARC
5
308
100
AcDbEntity
8
0
100
AcDbCircle
10
30.950263919259989
20
64.295999999139894
30
0
40
0.049999999999998934
100
AcDbArc
50
0
51
90
0
LINE
5
309
100
AcDbEntity
8
0
100
AcDbLine
10
30.500263919259986
20
64.345999999139892
30
0
11
30.950263919259989
21
64.345999999139892
31
0
0
LINE
5
310
100
AcDbEntity
8
0
100
AcDbLine
10
30.500263919259986
20
64.345999999139892
30
0
11
29.548000168599991
21
64.345999999139892
31
0
0
LINE
5
311
100
AcDbEntity
8
0
100
AcDbLine
10
26.948000168599997
20
64.345999999139892
30
0
11
9.5480002458999813
21
64.345999999139892
31
0
0
LINE
5
312
100
AcDbEntity
8
0
100
AcDbLine
10
6.9480002458999923
20
64.345999999139877
30
0
11
-5.4997361310400183
21
64.345999999139892
31
0
0
LINE
5
313
100
AcDbEntity
8
0
100
AcDbLine
10
-5.9497361310400185
20
64.345999999139892
30
0
11
-5.4997361310400183
21
64.345999999139892
31
0
0
ARC
5
314
100
AcDbEntity
8
0
100
AcDbCircle
10
-5.9497361310400088
20
64.295999999139894
30
0
40
0.049999999999998934
100
AcDbArc
50
90.000000000011198
51
180
0
LINE
5
315
100
AcDbEntity
8
0
100
AcDbLine
10
37.000263919259993
20
64.295999999139894
30
0
11
37.000263919259993
21
64.245999999139897
31
0
0
LINE
5
316
100
AcDbEntity
8
0
100
AcDbLine
10
74.000263969554993
20
64.245999999139883
30
0
11
74.000263969554979
21
64.29599999913988
31
0
0
LINE
5
317
100
AcDbEntity
8
0
100
AcDbLine
10
73.500263969554993
20
64.345999999139892
30
0
11
72.548000296194999
21
64.345999999139906
31
0
0
LINE
5
318
100
AcDbEntity
8
0
100
AcDbLine
10
69.948000296194991
20
64.345999999139892
30
0
11
52.548000168599991
21
64.345999999139892
31
0
0
LINE
5
319
100
AcDbEntity
8
0
100
AcDbLine
10
49.948000168599989
20
64.345999999139892
30
0
11
37.500263919259993
21
64.345999999139892
31
0
0
LINE
5
320
100
AcDbEntity
8
0
100
AcDbLine
10
73.500263969554993
20
64.345999999139892
30
0
11
73.950263969554996
21
64.345999999139892
31
0
0
LINE
5
321
100
AcDbEntity
8
0
100
AcDbLine
10
37.05026391926009
20
64.345999999139892
30
0
11
37.500263919259993
21
64.345999999139892
31
0
0
ARC
5
322
100
AcDbEntity
8
0
100
AcDbCircle
10
73.950263969554996
20
64.295999999139894
30
0
40
0.049999999999990052
100
AcDbArc
50
0
51
90
0
ARC
5
323
100
AcDbEntity
8
0
100
AcDbCircle
10
37.05026391925999
20
64.295999999139894
30
0
40
0.049999999999998934
100
AcDbArc
50
89.999999999886015
51
180
0
LINE
5
324
100
AcDbEntity
8
0
100
AcDbLine
10
75.126974144026988
20
64.245999999139883
30
0
11
75.126974144026988
21
64.246308658664887
31
0
0
LINE
5
325
100
AcDbEntity
8
0
100
AcDbLine
10
75.36902585597899
20
64.245999999139883
30
0
11
75.36902585597899
21
64.246308658664887
31
0
0
LINE
5
326
100
AcDbEntity
8
0
100
AcDbLine
10
75.36902585597899
20
64.246308658664887
30
0
11
75.126974144026988
21
64.246308658664887
31
0
0
LINE
5
327
100
AcDbEntity
8
0
100
AcDbLine
10
-6.8730258559700097
20
64.245999999139897
30
0
11
-6.8730258559700097
21
64.24630866023989
31
0
0
LINE
5
328
100
AcDbEntity
8
0
100
AcDbLine
10
-6.8730258559700097
20
64.24630866023989
30
0
11
-6.6309741440200121
21
64.24630866023989
31
0
0
LINE
5
329
100
AcDbEntity
8
0
100
AcDbLine
10
-6.6309741440200121
20
64.245999999139897
30
0
11
-6.6309741440200121
21
64.24630866023989
31
0
0
LINE
5
330
100
AcDbEntity
8
0
100
AcDbLine
10
-17.585264900780004
20
54.0009999991399
30
-1.1102230246251565e-15
11
-17.585264900780007
21
56.900999999139898
31
0
0
LINE
5
331
100
AcDbEntity
8
0
100
AcDbLine
10
-17.585264900780004
20
66.000999994939463
30
0
11
-17.585264900780004
21
67.790999999139899
31
-1.1102230246251565e-15
0
LINE
5
332
100
AcDbEntity
8
0
100
AcDbLine
10
-5.9997361310400255
20
84.565999999139891
30
0
11
-6.6309741440200209
21
84.565999999139891
31
0
0
LINE
5
333
100
AcDbEntity
8
0
100
AcDbLine
10
-6.8730258559700186
20
84.565999999139891
30
0
11
-7.7520000000000255
21
84.565999999139891
31
0
0
LINE
5
334
100
AcDbEntity
8
0
100
AcDbLine
10
6.9480002458999834
20
85.215999999139882
30
0
11
6.9480002458999834
21
84.665999999139885
31
0
0
LINE
5
335
100
AcDbEntity
8
0
100
AcDbLine
10
6.9480002458999834
20
85.215999999139882
30
0
11
9.5480002458999724
21
85.215999999139882
31
0
0
LINE
5
336
100
AcDbEntity
8
0
100
AcDbLine
10
9.5480002458999724
20
85.215999999139882
30
0
11
9.5480002458999724
21
84.665999999139885
31
0
0
LINE
5
337
100
AcDbEntity
8
0
100
AcDbLine
10
26.948000168599986
20
85.215999999139882
30
0
11
26.948000168599986
21
84.665999999139885
31
0
0
LINE
5
338
100
AcDbEntity
8
0
100
AcDbLine
10
26.948000168599986
20
85.215999999139882
30
0
11
29.54800016859998
21
85.215999999139882
31
0
0
LINE
5
339
100
AcDbEntity
8
0
100
AcDbLine
10
29.54800016859998
20
85.215999999139882
30
0
11
29.548000168599984
21
84.665999999139885
31
0
0
LINE
5
340
100
AcDbEntity
8
0
100
AcDbLine
10
37.000263919259979
20
84.565999999139891
30
0
11
31.000263919259979
21
84.565999999139891
31
0
0
LINE
5
341
100
AcDbEntity
8
0
100
AcDbLine
10
49.948000168599982
20
85.215999999139882
30
0
11
49.948000168599982
21
84.665999999139885
31
0
0
LINE
5
342
100
AcDbEntity
8
0
100
AcDbLine
10
49.948000168599982
20
85.215999999139882
30
0
11
52.548000168599984
21
85.215999999139882
31
0
0
LINE
5
343
100
AcDbEntity
8
0
100
AcDbLine
10
52.548000168599984
20
85.215999999139882
30
0
11
52.548000168599984
21
84.665999999139885
31
0
0
LINE
5
344
100
AcDbEntity
8
0
100
AcDbLine
10
69.948000296194991
20
85.215999999139882
30
0
11
69.948000296194991
21
84.665999999139885
31
0
0
LINE
5
345
100
AcDbEntity
8
0
100
AcDbLine
10
69.948000296194991
20
85.215999999139882
30
0
11
72.548000296194985
21
85.215999999139882
31
0
0
LINE
5
346
100
AcDbEntity
8
0
100
AcDbLine
10
72.548000296194985
20
85.215999999139882
30
0
11
72.548000296194985
21
84.665999999139885
31
0
0
LINE
5
347
100
AcDbEntity
8
0
100
AcDbLine
10
76.748000000002989
20
84.565999999139891
30
0
11
75.369025855978975
21
84.565999999139891
31
0
0
LINE
5
348
100
AcDbEntity
8
0
100
AcDbLine
10
75.126974144026988
20
84.565999999139891
30
0
11
74.000263969554979
21
84.565999999139891
31
0
0
LINE
5
349
100
AcDbEntity
8
0
100
AcDbLine
10
79.24799999999999
20
79.040999999118881
30
0
11
79.24799999999999
21
83.390999999252884
31
0
0
LINE
5
350
100
AcDbEntity
8
0
100
AcDbLine
10
74.000263969554979
20
77.865999999139873
30
0
11
76.748000000002989
21
77.865999999139873
31
0
0
LINE
5
351
100
AcDbEntity
8
0
100
AcDbLine
10
72.548000296194985
20
77.215999999139882
30
0
11
72.548000296194985
21
77.765999999139879
31
0
0
LINE
5
352
100
AcDbEntity
8
0
100
AcDbLine
10
69.948000296194991
20
77.215999999139882
30
0
11
72.548000296194985
21
77.215999999139882
31
0
0
LINE
5
353
100
AcDbEntity
8
0
100
AcDbLine
10
69.948000296194991
20
77.215999999139882
30
0
11
69.948000296194991
21
77.765999999139865
31
0
0
LINE
5
354
100
AcDbEntity
8
0
100
AcDbLine
10
52.548000168599984
20
77.215999999139882
30
0
11
52.548000168599984
21
77.765999999139879
31
0
0
LINE
5
355
100
AcDbEntity
8
0
100
AcDbLine
10
49.948000168599982
20
77.215999999139882
30
0
11
52.548000168599984
21
77.215999999139882
31
0
0
LINE
5
356
100
AcDbEntity
8
0
100
AcDbLine
10
49.948000168599982
20
77.215999999139882
30
0
11
49.948000168599982
21
77.765999999139865
31
0
0
LINE
5
357
100
AcDbEntity
8
0
100
AcDbLine
10
37.000263919259979
20
77.865999999139873
30
0
11
31.000263919259979
21
77.865999999139873
31
0
0
LINE
5
358
100
AcDbEntity
8
0
100
AcDbLine
10
29.548000168599984
20
77.215999999139882
30
0
11
29.548000168599984
21
77.765999999139879
31
0
0
LINE
5
359
100
AcDbEntity
8
0
100
AcDbLine
10
26.948000168599986
20
77.215999999139882
30
0
11
29.548000168599984
21
77.215999999139882
31
0
0
LINE
5
360
100
AcDbEntity
8
0
100
AcDbLine
10
26.948000168599986
20
77.215999999139882
30
0
11
26.948000168599986
21
77.765999999139879
31
0
0
LINE
5
361
100
AcDbEntity
8
0
100
AcDbLine
10
9.5480002458999724
20
77.215999999139882
30
0
11
9.5480002458999724
21
77.765999999139893
31
0
0
LINE
5
362
100
AcDbEntity
8
0
100
AcDbLine
10
6.9480002458999834
20
77.215999999139882
30
0
11
9.5480002458999724
21
77.215999999139882
31
0
0
LINE
5
363
100
AcDbEntity
8
0
100
AcDbLine
10
6.9480002458999834
20
77.215999999139882
30
0
11
6.9480002458999834
21
77.765999999139893
31
0
0
LINE
5
364
100
AcDbEntity
8
0
100
AcDbLine
10
-5.9997361310400255
20
77.865999999139888
30
0
11
-7.7520000000000255
21
77.865999999139888
31
0
0
LINE
5
365
100
AcDbEntity
8
0
100
AcDbLine
10
76.748000000002989
20
86.320999999139886
30
0
11
76.748000000002989
21
84.565999999139891
31
0
0
LINE
5
366
100
AcDbEntity
8
0
100
AcDbLine
10
79.24799999999999
20
86.320999999139886
30
0
11
76.748000000002989
21
86.320999999139886
31
0
0
LINE
5
367
100
AcDbEntity
8
0
100
AcDbLine
10
79.24799999999999
20
83.890999999139879
30
0
11
79.24799999999999
21
86.320999999139886
31
0
0
LINE
5
368
100
AcDbEntity
8
0
100
AcDbLine
10
79.24799999999999
20
83.890999999139879
30
0
11
79.24799999999999
21
83.390999999252884
31
0
0
LINE
5
369
100
AcDbEntity
8
0
100
AcDbLine
10
79.24799999999999
20
78.540999999139871
30
0
11
79.24799999999999
21
77.216000000000037
31
0
0
LINE
5
370
100
AcDbEntity
8
0
100
AcDbLine
10
79.24799999999999
20
79.040999999118881
30
0
11
79.24799999999999
21
78.540999999139871
31
0
0
LINE
5
371
100
AcDbEntity
8
0
100
AcDbLine
10
76.748000000002989
20
77.215999999126879
30
0
11
79.24799999999999
21
77.216000000000037
31
0
0
LINE
5
372
100
AcDbEntity
8
0
100
AcDbLine
10
76.748000000002989
20
77.865999999139873
30
0
11
76.748000000002989
21
77.221154525125357
31
0
0
LINE
5
373
100
AcDbEntity
8
0
100
AcDbLine
10
76.748000000002989
20
77.221130678091527
30
0
11
76.748000000002989
21
77.215999999126879
31
0
0
LINE
5
374
100
AcDbEntity
8
0
100
AcDbLine
10
-17.585264900780018
20
77.220999999139892
30
0
11
-11.252000000000022
21
77.220999999139892
31
0
0
LINE
5
375
100
AcDbEntity
8
0
100
AcDbLine
10
-11.252000000000022
20
77.220999999139892
30
0
11
-7.7520000000000255
21
77.220999999139892
31
0
0
LINE
5
376
100
AcDbEntity
8
0
100
AcDbLine
10
-25.977665650187774
20
74.320999999139886
30
-1.1102230246251565e-15
11
-26.191998368410015
21
74.320999999139886
31
-1.1102230246251565e-15
0
LINE
5
377
100
AcDbEntity
8
0
100
AcDbLine
10
-23.468951509071374
20
74.320999999139886
30
-1.1102230246251565e-15
11
-25.977665650187774
21
74.320999999139886
31
-1.1102230246251565e-15
0
LINE
5
378
100
AcDbEntity
8
0
100
AcDbLine
10
-23.298256179040031
20
74.320999999139886
30
-1.1102230246251565e-15
11
-23.468951509071374
21
74.320999999139886
31
-1.1102230246251565e-15
0
LINE
5
379
100
AcDbEntity
8
0
100
AcDbLine
10
-22.798261423050022
20
74.320999999139886
30
-1.1102230246251565e-15
11
-23.298256179040031
21
74.320999999139886
31
-1.1102230246251565e-15
0
LINE
5
380
100
AcDbEntity
8
0
100
AcDbLine
10
-17.88526490056001
20
74.320999999139886
30
-1.1102230246251565e-15
11
-22.798261423050022
21
74.320999999139886
31
-1.1102230246251565e-15
0
LINE
5
381
100
AcDbEntity
8
0
100
AcDbLine
10
-17.585264900780015
20
74.320999999139886
30
-1.1102230246251565e-15
11
-17.88526490056001
21
74.320999999139886
31
-1.1102230246251565e-15
0
LINE
5
382
100
AcDbEntity
8
0
100
AcDbLine
10
-25.042000000000016
20
82.521856206910201
30
0
11
-25.042000000000016
21
79.96599999913991
31
0
0
LINE
5
383
100
AcDbEntity
8
0
100
AcDbLine
10
-11.252000000000022
20
86.320999988670891
30
0
11
-17.585264900780015
21
86.320999994939456
31
0
0
LINE
5
384
100
AcDbEntity
8
0
100
AcDbLine
10
-17.885264900780015
20
88.110999999139892
30
-1.1102230246251565e-15
11
-17.585264900780015
21
88.110999999139892
31
-1.1102230246251565e-15
0
LINE
5
385
100
AcDbEntity
8
0
100
AcDbLine
10
-22.798256179040031
20
88.110999999139892
30
-1.1102230246251565e-15
11
-17.885264900780015
21
88.110999999139892
31
-1.1102230246251565e-15
0
LINE
5
386
100
AcDbEntity
8
0
100
AcDbLine
10
-23.298256179040035
20
88.110999999139892
30
-1.1102230246251565e-15
11
-22.798256179040031
21
88.110999999139892
31
-1.1102230246251565e-15
0
LINE
5
387
100
AcDbEntity
8
0
100
AcDbLine
10
-23.468951509170573
20
88.110999999139892
30
-1.1102230246251565e-15
11
-23.298256179040035
21
88.110999999139892
31
-1.1102230246251565e-15
0
LINE
5
388
100
AcDbEntity
8
0
100
AcDbLine
10
-25.977665650230016
20
88.110999999139892
30
-1.1102230246251565e-15
11
-23.468951509170573
21
88.110999999139892
31
-1.1102230246251565e-15
0
LINE
5
389
100
AcDbEntity
8
0
100
AcDbLine
10
-26.191998368410015
20
88.110999999139892
30
-1.1102230246251565e-15
11
-25.977665650230016
21
88.110999999139892
31
-1.1102230246251565e-15
0
LINE
5
390
100
AcDbEntity
8
0
100
AcDbLine
10
-26.191998368410026
20
79.965999999139882
30
-1.1102230246251565e-15
11
-26.191998368410015
21
74.320999999139886
31
-1.1102230246251565e-15
0
LINE
5
391
100
AcDbEntity
8
0
100
AcDbLine
10
-26.191998368410026
20
79.965999999139882
30
-1.1102230246251565e-15
11
-25.977665650220803
21
79.965999999139882
31
-1.1102230246251565e-15
0
LINE
5
392
100
AcDbEntity
8
0
100
AcDbLine
10
-25.977665650220803
20
79.965999999139882
30
-1.1102230246251565e-15
11
-25.042000000000016
21
79.96599999913991
31
0
0
LINE
5
393
100
AcDbEntity
8
0
100
AcDbLine
10
-25.97766565022998
20
82.521856206910201
30
-1.1102230246251565e-15
11
-26.191998368410019
21
82.521856206910201
31
-1.1102230246251565e-15
0
LINE
5
394
100
AcDbEntity
8
0
100
AcDbLine
10
-25.042000000000016
20
82.521856206910201
30
0
11
-25.97766565022998
21
82.521856206910201
31
-1.1102230246251565e-15
0
LINE
5
395
100
AcDbEntity
8
0
100
AcDbLine
10
-26.191998368410015
20
88.110999999139892
30
-1.1102230246251565e-15
11
-26.191998368410019
21
82.521856206910201
31
-1.1102230246251565e-15
0
LINE
5
396
100
AcDbEntity
8
0
100
AcDbLine
10
-11.252000000000022
20
86.320999888092885
30
0
11
-7.7520000000001277
21
86.320999220877013
31
0
0
LINE
5
397
100
AcDbEntity
8
0
100
AcDbLine
10
-7.7520000000000255
20
84.565999999139891
30
0
11
-7.7520000000000255
21
86.320985929910222
31
0
0
LINE
5
398
100
AcDbEntity
8
0
100
AcDbLine
10
-7.7520000000000255
20
77.220999999139892
30
0
11
-7.7520000000000255
21
77.865999999139888
31
0
0
LINE
5
399
100
AcDbEntity
8
0
100
AcDbLine
10
37.000263919259979
20
77.865999999139873
30
0
11
37.000263919259993
21
77.815999999139876
31
0
0
LINE
5
400
100
AcDbEntity
8
0
100
AcDbLine
10
74.000263969554979
20
77.815999999139876
30
0
11
74.000263969554979
21
77.865999999139873
31
0
0
LINE
5
401
100
AcDbEntity
8
0
100
AcDbLine
10
73.950263969554982
20
77.765999999139879
30
0
11
73.500263969554979
21
77.765999999139879
31
0
0
ARC
5
402
100
AcDbEntity
8
0
100
AcDbCircle
10
73.950263969554982
20
77.815999999139876
30
0
40
0.049999999999998934
100
AcDbArc
50
-90
51
0
0
LINE
5
403
100
AcDbEntity
8
0
100
AcDbLine
10
37.500263919259986
20
77.765999999139879
30
0
11
37.050263919260082
21
77.765999999139879
31
0
0
LINE
5
404
100
AcDbEntity
8
0
100
AcDbLine
10
37.500263919259986
20
77.765999999139879
30
0
11
49.948000168599982
21
77.765999999139865
31
0
0
LINE
5
405
100
AcDbEntity
8
0
100
AcDbLine
10
52.548000168599984
20
77.765999999139879
30
0
11
69.948000296194991
21
77.765999999139865
31
0
0
LINE
5
406
100
AcDbEntity
8
0
100
AcDbLine
10
72.548000296194985
20
77.765999999139879
30
0
11
73.500263969554979
21
77.765999999139879
31
0
0
ARC
5
407
100
AcDbEntity
8
0
100
AcDbCircle
10
37.050263919259983
20
77.815999999139876
30
0
40
0.049999999999985612
100
AcDbArc
50
180
51
270.00000000011397
0
LINE
5
408
100
AcDbEntity
8
0
100
AcDbLine
10
31.000263919259979
20
77.815999999139876
30
0
11
31.000263919259979
21
77.865999999139873
31
0
0
LINE
5
409
100
AcDbEntity
8
0
100
AcDbLine
10
-5.9997361310400255
20
77.865999999139888
30
0
11
-5.9997361310400255
21
77.815999999139891
31
0
0
ARC
5
410
100
AcDbEntity
8
0
100
AcDbCircle
10
30.950263919259982
20
77.815999999139876
30
0
40
0.049999999999998934
100
AcDbArc
50
-90
51
0
0
LINE
5
411
100
AcDbEntity
8
0
100
AcDbLine
10
-5.4997361310400272
20
77.765999999139893
30
0
11
-5.9497361310400274
21
77.765999999139893
31
0
0
LINE
5
412
100
AcDbEntity
8
0
100
AcDbLine
10
-5.4997361310400272
20
77.765999999139893
30
0
11
6.9480002458999834
21
77.765999999139893
31
0
0
LINE
5
413
100
AcDbEntity
8
0
100
AcDbLine
10
9.5480002458999724
20
77.765999999139893
30
0
11
26.948000168599986
21
77.765999999139879
31
0
0
LINE
5
414
100
AcDbEntity
8
0
100
AcDbLine
10
29.548000168599984
20
77.765999999139879
30
0
11
30.500263919259979
21
77.765999999139893
31
0
0
LINE
5
415
100
AcDbEntity
8
0
100
AcDbLine
10
30.950263919259982
20
77.765999999139879
30
0
11
30.500263919259979
21
77.765999999139893
31
0
0
ARC
5
416
100
AcDbEntity
8
0
100
AcDbCircle
10
-5.9497361310400176
20
77.815999999139891
30
0
40
0.050000000000007816
100
AcDbArc
50
180
51
269.9999999999888
0
LINE
5
417
100
AcDbEntity
8
0
100
AcDbLine
10
31.000263919259979
20
84.565999999139891
30
0
11
31.000263919259979
21
84.615999999139888
31
0
0
LINE
5
418
100
AcDbEntity
8
0
100
AcDbLine
10
-5.9997361310400255
20
84.615999999139888
30
0
11
-5.9997361310400255
21
84.565999999139891
31
0
0
ARC
5
419
100
AcDbEntity
8
0
100
AcDbCircle
10
30.950263919259982
20
84.615999999139873
30
0
40
0.049999999999998934
100
AcDbArc
50
0
51
90
0
LINE
5
420
100
AcDbEntity
8
0
100
AcDbLine
10
30.500263919259979
20
84.665999999139885
30
0
11
30.950263919259982
21
84.665999999139885
31
0
0
LINE
5
421
100
AcDbEntity
8
0
100
AcDbLine
10
30.500263919259979
20
84.665999999139885
30
0
11
29.548000168599984
21
84.665999999139885
31
0
0
LINE
5
422
100
AcDbEntity
8
0
100
AcDbLine
10
26.948000168599986
20
84.665999999139885
30
0
11
9.5480002458999724
21
84.665999999139885
31
0
0
LINE
5
423
100
AcDbEntity
8
0
100
AcDbLine
10
6.9480002458999834
20
84.665999999139885
30
0
11
-5.4997361310400272
21
84.665999999139885
31
0
0
LINE
5
424
100
AcDbEntity
8
0
100
AcDbLine
10
-5.9497361310400274
20
84.665999999139885
30
0
11
-5.4997361310400272
21
84.665999999139885
31
0
0
ARC
5
425
100
AcDbEntity
8
0
100
AcDbCircle
10
-5.9497361310400176
20
84.615999999139888
30
0
40
0.049999999999990052
100
AcDbArc
50
90.000000000011198
51
180
0
LINE
5
426
100
AcDbEntity
8
0
100
AcDbLine
10
37.000263919259979
20
84.615999999139873
30
0
11
37.000263919259979
21
84.565999999139891
31
0
0
LINE
5
427
100
AcDbEntity
8
0
100
AcDbLine
10
74.000263969554979
20
84.565999999139891
30
0
11
74.000263969554979
21
84.615999999139888
31
0
0
LINE
5
428
100
AcDbEntity
8
0
100
AcDbLine
10
73.500263969554979
20
84.665999999139885
30
0
11
72.548000296194985
21
84.665999999139885
31
0
0
LINE
5
429
100
AcDbEntity
8
0
100
AcDbLine
10
69.948000296194991
20
84.665999999139885
30
0
11
52.548000168599984
21
84.665999999139885
31
0
0
LINE
5
430
100
AcDbEntity
8
0
100
AcDbLine
10
49.948000168599982
20
84.665999999139885
30
0
11
37.500263919259986
21
84.665999999139885
31
0
0
LINE
5
431
100
AcDbEntity
8
0
100
AcDbLine
10
73.500263969554979
20
84.665999999139885
30
0
11
73.950263969554982
21
84.665999999139885
31
0
0
LINE
5
432
100
AcDbEntity
8
0
100
AcDbLine
10
37.050263919260082
20
84.665999999139885
30
0
11
37.500263919259986
21
84.665999999139885
31
0
0
ARC
5
433
100
AcDbEntity
8
0
100
AcDbCircle
10
73.950263969554982
20
84.615999999139873
30
0
40
0.049999999999990052
100
AcDbArc
50
0
51
90
0
ARC
5
434
100
AcDbEntity
8
0
100
AcDbCircle
10
37.050263919259983
20
84.615999999139873
30
0
40
0.050000000000007816
100
AcDbArc
50
89.999999999886015
51
180
0
LINE
5
435
100
AcDbEntity
8
0
100
AcDbLine
10
75.126974144026988
20
84.565999999139891
30
0
11
75.126974144026974
21
84.56630865866488
31
0
0
LINE
5
436
100
AcDbEntity
8
0
100
AcDbLine
10
75.369025855978975
20
84.565999999139891
30
0
11
75.36902585597899
21
84.56630865866488
31
0
0
LINE
5
437
100
AcDbEntity
8
0
100
AcDbLine
10
75.36902585597899
20
84.56630865866488
30
0
11
75.126974144026974
21
84.56630865866488
31
0
0
LINE
5
438
100
AcDbEntity
8
0
100
AcDbLine
10
-6.8730258559700186
20
84.565999999139891
30
0
11
-6.8730258559700186
21
84.566308660239883
31
0
0
LINE
5
439
100
AcDbEntity
8
0
100
AcDbLine
10
-6.8730258559700186
20
84.566308660239883
30
0
11
-6.6309741440200209
21
84.566308660239883
31
0
0
LINE
5
440
100
AcDbEntity
8
0
100
AcDbLine
10
-6.6309741440200209
20
84.565999999139891
30
0
11
-6.6309741440200209
21
84.566308660239883
31
0
0
LINE
5
441
100
AcDbEntity
8
0
100
AcDbLine
10
-17.585264900780015
20
74.320999999139886
30
-1.1102230246251565e-15
11
-17.585264900780018
21
77.220999999139892
31
0
0
LINE
5
442
100
AcDbEntity
8
0
100
AcDbLine
10
-17.585264900780015
20
86.320999994939456
30
0
11
-17.585264900780015
21
88.110999999139892
31
-1.1102230246251565e-15
0
LINE
5
443
100
AcDbEntity
8
0
100
AcDbLine
10
-5.9997361310400255
20
104.8859999991399
30
0
11
-6.6309741440200209
21
104.8859999991399
31
0
0
LINE
5
444
100
AcDbEntity
8
0
100
AcDbLine
10
-6.8730258559700186
20
104.8859999991399
30
0
11
-7.7520000000000255
21
104.8859999991399
31
0
0
LINE
5
445
100
AcDbEntity
8
0
100
AcDbLine
10
6.9480002458999834
20
105.5359999991399
30
0
11
6.9480002458999834
21
104.98599999913991
31
0
0
LINE
5
446
100
AcDbEntity
8
0
100
AcDbLine
10
6.9480002458999834
20
105.5359999991399
30
0
11
9.5480002458999724
21
105.5359999991399
31
0
0
LINE
5
447
100
AcDbEntity
8
0
100
AcDbLine
10
9.5480002458999724
20
105.5359999991399
30
0
11
9.5480002458999724
21
104.98599999913991
31
0
0
LINE
5
448
100
AcDbEntity
8
0
100
AcDbLine
10
26.948000168599986
20
105.5359999991399
30
0
11
26.948000168599986
21
104.98599999913992
31
0
0
LINE
5
449
100
AcDbEntity
8
0
100
AcDbLine
10
26.948000168599986
20
105.5359999991399
30
0
11
29.54800016859998
21
105.5359999991399
31
0
0
LINE
5
450
100
AcDbEntity
8
0
100
AcDbLine
10
29.54800016859998
20
105.5359999991399
30
0
11
29.548000168599984
21
104.98599999913991
31
0
0
LINE
5
451
100
AcDbEntity
8
0
100
AcDbLine
10
37.000263919259979
20
104.8859999991399
30
0
11
31.000263919259979
21
104.8859999991399
31
0
0
LINE
5
452
100
AcDbEntity
8
0
100
AcDbLine
10
49.948000168599982
20
105.5359999991399
30
0
11
49.948000168599982
21
104.98599999913992
31
0
0
LINE
5
453
100
AcDbEntity
8
0
100
AcDbLine
10
49.948000168599982
20
105.5359999991399
30
0
11
52.548000168599984
21
105.5359999991399
31
0
0
LINE
5
454
100
AcDbEntity
8
0
100
AcDbLine
10
52.548000168599984
20
105.5359999991399
30
0
11
52.548000168599984
21
104.98599999913992
31
0
0
LINE
5
455
100
AcDbEntity
8
0
100
AcDbLine
10
69.948000296194991
20
105.5359999991399
30
0
11
69.948000296194991
21
104.98599999913992
31
0
0
LINE
5
456
100
AcDbEntity
8
0
100
AcDbLine
10
69.948000296194991
20
105.5359999991399
30
0
11
72.548000296194985
21
105.5359999991399
31
0
0
LINE
5
457
100
AcDbEntity
8
0
100
AcDbLine
10
72.548000296194985
20
105.5359999991399
30
0
11
72.548000296194985
21
104.98599999913991
31
0
0
LINE
5
458
100
AcDbEntity
8
0
100
AcDbLine
10
76.748000000002989
20
104.8859999991399
30
0
11
75.369025855978975
21
104.8859999991399
31
0
0
LINE
5
459
100
AcDbEntity
8
0
100
AcDbLine
10
75.126974144026988
20
104.8859999991399
30
0
11
74.000263969554979
21
104.8859999991399
31
0
0
LINE
5
460
100
AcDbEntity
8
0
100
AcDbLine
10
79.24799999999999
20
99.360999999118903
30
0
11
79.24799999999999
21
103.71099999925291
31
0
0
LINE
5
461
100
AcDbEntity
8
0
100
AcDbLine
10
74.000263969554979
20
98.185999999139909
30
0
11
76.748000000002989
21
98.185999999139909
31
0
0
LINE
5
462
100
AcDbEntity
8
0
100
AcDbLine
10
72.548000296194985
20
97.535999999139889
30
0
11
72.548000296194985
21
98.085999999139915
31
0
0
LINE
5
463
100
AcDbEntity
8
0
100
AcDbLine
10
69.948000296194991
20
97.535999999139889
30
0
11
72.548000296194985
21
97.535999999139889
31
0
0
LINE
5
464
100
AcDbEntity
8
0
100
AcDbLine
10
69.948000296194991
20
97.535999999139889
30
0
11
69.948000296194991
21
98.085999999139915
31
0
0
LINE
5
465
100
AcDbEntity
8
0
100
AcDbLine
10
52.548000168599984
20
97.535999999139889
30
0
11
52.548000168599984
21
98.085999999139915
31
0
0
LINE
5
466
100
AcDbEntity
8
0
100
AcDbLine
10
49.948000168599982
20
97.535999999139889
30
0
11
52.548000168599984
21
97.535999999139889
31
0
0
LINE
5
467
100
AcDbEntity
8
0
100
AcDbLine
10
49.948000168599982
20
97.535999999139889
30
0
11
49.948000168599982
21
98.085999999139915
31
0
0
LINE
5
468
100
AcDbEntity
8
0
100
AcDbLine
10
37.000263919259979
20
98.185999999139909
30
0
11
31.000263919259979
21
98.185999999139909
31
0
0
LINE
5
469
100
AcDbEntity
8
0
100
AcDbLine
10
29.548000168599984
20
97.535999999139904
30
0
11
29.548000168599984
21
98.085999999139915
31
0
0
LINE
5
470
100
AcDbEntity
8
0
100
AcDbLine
10
26.948000168599986
20
97.535999999139904
30
0
11
29.548000168599984
21
97.535999999139904
31
0
0
LINE
5
471
100
AcDbEntity
8
0
100
AcDbLine
10
26.948000168599986
20
97.535999999139904
30
0
11
26.948000168599986
21
98.085999999139915
31
0
0
LINE
5
472
100
AcDbEntity
8
0
100
AcDbLine
10
9.5480002458999724
20
97.535999999139904
30
0
11
9.5480002458999724
21
98.085999999139915
31
0
0
LINE
5
473
100
AcDbEntity
8
0
100
AcDbLine
10
6.9480002458999834
20
97.535999999139904
30
0
11
9.5480002458999724
21
97.535999999139904
31
0
0
LINE
5
474
100
AcDbEntity
8
0
100
AcDbLine
10
6.9480002458999834
20
97.535999999139904
30
0
11
6.9480002458999834
21
98.085999999139915
31
0
0
LINE
5
475
100
AcDbEntity
8
0
100
AcDbLine
10
-5.9997361310400255
20
98.185999999139909
30
0
11
-7.7520000000000255
21
98.185999999139909
31
0
0
LINE
5
476
100
AcDbEntity
8
0
100
AcDbLine
10
76.748000000002989
20
106.64099999913989
30
0
11
76.748000000002989
21
104.8859999991399
31
0
0
LINE
5
477
100
AcDbEntity
8
0
100
AcDbLine
10
79.24799999999999
20
106.64099999913989
30
0
11
76.748000000002989
21
106.64099999913989
31
0
0
LINE
5
478
100
AcDbEntity
8
0
100
AcDbLine
10
79.24799999999999
20
104.2109999991399
30
0
11
79.24799999999999
21
106.64099999913989
31
0
0
LINE
5
479
100
AcDbEntity
8
0
100
AcDbLine
10
79.24799999999999
20
104.2109999991399
30
0
11
79.24799999999999
21
103.71099999925291
31
0
0
LINE
5
480
100
AcDbEntity
8
0
100
AcDbLine
10
79.24799999999999
20
98.860999999139892
30
0
11
79.24799999999999
21
97.536000000000044
31
0
0
LINE
5
481
100
AcDbEntity
8
0
100
AcDbLine
10
79.24799999999999
20
99.360999999118903
30
0
11
79.24799999999999
21
98.860999999139892
31
0
0
LINE
5
482
100
AcDbEntity
8
0
100
AcDbLine
10
76.748000000002989
20
97.535999999126915
30
0
11
79.24799999999999
21
97.536000000000044
31
0
0
LINE
5
483
100
AcDbEntity
8
0
100
AcDbLine
10
76.748000000002989
20
98.185999999139909
30
0
11
76.748000000002989
21
97.541154525125364
31
0
0
LINE
5
484
100
AcDbEntity
8
0
100
AcDbLine
10
76.748000000002989
20
97.541130678091562
30
0
11
76.748000000002989
21
97.535999999126915
31
0
0
LINE
5
485
100
AcDbEntity
8
0
100
AcDbLine
10
-17.585264900780018
20
97.540999999139899
30
0
11
-11.252000000000022
21
97.540999999139899
31
0
0
LINE
5
486
100
AcDbEntity
8
0
100
AcDbLine
10
-11.252000000000022
20
97.540999999139899
30
0
11
-7.7520000000000255
21
97.540999999139899
31
0
0
LINE
5
487
100
AcDbEntity
8
0
100
AcDbLine
10
-25.977665650187774
20
94.640999999139908
30
-1.1102230246251565e-15
11
-26.191998368410015
21
94.640999999139908
31
-1.1102230246251565e-15
0
LINE
5
488
100
AcDbEntity
8
0
100
AcDbLine
10
-23.468951509071374
20
94.640999999139908
30
-1.1102230246251565e-15
11
-25.977665650187774
21
94.640999999139908
31
-1.1102230246251565e-15
0
LINE
5
489
100
AcDbEntity
8
0
100
AcDbLine
10
-23.298256179040031
20
94.640999999139908
30
-1.1102230246251565e-15
11
-23.468951509071374
21
94.640999999139908
31
-1.1102230246251565e-15
0
LINE
5
490
100
AcDbEntity
8
0
100
AcDbLine
10
-22.798261423050022
20
94.640999999139908
30
-1.1102230246251565e-15
11
-23.298256179040031
21
94.640999999139908
31
-1.1102230246251565e-15
0
LINE
5
491
100
AcDbEntity
8
0
100
AcDbLine
10
-17.88526490056001
20
94.640999999139908
30
-1.1102230246251565e-15
11
-22.798261423050022
21
94.640999999139908
31
-1.1102230246251565e-15
0
LINE
5
492
100
AcDbEntity
8
0
100
AcDbLine
10
-17.585264900780015
20
94.640999999139908
30
-1.1102230246251565e-15
11
-17.88526490056001
21
94.640999999139908
31
-1.1102230246251565e-15
0
LINE
5
493
100
AcDbEntity
8
0
100
AcDbLine
10
-25.042000000000016
20
102.84185620691021
30
0
11
-25.042000000000016
21
100.28599999913992
31
0
0
LINE
5
494
100
AcDbEntity
8
0
100
AcDbLine
10
-11.252000000000022
20
106.6409999886709
30
0
11
-17.585264900780015
21
106.64099999493948
31
0
0
LINE
5
495
100
AcDbEntity
8
0
100
AcDbLine
10
-17.885264900780015
20
108.4309999991399
30
-1.1102230246251565e-15
11
-17.585264900780015
21
108.4309999991399
31
-1.1102230246251565e-15
0
LINE
5
496
100
AcDbEntity
8
0
100
AcDbLine
10
-22.798256179040031
20
108.4309999991399
30
-1.1102230246251565e-15
11
-17.885264900780015
21
108.4309999991399
31
-1.1102230246251565e-15
0
LINE
5
497
100
AcDbEntity
8
0
100
AcDbLine
10
-23.298256179040035
20
108.4309999991399
30
-1.1102230246251565e-15
11
-22.798256179040031
21
108.4309999991399
31
-1.1102230246251565e-15
0
LINE
5
498
100
AcDbEntity
8
0
100
AcDbLine
10
-23.468951509170573
20
108.4309999991399
30
-1.1102230246251565e-15
11
-23.298256179040035
21
108.4309999991399
31
-1.1102230246251565e-15
0
LINE
5
499
100
AcDbEntity
8
0
100
AcDbLine
10
-25.977665650230016
20
108.4309999991399
30
-1.1102230246251565e-15
11
-23.468951509170573
21
108.4309999991399
31
-1.1102230246251565e-15
0
LINE
5
500
100
AcDbEntity
8
0
100
AcDbLine
10
-26.191998368410015
20
108.4309999991399
30
-1.1102230246251565e-15
11
-25.977665650230016
21
108.4309999991399
31
-1.1102230246251565e-15
0
LINE
5
501
100
AcDbEntity
8
0
100
AcDbLine
10
-26.191998368410026
20
100.28599999913992
30
-1.1102230246251565e-15
11
-26.191998368410015
21
94.640999999139908
31
-1.1102230246251565e-15
0
LINE
5
502
100
AcDbEntity
8
0
100
AcDbLine
10
-26.191998368410026
20
100.28599999913992
30
-1.1102230246251565e-15
11
-25.977665650220803
21
100.28599999913992
31
-1.1102230246251565e-15
0
LINE
5
503
100
AcDbEntity
8
0
100
AcDbLine
10
-25.977665650220803
20
100.28599999913992
30
-1.1102230246251565e-15
11
-25.042000000000016
21
100.28599999913992
31
0
0
LINE
5
504
100
AcDbEntity
8
0
100
AcDbLine
10
-25.97766565022998
20
102.84185620691021
30
-1.1102230246251565e-15
11
-26.191998368410019
21
102.84185620691021
31
-1.1102230246251565e-15
0
LINE
5
505
100
AcDbEntity
8
0
100
AcDbLine
10
-25.042000000000016
20
102.84185620691021
30
0
11
-25.97766565022998
21
102.84185620691021
31
-1.1102230246251565e-15
0
LINE
5
506
100
AcDbEntity
8
0
100
AcDbLine
10
-26.191998368410015
20
108.4309999991399
30
-1.1102230246251565e-15
11
-26.191998368410019
21
102.84185620691021
31
-1.1102230246251565e-15
0
LINE
5
507
100
AcDbEntity
8
0
100
AcDbLine
10
-11.252000000000022
20
106.64099988809291
30
0
11
-7.7520000000001277
21
106.64099922087702
31
0
0
LINE
5
508
100
AcDbEntity
8
0
100
AcDbLine
10
-7.7520000000000255
20
104.8859999991399
30
0
11
-7.7520000000000255
21
106.64098592991024
31
0
0
LINE
5
509
100
AcDbEntity
8
0
100
AcDbLine
10
-7.7520000000000255
20
97.540999999139899
30
0
11
-7.7520000000000255
21
98.185999999139909
31
0
0
LINE
5
510
100
AcDbEntity
8
0
100
AcDbLine
10
37.000263919259979
20
98.185999999139909
30
0
11
37.000263919259993
21
98.135999999139898
31
0
0
LINE
5
511
100
AcDbEntity
8
0
100
AcDbLine
10
74.000263969554979
20
98.135999999139898
30
0
11
74.000263969554979
21
98.185999999139909
31
0
0
LINE
5
512
100
AcDbEntity
8
0
100
AcDbLine
10
73.950263969554982
20
98.085999999139915
30
0
11
73.500263969554979
21
98.085999999139915
31
0
0
ARC
5
513
100
AcDbEntity
8
0
100
AcDbCircle
10
73.950263969554982
20
98.135999999139898
30
0
40
0.049999999999990052
100
AcDbArc
50
-90
51
0
0
LINE
5
514
100
AcDbEntity
8
0
100
AcDbLine
10
37.500263919259986
20
98.085999999139915
30
0
11
37.050263919260082
21
98.085999999139915
31
0
0
LINE
5
515
100
AcDbEntity
8
0
100
AcDbLine
10
37.500263919259986
20
98.085999999139915
30
0
11
49.948000168599982
21
98.085999999139915
31
0
0
LINE
5
516
100
AcDbEntity
8
0
100
AcDbLine
10
52.548000168599984
20
98.085999999139915
30
0
11
69.948000296194991
21
98.085999999139915
31
0
0
LINE
5
517
100
AcDbEntity
8
0
100
AcDbLine
10
72.548000296194985
20
98.085999999139915
30
0
11
73.500263969554979
21
98.085999999139915
31
0
0
ARC
5
518
100
AcDbEntity
8
0
100
AcDbCircle
10
37.050263919259983
20
98.135999999139898
30
0
40
0.049999999999985612
100
AcDbArc
50
180
51
270.00000000011397
0
LINE
5
519
100
AcDbEntity
8
0
100
AcDbLine
10
31.000263919259979
20
98.135999999139898
30
0
11
31.000263919259979
21
98.185999999139909
31
0
0
LINE
5
520
100
AcDbEntity
8
0
100
AcDbLine
10
-5.9997361310400255
20
98.185999999139909
30
0
11
-5.9997361310400255
21
98.135999999139898
31
0
0
ARC
5
521
100
AcDbEntity
8
0
100
AcDbCircle
10
30.950263919259982
20
98.135999999139898
30
0
40
0.050000000000007816
100
AcDbArc
50
-90
51
0
0
LINE
5
522
100
AcDbEntity
8
0
100
AcDbLine
10
-5.4997361310400272
20
98.085999999139915
30
0
11
-5.9497361310400274
21
98.085999999139915
31
0
0
LINE
5
523
100
AcDbEntity
8
0
100
AcDbLine
10
-5.4997361310400272
20
98.085999999139915
30
0
11
6.9480002458999834
21
98.085999999139915
31
0
0
LINE
5
524
100
AcDbEntity
8
0
100
AcDbLine
10
9.5480002458999724
20
98.085999999139915
30
0
11
26.948000168599986
21
98.085999999139915
31
0
0
LINE
5
525
100
AcDbEntity
8
0
100
AcDbLine
10
29.548000168599984
20
98.085999999139915
30
0
11
30.500263919259979
21
98.085999999139915
31
0
0
LINE
5
526
100
AcDbEntity
8
0
100
AcDbLine
10
30.950263919259982
20
98.085999999139887
30
0
11
30.500263919259979
21
98.085999999139915
31
0
0
ARC
5
527
100
AcDbEntity
8
0
100
AcDbCircle
10
-5.9497361310400176
20
98.135999999139898
30
0
40
0.050000000000007816
100
AcDbArc
50
180
51
269.9999999999888
0
LINE
5
528
100
AcDbEntity
8
0
100
AcDbLine
10
31.000263919259979
20
104.8859999991399
30
0
11
31.000263919259979
21
104.93599999913991
31
0
0
LINE
5
529
100
AcDbEntity
8
0
100
AcDbLine
10
-5.9997361310400255
20
104.93599999913991
30
0
11
-5.9997361310400255
21
104.8859999991399
31
0
0
ARC
5
530
100
AcDbEntity
8
0
100
AcDbCircle
10
30.950263919259982
20
104.9359999991399
30
0
40
0.049999999999998934
100
AcDbArc
50
0
51
90
0
LINE
5
531
100
AcDbEntity
8
0
100
AcDbLine
10
30.500263919259979
20
104.98599999913991
30
0
11
30.950263919259982
21
104.98599999913991
31
0
0
LINE
5
532
100
AcDbEntity
8
0
100
AcDbLine
10
30.500263919259979
20
104.98599999913991
30
0
11
29.548000168599984
21
104.98599999913991
31
0
0
LINE
5
533
100
AcDbEntity
8
0
100
AcDbLine
10
26.948000168599986
20
104.98599999913992
30
0
11
9.5480002458999724
21
104.98599999913991
31
0
0
LINE
5
534
100
AcDbEntity
8
0
100
AcDbLine
10
6.9480002458999834
20
104.98599999913991
30
0
11
-5.4997361310400272
21
104.98599999913991
31
0
0
LINE
5
535
100
AcDbEntity
8
0
100
AcDbLine
10
-5.9497361310400274
20
104.98599999913991
30
0
11
-5.4997361310400272
21
104.98599999913991
31
0
0
ARC
5
536
100
AcDbEntity
8
0
100
AcDbCircle
10
-5.9497361310400176
20
104.93599999913991
30
0
40
0.049999999999990052
100
AcDbArc
50
90.000000000011198
51
180
0
LINE
5
537
100
AcDbEntity
8
0
100
AcDbLine
10
37.000263919259979
20
104.9359999991399
30
0
11
37.000263919259979
21
104.8859999991399
31
0
0
LINE
5
538
100
AcDbEntity
8
0
100
AcDbLine
10
74.000263969554979
20
104.8859999991399
30
0
11
74.000263969554979
21
104.93599999913991
31
0
0
LINE
5
539
100
AcDbEntity
8
0
100
AcDbLine
10
73.500263969554979
20
104.98599999913991
30
0
11
72.548000296194985
21
104.98599999913991
31
0
0
LINE
5
540
100
AcDbEntity
8
0
100
AcDbLine
10
69.948000296194991
20
104.98599999913992
30
0
11
52.548000168599984
21
104.98599999913992
31
0
0
LINE
5
541
100
AcDbEntity
8
0
100
AcDbLine
10
49.948000168599982
20
104.98599999913992
30
0
11
37.500263919259986
21
104.98599999913991
31
0
0
LINE
5
542
100
AcDbEntity
8
0
100
AcDbLine
10
73.500263969554979
20
104.98599999913991
30
0
11
73.950263969554982
21
104.98599999913991
31
0
0
LINE
5
543
100
AcDbEntity
8
0
100
AcDbLine
10
37.050263919260082
20
104.98599999913991
30
0
11
37.500263919259986
21
104.98599999913991
31
0
0
ARC
5
544
100
AcDbEntity
8
0
100
AcDbCircle
10
73.950263969554982
20
104.9359999991399
30
0
40
0.049999999999990052
100
AcDbArc
50
0
51
90
0
ARC
5
545
100
AcDbEntity
8
0
100
AcDbCircle
10
37.050263919259983
20
104.9359999991399
30
0
40
0.050000000000007816
100
AcDbArc
50
89.999999999886015
51
180
0
LINE
5
546
100
AcDbEntity
8
0
100
AcDbLine
10
75.126974144026988
20
104.8859999991399
30
0
11
75.126974144026974
21
104.8863086586649
31
0
0
LINE
5
547
100
AcDbEntity
8
0
100
AcDbLine
10
75.369025855978975
20
104.8859999991399
30
0
11
75.36902585597899
21
104.8863086586649
31
0
0
LINE
5
548
100
AcDbEntity
8
0
100
AcDbLine
10
75.36902585597899
20
104.8863086586649
30
0
11
75.126974144026974
21
104.8863086586649
31
0
0
LINE
5
549
100
AcDbEntity
8
0
100
AcDbLine
10
-6.8730258559700186
20
104.8859999991399
30
0
11
-6.8730258559700186
21
104.88630866023991
31
0
0
LINE
5
550
100
AcDbEntity
8
0
100
AcDbLine
10
-6.8730258559700186
20
104.88630866023991
30
0
11
-6.6309741440200209
21
104.88630866023991
31
0
0
LINE
5
551
100
AcDbEntity
8
0
100
AcDbLine
10
-6.6309741440200209
20
104.8859999991399
30
0
11
-6.6309741440200209
21
104.88630866023991
31
0
0
LINE
5
552
100
AcDbEntity
8
0
100
AcDbLine
10
-17.585264900780015
20
94.640999999139908
30
-1.1102230246251565e-15
11
-17.585264900780018
21
97.540999999139899
31
0
0
LINE
5
553
100
AcDbEntity
8
0
100
AcDbLine
10
-17.585264900780015
20
106.64099999493948
30
0
11
-17.585264900780015
21
108.4309999991399
31
-1.1102230246251565e-15
0
LWPOLYLINE
5
554
100
AcDbEntity
8
0
100
AcDbPolyline
90
4
70
1
43
0.0
10
63.848000000003978
20
102.46099999913991
10
63.848000000003978
20
100.61099999913991
10
-7.8020000000000245
20
100.61099999913991
10
-7.8020000000000245
20
102.46099999913991
0
LWPOLYLINE
5
555
100
AcDbEntity
8
0
100
AcDbPolyline
90
4
70
1
43
0.0
10
63.848000000003978
20
82.140999999139893
10
63.848000000003978
20
80.290999999139885
10
-7.8020000000000245
20
80.290999999139885
10
-7.8020000000000245
20
82.140999999139893
0
LWPOLYLINE
5
556
100
AcDbEntity
8
0
100
AcDbPolyline
90
4
70
1
43
0.0
10
63.848000000003992
20
61.8209999991399
10
63.848000000003992
20
59.970999999139892
10
-7.8020000000000156
20
59.970999999139892
10
-7.8020000000000156
20
61.820999999139886
0
LWPOLYLINE
5
557
100
AcDbEntity
8
0
100
AcDbPolyline
90
4
70
1
43
0.0
10
63.848000000003992
20
41.500999999139871
10
63.848000000003992
20
39.65099999913987
10
-7.8020000000000156
20
39.650999999139877
10
-7.8020000000000156
20
41.500999999139871
0
LWPOLYLINE
5
558
100
AcDbEntity
8
0
100
AcDbPolyline
90
4
70
1
43
0.0
10
65.648000000002995
20
41.500999999139871
10
77.297999999999988
20
41.500999999139871
10
77.297999999999988
20
39.65099999913987
10
65.648000000002995
20
39.65099999913987
0
LWPOLYLINE
5
559
100
AcDbEntity
8
0
100
AcDbPolyline
90
4
70
1
43
0.0
10
65.648000000002995
20
61.820999999139886
10
77.297999999999988
20
61.820999999139886
10
77.297999999999988
20
59.970999999139892
10
65.648000000002995
20
59.970999999139885
0
LWPOLYLINE
5
560
100
AcDbEntity
8
0
100
AcDbPolyline
90
4
70
1
43
0.0
10
65.64800000000298
20
82.140999999139893
10
77.297999999999988
20
82.140999999139893
10
77.297999999999988
20
80.290999999139885
10
65.64800000000298
20
80.290999999139885
0
LWPOLYLINE
5
561
100
AcDbEntity
8
0
100
AcDbPolyline
90
4
70
1
43
0.0
10
65.64800000000298
20
102.46099999913991
10
77.297999999999988
20
102.46099999913991
10
77.297999999999988
20
100.61099999913991
10
65.64800000000298
20
100.61099999913991
0
LWPOLYLINE
5
562
100
AcDbEntity
8
0
100
AcDbPolyline
90
17
70
1
43
0.0
10
-18.062384855700017
20
94.640999999139893
10
-18.062384855720019
20
108.4309999991399
10
-17.62545727575003
20
108.4309999991399
10
-17.625457275720031
20
105.5109999991399
10
-13.751427772990015
20
105.5109999991399
10
-13.751427773000016
20
104.3809999991399
10
-16.168437976740016
20
104.3809999991399
10
-16.168437976740016
20
103.0359999991399
10
-13.751427772980032
20
103.0359999991399
10
-13.751427772980032
20
100.28599999913992
10
-13.751427773000016
20
100.0359999991399
10
-16.168437976740016
20
100.0359999991399
10
-16.168437976740016
20
98.690999999139905
10
-13.751427773010017
20
98.690999999139905
10
-13.751427773030018
20
97.560999999139909
10
-17.62545727575003
20
97.560999999139909
10
-17.625457275720031
20
94.640999999139908
0
LWPOLYLINE
5
563
100
AcDbEntity
8
0
100
AcDbPolyline
90
17
70
1
43
0.0
10
-18.062384855700017
20
74.320999999139872
10
-18.062384855720019
20
88.110999999139892
10
-17.62545727575003
20
88.110999999139892
10
-17.625457275720031
20
85.190999999139891
10
-13.751427772990015
20
85.190999999139891
10
-13.751427773000016
20
84.060999999139895
10
-16.168437976740016
20
84.060999999139881
10
-16.168437976740016
20
82.715999999139882
10
-13.751427772980032
20
82.715999999139882
10
-13.751427772980032
20
79.965999999139882
10
-13.751427773000016
20
79.715999999139882
10
-16.168437976740016
20
79.715999999139882
10
-16.168437976740016
20
78.370999999139883
10
-13.751427773010017
20
78.370999999139883
10
-13.751427773030018
20
77.240999999139873
10
-17.62545727575003
20
77.240999999139888
10
-17.625457275720031
20
74.320999999139886
0
LWPOLYLINE
5
564
100
AcDbEntity
8
0
100
AcDbPolyline
90
17
70
1
43
0.0
10
-18.062384855700007
20
54.000999999139893
10
-18.062384855720008
20
67.790999999139899
10
-17.625457275750023
20
67.790999999139899
10
-17.62545727572002
20
64.870999999139897
10
-13.751427772990006
20
64.870999999139912
10
-13.751427773000007
20
63.740999999139902
10
-16.168437976740009
20
63.740999999139902
10
-16.168437976740009
20
62.395999999139903
10
-13.751427772980023
20
62.395999999139903
10
-13.751427772980023
20
59.645999999139896
10
-13.751427773000007
20
59.395999999139889
10
-16.168437976740009
20
59.395999999139889
10
-16.168437976740009
20
58.05099999913989
10
-13.751427773010008
20
58.05099999913989
10
-13.751427773030009
20
56.920999999139887
10
-17.625457275750023
20
56.920999999139887
10
-17.62545727572002
20
54.000999999139893
0
LWPOLYLINE
5
565
100
AcDbEntity
8
0
100
AcDbPolyline
90
17
70
1
43
0.0
10
-18.062384855700007
20
33.680999999139878
10
-18.062384855720008
20
47.470999999139885
10
-17.625457275750023
20
47.470999999139877
10
-17.62545727572002
20
44.550999999139876
10
-13.751427772990006
20
44.55099999913989
10
-13.751427773000007
20
43.42099999913988
10
-16.168437976740009
20
43.42099999913988
10
-16.168437976740009
20
42.075999999139881
10
-13.751427772980023
20
42.075999999139881
10
-13.751427772980023
20
39.325999999139874
10
-13.751427773000007
20
39.075999999139874
10
-16.168437976740009
20
39.075999999139874
10
-16.168437976740009
20
37.730999999139875
10
-13.751427773010008
20
37.730999999139875
10
-13.751427773030009
20
36.600999999139873
10
-17.625457275750023
20
36.600999999139873
10
-17.62545727572002
20
33.680999999139871
0
LWPOLYLINE
5
566
100
AcDbEntity
8
0
100
AcDbPolyline
90
4
70
1
43
0.0
10
-9.7519999999700158
20
39.075999999139874
10
-14.75200000000001
20
39.075999999139874
10
-14.75200000000001
20
42.075999999139881
10
-9.7520000000000184
20
42.075999999139881
0
LWPOLYLINE
5
567
100
AcDbEntity
8
0
100
AcDbPolyline
90
4
70
1
43
0.0
10
-9.7519999999700158
20
59.395999999139889
10
-14.75200000000001
20
59.395999999139889
10
-14.75200000000001
20
62.395999999139903
10
-9.7520000000000184
20
62.395999999139903
0
LWPOLYLINE
5
568
100
AcDbEntity
8
0
100
AcDbPolyline
90
4
70
1
43
0.0
10
-9.7519999999700246
20
79.715999999139882
10
-14.752000000000018
20
79.715999999139882
10
-14.752000000000018
20
82.715999999139882
10
-9.7520000000000273
20
82.715999999139882
0
LWPOLYLINE
5
569
100
AcDbEntity
8
0
100
AcDbPolyline
90
4
70
1
43
0.0
10
-9.7519999999700246
20
100.0359999991399
10
-14.752000000000018
20
100.0359999991399
10
-14.752000000000018
20
103.0359999991399
10
-9.7520000000000273
20
103.03599999913992
0
LWPOLYLINE
5
570
100
AcDbEntity
8
0
100
AcDbPolyline
90
22
70
1
43
0.0
10
-7.7520000000000255
20
104.4859999991349
10
76.89800025679898
20
104.4859999991379
42
0.41421356244045865
10
77.098000256874982
20
104.68599999910991
10
77.09800025686998
20
104.93599999923589
42
-0.41421356223255362
10
77.298000256869983
20
105.13599999913991
10
79.24799999999999
20
105.13599999913991
10
79.24799999999999
20
101.6359999991397
10
77.897999999999982
20
101.6359999991397
10
77.897999999999882
20
102.8109999330516
42
0.41421356237583523
10
77.74799999999999
20
102.9609999330529
10
-8.2519993652100254
20
102.96099993305299
42
0.41421356237600859
10
-8.4019993652100222
20
102.81099993305141
10
-8.4019993652100222
20
101.6359999991397
10
-9.8520032514300215
20
101.6359999991397
10
-9.8520032514300215
20
102.53599997198242
42
0.99999999999999989
10
-9.8520032514300215
20
102.93599997198241
10
-9.8520032514299984
20
104.93599999913791
42
-0.41421356237601514
10
-9.6520032514300169
20
105.13599999913991
10
-8.3019997431300308
20
105.1359999991399
42
-0.41421356244630048
10
-8.1019997431300261
20
104.93599999908992
10
-8.1019997431199204
20
104.68599999934291
42
0.41421356263525255
10
-7.9019997431500144
20
104.48599999913391
0
LINE
5
571
100
AcDbEntity
8
0
100
AcDbLine
10
77.74799999999999
20
100.11100001091191
30
-1.1102230246251565e-15
11
-8.2519993652200085
21
100.11100001091191
31
-1.1102230246251565e-15
0
ARC
5
572
100
AcDbEntity
8
0
100
AcDbCircle
10
-8.2519993652100254
20
100.26100001091089
30
-1.1102230246251565e-15
40
0.15000000000000013
100
AcDbArc
50
180
51
269.99999999618666
0
LINE
5
573
100
AcDbEntity
8
0
100
AcDbLine
10
-8.4019993652100258
20
100.26100001091189
30
-1.1102230246251565e-15
11
-8.4019993652100222
21
101.43599999913971
31
-1.1102230246251565e-15
0
LINE
5
574
100
AcDbEntity
8
0
100
AcDbLine
10
-8.4019993652100222
20
101.43599999913971
30
-1.1102230246251565e-15
11
-9.8520032514300215
21
101.43599999913971
31
-1.1102230246251565e-15
0
LINE
5
575
100
AcDbEntity
8
0
100
AcDbLine
10
-9.8520032514300215
20
101.43599999913971
30
-1.1102230246251565e-15
11
-9.8520032514300215
21
100.5359999719829
31
-1.1102230246251565e-15
0
ARC
5
576
100
AcDbEntity
8
0
100
AcDbCircle
10
-9.8520032514300215
20
100.33599997198291
30
-1.1102230246251565e-15
40
0.19999999999999574
100
AcDbArc
50
-89.99999999713495
51
90
0
LINE
5
577
100
AcDbEntity
8
0
100
AcDbLine
10
-9.8520032514200206
20
100.13599997198291
30
-1.1102230246251565e-15
11
-9.8520032512237776
21
97.93600977195014
31
-1.1102230246251565e-15
0
ARC
5
578
100
AcDbEntity
8
0
100
AcDbCircle
10
-9.652003251430024
20
97.935999999139909
30
-1.1102230246251565e-15
40
0.20000000003252361
100
AcDbArc
50
179.9972002961693
51
270.00000000000205
0
LINE
5
579
100
AcDbEntity
8
0
100
AcDbLine
10
-9.6520032514300169
20
97.735999999139906
30
-1.1102230246251565e-15
11
-8.3019997431300308
21
97.735999999139906
31
-1.1102230246251565e-15
0
ARC
5
580
100
AcDbEntity
8
0
100
AcDbCircle
10
-8.3019997431300556
20
97.935999999139909
30
-1.1102230246251565e-15
40
0.19999999999999574
100
AcDbArc
50
-89.99999999999288
51
0.00028445913444363817
0
LINE
5
581
100
AcDbEntity
8
0
100
AcDbLine
10
-8.1019997431325077
20
97.936000992092914
30
-1.1102230246251565e-15
11
-8.1019997431300261
21
98.3859999991449
31
-1.1102230246251565e-15
0
ARC
5
582
100
AcDbEntity
8
0
100
AcDbCircle
10
-7.9019997431300215
20
98.3859999991449
30
-1.1102230246251565e-15
40
0.19999999999999574
100
AcDbArc
50
90.000000037243026
51
180
0
LINE
5
583
100
AcDbEntity
8
0
100
AcDbLine
10
-7.9019997432600242
20
98.585999999144889
30
-1.1102230246251565e-15
11
-7.7520000000000255
21
98.585999999139901
31
-1.1102230246251565e-15
0
LINE
5
584
100
AcDbEntity
8
0
100
AcDbLine
10
-7.7520000000000255
20
98.585999999139901
30
-1.1102230246251565e-15
11
76.898000256874994
21
98.585999999139901
31
-1.1102230246251565e-15
0
ARC
5
585
100
AcDbEntity
8
0
100
AcDbCircle
10
76.89800025687498
20
98.385999999139898
30
-1.1102230246251565e-15
40
0.20000000000010235
100
AcDbArc
50
-1.2074182490616497e-06
51
89.999999999995936
0
LINE
5
586
100
AcDbEntity
8
0
100
AcDbLine
10
77.098000256875082
20
98.385999995173449
30
-1.1102230246251565e-15
11
77.098000257116979
21
97.736019148799897
31
-1.1102230246251565e-15
0
ARC
5
587
100
AcDbEntity
8
0
100
AcDbCircle
10
77.298000256869983
20
97.735999999139892
30
-1.1102230246251565e-15
40
0.20000000066977591
100
AcDbArc
50
179.99451402656052
51
269.39914045305898
0
LINE
5
588
100
AcDbEntity
8
0
100
AcDbLine
10
77.295902952366006
20
97.535999999126886
30
-1.1102230246251565e-15
11
79.24799999999999
21
97.535999999519305
31
-1.1102230246251565e-15
0
LINE
5
589
100
AcDbEntity
8
0
100
AcDbLine
10
79.24799999999999
20
97.535999999519305
30
-1.1102230246251565e-15
11
79.24799999999999
21
101.43599999913971
31
-1.1102230246251565e-15
0
LINE
5
590
100
AcDbEntity
8
0
100
AcDbLine
10
79.24799999999999
20
101.43599999913971
30
-1.1102230246251565e-15
11
77.897999999999982
21
101.43599999913971
31
-1.1102230246251565e-15
0
LINE
5
591
100
AcDbEntity
8
0
100
AcDbLine
10
77.897999999999982
20
101.43599999913971
30
-1.1102230246251565e-15
11
77.897999999999982
21
100.26100001091191
31
-1.1102230246251565e-15
0
ARC
5
592
100
AcDbEntity
8
0
100
AcDbCircle
10
77.74799999999999
20
100.26100001091189
30
-1.1102230246251565e-15
40
0.14999999999998792
100
AcDbArc
50
-90
51
0
0
LWPOLYLINE
5
593
100
AcDbEntity
8
0
100
AcDbPolyline
90
22
70
1
43
0.0
10
-7.7520000000000255
20
84.165999999134883
10
76.89800025679898
20
84.165999999137881
42
0.41421356244045865
10
77.098000256874982
20
84.365999999109889
10
77.098000256869994
20
84.615999999235868
42
-0.41421356223254063
10
77.298000256869983
20
84.815999999139891
10
79.24799999999999
20
84.815999999139891
10
79.24799999999999
20
81.315999999139677
10
77.897999999999982
20
81.315999999139677
10
77.897999999999882
20
82.490999933051583
42
0.41421356237583523
10
77.74799999999999
20
82.640999933052882
10
-8.2519993652100254
20
82.640999933052967
42
0.41421356237600859
10
-8.4019993652100222
20
82.490999933051384
10
-8.4019993652100222
20
81.315999999139677
10
-9.8520032514300215
20
81.315999999139677
10
-9.8520032514300215
20
82.215999971982399
42
0.99999999999999989
10
-9.8520032514300215
20
82.61599997198239
10
-9.8520032514299984
20
84.615999999137884
42
-0.41421356237601514
10
-9.6520032514300169
20
84.815999999139891
10
-8.3019997431300308
20
84.815999999139905
42
-0.41421356244636548
10
-8.1019997431300261
20
84.615999999089894
10
-8.1019997431199204
20
84.36599999934289
42
0.41421356263525255
10
-7.9019997431500144
20
84.165999999133888
0
LINE
5
594
100
AcDbEntity
8
0
100
AcDbLine
10
77.74799999999999
20
79.791000010911887
30
-1.1102230246251565e-15
11
-8.2519993652200085
21
79.791000010911887
31
-1.1102230246251565e-15
0
ARC
5
595
100
AcDbEntity
8
0
100
AcDbCircle
10
-8.2519993652100254
20
79.941000010910884
30
-1.1102230246251565e-15
40
0.15000000000000013
100
AcDbArc
50
180
51
269.99999999618666
0
LINE
5
596
100
AcDbEntity
8
0
100
AcDbLine
10
-8.4019993652100258
20
79.941000010911893
30
-1.1102230246251565e-15
11
-8.4019993652100222
21
81.115999999139689
31
-1.1102230246251565e-15
0
LINE
5
597
100
AcDbEntity
8
0
100
AcDbLine
10
-8.4019993652100222
20
81.115999999139689
30
-1.1102230246251565e-15
11
-9.8520032514300215
21
81.115999999139689
31
-1.1102230246251565e-15
0
LINE
5
598
100
AcDbEntity
8
0
100
AcDbLine
10
-9.8520032514300215
20
81.115999999139689
30
-1.1102230246251565e-15
11
-9.8520032514300215
21
80.215999971982882
31
-1.1102230246251565e-15
0
ARC
5
599
100
AcDbEntity
8
0
100
AcDbCircle
10
-9.8520032514300215
20
80.015999971982893
30
-1.1102230246251565e-15
40
0.19999999999999574
100
AcDbArc
50
-89.99999999713495
51
90
0
LINE
5
600
100
AcDbEntity
8
0
100
AcDbLine
10
-9.8520032514200206
20
79.81599997198289
30
-1.1102230246251565e-15
11
-9.8520032512237776
21
77.616009771950132
31
-1.1102230246251565e-15
0
ARC
5
601
100
AcDbEntity
8
0
100
AcDbCircle
10
-9.6520032514300187
20
77.615999999139888
30
-1.1102230246251565e-15
40
0.20000000003252805
100
AcDbArc
50
179.9972002961693
51
270.00000000000051
0
LINE
5
602
100
AcDbEntity
8
0
100
AcDbLine
10
-9.6520032514300169
20
77.415999999139885
30
-1.1102230246251565e-15
11
-8.3019997431300308
21
77.415999999139885
31
-1.1102230246251565e-15
0
ARC
5
603
100
AcDbEntity
8
0
100
AcDbCircle
10
-8.3019997431300201
20
77.615999999139888
30
-1.1102230246251565e-15
40
0.20000000000000462
100
AcDbArc
50
-90.000000000003055
51
0.00028445913444363817
0
LINE
5
604
100
AcDbEntity
8
0
100
AcDbLine
10
-8.1019997431324882
20
77.616000992092879
30
-1.1102230246251565e-15
11
-8.1019997431300261
21
78.065999999144879
31
-1.1102230246251565e-15
0
ARC
5
605
100
AcDbEntity
8
0
100
AcDbCircle
10
-7.9019997431300215
20
78.065999999144879
30
-1.1102230246251565e-15
40
0.20000000000000462
100
AcDbArc
50
90.000000037243026
51
180
0
LINE
5
606
100
AcDbEntity
8
0
100
AcDbLine
10
-7.9019997432600242
20
78.265999999144896
30
-1.1102230246251565e-15
11
-7.7520000000000255
21
78.265999999139893
31
-1.1102230246251565e-15
0
LINE
5
607
100
AcDbEntity
8
0
100
AcDbLine
10
-7.7520000000000255
20
78.265999999139893
30
-1.1102230246251565e-15
11
76.898000256874994
21
78.265999999139865
31
-1.1102230246251565e-15
0
ARC
5
608
100
AcDbEntity
8
0
100
AcDbCircle
10
76.89800025687498
20
78.065999999139876
30
-1.1102230246251565e-15
40
0.20000000000010235
100
AcDbArc
50
-1.2074182490616497e-06
51
89.999999999995936
0
LINE
5
609
100
AcDbEntity
8
0
100
AcDbLine
10
77.098000256875082
20
78.065999995173428
30
-1.1102230246251565e-15
11
77.098000257116979
21
77.416019148799876
31
-1.1102230246251565e-15
0
ARC
5
610
100
AcDbEntity
8
0
100
AcDbCircle
10
77.298000256869983
20
77.415999999139871
30
-1.1102230246251565e-15
40
0.20000000066977591
100
AcDbArc
50
179.99451402656052
51
269.39914045305892
0
LINE
5
611
100
AcDbEntity
8
0
100
AcDbLine
10
77.295902952366006
20
77.215999999126879
30
-1.1102230246251565e-15
11
79.24799999999999
21
77.215999999519283
31
-1.1102230246251565e-15
0
LINE
5
612
100
AcDbEntity
8
0
100
AcDbLine
10
79.24799999999999
20
77.215999999519283
30
-1.1102230246251565e-15
11
79.24799999999999
21
81.115999999139689
31
-1.1102230246251565e-15
0
LINE
5
613
100
AcDbEntity
8
0
100
AcDbLine
10
79.24799999999999
20
81.115999999139689
30
-1.1102230246251565e-15
11
77.897999999999982
21
81.115999999139689
31
-1.1102230246251565e-15
0
LINE
5
614
100
AcDbEntity
8
0
100
AcDbLine
10
77.897999999999982
20
81.115999999139689
30
-1.1102230246251565e-15
11
77.897999999999982
21
79.941000010911878
31
-1.1102230246251565e-15
0
ARC
5
615
100
AcDbEntity
8
0
100
AcDbCircle
10
77.74799999999999
20
79.941000010911878
30
-1.1102230246251565e-15
40
0.1499999999999968
100
AcDbArc
50
-90
51
0
0
LWPOLYLINE
5
616
100
AcDbEntity
8
0
100
AcDbPolyline
90
22
70
1
43
0.0
10
-7.7520000000000167
20
63.845999999134897
10
76.898000256798994
20
63.845999999137888
42
0.41421356244045865
10
77.098000256874982
20
64.045999999109881
10
77.098000256869994
20
64.295999999235903
42
-0.4142135622325146
10
77.298000256869997
20
64.495999999139883
10
79.24799999999999
20
64.495999999139883
10
79.24799999999999
20
60.995999999139691
10
77.897999999999996
20
60.995999999139691
10
77.897999999999882
20
62.170999933051583
42
0.41421356237581786
10
77.748000000000005
20
62.320999933052889
10
-8.2519993652100165
20
62.320999933053002
42
0.41421356237602597
10
-8.4019993652100133
20
62.170999933051398
10
-8.4019993652100133
20
60.995999999139698
10
-9.8520032514300127
20
60.995999999139698
10
-9.8520032514300127
20
61.895999971982398
42
0.99999999999999989
10
-9.8520032514300127
20
62.295999971982397
10
-9.8520032514300144
20
64.295999999137891
42
-0.41421356237602325
10
-9.652003251430008
20
64.495999999139897
10
-8.3019997431300219
20
64.495999999139897
42
-0.41421356244632807
10
-8.1019997431300173
20
64.295999999089887
10
-8.1019997431199116
20
64.045999999342897
42
0.41421356263523956
10
-7.9019997431500055
20
63.845999999133895
0
LINE
5
617
100
AcDbEntity
8
0
100
AcDbLine
10
77.74799999999999
20
59.471000010911894
30
-1.1102230246251565e-15
11
-8.2519993652200085
21
59.471000010911901
31
-1.1102230246251565e-15
0
ARC
5
618
100
AcDbEntity
8
0
100
AcDbCircle
10
-8.2519993652100165
20
59.62100001091089
30
-1.1102230246251565e-15
40
0.15000000000000013
100
AcDbArc
50
180
51
269.99999999618336
0
LINE
5
619
100
AcDbEntity
8
0
100
AcDbLine
10
-8.4019993652100169
20
59.621000010911899
30
-1.1102230246251565e-15
11
-8.4019993652100133
21
60.795999999139703
31
-1.1102230246251565e-15
0
LINE
5
620
100
AcDbEntity
8
0
100
AcDbLine
10
-8.4019993652100133
20
60.795999999139703
30
-1.1102230246251565e-15
11
-9.8520032514300127
21
60.795999999139696
31
-1.1102230246251565e-15
0
LINE
5
621
100
AcDbEntity
8
0
100
AcDbLine
10
-9.8520032514300127
20
60.795999999139696
30
-1.1102230246251565e-15
11
-9.8520032514300127
21
59.895999971982896
31
-1.1102230246251565e-15
0
ARC
5
622
100
AcDbEntity
8
0
100
AcDbCircle
10
-9.8520032514300127
20
59.695999971982886
30
-1.1102230246251565e-15
40
0.19999999999999574
100
AcDbArc
50
-89.99999999713495
51
90
0
LINE
5
623
100
AcDbEntity
8
0
100
AcDbLine
10
-9.8520032514200118
20
59.495999971982897
30
-1.1102230246251565e-15
11
-9.8520032512237687
21
57.296009771950132
31
-1.1102230246251565e-15
0
ARC
5
624
100
AcDbEntity
8
0
100
AcDbCircle
10
-9.6520032514300027
20
57.295999999139894
30
-1.1102230246251565e-15
40
0.20000000003253579
100
AcDbArc
50
179.9972002961693
51
269.99999999999847
0
LINE
5
625
100
AcDbEntity
8
0
100
AcDbLine
10
-9.652003251430008
20
57.095999999139892
30
-1.1102230246251565e-15
11
-8.3019997431300219
21
57.095999999139892
31
-1.1102230246251565e-15
0
ARC
5
626
100
AcDbEntity
8
0
100
AcDbCircle
10
-8.3019997431300059
20
57.295999999139873
30
-1.1102230246251565e-15
40
0.19999999999998685
100
AcDbArc
50
-90.000000000004576
51
0.00028445913444363817
0
LINE
5
627
100
AcDbEntity
8
0
100
AcDbLine
10
-8.1019997431324935
20
57.296000992092893
30
-1.1102230246251565e-15
11
-8.1019997431300173
21
57.745999999144892
31
-1.1102230246251565e-15
0
ARC
5
628
100
AcDbEntity
8
0
100
AcDbCircle
10
-7.9019997431300126
20
57.745999999144892
30
-1.1102230246251565e-15
40
0.19999999999999574
100
AcDbArc
50
90.000000037243026
51
180
0
LINE
5
629
100
AcDbEntity
8
0
100
AcDbLine
10
-7.9019997432600153
20
57.945999999144888
30
-1.1102230246251565e-15
11
-7.7520000000000167
21
57.9459999991399
31
-1.1102230246251565e-15
0
LINE
5
630
100
AcDbEntity
8
0
100
AcDbLine
10
-7.7520000000000167
20
57.9459999991399
30
-1.1102230246251565e-15
11
76.898000256875008
21
57.945999999139886
31
-1.1102230246251565e-15
0
ARC
5
631
100
AcDbEntity
8
0
100
AcDbCircle
10
76.898000256874994
20
57.745999999139883
30
-1.1102230246251565e-15
40
0.20000000000010235
100
AcDbArc
50
-1.2074182490616497e-06
51
89.999999999995936
0
LINE
5
632
100
AcDbEntity
8
0
100
AcDbLine
10
77.098000256875096
20
57.745999995173435
30
-1.1102230246251565e-15
11
77.098000257116993
21
57.096019148799883
31
-1.1102230246251565e-15
0
ARC
5
633
100
AcDbEntity
8
0
100
AcDbCircle
10
77.298000256869997
20
57.095999999139892
30
-1.1102230246251565e-15
40
0.20000000066977591
100
AcDbArc
50
179.99451402656052
51
269.39914045305483
0
LINE
5
634
100
AcDbEntity
8
0
100
AcDbLine
10
77.295902952366021
20
56.895999999126886
30
-1.1102230246251565e-15
11
79.24799999999999
21
56.895999999519297
31
-1.1102230246251565e-15
0
LINE
5
635
100
AcDbEntity
8
0
100
AcDbLine
10
79.24799999999999
20
56.895999999519297
30
-1.1102230246251565e-15
11
79.24799999999999
21
60.795999999139681
31
-1.1102230246251565e-15
0
LINE
5
636
100
AcDbEntity
8
0
100
AcDbLine
10
79.24799999999999
20
60.795999999139681
30
-1.1102230246251565e-15
11
77.897999999999996
21
60.795999999139681
31
-1.1102230246251565e-15
0
LINE
5
637
100
AcDbEntity
8
0
100
AcDbLine
10
77.897999999999996
20
60.795999999139681
30
-1.1102230246251565e-15
11
77.897999999999996
21
59.621000010911878
31
-1.1102230246251565e-15
0
ARC
5
638
100
AcDbEntity
8
0
100
AcDbCircle
10
77.74799999999999
20
59.621000010911885
30
-1.1102230246251565e-15
40
0.1499999999999968
100
AcDbArc
50
270
51
360
0
LWPOLYLINE
5
639
100
AcDbEntity
8
0
100
AcDbPolyline
90
22
70
1
43
0.0
10
-7.7520000000000167
20
43.525999999134875
10
76.898000256798994
20
43.525999999137866
42
0.41421356244045865
10
77.098000256874982
20
43.725999999109874
10
77.098000256869994
20
43.975999999235881
42
-0.4142135622325146
10
77.298000256869997
20
44.175999999139876
10
79.24799999999999
20
44.175999999139876
10
79.24799999999999
20
40.67599999913967
10
77.897999999999996
20
40.67599999913967
10
77.897999999999882
20
41.850999933051568
42
0.41421356237581786
10
77.748000000000005
20
42.000999933052867
10
-8.2519993652100165
20
42.000999933052981
42
0.41421356237602597
10
-8.4019993652100133
20
41.850999933051376
10
-8.4019993652100133
20
40.675999999139677
10
-9.8520032514300127
20
40.675999999139677
10
-9.8520032514300127
20
41.575999971982384
42
0.99999999999999989
10
-9.8520032514300127
20
41.975999971982382
10
-9.8520032514300144
20
43.975999999137876
42
-0.41421356237602325
10
-9.652003251430008
20
44.175999999139883
10
-8.3019997431300219
20
44.175999999139883
42
-0.41421356244632807
10
-8.1019997431300173
20
43.975999999089872
10
-8.1019997431199116
20
43.725999999342875
42
0.41421356263523956
10
-7.9019997431500055
20
43.525999999133873
0
LINE
5
640
100
AcDbEntity
8
0
100
AcDbLine
10
77.74799999999999
20
39.151000010911872
30
1.1102230246251565e-15
11
-8.2519993652200085
21
39.151000010911872
31
1.1102230246251565e-15
0
ARC
5
641
100
AcDbEntity
8
0
100
AcDbCircle
10
-8.2519993652100165
20
39.301000010910876
30
1.1102230246251565e-15
40
0.15000000000000013
100
AcDbArc
50
180
51
269.99999999618336
0
LINE
5
642
100
AcDbEntity
8
0
100
AcDbLine
10
-8.4019993652100169
20
39.301000010911878
30
1.1102230246251565e-15
11
-8.4019993652100133
21
40.475999999139674
31
1.1102230246251565e-15
0
LINE
5
643
100
AcDbEntity
8
0
100
AcDbLine
10
-8.4019993652100133
20
40.475999999139674
30
1.1102230246251565e-15
11
-9.8520032514300127
21
40.475999999139674
31
1.1102230246251565e-15
0
LINE
5
644
100
AcDbEntity
8
0
100
AcDbLine
10
-9.8520032514300127
20
40.475999999139674
30
1.1102230246251565e-15
11
-9.8520032514300127
21
39.575999971982874
31
1.1102230246251565e-15
0
ARC
5
645
100
AcDbEntity
8
0
100
AcDbCircle
10
-9.8520032514300127
20
39.375999971982878
30
1.1102230246251565e-15
40
0.20000000000000018
100
AcDbArc
50
-89.99999999713495
51
90
0
LINE
5
646
100
AcDbEntity
8
0
100
AcDbLine
10
-9.8520032514200118
20
39.175999971982876
30
1.1102230246251565e-15
11
-9.8520032512237687
21
36.97600977195011
31
1.1102230246251565e-15
0
ARC
5
647
100
AcDbEntity
8
0
100
AcDbCircle
10
-9.6520032514300063
20
36.975999999139873
30
1.1102230246251565e-15
40
0.20000000003253249
100
AcDbArc
50
179.9972002961693
51
269.99999999999949
0
LINE
5
648
100
AcDbEntity
8
0
100
AcDbLine
10
-9.652003251430008
20
36.775999999139877
30
1.1102230246251565e-15
11
-8.3019997431300219
21
36.775999999139877
31
1.1102230246251565e-15
0
ARC
5
649
100
AcDbEntity
8
0
100
AcDbCircle
10
-8.3019997431300219
20
36.975999999139873
30
1.1102230246251565e-15
40
0.20000000000000018
100
AcDbArc
50
-90
51
0.00028445913444363817
0
LINE
5
650
100
AcDbEntity
8
0
100
AcDbLine
10
-8.1019997431324864
20
36.976000992092878
30
1.1102230246251565e-15
11
-8.1019997431300173
21
37.425999999144878
31
1.1102230246251565e-15
0
ARC
5
651
100
AcDbEntity
8
0
100
AcDbCircle
10
-7.9019997431300126
20
37.425999999144878
30
1.1102230246251565e-15
40
0.20000000000000018
100
AcDbArc
50
90.000000037243026
51
180
0
LINE
5
652
100
AcDbEntity
8
0
100
AcDbLine
10
-7.9019997432600153
20
37.625999999144874
30
1.1102230246251565e-15
11
-7.7520000000000167
21
37.625999999139871
31
1.1102230246251565e-15
0
LINE
5
653
100
AcDbEntity
8
0
100
AcDbLine
10
-7.7520000000000167
20
37.625999999139871
30
1.1102230246251565e-15
11
76.898000256875008
21
37.625999999139871
31
1.1102230246251565e-15
0
ARC
5
654
100
AcDbEntity
8
0
100
AcDbCircle
10
76.898000256874994
20
37.425999999139869
30
1.1102230246251565e-15
40
0.20000000000010235
100
AcDbArc
50
-1.2074182490616497e-06
51
89.999999999995936
0
LINE
5
655
100
AcDbEntity
8
0
100
AcDbLine
10
77.098000256875096
20
37.425999995173427
30
1.1102230246251565e-15
11
77.098000257116993
21
36.776019148799868
31
1.1102230246251565e-15
0
ARC
5
656
100
AcDbEntity
8
0
100
AcDbCircle
10
77.298000256869983
20
36.775999999139863
30
1.1102230246251565e-15
40
0.20000000066976703
100
AcDbArc
50
179.99451402656052
51
269.39914045305886
0
LINE
5
657
100
AcDbEntity
8
0
100
AcDbLine
10
77.295902952366021
20
36.575999999126864
30
1.1102230246251565e-15
11
79.24799999999999
21
36.575999999519276
31
1.1102230246251565e-15
0
LINE
5
658
100
AcDbEntity
8
0
100
AcDbLine
10
79.24799999999999
20
36.575999999519276
30
1.1102230246251565e-15
11
79.24799999999999
21
40.475999999139667
31
1.1102230246251565e-15
0
LINE
5
659
100
AcDbEntity
8
0
100
AcDbLine
10
79.24799999999999
20
40.475999999139667
30
1.1102230246251565e-15
11
77.897999999999996
21
40.475999999139667
31
1.1102230246251565e-15
0
LINE
5
660
100
AcDbEntity
8
0
100
AcDbLine
10
77.897999999999996
20
40.475999999139667
30
1.1102230246251565e-15
11
77.897999999999996
21
39.301000010911864
31
1.1102230246251565e-15
0
ARC
5
661
100
AcDbEntity
8
0
100
AcDbCircle
10
77.74799999999999
20
39.301000010911871
30
1.1102230246251565e-15
40
0.15000000000000124
100
AcDbArc
50
270
51
360
0
LWPOLYLINE
5
662
100
AcDbEntity
8
0
100
AcDbPolyline
90
7
70
1
43
0.0
10
-9.8520032514299078
20
43.975999999138871
42
-0.2164945766861498
10
-9.7835760783804666
20
44.126627324709389
10
-10.952000000000002
20
44.126627324706874
10
-10.952000000000002
20
43.420999999139873
10
-15.952000000000002
20
43.42099999913988
10
-15.952000000000002
20
42.075999999139881
10
-9.8520032514300127
20
42.075999999139881
0
LINE
5
663
100
AcDbEntity
8
0
100
AcDbLine
10
-9.8520032506782318
20
36.976027387780881
30
1.1102230246251565e-15
11
-9.8520032514193634
21
39.075999999139881
31
1.1102230246251565e-15
0
LINE
5
664
100
AcDbEntity
8
0
100
AcDbLine
10
-9.8520032514193634
20
39.075999999139881
30
1.1102230246251565e-15
11
-15.951999999920012
21
39.075999999139874
31
1.1102230246251565e-15
0
LINE
5
665
100
AcDbEntity
8
0
100
AcDbLine
10
-15.951999999920012
20
39.075999999139874
30
1.1102230246251565e-15
11
-15.951999999960016
21
37.730999999139875
31
1.1102230246251565e-15
0
LINE
5
666
100
AcDbEntity
8
0
100
AcDbLine
10
-15.951999999960016
20
37.730999999139875
30
1.1102230246251565e-15
11
-10.952000000000002
21
37.730999999139875
31
1.1102230246251565e-15
0
LINE
5
667
100
AcDbEntity
8
0
100
AcDbLine
10
-10.952000000000002
20
37.730999999139875
30
1.1102230246251565e-15
11
-10.952000000000002
21
36.780999999139873
31
1.1102230246251565e-15
0
LINE
5
668
100
AcDbEntity
8
0
100
AcDbLine
10
-10.952000000000002
20
36.780999999139873
30
1.1102230246251565e-15
11
-9.6564847441526336
21
36.776040277906887
31
1.1102230246251565e-15
0
ARC
5
669
100
AcDbEntity
8
0
100
AcDbCircle
10
-9.652003251430008
20
36.975999999139873
30
1.1102230246251565e-15
40
0.19999999999999996
100
AcDbArc
50
179.99215373234603
51
268.73980600827849
0
LINE
5
670
100
AcDbEntity
8
0
100
AcDbLine
10
-15.951999999960016
20
58.05099999913989
30
-1.1102230246251565e-15
11
-10.952000000000002
21
58.05099999913989
31
-1.1102230246251565e-15
0
LWPOLYLINE
5
671
100
AcDbEntity
8
0
100
AcDbPolyline
90
7
70
1
43
0.0
10
-9.8520032514299078
20
64.295999999138886
42
-0.2164945766861498
10
-9.7835760783804666
20
64.446627324709411
10
-10.952000000000002
20
64.446627324706895
10
-10.952000000000002
20
63.740999999139888
10
-15.952000000000002
20
63.740999999139902
10
-15.952000000000002
20
62.395999999139903
10
-9.8520032514300127
20
62.395999999139903
0
LINE
5
672
100
AcDbEntity
8
0
100
AcDbLine
10
-9.8520032506782407
20
77.616027387780889
30
-1.1102230246251565e-15
11
-9.8520032514193723
21
79.715999999139882
31
-1.1102230246251565e-15
0
LINE
5
673
100
AcDbEntity
8
0
100
AcDbLine
10
-9.8520032514193723
20
79.715999999139882
30
-1.1102230246251565e-15
11
-15.951999999920021
21
79.715999999139882
31
-1.1102230246251565e-15
0
LINE
5
674
100
AcDbEntity
8
0
100
AcDbLine
10
-15.951999999920021
20
79.715999999139882
30
-1.1102230246251565e-15
11
-15.951999999960025
21
78.370999999139883
31
-1.1102230246251565e-15
0
LINE
5
675
100
AcDbEntity
8
0
100
AcDbLine
10
-15.951999999960025
20
78.370999999139883
30
-1.1102230246251565e-15
11
-10.952000000000011
21
78.370999999139883
31
-1.1102230246251565e-15
0
LINE
5
676
100
AcDbEntity
8
0
100
AcDbLine
10
-10.952000000000011
20
78.370999999139883
30
-1.1102230246251565e-15
11
-10.952000000000011
21
77.42099999913988
31
-1.1102230246251565e-15
0
LINE
5
677
100
AcDbEntity
8
0
100
AcDbLine
10
-10.952000000000011
20
77.42099999913988
30
-1.1102230246251565e-15
11
-9.6564847441526425
21
77.416040277906887
31
-1.1102230246251565e-15
0
ARC
5
678
100
AcDbEntity
8
0
100
AcDbCircle
10
-9.6520032514300169
20
77.615999999139888
30
-1.1102230246251565e-15
40
0.19999999999999996
100
AcDbArc
50
179.99215373234603
51
268.73980600827701
0
LINE
5
679
100
AcDbEntity
8
0
100
AcDbLine
10
-9.8520032506782407
20
97.936027387780911
30
-1.1102230246251565e-15
11
-9.8520032514193723
21
100.0359999991399
31
-1.1102230246251565e-15
0
LINE
5
680
100
AcDbEntity
8
0
100
AcDbLine
10
-9.8520032514193723
20
100.0359999991399
30
-1.1102230246251565e-15
11
-15.951999999920021
21
100.0359999991399
31
-1.1102230246251565e-15
0
LINE
5
681
100
AcDbEntity
8
0
100
AcDbLine
10
-15.951999999920021
20
100.0359999991399
30
-1.1102230246251565e-15
11
-15.951999999960025
21
98.690999999139905
31
-1.1102230246251565e-15
0
LINE
5
682
100
AcDbEntity
8
0
100
AcDbLine
10
-15.951999999960025
20
98.690999999139905
30
-1.1102230246251565e-15
11
-10.952000000000011
21
98.690999999139905
31
-1.1102230246251565e-15
0
LINE
5
683
100
AcDbEntity
8
0
100
AcDbLine
10
-10.952000000000011
20
98.690999999139905
30
-1.1102230246251565e-15
11
-10.952000000000011
21
97.740999999139888
31
-1.1102230246251565e-15
0
LINE
5
684
100
AcDbEntity
8
0
100
AcDbLine
10
-10.952000000000011
20
97.740999999139888
30
-1.1102230246251565e-15
11
-9.6564847441526425
21
97.736040277906895
31
-1.1102230246251565e-15
0
ARC
5
685
100
AcDbEntity
8
0
100
AcDbCircle
10
-9.6520032514300169
20
97.935999999139909
30
-1.1102230246251565e-15
40
0.19999999999999996
100
AcDbArc
50
179.99215373234603
51
268.73980600827963
0
LWPOLYLINE
5
686
100
AcDbEntity
8
0
100
AcDbPolyline
90
7
70
1
43
0.0
10
-9.8520032514299203
20
104.93599999913891
42
-0.21649457668615027
10
-9.7835760783804702
20
105.08662732470944
10
-10.952000000000011
20
105.0866273247069
10
-10.952000000000011
20
104.3809999991399
10
-15.952000000000011
20
104.3809999991399
10
-15.952000000000011
20
103.03599999913992
10
-9.8520032514300215
20
103.0359999991399
0
ENDSEC
0
SECTION
2
OBJECTS
0
DICTIONARY
5
C
100
AcDbDictionary
3
ACAD_GROUP
350
D
3
ACAD_MLINESTYLE
350
17
0
DICTIONARY
5
D
100
AcDbDictionary
0
DICTIONARY
5
1A
330
C
100
AcDbDictionary
0
DICTIONARY
5
17
100
AcDbDictionary
0
ENDSEC
0
EOF
