0
SECTION
2
HEADER
9
$INSUNITS
70
4
9
$ACADVER
1
AC1014
9
$HANDSEED
5
FFFF
0
ENDSEC
0
SECTION
2
TABLES
0
TABLE
2
VPORT
5
8
100
AcDbSymbolTable
0
ENDTAB
0
TABLE
2
LTYPE
5
5
100
AcDbSymbolTable
0
LTYPE
5
14
100
AcDbSymbolTableRecord
100
AcDbLinetypeTableRecord
2
BYBLOCK
70
0
0
LTYPE
5
15
100
AcDbSymbolTableRecord
100
AcDbLinetypeTableRecord
2
BYLAYER
70
0
0
ENDTAB
0
TABLE
2
LAYER
5
2
100
AcDbSymbolTable
70
2
0
LAYER
5
50
100
AcDbSymbolTableRecord
100
AcDbLayerTableRecord
2
0
70
0
6
CONTINUOUS
0
ENDTAB
0
TABLE
2
STYLE
5
3
100
AcDbSymbolTable
70
1
0
STYLE
5
11
100
AcDbSymbolTableRecord
100
AcDbTextStyleTableRecord
2
STANDARD
70
0
0
ENDTAB
0
TABLE
2
VIEW
5
6
100
AcDbSymbolTable
70
0
0
ENDTAB
0
TABLE
2
UCS
5
7
100
AcDbSymbolTable
70
0
0
ENDTAB
0
TABLE
2
APPID
5
9
100
AcDbSymbolTable
70
2
0
APPID
5
12
100
AcDbSymbolTableRecord
100
AcDbRegAppTableRecord
2
ACAD
70
0
0
ENDTAB
0
TABLE
2
DIMSTYLE
5
A
100
AcDbSymbolTable
70
1
0
ENDTAB
0
TABLE
2
BLOCK_RECORD
5
1
100
AcDbSymbolTable
70
1
0
BLOCK_RECORD
5
1F
100
AcDbSymbolTableRecord
100
AcDbBlockTableRecord
2
*MODEL_SPACE
0
BLOCK_RECORD
5
1B
100
AcDbSymbolTableRecord
100
AcDbBlockTableRecord
2
*PAPER_SPACE
0
ENDTAB
0
ENDSEC
0
SECTION
2
BLOCKS
0
BLOCK
5
20
100
AcDbEntity
100
AcDbBlockBegin
2
*MODEL_SPACE
0
ENDBLK
5
21
100
AcDbEntity
100
AcDbBlockEnd
0
BLOCK
5
1C
100
AcDbEntity
100
AcDbBlockBegin
2
*PAPER_SPACE
0
ENDBLK
5
1D
100
AcDbEntity
100
AcDbBlockEnd
0
ENDSEC
0
SECTION
2
ENTITIES
0
CIRCLE
5
100
100
AcDbEntity
8
0
100
AcDbCircle
10
-80.161233676103251
20
-78.891233676103212
30
0
40
1.5000000000000036
0
CIRCLE
5
101
100
AcDbEntity
8
0
100
AcDbCircle
10
-80.161233676103222
20
78.588766323896792
30
0
40
1.5000000000000036
0
CIRCLE
5
102
100
AcDbEntity
8
0
100
AcDbCircle
10
51.918766323896754
20
-78.891233676103198
30
0
40
1.4999999999999947
0
CIRCLE
5
103
100
AcDbEntity
8
0
100
AcDbCircle
10
74.778766323896747
20
78.58876632389682
30
0
40
1.5000000000000036
0
LWPOLYLINE
5
104
100
AcDbEntity
8
0
100
AcDbPolyline
90
8
70
1
43
0.0
10
84.938766323896857
20
-83.0612336761032
42
-0.41421356237310025
10
82.938766323896829
20
-85.061233676103214
10
-83.061233676103186
20
-85.061233676103228
42
-0.4142135623730846
10
-85.061233676103157
20
-83.061233676103271
10
-85.061233676103299
20
82.938766323896814
42
-0.4142135623730846
10
-83.06123367610337
20
84.938766323896786
10
82.938766323896715
20
84.9387663238968
42
-0.41421356237309503
10
84.938766323896743
20
82.938766323896814
0
CIRCLE
5
105
100
AcDbEntity
8
0
100
AcDbCircle
10
-80.161233676103251
20
-78.891233676103212
30
-1.6000000000000003
40
1.5000000000000036
0
CIRCLE
5
106
100
AcDbEntity
8
0
100
AcDbCircle
10
-80.161233676103222
20
78.588766323896792
30
-1.6000000000000003
40
1.5000000000000036
0
CIRCLE
5
107
100
AcDbEntity
8
0
100
AcDbCircle
10
51.918766323896754
20
-78.891233676103198
30
-1.6000000000000003
40
1.4999999999999947
0
CIRCLE
5
108
100
AcDbEntity
8
0
100
AcDbCircle
10
74.778766323896747
20
78.58876632389682
30
-1.6000000000000003
40
1.5000000000000036
0
LWPOLYLINE
5
109
100
AcDbEntity
8
0
100
AcDbPolyline
90
8
70
1
43
0.0
10
84.938766323896857
20
-83.0612336761032
42
-0.41421356237310025
10
82.938766323896843
20
-85.061233676103214
10
-83.061233676103171
20
-85.061233676103228
42
-0.41421356237308982
10
-85.061233676103157
20
-83.061233676103242
10
-85.061233676103313
20
82.938766323896814
42
-0.41421356237308721
10
-83.061233676103342
20
84.9387663238968
10
82.938766323896743
20
84.9387663238968
42
-0.41421356237309243
10
84.938766323896743
20
82.938766323896814
0
LINE
5
110
100
AcDbEntity
8
0
100
AcDbLine
10
-42.980969807143303
20
80.784766323036635
30
0
11
-43.612207820123302
21
80.784766323036635
31
0
0
LINE
5
111
100
AcDbEntity
8
0
100
AcDbLine
10
-43.854259532073286
20
80.784766323036635
30
0
11
-44.733233676103303
21
80.784766323036635
31
0
0
LINE
5
112
100
AcDbEntity
8
0
100
AcDbLine
10
-30.033233430203296
20
81.434766323036655
30
0
11
-30.033233430203296
21
80.884766323036658
31
0
0
LINE
5
113
100
AcDbEntity
8
0
100
AcDbLine
10
-30.033233430203296
20
81.434766323036655
30
0
11
-27.433233430203305
21
81.434766323036655
31
0
0
LINE
5
114
100
AcDbEntity
8
0
100
AcDbLine
10
-27.433233430203305
20
81.434766323036655
30
0
11
-27.433233430203305
21
80.884766323036658
31
0
0
LINE
5
115
100
AcDbEntity
8
0
100
AcDbLine
10
-10.033233507503292
20
81.434766323036655
30
0
11
-10.033233507503292
21
80.884766323036644
31
0
0
LINE
5
116
100
AcDbEntity
8
0
100
AcDbLine
10
-10.033233507503292
20
81.434766323036655
30
0
11
-7.4332335075032985
21
81.434766323036655
31
0
0
LINE
5
117
100
AcDbEntity
8
0
100
AcDbLine
10
-7.4332335075032985
20
81.434766323036655
30
0
11
-7.433233507503294
21
80.884766323036644
31
0
0
LINE
5
118
100
AcDbEntity
8
0
100
AcDbLine
10
0.019030243156703541
20
80.784766323036635
30
0
11
-5.9809697568432973
21
80.784766323036635
31
0
0
LINE
5
119
100
AcDbEntity
8
0
100
AcDbLine
10
12.966766492496706
20
81.434766323036655
30
0
11
12.966766492496706
21
80.884766323036644
31
0
0
LINE
5
120
100
AcDbEntity
8
0
100
AcDbLine
10
12.966766492496706
20
81.434766323036655
30
0
11
15.566766492496704
21
81.434766323036655
31
0
0
LINE
5
121
100
AcDbEntity
8
0
100
AcDbLine
10
15.566766492496704
20
81.434766323036655
30
0
11
15.566766492496704
21
80.884766323036644
31
0
0
LINE
5
122
100
AcDbEntity
8
0
100
AcDbLine
10
32.966766620091704
20
81.434766323036627
30
0
11
32.966766620091704
21
80.884766323036644
31
0
0
LINE
5
123
100
AcDbEntity
8
0
100
AcDbLine
10
32.966766620091704
20
81.434766323036627
30
0
11
35.566766620091705
21
81.434766323036627
31
0
0
LINE
5
124
100
AcDbEntity
8
0
100
AcDbLine
10
35.566766620091705
20
81.434766323036627
30
0
11
35.566766620091705
21
80.884766323036644
31
0
0
LINE
5
125
100
AcDbEntity
8
0
100
AcDbLine
10
39.766766323899702
20
80.784766323036635
30
0
11
38.387792179875696
21
80.784766323036635
31
0
0
LINE
5
126
100
AcDbEntity
8
0
100
AcDbLine
10
38.145740467923702
20
80.784766323036635
30
0
11
37.019030293451706
21
80.784766323036635
31
0
0
LINE
5
127
100
AcDbEntity
8
0
100
AcDbLine
10
42.266766323896704
20
75.25976632301564
30
0
11
42.266766323896704
21
79.609766323149643
31
0
0
LINE
5
128
100
AcDbEntity
8
0
100
AcDbLine
10
37.019030293451706
20
74.084766323036632
30
0
11
39.766766323899702
21
74.084766323036632
31
0
0
LINE
5
129
100
AcDbEntity
8
0
100
AcDbLine
10
35.566766620091705
20
73.434766323036641
30
0
11
35.566766620091705
21
73.984766323036638
31
0
0
LINE
5
130
100
AcDbEntity
8
0
100
AcDbLine
10
32.966766620091704
20
73.434766323036641
30
0
11
35.566766620091705
21
73.434766323036641
31
0
0
LINE
5
131
100
AcDbEntity
8
0
100
AcDbLine
10
32.966766620091704
20
73.434766323036641
30
0
11
32.966766620091704
21
73.984766323036638
31
0
0
LINE
5
132
100
AcDbEntity
8
0
100
AcDbLine
10
15.566766492496704
20
73.434766323036641
30
0
11
15.566766492496704
21
73.984766323036638
31
0
0
LINE
5
133
100
AcDbEntity
8
0
100
AcDbLine
10
12.966766492496706
20
73.434766323036641
30
0
11
15.566766492496704
21
73.434766323036641
31
0
0
LINE
5
134
100
AcDbEntity
8
0
100
AcDbLine
10
12.966766492496706
20
73.434766323036641
30
0
11
12.966766492496706
21
73.984766323036652
31
0
0
LINE
5
135
100
AcDbEntity
8
0
100
AcDbLine
10
0.019030243156703541
20
74.084766323036632
30
0
11
-5.9809697568432973
21
74.084766323036632
31
0
0
LINE
5
136
100
AcDbEntity
8
0
100
AcDbLine
10
-7.433233507503294
20
73.434766323036641
30
0
11
-7.433233507503294
21
73.984766323036638
31
0
0
LINE
5
137
100
AcDbEntity
8
0
100
AcDbLine
10
-10.033233507503292
20
73.434766323036641
30
0
11
-7.433233507503294
21
73.434766323036641
31
0
0
LINE
5
138
100
AcDbEntity
8
0
100
AcDbLine
10
-10.033233507503292
20
73.434766323036641
30
0
11
-10.033233507503292
21
73.984766323036638
31
0
0
LINE
5
139
100
AcDbEntity
8
0
100
AcDbLine
10
-27.433233430203305
20
73.434766323036641
30
0
11
-27.433233430203305
21
73.984766323036652
31
0
0
LINE
5
140
100
AcDbEntity
8
0
100
AcDbLine
10
-30.033233430203296
20
73.434766323036641
30
0
11
-27.433233430203305
21
73.434766323036641
31
0
0
LINE
5
141
100
AcDbEntity
8
0
100
AcDbLine
10
-30.033233430203296
20
73.434766323036641
30
0
11
-30.033233430203296
21
73.984766323036652
31
0
0
LINE
5
142
100
AcDbEntity
8
0
100
AcDbLine
10
-42.980969807143303
20
74.084766323036646
30
0
11
-44.733233676103303
21
74.084766323036646
31
0
0
LINE
5
143
100
AcDbEntity
8
0
100
AcDbLine
10
39.766766323899702
20
82.539766323036631
30
0
11
39.766766323899702
21
80.784766323036635
31
0
0
LINE
5
144
100
AcDbEntity
8
0
100
AcDbLine
10
42.266766323896704
20
82.539766323036631
30
0
11
39.766766323899702
21
82.539766323036631
31
0
0
LINE
5
145
100
AcDbEntity
8
0
100
AcDbLine
10
42.266766323896704
20
80.109766323036652
30
0
11
42.266766323896704
21
82.539766323036631
31
0
0
LINE
5
146
100
AcDbEntity
8
0
100
AcDbLine
10
42.266766323896704
20
80.109766323036652
30
0
11
42.266766323896704
21
79.609766323149643
31
0
0
LINE
5
147
100
AcDbEntity
8
0
100
AcDbLine
10
42.266766323896704
20
74.759766323036644
30
0
11
42.266766323896704
21
73.434766323896795
31
0
0
LINE
5
148
100
AcDbEntity
8
0
100
AcDbLine
10
42.266766323896704
20
75.25976632301564
30
0
11
42.266766323896704
21
74.759766323036644
31
0
0
LINE
5
149
100
AcDbEntity
8
0
100
AcDbLine
10
39.766766323899702
20
73.434766323023638
30
0
11
42.266766323896704
21
73.434766323896795
31
0
0
LINE
5
150
100
AcDbEntity
8
0
100
AcDbLine
10
39.766766323899702
20
74.084766323036632
30
0
11
39.766766323899702
21
73.43992084902213
31
0
0
LINE
5
151
100
AcDbEntity
8
0
100
AcDbLine
10
39.766766323899702
20
73.4398970019883
30
0
11
39.766766323899702
21
73.434766323023638
31
0
0
LINE
5
152
100
AcDbEntity
8
0
100
AcDbLine
10
-54.566498576883291
20
73.43976632303665
30
0
11
-48.233233676103296
21
73.43976632303665
31
0
0
LINE
5
153
100
AcDbEntity
8
0
100
AcDbLine
10
-48.233233676103296
20
73.43976632303665
30
0
11
-44.733233676103303
21
73.43976632303665
31
0
0
LINE
5
154
100
AcDbEntity
8
0
100
AcDbLine
10
-62.958899326291046
20
70.539766323036645
30
1.1102230246251565e-15
11
-63.173232044513298
21
70.539766323036645
31
1.1102230246251565e-15
0
LINE
5
155
100
AcDbEntity
8
0
100
AcDbLine
10
-60.450185185174654
20
70.539766323036645
30
1.1102230246251565e-15
11
-62.958899326291046
21
70.539766323036645
31
1.1102230246251565e-15
0
LINE
5
156
100
AcDbEntity
8
0
100
AcDbLine
10
-60.279489855143311
20
70.539766323036645
30
1.1102230246251565e-15
11
-60.450185185174654
21
70.539766323036645
31
1.1102230246251565e-15
0
LINE
5
157
100
AcDbEntity
8
0
100
AcDbLine
10
-59.779495099153301
20
70.539766323036645
30
1.1102230246251565e-15
11
-60.279489855143311
21
70.539766323036645
31
1.1102230246251565e-15
0
LINE
5
158
100
AcDbEntity
8
0
100
AcDbLine
10
-54.86649857666329
20
70.539766323036645
30
1.1102230246251565e-15
11
-59.779495099153301
21
70.539766323036645
31
1.1102230246251565e-15
0
LINE
5
159
100
AcDbEntity
8
0
100
AcDbLine
10
-54.566498576883291
20
70.539766323036645
30
1.1102230246251565e-15
11
-54.86649857666329
21
70.539766323036645
31
1.1102230246251565e-15
0
LINE
5
160
100
AcDbEntity
8
0
100
AcDbLine
10
-62.023233676103295
20
78.740622530806931
30
0
11
-62.023233676103295
21
76.184766323036655
31
0
0
LINE
5
161
100
AcDbEntity
8
0
100
AcDbLine
10
-48.233233676103296
20
82.539766312567636
30
0
11
-54.566498576883291
21
82.5397663188362
31
0
0
LINE
5
162
100
AcDbEntity
8
0
100
AcDbLine
10
-54.866498576883288
20
84.329766323036651
30
1.1102230246251565e-15
11
-54.566498576883291
21
84.329766323036651
31
1.1102230246251565e-15
0
LINE
5
163
100
AcDbEntity
8
0
100
AcDbLine
10
-59.779489855143311
20
84.329766323036651
30
1.1102230246251565e-15
11
-54.866498576883288
21
84.329766323036651
31
1.1102230246251565e-15
0
LINE
5
164
100
AcDbEntity
8
0
100
AcDbLine
10
-60.279489855143311
20
84.329766323036651
30
1.1102230246251565e-15
11
-59.779489855143311
21
84.329766323036651
31
1.1102230246251565e-15
0
LINE
5
165
100
AcDbEntity
8
0
100
AcDbLine
10
-60.450185185273853
20
84.329766323036651
30
1.1102230246251565e-15
11
-60.279489855143311
21
84.329766323036651
31
1.1102230246251565e-15
0
LINE
5
166
100
AcDbEntity
8
0
100
AcDbLine
10
-62.958899326333295
20
84.329766323036651
30
1.1102230246251565e-15
11
-60.450185185273853
21
84.329766323036651
31
1.1102230246251565e-15
0
LINE
5
167
100
AcDbEntity
8
0
100
AcDbLine
10
-63.173232044513298
20
84.329766323036651
30
1.1102230246251565e-15
11
-62.958899326333295
21
84.329766323036651
31
1.1102230246251565e-15
0
LINE
5
168
100
AcDbEntity
8
0
100
AcDbLine
10
-63.173232044513306
20
76.184766323036655
30
1.1102230246251565e-15
11
-63.173232044513298
21
70.539766323036645
31
1.1102230246251565e-15
0
LINE
5
169
100
AcDbEntity
8
0
100
AcDbLine
10
-63.173232044513306
20
76.184766323036655
30
1.1102230246251565e-15
11
-62.958899326324072
21
76.184766323036655
31
1.1102230246251565e-15
0
LINE
5
170
100
AcDbEntity
8
0
100
AcDbLine
10
-62.958899326324072
20
76.184766323036655
30
1.1102230246251565e-15
11
-62.023233676103295
21
76.184766323036655
31
0
0
LINE
5
171
100
AcDbEntity
8
0
100
AcDbLine
10
-62.95889932633326
20
78.740622530806945
30
1.1102230246251565e-15
11
-63.173232044513284
21
78.740622530806945
31
1.1102230246251565e-15
0
LINE
5
172
100
AcDbEntity
8
0
100
AcDbLine
10
-62.023233676103295
20
78.740622530806931
30
0
11
-62.95889932633326
21
78.740622530806945
31
1.1102230246251565e-15
0
LINE
5
173
100
AcDbEntity
8
0
100
AcDbLine
10
-63.173232044513298
20
84.329766323036651
30
1.1102230246251565e-15
11
-63.173232044513284
21
78.740622530806945
31
1.1102230246251565e-15
0
LINE
5
174
100
AcDbEntity
8
0
100
AcDbLine
10
-48.233233676103296
20
82.539766211989644
30
0
11
-44.733233676103403
21
82.539765544773758
31
0
0
LINE
5
175
100
AcDbEntity
8
0
100
AcDbLine
10
-44.733233676103303
20
80.784766323036635
30
0
11
-44.733233676103303
21
82.539752253806995
31
0
0
LINE
5
176
100
AcDbEntity
8
0
100
AcDbLine
10
-44.733233676103303
20
73.43976632303665
30
0
11
-44.733233676103303
21
74.084766323036646
31
0
0
LINE
5
177
100
AcDbEntity
8
0
100
AcDbLine
10
0.019030243156703541
20
74.084766323036632
30
0
11
0.019030243156717749
21
74.034766323036635
31
0
0
LINE
5
178
100
AcDbEntity
8
0
100
AcDbLine
10
37.019030293451706
20
74.034766323036635
30
0
11
37.019030293451706
21
74.084766323036632
31
0
0
LINE
5
179
100
AcDbEntity
8
0
100
AcDbLine
10
36.969030293451709
20
73.984766323036638
30
0
11
36.519030293451706
21
73.984766323036638
31
0
0
ARC
5
180
100
AcDbEntity
8
0
100
AcDbCircle
10
36.969030293451709
20
74.034766323036635
30
0
40
0.049999999999998934
100
AcDbArc
50
-90
51
0
0
LINE
5
181
100
AcDbEntity
8
0
100
AcDbLine
10
0.51903024315670621
20
73.984766323036638
30
0
11
0.069030243156806212
21
73.984766323036638
31
0
0
LINE
5
182
100
AcDbEntity
8
0
100
AcDbLine
10
0.51903024315670621
20
73.984766323036638
30
0
11
12.966766492496706
21
73.984766323036652
31
0
0
LINE
5
183
100
AcDbEntity
8
0
100
AcDbLine
10
15.566766492496704
20
73.984766323036638
30
0
11
32.966766620091704
21
73.984766323036638
31
0
0
LINE
5
184
100
AcDbEntity
8
0
100
AcDbLine
10
35.566766620091705
20
73.984766323036638
30
0
11
36.519030293451706
21
73.984766323036638
31
0
0
ARC
5
185
100
AcDbEntity
8
0
100
AcDbCircle
10
0.069030243156702475
20
74.034766323036635
30
0
40
0.049999999999984723
100
AcDbArc
50
180
51
270.00000000011886
0
LINE
5
186
100
AcDbEntity
8
0
100
AcDbLine
10
-5.9809697568432973
20
74.034766323036635
30
0
11
-5.9809697568432973
21
74.084766323036632
31
0
0
LINE
5
187
100
AcDbEntity
8
0
100
AcDbLine
10
-42.980969807143303
20
74.084766323036646
30
0
11
-42.980969807143303
21
74.034766323036649
31
0
0
ARC
5
188
100
AcDbEntity
8
0
100
AcDbCircle
10
-6.0309697568432963
20
74.034766323036635
30
0
40
0.049999999999998934
100
AcDbArc
50
-90
51
0
0
LINE
5
189
100
AcDbEntity
8
0
100
AcDbLine
10
-42.480969807143303
20
73.984766323036652
30
0
11
-42.930969807143306
21
73.984766323036652
31
0
0
LINE
5
190
100
AcDbEntity
8
0
100
AcDbLine
10
-42.480969807143303
20
73.984766323036652
30
0
11
-30.033233430203296
21
73.984766323036652
31
0
0
LINE
5
191
100
AcDbEntity
8
0
100
AcDbLine
10
-27.433233430203305
20
73.984766323036652
30
0
11
-10.033233507503292
21
73.984766323036638
31
0
0
LINE
5
192
100
AcDbEntity
8
0
100
AcDbLine
10
-7.433233507503294
20
73.984766323036638
30
0
11
-6.4809697568433
21
73.984766323036652
31
0
0
LINE
5
193
100
AcDbEntity
8
0
100
AcDbLine
10
-6.0309697568432963
20
73.984766323036638
30
0
11
-6.4809697568433
21
73.984766323036652
31
0
0
ARC
5
194
100
AcDbEntity
8
0
100
AcDbCircle
10
-42.930969807143299
20
74.034766323036649
30
0
40
0.050000000000007816
100
AcDbArc
50
180
51
269.99999999999187
0
LINE
5
195
100
AcDbEntity
8
0
100
AcDbLine
10
-5.9809697568432973
20
80.784766323036635
30
0
11
-5.9809697568432973
21
80.834766323036646
31
0
0
LINE
5
196
100
AcDbEntity
8
0
100
AcDbLine
10
-42.980969807143303
20
80.834766323036646
30
0
11
-42.980969807143303
21
80.784766323036635
31
0
0
ARC
5
197
100
AcDbEntity
8
0
100
AcDbCircle
10
-6.0309697568432963
20
80.834766323036646
30
0
40
0.049999999999998934
100
AcDbArc
50
0
51
90
0
LINE
5
198
100
AcDbEntity
8
0
100
AcDbLine
10
-6.4809697568433
20
80.884766323036644
30
0
11
-6.0309697568432963
21
80.884766323036658
31
0
0
LINE
5
199
100
AcDbEntity
8
0
100
AcDbLine
10
-6.4809697568433
20
80.884766323036644
30
0
11
-7.433233507503294
21
80.884766323036644
31
0
0
LINE
5
200
100
AcDbEntity
8
0
100
AcDbLine
10
-10.033233507503292
20
80.884766323036644
30
0
11
-27.433233430203305
21
80.884766323036658
31
0
0
LINE
5
201
100
AcDbEntity
8
0
100
AcDbLine
10
-30.033233430203296
20
80.884766323036658
30
0
11
-42.480969807143303
21
80.884766323036644
31
0
0
LINE
5
202
100
AcDbEntity
8
0
100
AcDbLine
10
-42.930969807143306
20
80.884766323036658
30
0
11
-42.480969807143303
21
80.884766323036644
31
0
0
ARC
5
203
100
AcDbEntity
8
0
100
AcDbCircle
10
-42.930969807143299
20
80.834766323036646
30
0
40
0.050000000000007816
100
AcDbArc
50
90.000000000008143
51
180
0
LINE
5
204
100
AcDbEntity
8
0
100
AcDbLine
10
0.019030243156703541
20
80.834766323036646
30
0
11
0.019030243156703541
21
80.784766323036635
31
0
0
LINE
5
205
100
AcDbEntity
8
0
100
AcDbLine
10
37.019030293451706
20
80.784766323036635
30
0
11
37.019030293451692
21
80.834766323036646
31
0
0
LINE
5
206
100
AcDbEntity
8
0
100
AcDbLine
10
36.519030293451706
20
80.884766323036644
30
0
11
35.566766620091705
21
80.884766323036644
31
0
0
LINE
5
207
100
AcDbEntity
8
0
100
AcDbLine
10
32.966766620091704
20
80.884766323036644
30
0
11
15.566766492496704
21
80.884766323036644
31
0
0
LINE
5
208
100
AcDbEntity
8
0
100
AcDbLine
10
12.966766492496706
20
80.884766323036644
30
0
11
0.51903024315670621
21
80.884766323036644
31
0
0
LINE
5
209
100
AcDbEntity
8
0
100
AcDbLine
10
36.519030293451706
20
80.884766323036644
30
0
11
36.969030293451709
21
80.884766323036644
31
0
0
LINE
5
210
100
AcDbEntity
8
0
100
AcDbLine
10
0.069030243156806212
20
80.884766323036644
30
0
11
0.51903024315670621
21
80.884766323036644
31
0
0
ARC
5
211
100
AcDbEntity
8
0
100
AcDbCircle
10
36.969030293451709
20
80.834766323036646
30
0
40
0.049999999999990052
100
AcDbArc
50
0
51
90
0
ARC
5
212
100
AcDbEntity
8
0
100
AcDbCircle
10
0.069030243156702475
20
80.834766323036646
30
0
40
0.049999999999990052
100
AcDbArc
50
89.99999999988114
51
180
0
LINE
5
213
100
AcDbEntity
8
0
100
AcDbLine
10
38.145740467923702
20
80.784766323036635
30
0
11
38.145740467923702
21
80.785074982561639
31
0
0
LINE
5
214
100
AcDbEntity
8
0
100
AcDbLine
10
38.387792179875696
20
80.784766323036635
30
0
11
38.387792179875703
21
80.785074982561639
31
0
0
LINE
5
215
100
AcDbEntity
8
0
100
AcDbLine
10
38.387792179875703
20
80.785074982561639
30
0
11
38.145740467923702
21
80.785074982561639
31
0
0
LINE
5
216
100
AcDbEntity
8
0
100
AcDbLine
10
-43.854259532073286
20
80.784766323036635
30
0
11
-43.8542595320733
21
80.785074984136656
31
0
0
LINE
5
217
100
AcDbEntity
8
0
100
AcDbLine
10
-43.8542595320733
20
80.785074984136656
30
0
11
-43.612207820123302
21
80.785074984136642
31
0
0
LINE
5
218
100
AcDbEntity
8
0
100
AcDbLine
10
-43.612207820123302
20
80.784766323036635
30
0
11
-43.612207820123302
21
80.785074984136642
31
0
0
LINE
5
219
100
AcDbEntity
8
0
100
AcDbLine
10
-54.566498576883291
20
70.539766323036645
30
1.1102230246251565e-15
11
-54.566498576883291
21
73.43976632303665
31
0
0
LINE
5
220
100
AcDbEntity
8
0
100
AcDbLine
10
-54.566498576883291
20
82.5397663188362
30
0
11
-54.566498576883291
21
84.329766323036651
31
1.1102230246251565e-15
0
LWPOLYLINE
5
221
100
AcDbEntity
8
0
100
AcDbPolyline
90
4
70
1
43
0.0
10
28.666766323899708
20
78.359766323036638
10
40.316766323896701
20
78.359766323036638
10
40.316766323896701
20
76.509766323036644
10
28.666766323899708
20
76.509766323036644
0
LWPOLYLINE
5
222
100
AcDbEntity
8
0
100
AcDbPolyline
90
4
70
1
43
0.0
10
26.866766323900706
20
78.359766323036652
10
26.866766323900706
20
76.509766323036644
10
-44.783233676103322
20
76.509766323036644
10
-44.783233676103322
20
78.359766323036638
0
LWPOLYLINE
5
223
100
AcDbEntity
8
0
100
AcDbPolyline
90
17
70
1
43
0.0
10
-55.043618531803311
20
70.539766323036645
10
-55.043618531823313
20
84.329766323036651
10
-54.606690951853324
20
84.329766323036651
10
-54.606690951823325
20
81.409766323036649
10
-50.732661449093314
20
81.409766323036635
10
-50.732661449103311
20
80.27976632303664
10
-53.14967165284331
20
80.279766323036654
10
-53.14967165284331
20
78.934766323036655
10
-50.732661449083324
20
78.934766323036655
10
-50.732661449083324
20
76.184766323036655
10
-50.732661449103311
20
75.934766323036641
10
-53.14967165284331
20
75.934766323036641
10
-53.14967165284331
20
74.589766323036642
10
-50.732661449113309
20
74.589766323036642
10
-50.732661449133317
20
73.459766323036632
10
-54.606690951853324
20
73.459766323036632
10
-54.606690951823325
20
70.539766323036645
0
LWPOLYLINE
5
224
100
AcDbEntity
8
0
100
AcDbPolyline
90
4
70
1
43
0.0
10
-46.733233676073318
20
75.934766323036641
10
-51.73323367610331
20
75.934766323036641
10
-51.73323367610331
20
78.934766323036655
10
-46.733233676103325
20
78.934766323036655
0
LINE
5
225
100
AcDbEntity
8
0
100
AcDbLine
10
-46.833236926781538
20
73.834793711677648
30
1.1102230246251565e-15
11
-46.83323692752267
21
75.934766323036641
31
1.1102230246251565e-15
0
LINE
5
226
100
AcDbEntity
8
0
100
AcDbLine
10
-46.83323692752267
20
75.934766323036641
30
1.1102230246251565e-15
11
-52.93323367602332
21
75.934766323036641
31
1.1102230246251565e-15
0
LINE
5
227
100
AcDbEntity
8
0
100
AcDbLine
10
-52.93323367602332
20
75.934766323036641
30
1.1102230246251565e-15
11
-52.933233676063324
21
74.589766323036642
31
1.1102230246251565e-15
0
LINE
5
228
100
AcDbEntity
8
0
100
AcDbLine
10
-52.933233676063324
20
74.589766323036642
30
1.1102230246251565e-15
11
-47.933233676103306
21
74.589766323036642
31
1.1102230246251565e-15
0
LINE
5
229
100
AcDbEntity
8
0
100
AcDbLine
10
-47.933233676103306
20
74.589766323036642
30
1.1102230246251565e-15
11
-47.933233676103306
21
73.639766323036639
31
1.1102230246251565e-15
0
LINE
5
230
100
AcDbEntity
8
0
100
AcDbLine
10
-47.933233676103306
20
73.639766323036639
30
1.1102230246251565e-15
11
-46.637718420255936
21
73.63480660180366
31
1.1102230246251565e-15
0
ARC
5
231
100
AcDbEntity
8
0
100
AcDbCircle
10
-46.633236927533311
20
73.834766323036646
30
1.1102230246251565e-15
40
0.2000000000000044
100
AcDbArc
50
179.99215373234603
51
268.73980600827446
0
LWPOLYLINE
5
232
100
AcDbEntity
8
0
100
AcDbPolyline
90
7
70
1
43
0.0
10
-46.833236927533221
20
80.834766323035652
42
-0.21649457668614691
10
-46.764809754483771
20
80.985393648606163
10
-47.933233676103306
20
80.985393648603647
10
-47.933233676103306
20
80.27976632303664
10
-52.933233676103306
20
80.27976632303664
10
-52.933233676103306
20
78.934766323036641
10
-46.833236927533321
20
78.934766323036655
0
LINE
5
233
100
AcDbEntity
8
0
100
AcDbLine
10
40.766766323896704
20
76.009766334808646
30
1.1102230246251565e-15
11
-45.233233041323317
21
76.00976633480866
31
1.1102230246251565e-15
0
ARC
5
234
100
AcDbEntity
8
0
100
AcDbCircle
10
-45.233233041313319
20
76.159766334807642
30
1.1102230246251565e-15
40
0.1499999999999968
100
AcDbArc
50
180
51
269.99999999618126
0
LINE
5
235
100
AcDbEntity
8
0
100
AcDbLine
10
-45.383233041313318
20
76.159766334808651
30
1.1102230246251565e-15
11
-45.383233041313318
21
77.334766323036462
31
1.1102230246251565e-15
0
LINE
5
236
100
AcDbEntity
8
0
100
AcDbLine
10
-45.383233041313318
20
77.334766323036462
30
1.1102230246251565e-15
11
-46.833236927533321
21
77.334766323036447
31
1.1102230246251565e-15
0
LINE
5
237
100
AcDbEntity
8
0
100
AcDbLine
10
-46.833236927533321
20
77.334766323036447
30
1.1102230246251565e-15
11
-46.833236927533321
21
76.434766295879641
31
1.1102230246251565e-15
0
ARC
5
238
100
AcDbEntity
8
0
100
AcDbCircle
10
-46.833236927533321
20
76.234766295879638
30
1.1102230246251565e-15
40
0.19999999999999574
100
AcDbArc
50
-89.999999997133941
51
90
0
LINE
5
239
100
AcDbEntity
8
0
100
AcDbLine
10
-46.833236927523316
20
76.034766295879649
30
1.1102230246251565e-15
11
-46.833236927327071
21
73.834776095846891
31
1.1102230246251565e-15
0
ARC
5
240
100
AcDbEntity
8
0
100
AcDbCircle
10
-46.633236927533304
20
73.834766323036646
30
1.1102230246251565e-15
40
0.20000000003253915
100
AcDbArc
50
179.9972002961693
51
269.99999999999795
0
LINE
5
241
100
AcDbEntity
8
0
100
AcDbLine
10
-46.633236927533311
20
73.634766323036644
30
1.1102230246251565e-15
11
-45.283233419233326
21
73.634766323036644
31
1.1102230246251565e-15
0
ARC
5
242
100
AcDbEntity
8
0
100
AcDbCircle
10
-45.283233419233319
20
73.834766323036632
30
1.1102230246251565e-15
40
0.19999999999999574
100
AcDbArc
50
-90.000000000002032
51
0.00028445913444363817
0
LINE
5
243
100
AcDbEntity
8
0
100
AcDbLine
10
-45.083233419235796
20
73.834767315989637
30
1.1102230246251565e-15
11
-45.083233419233324
21
74.284766323041652
31
1.1102230246251565e-15
0
ARC
5
244
100
AcDbEntity
8
0
100
AcDbCircle
10
-44.883233419233321
20
74.284766323041652
30
1.1102230246251565e-15
40
0.19999999999999574
100
AcDbArc
50
90.000000037242515
51
180
0
LINE
5
245
100
AcDbEntity
8
0
100
AcDbLine
10
-44.883233419363322
20
74.48476632304164
30
1.1102230246251565e-15
11
-44.733233676103325
21
74.484766323036652
31
1.1102230246251565e-15
0
LINE
5
246
100
AcDbEntity
8
0
100
AcDbLine
10
-44.733233676103325
20
74.484766323036652
30
1.1102230246251565e-15
11
39.916766580771714
21
74.484766323036638
31
1.1102230246251565e-15
0
ARC
5
247
100
AcDbEntity
8
0
100
AcDbCircle
10
39.916766580771707
20
74.284766323036635
30
1.1102230246251565e-15
40
0.20000000000010235
100
AcDbArc
50
-1.2074182490616497e-06
51
89.999999999997954
0
LINE
5
248
100
AcDbEntity
8
0
100
AcDbLine
10
40.116766580771809
20
74.284766319070187
30
1.1102230246251565e-15
11
40.116766581013707
21
73.634785472696635
31
1.1102230246251565e-15
0
ARC
5
249
100
AcDbEntity
8
0
100
AcDbCircle
10
40.316766580766703
20
73.634766323036644
30
1.1102230246251565e-15
40
0.20000000066977591
100
AcDbArc
50
179.99451402656052
51
269.39914045305687
0
LINE
5
250
100
AcDbEntity
8
0
100
AcDbLine
10
40.314669276262727
20
73.434766323023638
30
1.1102230246251565e-15
11
42.266766323896704
21
73.434766323416042
31
1.1102230246251565e-15
0
LINE
5
251
100
AcDbEntity
8
0
100
AcDbLine
10
42.266766323896704
20
73.434766323416042
30
1.1102230246251565e-15
11
42.266766323896704
21
77.334766323036433
31
1.1102230246251565e-15
0
LINE
5
252
100
AcDbEntity
8
0
100
AcDbLine
10
42.266766323896704
20
77.334766323036433
30
1.1102230246251565e-15
11
40.916766323896709
21
77.334766323036433
31
1.1102230246251565e-15
0
LINE
5
253
100
AcDbEntity
8
0
100
AcDbLine
10
40.916766323896709
20
77.334766323036433
30
1.1102230246251565e-15
11
40.916766323896709
21
76.159766334808637
31
1.1102230246251565e-15
0
ARC
5
254
100
AcDbEntity
8
0
100
AcDbCircle
10
40.766766323896704
20
76.159766334808637
30
1.1102230246251565e-15
40
0.1499999999999968
100
AcDbArc
50
-90
51
0
0
LWPOLYLINE
5
255
100
AcDbEntity
8
0
100
AcDbPolyline
90
22
70
1
43
0.0
10
-44.733233676103325
20
80.384766323031641
10
39.916766580695707
20
80.38476632303464
42
0.41421356244045215
10
40.116766580771703
20
80.584766323006647
10
40.116766580766722
20
80.834766323132641
42
-0.41421356223255362
10
40.316766580766703
20
81.034766323036649
10
42.266766323896704
20
81.034766323036649
10
42.266766323896704
20
77.534766323036436
10
40.916766323896709
20
77.534766323036436
10
40.916766323896603
20
78.709766256948342
42
0.41421356237581786
10
40.766766323896711
20
78.859766256949641
10
-45.233233041313319
20
78.859766256949754
42
0.41421356237602597
10
-45.383233041313318
20
78.709766256948143
10
-45.383233041313318
20
77.53476632303645
10
-46.833236927533321
20
77.53476632303645
10
-46.833236927533321
20
78.434766295879143
42
0.99999999999999989
10
-46.833236927533321
20
78.834766295879163
10
-46.833236927533299
20
80.834766323034614
42
-0.41421356237602164
10
-46.633236927533311
20
81.034766323036649
10
-45.283233419233326
20
81.034766323036663
42
-0.41421356244636387
10
-45.083233419233324
20
80.834766322986638
10
-45.083233419223212
20
80.584766323239663
42
0.41421356263525255
10
-44.883233419253308
20
80.384766323030661
0
ENDSEC
0
SECTION
2
OBJECTS
0
DICTIONARY
5
C
100
AcDbDictionary
3
ACAD_GROUP
350
D
3
ACAD_MLINESTYLE
350
17
0
DICTIONARY
5
D
100
AcDbDictionary
0
DICTIONARY
5
1A
330
C
100
AcDbDictionary
0
DICTIONARY
5
17
100
AcDbDictionary
0
ENDSEC
0
EOF
